<svg width="1000" height="1000" viewBox="0 0 1000 1000" version="1.1" xmlns="http://www.w3.org/2000/svg">
<path fill="#f9c071" d="M 1 1 C 12 0 24 1 36 0 C 323 1 610 0 897 0 C 931 0 965 0 998 1 C 999 77 998 153 999 230 C 999 464 999 698 999 932 C 998 954 999 976 998 998 C 971 999 944 999 917 999 C 807 999 696 998 585 999 C 451 999 317 999 183 999 C 122 999 62 999 1 998 C 0 922 0 845 0 768 C 0 554 0 340 0 126 C 1 84 0 42 1 1 Z" />
<path fill="#6d1837" d="M 548 144 C 553 140 560 140 566 143 C 572 148 577 154 579 162 C 581 168 579 174 574 178 C 564 187 553 194 544 204 C 538 210 533 218 534 227 C 535 239 542 250 548 260 C 563 250 580 240 597 232 C 615 223 634 216 655 217 C 670 217 685 222 696 232 C 703 238 707 248 705 257 C 704 267 699 275 694 283 C 680 305 660 324 640 341 C 648 342 655 344 662 345 C 670 331 680 317 692 307 C 701 300 711 295 722 296 C 731 297 739 304 744 312 C 747 318 752 323 758 324 C 767 325 774 320 782 317 C 804 307 830 304 854 310 C 884 318 910 343 918 374 C 923 391 920 409 913 425 C 908 438 899 450 886 456 C 876 462 863 463 851 459 C 837 454 825 445 814 434 C 803 423 792 413 778 405 C 781 411 782 418 779 424 C 775 432 766 437 758 440 C 751 479 739 517 724 554 C 701 614 670 670 633 722 C 631 725 629 727 625 728 C 606 737 585 737 564 732 C 533 726 504 709 483 684 C 478 677 473 671 471 663 C 408 693 343 721 278 747 C 270 751 261 755 253 757 C 235 762 216 764 199 758 C 185 753 172 743 164 731 C 154 716 148 698 146 681 C 142 657 143 634 146 611 C 150 583 157 556 170 531 C 170 529 170 527 171 525 C 171 518 175 510 181 505 C 186 499 192 495 195 489 C 198 481 196 473 198 466 C 200 457 206 451 213 447 C 220 443 227 442 234 439 C 238 438 242 436 245 433 C 247 423 249 413 251 403 C 252 398 253 393 256 389 C 260 384 268 382 274 384 C 280 387 286 390 293 393 C 296 387 300 381 306 377 C 318 368 335 367 348 375 C 349 376 351 377 352 377 C 357 373 362 367 366 362 C 372 357 381 356 388 359 C 394 361 397 367 402 371 C 406 376 410 380 416 383 C 420 382 423 378 427 375 C 434 368 443 362 453 365 C 465 334 488 309 512 288 C 503 273 494 258 489 241 C 486 228 487 214 492 201 C 498 186 510 173 522 162 C 530 156 539 149 548 144 Z" />
<path fill="#d2a7b1" d="M 552 151 C 555 148 560 149 564 152 L 563 152 C 547 164 529 175 516 191 C 517 192 517 192 518 192 C 514 191 511 191 507 191 C 519 174 535 162 552 151 Z" />
<path fill="#fde5e5" d="M 516 191 C 529 175 547 164 563 152 C 567 155 570 159 571 163 C 572 167 571 170 569 173 C 556 182 543 191 533 204 C 529 199 524 195 518 192 C 517 192 517 192 516 191 Z" />
<path fill="#d2a7b1" d="M 503 197 C 506 196 508 196 511 196 C 509 198 507 201 506 204 C 504 205 501 205 499 206 C 500 203 501 200 503 197 Z" />
<path fill="#fde5e5" d="M 511 196 C 518 197 526 202 530 208 C 530 209 529 210 529 210 C 522 206 514 203 506 204 C 507 201 509 198 511 196 Z" />
<path fill="#d2a7b1" d="M 497 213 C 499 211 502 210 505 209 C 504 213 504 218 504 222 C 501 222 499 221 496 221 C 496 218 496 216 497 213 Z" />
<path fill="#fde5e5" d="M 505 209 C 513 208 521 210 527 215 C 527 216 526 218 526 219 C 519 222 512 222 504 222 C 504 218 504 213 505 209 Z" />
<path fill="#ffffff" d="M 645 225 C 660 223 677 226 689 236 C 696 241 699 250 697 258 C 694 269 688 279 681 288 C 674 297 667 305 659 312 C 672 298 685 283 691 265 C 682 262 676 253 676 244 C 677 241 679 238 682 237 C 671 229 658 225 645 225 L 645 225 Z" />
<path fill="#fde5e5" d="M 504 227 C 511 227 518 227 525 225 C 526 239 533 251 540 263 C 542 268 545 272 548 276 C 544 278 540 281 536 281 C 531 281 526 278 523 274 C 514 259 506 244 504 227 Z" />
<path fill="#ffbf06" d="M 606 236 C 619 231 632 227 645 225 C 658 225 671 229 682 237 C 679 238 677 241 676 244 C 676 253 682 262 691 265 C 685 283 672 298 659 312 C 638 335 613 354 587 371 C 567 384 546 397 523 406 C 522 398 519 390 512 386 C 508 382 501 381 495 381 C 497 379 497 376 500 375 C 504 373 508 372 512 370 C 543 359 571 343 597 323 C 610 312 623 301 635 288 C 644 278 653 268 659 256 C 661 251 663 244 661 239 C 659 235 654 234 649 233 C 643 232 637 233 631 236 C 626 238 621 239 616 241 C 612 243 607 244 603 246 C 591 251 580 258 570 266 C 568 265 565 263 563 260 C 577 251 591 243 606 236 Z" />
<path fill="#d2a7b1" d="M 495 226 C 498 226 501 227 504 227 C 506 244 514 259 523 274 C 526 278 531 281 536 281 C 540 281 544 278 548 276 C 551 281 555 286 558 290 C 559 292 558 294 557 295 C 553 303 545 307 537 307 C 528 296 519 284 511 271 C 503 257 496 242 495 226 Z" />
<path fill="#6d1837" d="M 631 236 C 637 233 643 232 649 233 C 652 235 654 237 654 240 C 654 246 651 251 648 256 C 639 269 628 281 617 292 C 595 314 569 332 542 347 C 527 354 512 361 496 365 C 490 366 484 367 479 364 C 475 361 476 356 477 352 C 479 348 481 344 485 342 C 484 347 479 352 480 359 C 480 361 483 362 486 362 C 492 362 499 359 505 357 C 520 352 535 344 549 336 C 576 320 601 300 623 278 C 632 269 641 260 647 249 C 649 246 651 242 650 239 C 648 235 643 236 640 236 C 637 236 633 238 631 236 Z" />
<path fill="#d38c16" d="M 649 233 C 654 234 659 235 661 239 C 663 244 661 251 659 256 C 653 268 644 278 635 288 C 623 301 610 312 597 323 C 571 343 543 359 512 370 C 508 372 504 373 500 375 C 497 376 497 379 495 381 C 490 384 484 386 478 384 C 470 381 467 373 461 369 C 467 351 478 335 491 321 C 499 311 508 302 517 294 C 521 300 525 306 530 311 C 531 313 532 315 535 315 C 547 317 559 309 565 299 C 566 295 568 290 565 287 C 561 280 556 274 552 267 C 555 264 559 263 563 260 C 565 263 568 265 570 266 C 568 268 566 270 565 272 C 575 268 584 261 594 256 C 601 252 608 248 614 244 C 616 244 616 242 616 241 C 621 239 626 238 631 236 C 633 238 637 236 640 236 C 643 236 648 235 650 239 C 651 242 649 246 647 249 C 641 260 632 269 623 278 C 601 300 576 320 549 336 C 535 344 520 352 505 357 C 499 359 492 362 486 362 C 483 362 480 361 480 359 C 479 352 484 347 485 342 C 481 344 479 348 477 352 C 476 356 475 361 479 364 C 484 367 490 366 496 365 C 512 361 527 354 542 347 C 569 332 595 314 617 292 C 628 281 639 269 648 256 C 651 251 654 246 654 240 C 654 237 652 235 649 233 Z" />
<path fill="#6d1837" d="M 603 246 C 607 244 612 243 616 241 C 616 242 616 244 614 244 C 608 248 601 252 594 256 C 584 261 575 268 565 272 C 566 270 568 268 570 266 C 580 258 591 251 603 246 Z" />
<path fill="#c1678b" d="M 704 308 C 710 304 719 302 725 306 C 732 309 736 315 740 320 C 744 327 752 333 760 333 C 771 333 780 326 790 322 C 808 315 828 313 847 317 C 866 321 885 332 897 348 C 907 361 913 377 912 394 C 910 385 907 376 902 368 C 897 370 891 370 886 368 C 875 364 867 354 865 342 C 865 339 866 335 865 331 C 861 328 856 327 851 326 C 832 321 811 319 793 327 C 785 330 778 335 770 337 C 763 339 755 340 748 336 C 743 333 741 328 738 323 C 733 317 727 311 719 309 C 714 307 709 307 704 308 Z" />
<path fill="#a5245a" d="M 704 308 C 709 307 714 307 719 309 C 727 311 733 317 738 323 C 741 328 743 333 748 336 C 755 340 763 339 770 337 C 778 335 785 330 793 327 C 811 319 832 321 851 326 C 856 327 861 328 865 331 C 866 335 865 339 865 342 C 867 354 875 364 886 368 C 891 370 897 370 902 368 C 907 376 910 385 912 394 C 912 402 910 409 908 416 C 907 419 907 421 905 423 C 900 428 895 432 890 434 C 878 439 865 439 854 435 C 848 432 842 429 837 424 C 827 416 821 405 813 396 C 804 385 793 373 779 367 C 768 363 756 365 745 369 C 738 372 732 376 725 377 C 712 380 698 374 689 364 C 681 357 678 346 678 335 C 680 332 682 329 684 326 C 690 320 696 313 704 308 Z" />
<path fill="#952150" d="M 664 356 C 670 350 673 342 678 335 C 678 346 681 357 689 364 C 698 374 712 380 725 377 C 732 376 738 372 745 369 C 756 365 768 363 779 367 C 793 373 804 385 813 396 C 821 405 827 416 837 424 C 842 429 848 432 854 435 C 865 439 878 439 890 434 C 895 432 900 428 905 423 C 903 429 900 433 896 437 C 889 447 878 453 867 453 C 854 453 843 447 834 440 C 824 433 816 423 806 416 C 796 407 785 398 772 393 C 762 389 750 387 740 391 C 728 395 720 406 715 417 C 715 419 712 419 711 419 C 687 419 664 416 641 412 C 619 408 596 402 575 394 C 574 393 572 392 571 391 C 574 389 577 387 581 385 C 583 386 584 387 586 388 C 599 395 614 395 628 390 C 643 383 655 370 664 356 Z" />
<path fill="#ad1a36" d="M 618 360 C 623 356 627 352 632 349 C 641 349 649 351 657 353 C 649 364 640 374 628 380 C 625 373 621 366 618 360 Z" />
<path fill="#d2a7b1" d="M 589 380 C 596 374 605 369 612 363 C 616 370 620 376 622 383 C 616 385 610 386 604 385 C 599 385 594 383 589 380 Z" />
<path fill="#ffe8a8" d="M 373 369 C 375 366 379 366 382 366 C 379 366 376 368 374 370 C 369 375 365 381 360 386 C 359 385 359 384 358 384 C 363 379 368 374 373 369 Z" />
<path fill="#ffc208" d="M 374 370 C 376 368 379 366 382 366 C 386 367 389 370 392 373 C 384 374 377 377 373 383 C 369 386 368 391 365 395 C 363 392 362 389 360 386 C 365 381 369 375 374 370 Z" />
<path fill="#bbeec3" d="M 415 392 C 428 391 433 376 445 373 C 449 372 452 374 455 375 C 449 376 444 378 440 382 C 434 385 431 391 425 394 C 422 396 418 393 415 392 Z" />
<path fill="#3dce55" d="M 440 382 C 444 378 449 376 455 375 C 458 378 461 382 464 385 C 468 389 473 391 477 393 C 481 395 485 397 490 396 C 496 396 501 393 508 393 C 513 398 514 405 515 412 C 479 395 438 393 400 402 C 364 411 330 431 304 459 C 281 484 265 515 256 547 C 252 563 249 580 247 597 C 242 593 238 588 235 581 C 234 573 238 564 243 557 C 249 552 254 545 256 537 C 257 532 256 527 255 522 C 254 516 252 512 250 507 C 250 500 252 492 256 486 C 263 478 272 472 283 469 C 293 467 301 460 305 451 C 310 444 309 434 314 427 C 318 418 327 414 336 413 C 343 413 350 416 358 415 C 363 414 368 411 372 408 C 377 403 379 395 384 390 C 389 386 396 384 403 385 C 407 388 410 391 415 392 C 418 393 422 396 425 394 C 431 391 434 385 440 382 Z" />
<path fill="#f8b0b4" d="M 306 389 C 313 381 324 377 335 379 C 325 379 315 383 309 391 C 302 397 300 406 299 415 C 297 406 300 396 306 389 Z" />
<path fill="#ed1b24" d="M 309 391 C 315 383 325 379 335 379 C 346 381 355 391 357 402 C 350 406 341 402 334 402 C 326 401 317 403 311 408 C 307 412 304 417 302 422 C 301 419 300 417 299 415 C 300 406 302 397 309 391 Z" />
<path fill="#bbeec3" d="M 375 395 C 378 389 382 385 387 383 C 393 381 398 383 403 385 C 396 384 389 386 384 390 C 379 395 377 403 372 408 C 368 411 363 414 358 415 C 350 416 343 413 336 413 C 327 414 318 418 314 427 C 309 434 310 444 305 451 C 301 460 293 467 283 469 C 272 472 263 478 256 486 C 252 492 250 500 250 507 C 248 499 249 491 253 485 C 258 475 267 469 278 466 C 290 464 300 455 305 444 C 308 437 308 428 312 422 C 315 415 322 411 329 411 C 338 410 346 414 355 412 C 364 410 371 403 375 395 Z" />
<path fill="#bbeec3" d="M 495 391 C 499 389 504 390 508 393 C 501 393 496 396 490 396 C 485 397 481 395 477 393 C 483 394 489 393 495 391 Z" />
<path fill="#ffe8a8" d="M 262 397 C 263 392 269 391 272 393 C 270 395 268 396 267 399 C 266 404 265 409 264 414 C 272 421 269 435 259 439 C 258 443 257 448 256 452 C 254 453 253 454 251 454 C 251 454 250 453 250 453 C 254 434 258 415 262 397 Z" />
<path fill="#ffc208" d="M 272 393 C 277 395 281 397 286 399 C 290 408 290 419 286 428 C 280 440 268 448 256 452 C 257 448 258 443 259 439 C 269 435 272 421 264 414 C 265 409 266 404 267 399 C 268 396 270 395 272 393 Z" />
<path fill="#c71b2b" d="M 546 405 C 552 401 558 399 564 395 C 571 399 579 402 587 405 C 584 409 589 415 593 416 C 632 428 673 436 714 435 C 729 434 744 433 757 428 C 759 427 762 426 763 424 C 763 422 762 419 761 417 C 759 416 756 415 754 414 C 755 412 757 410 757 407 C 758 403 756 400 755 397 C 759 398 763 397 766 400 C 769 404 772 408 773 414 C 774 418 772 422 768 425 C 762 431 754 434 745 436 C 724 441 702 441 680 440 C 642 437 605 429 570 416 C 562 413 554 409 546 405 Z" />
<path fill="#ab1a39" d="M 742 398 C 744 398 746 397 747 398 C 749 400 751 403 751 406 C 750 410 746 413 742 414 C 736 416 730 418 724 418 C 728 410 734 402 742 398 Z" />
<path fill="#d48e15" d="M 286 399 C 287 400 289 401 290 402 C 288 413 292 425 299 433 C 296 444 288 454 278 457 C 273 458 267 460 262 463 C 260 462 257 462 254 461 C 255 458 256 455 256 452 C 268 448 280 440 286 428 C 290 419 290 408 286 399 Z" />
<path fill="#ffe6a9" d="M 356 429 C 392 409 434 401 475 408 C 498 413 521 422 539 438 C 524 429 508 421 491 417 C 456 407 418 408 384 422 C 377 424 370 428 363 432 C 362 439 358 445 354 451 C 346 458 338 465 328 469 C 324 470 320 471 315 470 C 291 497 274 531 265 565 C 260 580 258 596 256 611 C 257 572 266 532 286 498 C 303 470 327 445 356 429 Z" />
<path fill="#ed1b24" d="M 593 416 C 589 415 584 409 587 405 C 603 410 619 414 635 417 C 657 422 679 424 701 425 C 711 425 720 425 729 424 C 738 423 747 420 754 414 C 756 415 759 416 761 417 C 762 419 763 422 763 424 C 762 426 759 427 757 428 C 744 433 729 434 714 435 C 673 436 632 428 593 416 Z" />
<path fill="#c71b2b" d="M 524 415 C 528 413 533 410 537 409 C 567 425 600 435 632 441 C 651 445 670 447 688 448 C 707 449 725 448 742 445 C 745 444 747 444 749 444 C 749 445 749 446 748 446 C 748 447 748 448 748 448 C 736 453 725 456 712 458 C 670 465 627 463 585 456 C 580 456 575 457 570 459 C 558 441 542 427 524 416 C 524 416 524 415 524 415 Z" />
<path fill="#feb703" d="M 384 422 C 418 408 456 407 491 417 C 508 421 524 429 539 438 C 544 441 548 445 551 449 C 560 467 566 485 567 504 C 569 520 570 537 564 552 C 558 569 545 583 530 591 C 465 628 398 659 330 689 C 322 692 314 696 306 699 C 299 701 291 702 285 699 C 278 697 272 692 268 686 C 265 682 263 677 259 673 C 258 671 258 668 258 666 C 256 647 255 629 256 611 C 258 596 260 580 265 565 C 274 531 291 497 315 470 C 320 471 324 470 328 469 C 338 465 346 458 354 451 C 358 445 362 439 363 432 C 370 428 377 424 384 422 Z" />
<path fill="#6d1837" d="M 354 461 C 378 440 409 426 441 427 C 457 427 473 431 488 437 C 483 436 478 434 473 433 C 451 428 428 430 406 437 C 380 446 357 464 339 485 C 311 518 294 559 289 603 C 289 608 288 614 288 619 C 287 599 289 579 294 560 C 303 522 324 486 354 461 Z" />
<path fill="#bbeec3" d="M 225 451 C 231 450 237 448 243 445 C 242 446 242 448 242 449 L 242 449 L 242 448 C 232 451 220 454 215 464 C 209 473 213 484 209 494 C 205 504 194 508 189 517 C 184 525 184 535 188 543 C 191 550 197 554 200 561 C 200 561 200 562 200 562 C 201 569 199 577 193 581 C 187 586 183 593 183 602 C 182 605 184 609 185 612 C 181 610 178 607 177 602 C 175 594 180 587 186 582 C 193 575 196 564 192 555 C 191 550 186 547 184 542 C 181 537 179 531 179 526 C 180 519 184 513 189 508 C 193 505 197 502 200 498 C 204 492 205 485 205 479 C 205 474 205 468 208 464 C 211 457 218 453 225 451 Z" />
<path fill="#f7989c" d="M 748 448 C 748 448 748 447 748 446 C 746 459 743 471 740 483 C 734 505 727 525 719 546 C 715 546 712 547 708 547 L 708 547 C 707 541 707 534 709 528 C 713 521 719 516 726 512 C 728 510 729 507 730 504 C 736 486 742 467 748 448 Z" />
<path fill="#3dce55" d="M 215 464 C 220 454 232 451 242 448 L 242 449 C 241 453 240 458 239 462 C 229 465 220 472 215 482 C 208 494 210 511 218 522 C 211 526 206 535 209 543 C 202 546 199 554 200 561 C 197 554 191 550 188 543 C 184 535 184 525 189 517 C 194 508 205 504 209 494 C 213 484 209 473 215 464 Z" />
<path fill="#ed1b24" d="M 712 458 C 725 456 736 453 748 448 C 742 467 736 486 730 504 C 729 507 728 510 726 512 C 719 516 713 521 709 528 C 707 534 707 541 708 547 C 669 550 630 543 594 530 C 592 505 584 480 570 459 C 575 457 580 456 585 456 C 627 463 670 465 712 458 Z" />
<path fill="#d28712" d="M 551 449 C 561 459 568 471 573 483 C 583 504 587 528 586 552 C 586 569 578 586 566 598 C 557 608 545 613 534 620 C 449 667 359 705 269 742 C 250 750 229 755 208 751 C 191 748 177 736 169 721 C 171 722 173 724 175 723 C 177 722 178 721 180 719 C 188 729 198 737 210 739 C 222 742 233 738 242 731 C 255 721 262 704 261 688 C 261 683 259 678 259 673 C 263 677 265 682 268 686 C 272 692 278 697 285 699 C 291 702 299 701 306 699 C 314 696 322 692 330 689 C 398 659 465 628 530 591 C 545 583 558 569 564 552 C 570 537 569 520 567 504 C 566 485 560 467 551 449 Z" />
<path fill="#d4a986" d="M 248 461 C 249 458 249 455 250 453 C 250 453 251 454 251 454 C 253 454 254 453 256 452 C 256 455 255 458 254 461 C 252 461 250 461 248 461 Z" />
<path fill="#6d1837" d="M 807 464 C 810 463 813 463 816 464 C 826 467 835 475 837 486 C 838 490 837 497 832 499 C 826 501 821 497 817 493 C 811 488 806 482 803 475 C 801 471 803 466 807 464 Z" />
<path fill="#d78b13" d="M 463 466 C 468 464 474 469 474 474 C 475 479 472 484 467 485 C 463 486 458 483 457 478 C 455 473 458 467 463 466 Z" />
<path fill="#f8b0b4" d="M 224 483 C 230 474 242 468 253 470 C 253 470 252 470 252 470 C 245 471 238 474 233 478 C 224 486 220 498 221 509 L 221 510 C 218 501 219 491 224 483 Z" />
<path fill="#ed1b24" d="M 233 478 C 238 474 245 471 252 470 C 248 476 243 482 241 488 C 239 497 240 506 244 514 C 246 519 247 524 246 529 C 235 527 225 520 221 509 C 220 498 224 486 233 478 Z" />
<path fill="#a5245a" d="M 810 470 C 812 471 813 471 815 471 C 814 471 813 471 812 471 C 820 475 828 483 829 492 C 824 491 821 486 817 483 C 814 479 810 475 810 470 Z" />
<path fill="#b95c81" d="M 812 471 C 813 471 814 471 815 471 C 822 474 828 480 830 488 C 830 489 830 491 829 492 C 828 483 820 475 812 471 Z" />
<path fill="#6d1837" d="M 773 482 C 776 481 779 482 781 484 C 791 491 800 499 806 510 C 810 517 813 527 809 535 C 805 543 796 546 788 545 C 781 544 776 539 772 533 C 768 526 771 519 772 511 C 773 505 770 498 768 493 C 766 488 769 483 773 482 Z" />
<path fill="#c1678b" d="M 774 489 C 778 491 780 493 783 496 C 792 503 801 512 803 524 C 804 529 802 535 796 537 L 795 536 C 797 533 799 530 798 527 C 799 517 793 509 787 502 C 784 498 780 494 776 491 C 775 491 775 490 774 489 Z" />
<path fill="#a5245a" d="M 776 491 C 780 494 784 498 787 502 C 793 509 799 517 798 527 C 799 530 797 533 795 536 L 796 537 L 796 537 C 792 538 788 538 784 536 C 781 533 778 530 778 526 C 778 519 780 512 779 505 C 779 500 777 496 776 491 Z" />
<path fill="#d78b13" d="M 513 509 C 516 508 519 511 519 515 C 518 518 515 520 512 518 C 508 516 509 510 513 509 Z" />
<path fill="#d78b13" d="M 381 511 C 386 510 392 515 391 521 C 392 526 386 532 381 531 C 375 530 372 523 374 518 C 375 514 377 512 381 511 Z" />
<path fill="#bbeec3" d="M 255 522 C 256 527 257 532 256 537 C 254 545 249 552 243 557 C 238 564 234 573 235 581 C 233 575 233 567 236 560 C 239 554 245 549 248 544 C 253 537 256 529 255 522 Z" />
<path fill="#d78b13" d="M 451 524 C 458 522 465 527 466 534 C 467 540 463 547 457 548 C 449 550 442 543 442 535 C 442 530 446 525 451 524 Z" />
<path fill="#f2c9b7" d="M 217 537 C 218 533 222 531 225 530 C 224 531 222 533 222 535 C 221 539 223 543 223 547 C 224 551 219 552 217 553 C 212 556 211 563 214 568 C 209 565 207 557 211 553 C 212 550 215 551 217 552 C 221 552 223 547 221 545 C 219 542 216 540 217 537 Z" />
<path fill="#b84e34" d="M 222 535 C 222 533 224 531 225 530 C 230 533 236 536 242 537 C 240 540 239 542 237 544 C 232 541 227 539 222 535 Z" />
<path fill="#ffbf06" d="M 594 530 C 630 543 669 550 708 547 L 708 547 C 709 550 709 553 710 555 C 699 583 686 610 672 636 C 665 636 658 635 650 635 C 654 622 656 609 652 597 C 651 593 648 588 644 587 C 639 587 635 590 632 594 C 623 604 617 616 612 629 C 594 625 577 621 561 614 C 576 604 588 588 593 569 C 596 557 595 543 594 530 Z" />
<path fill="#d76531" d="M 222 535 C 227 539 232 541 237 544 C 231 550 227 557 225 566 C 224 571 225 577 226 583 C 219 589 215 598 212 606 C 210 606 208 606 206 607 C 206 602 207 599 210 595 C 210 595 210 595 210 594 C 211 592 210 590 209 589 C 208 583 210 578 214 575 C 216 573 216 570 214 569 C 214 568 214 568 214 568 C 211 563 212 556 217 553 C 219 552 224 551 223 547 C 223 543 221 539 222 535 Z" />
<path fill="#dc913e" d="M 174 543 C 176 547 179 551 182 554 C 185 558 186 564 184 569 C 182 574 177 577 174 581 C 168 589 165 600 170 609 C 173 616 179 620 186 621 C 184 628 184 636 187 643 C 188 647 190 650 190 654 C 189 656 186 657 184 659 C 177 663 171 668 167 675 C 154 632 160 586 174 543 Z" />
<path fill="#ffe18f" d="M 708 547 C 712 547 715 546 719 546 C 707 577 693 607 677 636 L 677 636 C 675 636 673 636 672 636 L 672 636 C 686 610 699 583 710 555 C 709 553 709 550 708 547 Z" />
<path fill="#d78b13" d="M 333 554 C 336 553 339 557 338 560 C 337 563 333 564 331 562 C 329 560 329 555 333 554 Z" />
<path fill="#d78b13" d="M 529 560 C 534 558 539 563 538 568 C 537 573 532 576 528 574 C 523 571 523 562 529 560 Z" />
<path fill="#3dce55" d="M 200 562 C 201 565 202 567 203 570 C 201 572 199 575 199 578 C 197 582 198 587 200 591 C 195 596 195 602 196 608 C 194 610 192 611 191 613 C 189 613 187 612 185 612 C 184 609 182 605 183 602 C 183 593 187 586 193 581 C 199 577 201 569 200 562 Z" />
<path fill="#f2c9b7" d="M 214 569 C 216 570 216 573 214 575 C 210 578 208 583 209 589 C 207 586 206 582 208 579 C 209 576 212 575 214 574 C 215 572 215 570 214 569 Z" />
<path fill="#b95033" d="M 217 584 C 219 583 219 585 219 586 C 219 588 216 589 215 587 C 214 586 215 584 217 584 Z" />
<path fill="#feca36" d="M 632 594 C 635 590 639 587 644 587 C 648 588 651 593 652 597 C 656 609 654 622 650 635 L 650 635 C 637 633 624 631 611 629 L 612 629 C 617 616 623 604 632 594 Z" />
<path fill="#f8b0b4" d="M 219 615 C 220 606 224 598 230 592 C 231 592 232 594 232 594 L 232 595 C 226 602 223 612 222 622 C 222 632 225 643 232 652 C 222 643 217 628 219 615 Z" />
<path fill="#f2c9b7" d="M 210 594 C 210 595 210 595 210 595 C 207 599 206 602 206 607 C 204 606 204 603 204 602 C 204 598 208 596 210 594 Z" />
<path fill="#ed1b24" d="M 232 595 C 236 600 241 604 247 607 C 246 625 247 644 248 662 C 242 660 236 656 232 652 C 225 643 222 632 222 622 C 223 612 226 602 232 595 Z" />
<path fill="#d78b13" d="M 374 599 C 382 596 390 606 387 613 C 386 621 377 625 371 620 C 363 615 365 602 374 599 Z" />
<path fill="#d78b13" d="M 440 604 C 443 602 447 605 446 609 C 447 612 442 615 440 612 C 437 610 437 606 440 604 Z" />
<path fill="#ed1b24" d="M 527 633 C 539 627 550 621 561 614 C 577 621 594 625 612 629 L 611 629 C 608 638 604 648 604 659 C 605 663 607 668 611 668 C 618 670 624 667 629 663 C 639 656 646 646 650 635 L 650 635 C 658 635 665 636 672 636 L 672 636 C 660 659 646 681 632 702 C 627 709 623 717 615 720 C 602 725 588 726 574 726 C 546 721 520 709 500 690 C 500 690 501 690 502 690 C 519 704 540 715 563 720 C 564 720 566 719 568 718 C 564 715 560 712 556 709 C 545 700 535 689 528 677 C 526 674 523 670 522 666 C 521 661 523 657 523 653 C 525 646 526 640 527 633 Z" />
<path fill="#f2c9b7" d="M 196 621 C 198 618 201 614 206 615 L 205 616 C 198 621 195 629 196 637 C 197 643 200 647 202 652 C 203 657 201 661 197 663 C 192 666 187 670 183 675 C 178 680 175 687 175 695 C 174 692 171 689 173 685 C 175 676 182 669 190 665 C 194 663 198 659 199 655 C 199 650 197 645 195 641 C 192 635 192 627 196 621 Z" />
<path fill="#d76531" d="M 205 616 C 206 615 208 615 210 615 C 210 619 210 623 210 627 C 209 645 219 661 234 669 C 237 671 240 675 240 679 C 240 689 237 701 229 708 C 223 714 214 718 205 717 C 197 717 190 714 184 709 C 180 705 177 700 175 695 C 175 687 178 680 183 675 C 187 670 192 666 197 663 C 201 661 203 657 202 652 C 200 647 197 643 196 637 C 195 629 198 621 205 616 Z" />
<path fill="#b84e34" d="M 210 627 C 212 640 218 653 229 661 C 235 666 242 669 249 671 C 251 674 250 678 251 682 C 253 691 252 701 248 709 C 243 720 233 729 222 731 C 212 733 202 728 195 722 C 191 718 187 714 184 709 C 190 714 197 717 205 717 C 214 718 223 714 229 708 C 237 701 240 689 240 679 C 240 675 237 671 234 669 C 219 661 209 645 210 627 Z" />
<path fill="#f0474e" d="M 604 659 C 604 648 608 638 611 629 C 624 631 637 633 650 635 C 646 646 639 656 629 663 C 624 667 618 670 611 668 C 607 668 605 663 604 659 Z" />
<path fill="#c71b2b" d="M 479 659 C 495 651 511 642 527 633 C 526 640 525 646 523 653 C 523 657 521 661 522 666 C 523 670 526 674 528 677 C 535 689 545 700 556 709 C 560 712 564 715 568 718 C 566 719 564 720 563 720 C 540 715 519 704 502 690 C 501 690 500 690 500 690 L 500 690 C 494 685 489 678 484 672 C 482 668 479 664 479 659 Z" />
<path fill="#feb703" d="M 153 636 C 153 652 156 668 162 684 C 165 697 172 709 180 719 C 178 721 177 722 175 723 C 173 724 171 722 169 721 C 158 704 154 684 153 664 C 152 654 151 645 153 636 Z" />
<path fill="#f7989c" d="M 672 636 C 673 636 675 636 677 636 C 662 664 645 691 627 716 C 626 718 624 720 622 721 C 607 727 590 728 574 726 C 588 726 602 725 615 720 C 623 717 627 709 632 702 C 646 681 660 659 672 636 Z" />
<path fill="#b95033" d="M 205 642 C 206 642 208 642 208 644 C 209 646 207 647 205 646 C 203 645 205 643 205 642 Z" />
<path fill="#d78b13" d="M 344 660 C 346 658 349 661 349 664 C 349 666 346 668 344 666 C 341 665 341 661 344 660 Z" />
<path fill="#6d1837" d="M 203 668 C 204 664 207 661 211 661 C 215 661 218 664 220 667 C 224 667 229 668 232 672 C 234 676 233 680 230 683 C 230 682 230 681 230 680 C 231 674 225 671 220 674 C 219 675 217 678 215 676 C 212 675 213 673 214 671 C 214 669 213 667 211 666 C 209 664 206 666 204 667 L 203 668 Z" />
<path fill="#f2c9b7" d="M 204 667 C 206 666 209 664 211 666 C 213 667 214 669 214 671 C 211 668 208 667 204 667 Z" />
<path fill="#f2c9b7" d="M 220 674 C 225 671 231 674 230 680 C 228 676 225 674 220 674 Z" />
<path fill="#b95033" d="M 204 681 C 205 680 206 681 207 682 C 208 684 206 686 204 685 C 202 684 202 682 204 681 Z" />
<path fill="#b95033" d="M 235 685 C 237 686 238 688 237 690 C 236 690 235 690 234 690 C 234 689 234 687 235 685 Z" />
<path fill="#b95033" d="M 189 690 C 190 690 191 690 192 691 C 192 692 191 693 191 694 C 190 694 189 694 188 694 C 187 693 188 691 189 690 Z" />
<path fill="#6d1837" d="M 214 698 C 217 694 222 691 227 693 C 231 693 233 698 232 702 C 232 700 231 699 230 698 C 226 695 220 698 220 702 C 219 704 220 707 217 708 C 215 709 213 706 212 704 C 209 701 204 703 204 707 C 203 708 203 710 203 711 C 202 708 200 704 203 701 C 205 697 210 696 214 698 Z" />
<path fill="#f2c9b7" d="M 220 702 C 220 698 226 695 230 698 C 226 698 222 700 220 702 Z" />
<path fill="#f2c9b7" d="M 204 707 C 204 703 209 701 212 704 C 209 704 206 704 204 707 Z" />
<path fill="#cd8d67" d="M 394 847 C 438 846 482 846 527 846 C 592 847 658 849 724 855 C 740 857 755 858 771 862 C 775 863 779 864 782 867 C 784 870 780 871 778 872 C 770 875 761 876 752 878 C 723 882 693 884 663 886 C 597 889 530 890 463 890 C 395 890 328 888 262 883 C 241 881 220 879 200 875 C 195 874 189 873 185 870 C 184 867 187 865 189 865 C 200 860 212 859 224 857 C 268 852 312 850 357 848 C 369 848 381 848 394 847 Z" />
</svg>
