<?xml version="1.0" encoding="UTF-8" ?>
<!DOCTYPE svg PUBLIC "-//W3C//DTD SVG 1.1//EN" "http://www.w3.org/Graphics/SVG/1.1/DTD/svg11.dtd">
<svg width="1000pt" height="1000pt" viewBox="0 0 1000 1000" version="1.1" xmlns="http://www.w3.org/2000/svg">
<path fill="#e9c2ff" d="M 0 0 L 1000 0 L 1000 1000 L 0 1000 L 0 0 Z" />
<path fill="#000072" d="M 336 180 C 375 170 416 162 457 160 C 481 160 506 160 529 167 C 538 169 547 173 554 179 C 561 186 566 195 571 203 C 590 239 599 279 604 320 C 607 349 607 379 606 408 C 603 407 600 406 596 406 C 598 363 596 321 587 279 C 582 256 574 232 563 211 C 560 204 556 197 552 191 C 548 186 543 183 537 181 C 527 176 515 173 503 172 C 474 168 444 170 415 174 C 373 180 332 190 292 203 C 268 211 245 221 222 233 C 202 244 182 256 166 273 C 160 280 155 289 155 299 C 154 306 157 313 159 320 C 163 334 169 347 173 361 C 188 406 192 453 193 500 C 190 502 187 505 187 509 C 187 514 190 518 193 520 C 193 544 193 567 191 590 C 187 627 178 663 174 699 C 173 709 171 719 174 728 C 178 739 186 747 194 755 C 210 769 229 779 249 787 C 284 802 322 812 360 817 C 392 821 425 822 456 815 C 465 813 475 811 482 805 C 486 802 489 798 491 794 C 496 785 501 777 505 768 C 507 770 510 772 513 774 C 509 783 504 791 500 800 C 494 810 485 817 474 821 C 442 831 407 831 373 829 C 332 825 290 815 251 799 C 230 790 209 780 191 765 C 180 756 169 746 165 732 C 161 722 162 711 163 701 C 168 657 180 615 182 572 C 184 519 184 465 175 412 C 171 388 165 365 156 342 C 152 330 147 318 145 306 C 144 294 147 282 154 272 C 158 266 164 261 169 256 C 185 242 203 231 222 222 C 258 204 296 190 336 180 Z" />
<path fill="#80deff" d="M 415 174 C 444 170 474 168 503 172 C 515 173 527 176 537 181 C 543 183 548 186 552 191 C 552 193 552 194 553 195 C 566 232 572 272 574 311 C 574 311 573 310 573 310 C 569 298 560 288 548 283 C 542 280 534 280 528 283 C 520 287 514 295 513 303 C 511 312 513 322 517 330 C 518 335 521 341 518 346 C 514 352 506 353 500 351 C 493 349 487 346 483 340 C 478 334 479 325 480 318 C 482 303 483 287 476 273 C 475 272 474 271 474 269 C 491 261 508 252 523 240 C 531 234 538 228 542 219 C 544 213 544 206 540 201 C 536 194 528 190 521 188 C 507 184 493 183 479 183 C 446 183 413 188 381 194 C 340 202 300 214 262 230 C 243 238 223 247 206 259 C 198 265 189 272 183 280 C 179 286 177 293 179 299 C 180 306 185 310 191 313 C 200 318 211 320 221 321 C 225 333 228 345 231 357 L 231 357 C 223 358 215 361 210 366 C 204 371 201 380 202 387 C 204 392 204 397 204 402 C 205 411 206 420 206 430 C 203 430 200 431 197 432 C 193 433 193 439 196 441 C 200 443 203 440 207 440 C 207 446 207 452 207 458 C 204 459 200 460 200 464 C 199 468 204 471 208 469 C 208 478 208 486 208 495 C 203 495 197 497 193 500 C 192 453 188 406 173 361 C 169 347 163 334 159 320 C 157 313 154 306 155 299 C 155 289 160 280 166 273 C 182 256 202 244 222 233 C 245 221 268 211 292 203 C 332 190 373 180 415 174 Z" />
<path fill="#000072" d="M 381 194 C 413 188 446 183 479 183 C 493 183 507 184 521 188 C 528 190 536 194 540 201 C 544 206 544 213 542 219 C 538 228 531 234 523 240 C 508 252 491 261 474 269 C 474 271 475 272 476 273 C 483 287 482 303 480 318 C 479 325 478 334 483 340 C 487 346 493 349 500 351 C 506 353 514 352 518 346 C 521 341 518 335 517 330 C 513 322 511 312 513 303 C 514 295 520 287 528 283 C 534 280 542 280 548 283 C 560 288 569 298 573 310 C 573 310 574 311 574 311 C 576 313 576 316 577 318 C 584 346 585 375 584 403 C 581 403 577 403 574 402 C 574 384 574 366 572 348 C 571 351 569 354 568 356 C 562 365 555 372 547 378 C 531 388 512 393 494 393 C 468 394 444 387 419 388 C 407 389 396 391 386 396 C 371 402 357 410 341 410 C 323 410 307 402 290 397 C 290 394 290 391 289 388 C 307 392 324 402 342 401 C 364 400 382 385 403 381 C 423 377 444 381 465 383 C 484 385 503 386 522 380 C 529 378 535 375 541 372 C 553 364 563 353 567 339 C 572 325 567 307 556 296 C 551 292 544 288 537 288 C 531 288 526 292 523 296 C 518 303 518 312 521 319 C 522 327 526 333 527 341 C 527 348 522 354 516 357 C 508 360 499 359 492 356 C 484 352 476 346 473 337 C 470 325 474 314 474 303 C 474 292 472 281 466 272 C 452 279 437 284 423 289 C 423 300 423 312 418 322 C 413 332 403 338 393 343 C 382 349 371 354 358 355 C 349 355 339 352 331 346 C 323 342 316 335 306 334 C 301 333 295 334 292 338 C 288 343 287 349 284 354 C 283 350 282 345 281 341 C 281 340 281 340 281 339 C 283 334 287 328 293 326 C 304 322 315 326 325 331 C 334 337 342 344 352 345 C 365 346 377 341 388 335 C 397 331 405 326 410 318 C 414 310 414 301 414 292 C 369 306 323 316 276 321 C 257 322 239 323 221 321 C 211 320 200 318 191 313 C 185 310 180 306 179 299 C 177 293 179 286 183 280 C 189 272 198 265 206 259 C 223 247 243 238 262 230 C 300 214 340 202 381 194 Z" />
<path fill="#5a9bd5" d="M 552 191 C 556 197 560 204 563 211 C 574 232 582 256 587 279 C 596 321 598 363 596 406 C 592 404 588 403 584 403 C 585 375 584 346 577 318 C 576 316 576 313 574 311 C 572 272 566 232 553 195 C 552 194 552 193 552 191 Z" />
<path fill="#80deff" d="M 433 196 C 453 194 472 192 492 194 C 503 194 514 196 525 200 C 529 202 533 205 533 210 C 533 216 529 221 525 225 C 516 234 505 241 494 248 C 485 253 476 257 466 261 C 456 252 438 249 426 258 C 419 264 416 272 415 281 C 406 284 397 286 388 289 C 358 297 328 304 297 308 C 274 311 252 313 230 311 C 219 311 208 309 198 305 C 194 303 190 301 188 297 C 187 291 191 286 194 282 C 204 271 217 264 229 257 C 262 239 297 226 333 216 C 366 207 399 200 433 196 Z" />
<path fill="#000072" d="M 338 229 C 348 227 359 231 366 238 C 374 241 378 249 381 256 C 383 266 376 277 366 277 C 358 277 353 271 346 271 C 339 270 333 271 327 268 C 318 263 314 250 319 241 C 323 235 331 231 338 229 Z" />
<path fill="#ffffff" d="M 339 237 C 346 235 354 236 361 239 C 366 241 368 245 371 249 C 376 255 375 264 368 268 C 364 271 359 267 355 265 C 348 261 340 263 332 261 C 326 259 323 250 327 244 C 330 241 334 238 339 237 Z" />
<path fill="#ffffff" d="M 435 263 C 442 260 451 262 457 265 C 454 267 451 268 448 269 C 440 267 432 270 426 276 L 425 275 C 427 270 430 265 435 263 Z" />
<path fill="#cccce3" d="M 426 276 C 432 270 440 267 448 269 C 440 272 432 275 424 278 C 425 277 425 276 425 275 L 426 276 Z" />
<path fill="#cccce3" d="M 423 289 C 437 284 452 279 466 272 C 472 281 474 292 474 303 C 474 314 470 325 473 337 C 476 346 484 352 492 356 C 499 359 508 360 516 357 C 522 354 527 348 527 341 C 526 333 522 327 521 319 C 518 312 518 303 523 296 C 527 295 530 292 535 292 C 542 290 549 294 556 296 C 567 307 572 325 567 339 C 563 353 553 364 541 372 C 539 372 538 372 536 372 C 517 380 495 381 474 380 C 452 378 429 374 406 377 C 384 380 365 394 343 394 C 324 395 306 387 288 383 C 288 373 286 364 284 355 C 284 355 284 354 284 354 C 287 349 288 343 292 338 C 295 334 301 333 306 334 C 316 335 323 342 331 346 C 339 352 349 355 358 355 C 371 354 382 349 393 343 C 403 338 413 332 418 322 C 423 312 423 300 423 289 Z" />
<path fill="#ffffff" d="M 523 296 C 526 292 531 288 537 288 C 544 288 551 292 556 296 C 549 294 542 290 535 292 C 530 292 527 295 523 296 Z" />
<path fill="#80deff" d="M 276 321 C 323 316 369 306 414 292 C 414 301 414 310 410 318 C 405 326 397 331 388 335 C 377 341 365 346 352 345 C 342 344 334 337 325 331 C 315 326 304 322 293 326 C 287 328 283 334 281 339 C 279 333 278 327 276 321 Z" />
<path fill="#d9f5ff" d="M 221 321 C 239 323 257 322 276 321 C 278 327 279 333 281 339 C 281 340 281 340 281 341 C 278 345 276 352 270 354 C 258 360 244 355 231 357 C 228 345 225 333 221 321 Z" />
<path fill="#b2b2d5" d="M 270 354 C 276 352 278 345 281 341 C 282 345 283 350 284 354 C 284 354 284 355 284 355 C 280 360 274 364 267 364 C 256 364 244 363 232 365 C 232 362 231 360 231 357 L 231 357 C 244 355 258 360 270 354 Z" />
<path fill="#ffffff" d="M 568 356 C 569 354 571 351 572 348 C 574 366 574 384 574 402 C 572 402 571 401 569 400 C 569 386 569 371 568 356 Z" />
<path fill="#f0f0f7" d="M 267 364 C 274 364 280 360 284 355 C 286 364 288 373 288 383 C 282 382 276 381 270 382 C 258 383 247 389 236 390 C 235 382 234 374 232 365 C 244 363 256 364 267 364 Z" />
<path fill="#000072" d="M 210 366 C 215 361 223 358 231 357 C 231 360 232 362 232 365 C 227 366 221 369 217 373 C 213 376 211 381 212 386 C 212 389 215 392 218 394 C 224 397 230 397 236 396 C 236 399 237 402 237 405 C 229 407 221 406 214 403 C 215 412 216 421 216 430 C 231 433 243 443 249 457 C 250 459 252 462 251 464 C 250 467 247 469 245 468 C 236 465 227 464 218 466 C 218 476 218 486 218 496 C 214 495 211 495 208 495 C 208 486 208 478 208 469 C 204 471 199 468 200 464 C 200 460 204 459 207 458 C 207 452 207 446 207 440 C 203 440 200 443 196 441 C 193 439 193 433 197 432 C 200 431 203 430 206 430 C 206 420 205 411 204 402 C 204 397 204 392 202 387 C 201 380 204 371 210 366 Z" />
<path fill="#b2b2d5" d="M 547 378 C 555 372 562 365 568 356 C 569 371 569 386 569 400 C 561 398 553 397 546 398 C 546 392 547 385 548 379 L 547 378 Z" />
<path fill="#000072" d="M 307 371 C 307 368 309 365 311 364 C 312 366 310 367 310 369 C 308 374 312 380 317 383 C 323 386 330 386 336 383 C 346 380 353 371 362 367 C 369 364 377 363 385 365 C 386 366 388 366 388 367 C 376 368 365 370 356 377 C 350 381 344 387 336 389 C 328 391 319 391 312 385 C 308 381 307 376 307 371 Z" />
<path fill="#cccce3" d="M 217 373 C 221 369 227 366 232 365 C 234 374 235 382 236 390 C 227 392 219 390 212 386 C 211 381 213 376 217 373 Z" />
<path fill="#ffffff" d="M 536 372 C 538 372 539 372 541 372 C 535 375 529 378 522 380 C 503 386 484 385 465 383 C 444 381 423 377 403 381 C 382 385 364 400 342 401 C 324 402 307 392 289 388 C 280 386 271 385 262 387 C 253 389 245 393 236 396 C 230 397 224 397 218 394 C 215 392 212 389 212 386 C 219 390 227 392 236 390 C 247 389 258 383 270 382 C 276 381 282 382 288 383 C 306 387 324 395 343 394 C 365 394 384 380 406 377 C 429 374 452 378 474 380 C 495 381 517 380 536 372 Z" />
<path fill="#ffffff" d="M 494 393 C 512 393 531 388 547 378 L 548 379 C 547 385 546 392 546 398 C 537 400 528 404 521 410 C 505 415 489 422 475 431 C 457 441 443 456 434 474 C 426 489 419 505 414 522 C 411 533 410 545 411 557 L 411 557 C 409 559 411 562 411 565 C 409 591 408 616 408 641 C 407 679 406 717 400 754 C 400 755 400 758 398 759 C 381 767 363 769 344 767 C 323 766 302 761 280 755 C 262 751 244 745 227 736 C 217 730 207 724 200 714 C 198 711 197 708 195 706 C 195 685 201 666 204 646 C 207 631 210 617 212 602 C 214 577 216 551 217 526 C 223 525 228 522 232 518 C 234 514 234 509 232 506 C 229 501 223 498 218 496 C 218 486 218 476 218 466 C 227 464 236 465 245 468 C 247 469 250 467 251 464 C 252 462 250 459 249 457 C 243 443 231 433 216 430 C 216 421 215 412 214 403 C 221 406 229 407 237 405 C 246 403 255 398 265 396 C 273 394 282 395 290 397 C 307 402 323 410 341 410 C 357 410 371 402 386 396 C 396 391 407 389 419 388 C 444 387 468 394 494 393 Z" />
<path fill="#b2b2d5" d="M 262 387 C 271 385 280 386 289 388 C 290 391 290 394 290 397 C 282 395 273 394 265 396 C 255 398 246 403 237 405 C 237 402 236 399 236 396 C 245 393 253 389 262 387 Z" />
<path fill="#650000" d="M 546 398 C 553 397 561 398 569 400 C 571 401 572 402 574 402 C 577 403 581 403 584 403 C 588 403 592 404 596 406 C 600 406 603 407 606 408 C 616 411 626 413 636 414 C 647 415 656 417 666 419 C 677 422 687 425 695 432 C 700 436 704 443 709 447 C 718 454 728 457 737 463 C 745 468 750 476 758 481 C 764 487 773 490 779 496 C 788 505 792 519 793 532 C 793 536 792 542 794 546 C 797 551 804 550 807 555 C 818 583 825 611 827 640 C 831 647 833 655 832 664 C 832 673 829 683 825 692 C 821 718 810 744 794 765 C 777 785 755 801 730 810 C 718 814 706 816 694 819 C 682 822 670 824 658 824 C 627 826 596 820 567 808 C 548 799 529 788 513 774 C 510 772 507 770 505 768 C 500 763 495 758 490 753 C 487 751 485 748 482 746 C 469 731 457 715 447 699 C 438 684 430 669 424 653 C 422 645 419 638 419 630 C 418 608 415 586 412 565 C 411 562 412 559 411 557 L 411 557 C 410 545 411 533 414 522 C 419 505 426 489 434 474 C 443 456 457 441 475 431 C 489 422 505 415 521 410 C 528 404 537 400 546 398 Z" />
<path fill="#d99f95" d="M 538 410 C 548 405 559 406 569 410 C 571 411 574 412 575 415 C 563 410 550 409 538 415 C 531 419 525 425 523 434 C 523 436 522 438 522 440 C 520 435 523 430 524 425 C 525 417 531 412 538 410 Z" />
<path fill="#aa2913" d="M 538 415 C 550 409 563 410 575 415 C 572 420 569 426 564 430 C 558 434 551 437 543 437 C 537 437 530 436 523 434 C 525 425 531 419 538 415 Z" />
<path fill="#ffd8aa" d="M 584 413 C 590 414 596 416 602 418 C 613 421 624 423 636 424 C 645 425 653 427 662 429 C 658 431 655 433 652 437 C 637 433 620 433 605 429 C 598 427 591 424 585 423 C 585 420 585 416 584 413 Z" />
<path fill="#951d0d" d="M 575 415 C 577 418 576 423 575 428 C 572 436 565 443 556 446 C 549 449 541 447 534 446 C 529 445 524 444 522 440 L 522 440 C 522 438 523 436 523 434 C 530 436 537 437 543 437 C 551 437 558 434 564 430 C 569 426 572 420 575 415 Z" />
<path fill="#ffedd9" d="M 488 435 C 497 430 506 426 515 423 C 514 426 514 429 513 432 C 511 432 509 433 508 434 C 504 434 500 436 496 437 C 483 443 469 450 457 460 C 456 462 454 464 452 464 C 461 452 474 442 488 435 Z" />
<path fill="#ffa842" d="M 585 423 C 591 424 598 427 605 429 C 620 433 637 433 652 437 C 648 442 646 448 646 454 C 645 466 651 476 657 485 C 658 491 661 497 664 502 C 669 508 675 514 684 516 C 696 519 711 511 714 498 C 716 493 715 487 714 482 C 714 479 715 476 715 473 C 733 485 750 498 766 511 C 770 513 772 516 775 519 C 775 519 775 520 776 520 C 776 525 777 530 777 536 C 776 547 778 559 781 571 C 787 593 790 616 789 639 C 783 644 778 650 775 658 C 772 669 773 680 779 690 C 779 693 777 696 776 699 C 768 715 758 730 744 742 C 735 750 725 756 715 762 C 707 759 697 762 694 770 C 677 774 661 779 644 780 C 632 782 620 781 608 781 C 596 774 584 765 574 755 C 548 730 523 704 506 672 C 497 655 491 637 485 619 C 478 596 473 573 472 549 L 474 549 L 474 550 C 476 562 485 570 495 575 C 504 581 514 587 524 586 C 534 585 540 578 545 571 C 548 565 552 558 553 551 C 554 546 552 541 549 537 C 551 531 551 525 549 519 C 545 511 538 506 531 501 C 527 495 520 493 514 495 C 504 493 493 492 484 495 C 492 477 503 461 516 447 C 519 450 523 453 528 454 C 529 457 530 462 533 465 C 539 469 547 469 554 471 C 569 473 587 464 591 448 C 592 443 594 437 592 432 C 590 429 587 427 584 425 C 584 425 585 424 585 423 Z" />
<path fill="#d1762e" d="M 584 425 C 587 427 590 429 592 432 C 594 437 592 443 591 448 C 587 464 569 473 554 471 C 547 469 539 469 533 465 C 530 462 529 457 528 454 C 539 456 551 459 562 454 C 574 449 582 438 584 425 Z" />
<path fill="#ffa842" d="M 508 434 C 509 433 511 432 513 432 C 512 434 512 436 512 438 C 494 456 480 478 471 501 C 462 510 459 524 463 535 C 462 562 467 587 474 612 C 479 632 486 651 494 669 C 510 702 535 729 560 754 C 567 762 575 769 583 775 L 582 776 C 572 774 563 770 554 766 C 515 750 483 722 457 689 C 457 688 456 687 455 686 C 453 683 452 680 450 677 C 444 664 438 650 438 635 C 437 613 434 593 430 572 C 429 562 429 552 430 543 C 432 533 435 524 438 514 C 443 501 449 489 456 477 C 466 461 480 448 496 440 C 500 437 504 436 508 434 Z" />
<path fill="#ffd8aa" d="M 496 437 C 500 436 504 434 508 434 C 504 436 500 437 496 440 C 480 448 466 461 456 477 C 449 489 443 501 438 514 C 435 524 432 533 430 543 C 429 552 429 562 430 572 C 434 593 437 613 438 635 C 438 650 444 664 450 677 C 446 675 446 670 442 668 C 435 655 429 641 429 626 C 428 604 425 583 421 562 C 420 555 420 547 421 540 C 422 527 427 516 431 505 C 436 491 442 476 452 464 C 454 464 456 462 457 460 C 469 450 483 443 496 437 Z" />
<path fill="#000072" d="M 358 436 C 368 432 380 433 389 439 C 391 440 395 442 395 446 C 395 449 390 452 387 450 C 381 446 374 443 367 444 C 357 446 349 451 342 458 C 354 457 367 456 378 461 C 382 464 386 467 389 472 C 391 475 388 479 385 479 C 381 479 380 476 378 474 C 373 469 365 467 358 467 C 348 467 338 468 328 469 C 325 469 323 465 325 462 C 334 451 344 441 358 436 Z" />
<path fill="#d99f95" d="M 655 452 C 656 443 663 435 672 435 C 679 436 685 440 690 444 C 697 450 703 457 706 466 C 698 456 688 446 676 443 C 668 440 660 445 655 452 Z" />
<path fill="#ffffff" d="M 217 440 C 225 443 232 448 237 456 C 231 455 224 455 217 455 C 217 450 217 445 217 440 Z" />
<path fill="#aa2913" d="M 655 452 C 660 445 668 440 676 443 C 688 446 698 456 706 466 C 706 467 706 468 706 469 C 699 475 690 480 681 478 C 669 476 661 465 655 454 C 655 454 655 452 655 452 Z" />
<path fill="#951d0d" d="M 655 454 C 661 465 669 476 681 478 C 690 480 699 475 706 469 C 709 483 694 496 680 492 C 671 490 665 482 660 474 C 657 468 654 461 655 454 Z" />
<path fill="#ffd8aa" d="M 714 462 C 723 466 733 472 741 479 C 746 485 753 491 760 495 C 763 497 767 499 770 502 C 771 508 774 513 775 519 C 772 516 770 513 766 511 C 750 498 733 485 715 473 C 715 469 715 465 714 462 Z" />
<path fill="#d1762e" d="M 679 501 C 693 504 708 495 714 482 C 715 487 716 493 714 498 C 711 511 696 519 684 516 C 675 514 669 508 664 502 C 661 497 658 491 657 485 C 662 492 669 499 679 501 Z" />
<path fill="#000072" d="M 254 491 C 257 489 262 492 262 495 C 261 504 266 513 275 516 C 288 521 304 514 311 502 C 313 500 313 496 317 495 C 320 493 324 497 323 500 C 317 520 294 532 274 527 C 260 523 250 508 252 494 C 252 492 253 491 254 491 Z" />
<path fill="#ff67a0" d="M 193 500 C 197 497 203 495 208 495 C 211 495 214 495 218 496 C 223 498 229 501 232 506 C 234 509 234 514 232 518 C 228 522 223 525 217 526 C 214 526 210 526 207 526 C 202 525 197 523 193 520 C 190 518 187 514 187 509 C 187 505 190 502 193 500 Z" />
<path fill="#d99f95" d="M 484 504 C 495 500 508 502 519 505 C 526 508 533 512 538 519 C 525 509 508 504 492 506 C 487 507 482 508 478 511 C 475 513 473 516 471 518 C 473 512 478 506 484 504 Z" />
<path fill="#d19777" d="M 770 502 C 777 507 780 516 782 524 C 783 527 784 530 783 534 C 781 529 779 524 776 520 C 775 520 775 519 775 519 C 774 513 771 508 770 502 Z" />
<path fill="#aa2913" d="M 492 506 C 508 504 525 509 538 519 C 539 520 540 522 541 523 C 538 533 532 541 522 544 C 516 547 509 545 504 542 C 492 537 480 531 471 520 L 471 519 C 471 519 471 518 471 518 C 473 516 475 513 478 511 C 482 508 487 507 492 506 Z" />
<path fill="#ff67a0" d="M 362 512 C 371 510 382 511 390 517 C 394 520 397 526 396 531 C 394 537 388 540 383 542 C 373 543 363 541 356 535 C 352 532 349 527 351 522 C 352 517 357 513 362 512 Z" />
<path fill="#650000" d="M 650 520 C 655 517 662 520 664 525 C 665 527 663 529 661 528 C 657 528 651 527 646 529 C 645 529 643 528 644 526 C 644 523 647 521 650 520 Z" />
<path fill="#80deff" d="M 193 520 C 197 523 202 525 207 526 C 206 551 204 576 202 601 C 199 622 194 643 190 665 C 187 679 185 694 185 709 C 185 719 190 729 198 736 C 204 741 211 747 218 751 C 218 751 216 751 216 751 C 201 745 188 737 174 728 C 171 719 173 709 174 699 C 178 663 187 627 191 590 C 193 567 193 544 193 520 Z" />
<path fill="#951d0d" d="M 472 533 C 471 529 470 524 471 520 C 480 531 492 537 504 542 C 509 545 516 547 522 544 C 532 541 538 533 541 523 C 543 531 539 539 535 545 C 532 552 526 560 518 561 C 510 562 503 558 496 555 C 487 550 477 543 472 533 Z" />
<path fill="#d1762e" d="M 776 520 C 779 524 781 529 783 534 C 782 538 782 543 784 548 C 782 551 780 556 782 560 C 786 565 794 565 798 572 C 805 590 811 610 815 630 C 805 628 796 633 789 639 C 790 616 787 593 781 571 C 778 559 776 547 777 536 C 777 530 776 525 776 520 Z" />
<path fill="#000072" d="M 207 526 C 210 526 214 526 217 526 C 216 551 214 577 212 602 C 210 617 207 631 204 646 C 201 666 195 685 195 706 C 195 711 196 716 198 721 C 202 726 207 730 212 734 C 226 745 241 754 257 761 C 276 770 297 777 317 782 C 339 788 361 792 383 794 C 404 795 425 795 446 792 C 453 790 459 786 463 780 C 470 769 476 757 482 746 C 485 748 487 751 490 753 C 484 764 478 774 472 783 C 467 793 458 800 448 801 C 426 805 404 805 382 804 C 344 800 308 792 273 778 C 254 771 235 762 218 751 C 211 747 204 741 198 736 C 190 729 185 719 185 709 C 185 694 187 679 190 665 C 194 643 199 622 202 601 C 204 576 206 551 207 526 Z" />
<path fill="#650000" d="M 741 531 C 751 523 768 529 771 541 C 772 546 771 552 767 555 C 761 563 749 564 741 558 C 733 551 733 538 741 531 Z" />
<path fill="#d99f95" d="M 746 538 C 749 536 752 536 755 537 C 749 539 745 544 745 550 C 743 546 743 541 746 538 Z" />
<path fill="#aa2913" d="M 755 537 C 759 538 763 542 762 546 C 760 553 750 556 745 550 L 745 550 C 745 544 749 539 755 537 Z" />
<path fill="#d1762e" d="M 530 565 C 540 559 545 548 549 537 C 552 541 554 546 553 551 C 552 558 548 565 545 571 C 540 578 534 585 524 586 C 514 587 504 581 495 575 C 485 570 476 562 474 550 C 483 558 494 564 506 568 C 514 571 523 570 530 565 Z" />
<path fill="#650000" d="M 683 540 C 690 538 697 540 703 544 C 714 553 717 569 711 582 C 707 588 700 593 693 594 C 684 594 675 589 671 582 C 664 572 664 557 672 548 C 674 544 678 541 683 540 Z" />
<path fill="#d19777" d="M 782 560 C 780 556 782 551 784 548 C 786 554 792 558 798 561 C 807 583 813 607 816 631 L 815 630 C 811 610 805 590 798 572 C 794 565 786 565 782 560 Z" />
<path fill="#ffffff" d="M 678 554 C 686 553 688 568 679 569 C 672 569 670 556 678 554 Z" />
<path fill="#d1762e" d="M 741 558 C 749 564 761 563 767 555 C 768 559 767 564 765 567 C 760 572 750 574 744 569 C 742 566 739 562 741 558 Z" />
<path fill="#b2b2d5" d="M 411 557 C 412 559 411 562 412 565 C 415 586 418 608 419 630 C 419 638 422 645 424 653 C 430 669 438 684 447 699 C 441 709 435 719 428 729 C 421 740 412 750 401 757 C 399 758 399 760 399 761 C 397 770 395 778 391 786 L 390 786 C 382 786 373 786 364 786 C 361 786 357 785 353 786 C 365 788 377 789 390 790 C 389 791 389 792 388 793 C 387 794 385 794 383 794 C 361 792 339 788 317 782 C 318 782 319 781 319 781 C 327 782 335 784 343 784 C 309 778 277 768 246 753 C 231 745 217 736 204 725 C 202 724 201 722 198 721 C 196 716 195 711 195 706 C 197 708 198 711 200 714 C 207 724 217 730 227 736 C 244 745 262 751 280 755 C 302 761 323 766 344 767 C 363 769 381 767 398 759 C 400 758 400 755 400 754 C 406 717 407 679 408 641 C 408 616 409 591 411 565 C 411 562 409 559 411 557 Z" />
<path fill="#650000" d="M 544 593 C 549 589 557 587 563 586 C 578 586 592 592 601 603 C 604 606 601 611 596 610 C 581 610 563 616 557 632 C 554 635 549 634 548 631 C 546 628 549 625 550 623 C 557 611 570 604 584 601 C 574 595 560 594 550 601 C 546 603 541 597 544 593 Z" />
<path fill="#ff1d73" d="M 740 589 C 745 588 751 588 757 591 C 759 592 761 595 760 597 C 759 602 755 605 751 607 C 744 610 735 612 727 611 C 724 611 720 610 719 607 C 717 604 719 600 721 598 C 726 593 733 590 740 589 Z" />
<path fill="#650000" d="M 681 622 C 684 619 689 623 688 626 C 688 637 681 645 673 651 C 661 658 646 661 633 656 C 623 653 614 645 611 636 C 609 631 617 627 619 631 C 622 637 626 642 632 645 C 643 651 656 649 666 643 C 672 639 678 633 678 626 C 678 624 679 622 681 622 Z" />
<path fill="#650000" d="M 506 624 C 511 622 518 624 520 630 C 521 631 519 633 518 633 C 513 632 507 632 502 633 C 501 633 500 632 500 631 C 500 627 503 625 506 624 Z" />
<path fill="#aa2913" d="M 798 643 C 803 640 809 637 814 640 C 818 642 821 646 822 650 C 819 660 817 670 810 678 C 807 682 802 684 798 684 C 792 684 788 680 783 677 C 782 673 782 670 782 667 C 783 657 790 649 798 643 Z" />
<path fill="#ff1d73" d="M 562 649 C 567 649 573 648 577 651 C 580 653 580 656 579 659 C 576 664 572 667 567 669 C 560 672 553 673 546 672 C 542 672 539 670 538 666 C 537 663 540 660 543 658 C 548 653 555 650 562 649 Z" />
<path fill="#951d0d" d="M 822 650 C 825 660 823 670 820 679 C 818 686 815 693 810 698 C 805 700 800 699 796 696 C 790 691 785 684 783 677 C 788 680 792 684 798 684 C 802 684 807 682 810 678 C 817 670 819 660 822 650 Z" />
<path fill="#650000" d="M 685 670 C 692 664 701 663 710 666 C 719 669 727 676 733 684 C 738 690 740 699 736 706 C 733 713 724 715 717 715 C 706 715 696 711 688 705 C 683 702 679 696 678 690 C 676 683 679 675 685 670 Z" />
<path fill="#650000" d="M 601 672 C 604 665 614 663 619 669 C 621 670 623 674 620 675 C 614 674 609 674 603 675 C 601 676 600 673 601 672 Z" />
<path fill="#eac1a1" d="M 442 668 C 446 670 446 675 450 677 C 452 680 453 683 455 686 C 463 701 472 716 482 729 C 483 730 483 731 483 732 C 471 717 459 701 449 683 C 447 678 444 674 442 668 Z" />
<path fill="#d99f95" d="M 695 674 C 703 672 710 675 716 679 C 722 684 729 689 729 698 C 724 690 716 684 707 681 C 700 679 692 681 686 686 C 686 680 690 675 695 674 Z" />
<path fill="#aa2913" d="M 686 686 C 692 681 700 679 707 681 C 716 684 724 690 729 698 C 730 702 726 705 723 705 C 714 707 705 705 698 701 C 692 698 686 693 686 686 Z" />
<path fill="#d1762e" d="M 455 686 C 456 687 457 688 457 689 C 483 722 515 750 554 766 C 563 770 572 774 582 776 L 583 775 C 599 787 617 797 636 804 L 636 805 C 622 805 607 803 593 799 C 558 790 527 772 500 748 C 498 746 497 744 494 744 C 490 740 487 736 483 732 C 483 731 483 730 482 729 C 472 716 463 701 455 686 Z" />
<path fill="#d1762e" d="M 779 690 C 785 700 795 709 808 708 C 806 708 805 709 805 711 C 795 735 779 757 757 772 C 742 783 725 791 706 795 C 694 798 682 801 670 803 C 648 800 627 792 608 781 C 620 781 632 782 644 780 C 661 779 677 774 694 770 C 694 771 694 773 694 773 C 694 774 695 774 696 775 C 701 772 707 769 714 768 C 715 768 718 769 719 767 C 720 764 717 763 715 762 C 725 756 735 750 744 742 C 758 730 768 715 776 699 C 777 696 779 693 779 690 Z" />
<path fill="#7d7db7" d="M 428 729 C 435 719 441 709 447 699 C 457 715 469 731 482 746 C 476 757 470 769 463 780 C 459 786 453 790 446 792 C 425 795 404 795 383 794 C 385 794 387 794 388 793 C 389 792 389 791 390 790 C 377 789 365 788 353 786 C 357 785 361 786 364 786 C 373 786 382 786 390 786 C 390 787 390 789 390 789 C 403 790 417 790 430 788 C 436 787 443 787 449 783 C 457 779 462 772 465 764 C 459 771 451 776 443 778 C 426 783 409 785 391 786 C 395 778 397 770 399 761 C 399 760 399 758 401 757 C 412 750 421 740 428 729 Z" />
<path fill="#650000" d="M 590 704 C 598 700 608 701 617 702 C 622 702 628 705 631 709 C 635 715 635 723 634 729 C 633 737 631 745 624 749 C 617 754 607 754 598 753 C 594 753 590 752 586 750 C 581 748 577 744 576 739 C 574 732 576 724 578 718 C 580 712 584 706 590 704 Z" />
<path fill="#d1762e" d="M 688 705 C 696 711 706 715 717 715 C 724 715 733 713 736 706 C 737 709 739 713 739 716 C 740 722 736 728 730 729 C 721 732 711 729 702 725 C 694 722 687 714 688 705 Z" />
<path fill="#ffa842" d="M 808 708 C 809 707 811 707 812 707 C 804 735 788 761 765 779 C 752 789 737 796 722 800 C 705 805 687 806 670 803 C 682 801 694 798 706 795 C 725 791 742 783 757 772 C 779 757 795 735 805 711 C 805 709 806 708 808 708 Z" />
<path fill="#a95d57" d="M 599 710 C 605 709 611 710 618 711 C 615 710 614 712 612 712 C 610 713 608 711 606 710 C 604 710 601 710 599 710 Z" />
<path fill="#d99f95" d="M 588 718 C 589 713 594 711 599 710 C 601 710 604 710 606 710 C 608 711 610 713 612 712 C 614 712 615 710 618 711 C 620 711 621 712 623 713 C 622 713 621 713 620 713 C 612 713 603 712 596 716 C 588 720 587 730 585 737 L 585 738 C 583 731 585 724 588 718 Z" />
<path fill="#aa2913" d="M 596 716 C 603 712 612 713 620 713 C 619 721 618 729 612 734 C 604 739 594 738 585 737 C 587 730 588 720 596 716 Z" />
<path fill="#951d0d" d="M 620 713 C 621 713 622 713 623 713 C 626 717 626 723 625 728 C 624 734 623 739 618 742 C 613 745 606 745 600 744 C 595 744 588 743 585 738 L 585 737 C 594 738 604 739 612 734 C 618 729 619 721 620 713 Z" />
<path fill="#ffffff" d="M 198 721 C 201 722 202 724 204 725 C 217 736 231 745 246 753 C 277 768 309 778 343 784 C 335 784 327 782 319 781 C 319 781 318 782 317 782 C 297 777 276 770 257 761 C 241 754 226 745 212 734 C 207 730 202 726 198 721 Z" />
<path fill="#5a9bd5" d="M 174 728 C 188 737 201 745 216 751 C 216 751 218 751 218 751 C 235 762 254 771 273 778 C 308 792 344 800 382 804 C 376 810 369 816 360 817 C 322 812 284 802 249 787 C 229 779 210 769 194 755 C 186 747 178 739 174 728 Z" />
<path fill="#d1762e" d="M 624 749 C 631 745 633 737 634 729 C 635 734 637 738 636 743 C 636 749 635 757 630 762 C 625 767 617 768 610 767 C 604 767 597 767 592 763 C 588 760 585 755 586 750 C 590 752 594 753 598 753 C 607 754 617 754 624 749 Z" />
<path fill="#ffa842" d="M 494 744 C 497 744 498 746 500 748 C 527 772 558 790 593 799 C 607 803 622 805 636 805 C 638 804 640 805 641 806 C 652 809 662 811 673 813 C 639 817 605 813 573 800 C 543 787 517 767 494 744 Z" />
<path fill="#3f6db7" d="M 490 753 C 495 758 500 763 505 768 C 501 777 496 785 491 794 C 489 798 486 802 482 805 C 475 811 465 813 456 815 C 425 822 392 821 360 817 C 369 816 376 810 382 804 C 404 805 426 805 448 801 C 458 800 467 793 472 783 C 478 774 484 764 490 753 Z" />
<path fill="#650000" d="M 694 770 C 697 762 707 759 715 762 C 717 763 720 764 719 767 C 718 769 715 768 714 768 C 707 769 701 772 696 775 C 695 774 694 774 694 773 C 694 773 694 771 694 770 Z" />
<path fill="#5858a2" d="M 443 778 C 451 776 459 771 465 764 C 462 772 457 779 449 783 C 443 787 436 787 430 788 C 417 790 403 790 390 789 C 390 789 390 787 390 786 L 391 786 C 409 785 426 783 443 778 Z" />
<path fill="#a388d5" d="M 513 774 C 529 788 548 799 567 808 C 596 820 627 826 658 824 C 657 825 655 825 654 826 C 641 830 628 833 615 834 C 593 837 571 836 550 837 C 518 839 486 840 455 836 C 444 834 433 834 422 834 C 405 833 389 831 373 829 C 407 831 442 831 474 821 C 485 817 494 810 500 800 C 504 791 509 783 513 774 Z" />
</svg>
