<svg width="1191" height="1191" viewBox="0 0 1191 1191" version="1.1" xmlns="http://www.w3.org/2000/svg">
<path fill="#7cffd7" d="M 0.00 0.00 L 1191.00 0.00 L 1191.00 1191.00 L 0.00 1191.00 L 0.00 0.00 Z" />
<path fill="#203a13" d="M 860.31 167.35 C 870.90 155.33 885.96 147.33 901.88 145.40 C 917.30 143.45 933.38 147.12 946.37 155.67 C 959.63 164.29 969.63 177.77 973.98 192.97 C 978.29 207.74 977.19 223.98 971.03 238.06 C 965.11 251.74 954.36 263.18 941.22 270.16 C 921.54 280.83 896.58 280.26 877.17 269.25 C 868.43 271.26 859.69 273.23 850.94 275.14 C 847.39 276.29 843.65 272.45 844.96 268.95 C 847.27 260.64 849.84 252.40 852.19 244.10 C 845.69 232.61 842.69 219.17 843.83 206.01 C 844.93 191.79 850.81 178.00 860.31 167.35 Z" />
<path fill="#ffffff" d="M 872.35 169.36 C 883.79 158.99 899.60 153.63 914.99 155.07 C 929.44 156.25 943.26 163.33 952.72 174.31 C 962.63 185.61 967.74 200.96 966.44 215.94 C 966.08 219.14 965.88 222.47 964.52 225.43 C 962.77 227.40 961.17 229.48 959.66 231.64 C 948.22 246.99 930.20 257.09 911.20 259.22 C 893.91 261.35 876.21 256.40 861.94 246.58 C 862.54 244.53 863.01 242.19 861.57 240.36 C 855.22 229.81 852.46 217.16 853.94 204.93 C 855.43 191.34 862.15 178.44 872.35 169.36 Z" />
<path fill="#203a13" d="M 576.86 184.15 C 587.71 175.41 600.99 169.50 614.95 168.37 C 628.56 167.10 642.85 170.72 653.46 179.54 C 648.31 180.11 643.19 180.89 638.11 181.86 C 627.12 176.71 614.19 177.18 602.88 181.00 C 593.20 184.24 584.41 189.95 577.32 197.26 C 574.20 200.15 571.60 203.52 568.59 206.50 C 567.12 208.02 564.05 206.09 564.81 204.06 C 566.09 200.14 568.41 196.68 570.27 193.03 C 542.20 187.83 512.61 190.79 486.06 201.22 C 489.41 204.26 492.61 207.46 495.55 210.91 C 491.49 210.42 487.42 210.06 483.34 209.82 C 479.71 207.25 475.98 204.76 471.83 203.12 C 458.94 197.88 445.02 194.24 431.00 195.38 C 421.51 196.07 412.18 198.96 404.00 203.84 C 391.62 211.03 380.67 220.99 373.26 233.30 C 367.75 242.42 363.30 252.11 359.28 261.96 C 355.07 263.63 350.88 265.34 346.71 267.08 C 351.99 252.91 357.92 238.87 366.02 226.05 C 371.81 216.74 379.77 208.99 388.37 202.27 C 398.26 194.73 409.61 188.69 421.96 186.51 C 440.29 183.22 459.30 186.86 476.23 194.18 C 507.78 180.96 543.34 176.84 576.86 184.15 Z" />
<path fill="#59da41" d="M 602.88 181.00 C 614.19 177.18 627.12 176.71 638.11 181.86 C 636.22 182.27 634.36 182.71 632.48 183.10 C 615.21 177.42 595.25 183.85 583.58 197.55 C 579.65 202.22 575.70 207.35 574.63 213.51 C 585.55 203.49 597.31 192.62 612.48 190.05 C 599.57 196.05 586.88 203.58 578.05 215.01 C 562.80 211.01 546.81 215.60 533.33 222.93 C 522.02 215.73 508.67 212.70 495.55 210.91 C 492.61 207.46 489.41 204.26 486.06 201.22 C 512.61 190.79 542.20 187.83 570.27 193.03 C 568.41 196.68 566.09 200.14 564.81 204.06 C 564.05 206.09 567.12 208.02 568.59 206.50 C 571.60 203.52 574.20 200.15 577.32 197.26 C 584.41 189.95 593.20 184.24 602.88 181.00 Z" />
<path fill="#1e88fe" d="M 653.46 179.54 C 666.27 178.31 679.37 178.14 692.00 180.95 C 699.02 182.62 706.25 185.29 711.23 190.76 C 714.81 194.58 715.85 199.92 716.82 204.89 C 719.06 217.82 719.31 231.05 718.34 244.12 C 717.49 253.64 716.01 263.29 712.13 272.10 C 710.54 275.40 708.50 278.46 706.44 281.48 C 706.39 281.55 706.30 281.68 706.25 281.74 C 703.55 281.07 701.02 279.87 698.44 278.87 C 699.44 277.56 700.45 276.26 701.44 274.94 C 703.61 271.96 705.31 268.66 706.53 265.18 C 710.35 253.58 711.03 241.22 711.03 229.08 C 710.83 219.68 710.41 210.17 708.03 201.03 C 706.99 196.21 702.78 193.05 698.54 191.11 C 692.19 188.42 685.31 187.31 678.47 186.78 C 674.34 186.50 670.21 186.41 666.08 186.48 C 660.28 186.62 654.50 187.15 648.76 187.93 C 643.20 188.70 637.67 189.73 632.27 191.22 C 616.62 195.87 601.19 202.90 589.20 214.20 C 586.99 216.71 583.44 219.15 583.92 222.92 C 585.18 239.78 589.00 256.74 597.25 271.62 C 594.54 272.11 591.84 272.65 589.15 273.24 C 584.51 264.32 581.33 254.72 579.14 244.92 C 566.91 244.85 552.61 245.26 543.50 254.64 C 545.30 266.41 545.04 278.51 542.65 290.18 C 539.33 292.00 536.08 293.94 532.91 296.01 C 538.50 278.79 537.56 260.13 533.39 242.71 C 532.33 238.55 531.60 234.25 529.79 230.33 C 527.60 227.91 524.34 226.82 521.48 225.40 C 515.59 222.91 509.40 221.29 503.17 219.98 C 503.02 220.52 502.73 221.60 502.58 222.14 C 501.92 222.19 500.59 222.29 499.93 222.34 C 496.34 217.71 490.28 218.14 485.05 217.72 C 473.96 216.83 462.80 217.44 451.80 219.04 C 436.45 221.33 421.25 225.07 406.83 230.87 C 398.72 234.24 390.65 238.18 384.09 244.12 C 380.55 247.45 377.22 251.86 377.55 256.98 C 378.27 267.51 382.00 277.52 385.68 287.32 C 391.04 300.41 397.53 313.27 406.83 324.03 C 411.67 329.73 417.89 334.17 424.80 337.01 C 429.54 338.97 434.51 340.34 439.58 341.16 C 444.76 341.99 450.03 342.28 455.28 342.08 C 458.52 341.95 461.77 341.68 464.99 341.22 C 468.02 340.76 471.01 340.15 473.99 339.46 C 480.76 337.80 487.41 335.62 493.74 332.69 C 495.51 331.92 497.30 331.21 499.11 330.51 C 497.39 333.48 495.84 336.55 494.54 339.72 C 499.15 334.20 503.52 328.44 508.88 323.58 C 505.56 328.67 502.23 333.76 498.89 338.81 C 481.20 347.29 461.12 351.53 441.52 349.23 C 427.46 347.49 413.20 342.20 403.35 331.66 C 391.82 319.41 384.27 304.09 377.83 288.71 L 377.35 288.52 C 367.49 292.57 357.74 296.91 347.95 301.12 C 347.88 306.27 347.74 312.07 344.07 316.12 C 342.03 318.49 338.83 319.15 335.84 319.23 C 332.18 318.56 329.05 316.33 326.89 313.36 C 322.19 306.25 320.79 297.39 321.20 289.00 C 321.56 284.27 322.74 278.71 327.20 276.16 C 333.43 272.59 340.12 269.92 346.71 267.08 C 350.88 265.34 355.07 263.63 359.28 261.96 C 362.76 260.56 366.26 259.21 369.74 257.82 C 368.98 246.95 377.56 238.80 385.77 233.14 C 398.09 225.40 411.86 220.26 425.87 216.53 C 439.65 213.00 453.72 210.55 467.93 209.67 C 473.06 209.46 478.20 209.55 483.34 209.82 C 487.42 210.06 491.49 210.42 495.55 210.91 C 508.67 212.70 522.02 215.73 533.33 222.93 C 546.81 215.60 562.80 211.01 578.05 215.01 C 586.88 203.58 599.57 196.05 612.48 190.05 C 619.01 187.38 625.60 184.79 632.48 183.10 C 634.36 182.71 636.22 182.27 638.11 181.86 C 643.19 180.89 648.31 180.11 653.46 179.54 Z" />
<path fill="#aded9f" d="M 583.58 197.55 C 595.25 183.85 615.21 177.42 632.48 183.10 C 625.60 184.79 619.01 187.38 612.48 190.05 C 597.31 192.62 585.55 203.49 574.63 213.51 C 575.70 207.35 579.65 202.22 583.58 197.55 Z" />
<path fill="#c1e4ea" d="M 648.76 187.93 C 654.50 187.15 660.28 186.62 666.08 186.48 C 665.41 187.90 664.76 189.32 664.10 190.74 C 662.63 193.92 661.09 197.07 659.57 200.22 L 659.33 200.75 C 655.81 196.47 652.51 192.01 648.76 187.93 Z" />
<path fill="#4de3f4" d="M 666.08 186.48 C 670.21 186.41 674.34 186.50 678.47 186.78 C 676.56 192.37 674.38 197.85 672.44 203.43 L 672.31 203.19 C 669.81 198.89 667.13 194.69 664.10 190.74 C 664.76 189.32 665.41 187.90 666.08 186.48 Z" />
<path fill="#c9f6fb" d="M 678.47 186.78 C 685.31 187.31 692.19 188.42 698.54 191.11 C 693.09 202.26 687.44 213.31 681.87 224.41 C 678.68 217.43 675.90 210.28 672.44 203.43 C 674.38 197.85 676.56 192.37 678.47 186.78 Z" />
<path fill="#c6f3ee" d="M 632.27 191.22 C 637.67 189.73 643.20 188.70 648.76 187.93 C 652.51 192.01 655.81 196.47 659.33 200.75 C 656.40 207.64 652.95 214.29 649.90 221.12 C 643.83 214.91 635.90 209.99 626.98 209.83 C 628.71 203.62 630.55 197.44 632.27 191.22 Z" />
<path fill="#43d8c5" d="M 589.20 214.20 C 601.19 202.90 616.62 195.87 632.27 191.22 C 630.55 197.44 628.71 203.62 626.98 209.83 C 626.84 210.34 626.55 211.36 626.40 211.87 C 626.26 211.43 625.99 210.54 625.86 210.10 C 616.46 210.69 608.84 217.83 605.02 226.04 C 598.54 239.95 599.72 256.36 605.31 270.36 C 602.62 270.73 599.93 271.15 597.25 271.62 C 589.00 256.74 585.18 239.78 583.92 222.92 C 583.44 219.15 586.99 216.71 589.20 214.20 Z" />
<path fill="#31a6b7" d="M 664.10 190.74 C 667.13 194.69 669.81 198.89 672.31 203.19 C 670.98 207.60 669.22 211.85 667.69 216.19 C 665.20 210.75 661.58 205.86 659.57 200.22 C 661.09 197.07 662.63 193.92 664.10 190.74 Z" />
<path fill="#4de3f4" d="M 698.54 191.11 C 702.78 193.05 706.99 196.21 708.03 201.03 C 710.41 210.17 710.83 219.68 711.03 229.08 C 711.03 241.22 710.35 253.58 706.53 265.18 C 701.75 259.75 696.83 254.40 691.36 249.64 C 689.97 248.33 688.22 247.12 687.85 245.12 C 685.98 238.42 684.63 231.48 681.47 225.22 C 681.57 225.02 681.77 224.61 681.87 224.41 C 687.44 213.31 693.09 202.26 698.54 191.11 Z" />
<path fill="#ff0068" d="M 886.80 207.01 C 885.00 200.37 889.15 192.55 895.96 190.93 C 901.28 189.51 906.86 191.91 910.54 195.76 C 914.67 191.30 921.55 188.97 927.27 191.70 C 935.16 195.26 937.13 206.88 931.04 212.97 C 925.24 218.87 919.36 224.68 913.52 230.53 C 912.20 232.23 909.47 232.62 907.98 230.93 C 903.10 226.17 898.35 221.28 893.51 216.49 C 890.73 213.79 887.60 211.00 886.80 207.01 Z" />
<path fill="#59da41" d="M 404.00 203.84 C 412.18 198.96 421.51 196.07 431.00 195.38 C 445.02 194.24 458.94 197.88 471.83 203.12 C 475.98 204.76 479.71 207.25 483.34 209.82 C 478.20 209.55 473.06 209.46 467.93 209.67 C 453.30 201.55 435.42 200.15 419.42 204.64 C 404.98 209.20 393.94 220.82 385.77 233.14 C 377.56 238.80 368.98 246.95 369.74 257.82 C 366.26 259.21 362.76 260.56 359.28 261.96 C 363.30 252.11 367.75 242.42 373.26 233.30 C 380.67 220.99 391.62 211.03 404.00 203.84 Z" />
<path fill="#43d8c5" d="M 659.33 200.75 L 659.57 200.22 C 661.58 205.86 665.20 210.75 667.69 216.19 C 667.59 216.48 667.38 217.05 667.27 217.34 C 664.70 224.34 662.00 231.30 659.55 238.35 L 659.46 238.07 C 656.75 232.25 653.97 226.38 649.72 221.50 L 649.90 221.12 C 652.95 214.29 656.40 207.64 659.33 200.75 Z" />
<path fill="#aded9f" d="M 419.42 204.64 C 435.42 200.15 453.30 201.55 467.93 209.67 C 453.72 210.55 439.65 213.00 425.87 216.53 C 411.86 220.26 398.09 225.40 385.77 233.14 C 393.94 220.82 404.98 209.20 419.42 204.64 Z" />
<path fill="#c1e4ea" d="M 672.31 203.19 L 672.44 203.43 C 675.90 210.28 678.68 217.43 681.87 224.41 C 681.77 224.61 681.57 225.02 681.47 225.22 C 679.47 229.25 677.39 233.23 675.50 237.31 L 675.41 236.97 C 673.07 230.31 671.36 223.18 667.27 217.34 C 667.38 217.05 667.59 216.48 667.69 216.19 C 669.22 211.85 670.98 207.60 672.31 203.19 Z" />
<path fill="#31a6b7" d="M 605.02 226.04 C 608.84 217.83 616.46 210.69 625.86 210.10 C 625.99 210.54 626.26 211.43 626.40 211.87 C 624.57 218.22 622.71 224.56 620.94 230.94 C 617.92 231.42 614.69 232.27 612.90 234.97 C 608.14 241.54 608.50 251.17 613.11 257.73 C 612.11 261.77 610.94 265.77 609.83 269.78 C 608.32 269.96 606.81 270.15 605.31 270.36 C 599.72 256.36 598.54 239.95 605.02 226.04 Z" />
<path fill="#c1e4ea" d="M 626.98 209.83 C 635.90 209.99 643.83 214.91 649.90 221.12 L 649.72 221.50 C 642.41 237.18 635.05 252.83 627.78 268.53 C 621.78 268.68 615.79 269.11 609.83 269.78 C 610.94 265.77 612.11 261.77 613.11 257.73 C 613.24 257.28 613.50 256.38 613.64 255.94 C 613.03 262.45 622.77 264.96 626.80 260.70 C 635.18 252.34 632.54 235.03 620.94 230.94 C 622.71 224.56 624.57 218.22 626.40 211.87 C 626.55 211.36 626.84 210.34 626.98 209.83 Z" />
<path fill="#c6f3ee" d="M 451.80 219.04 C 462.80 217.44 473.96 216.83 485.05 217.72 C 481.42 227.50 477.83 237.29 474.22 247.08 C 467.75 245.06 460.67 243.84 454.12 246.19 C 450.73 247.34 447.67 249.22 444.53 250.87 C 446.90 240.25 449.35 229.64 451.80 219.04 Z" />
<path fill="#43d8c5" d="M 485.05 217.72 C 490.28 218.14 496.34 217.71 499.93 222.34 C 500.59 222.29 501.92 222.19 502.58 222.14 C 498.85 235.28 494.31 248.18 490.40 261.27 L 490.28 261.11 C 485.74 255.71 480.72 250.28 474.00 247.66 L 474.22 247.08 C 477.83 237.29 481.42 227.50 485.05 217.72 Z" />
<path fill="#c6f3ee" d="M 667.27 217.34 C 671.36 223.18 673.07 230.31 675.41 236.97 C 671.44 245.60 666.97 253.99 662.73 262.49 C 662.36 259.36 662.25 256.21 662.18 253.06 C 662.05 248.05 660.48 243.24 659.55 238.35 C 662.00 231.30 664.70 224.34 667.27 217.34 Z" />
<path fill="#43d8c5" d="M 406.83 230.87 C 421.25 225.07 436.45 221.33 451.80 219.04 C 449.35 229.64 446.90 240.25 444.53 250.87 C 444.13 252.60 443.71 254.32 443.31 256.05 C 443.29 255.41 443.25 254.11 443.23 253.47 C 437.72 257.62 434.88 264.25 432.58 270.55 C 428.87 282.09 428.33 294.89 431.72 306.57 C 431.59 307.21 431.47 307.86 431.34 308.52 C 429.11 318.00 426.94 327.50 424.80 337.01 C 417.89 334.17 411.67 329.73 406.83 324.03 C 397.53 313.27 391.04 300.41 385.68 287.32 C 382.00 277.52 378.27 267.51 377.55 256.98 C 377.22 251.86 380.55 247.45 384.09 244.12 C 390.65 238.18 398.72 234.24 406.83 230.87 Z" />
<path fill="#c6f3ee" d="M 503.17 219.98 C 509.40 221.29 515.59 222.91 521.48 225.40 C 514.27 243.28 506.63 260.99 499.29 278.81 C 496.72 272.76 494.21 266.66 490.40 261.27 C 494.31 248.18 498.85 235.28 502.58 222.14 C 502.73 221.60 503.02 220.52 503.17 219.98 Z" />
<path fill="#39d4ff" d="M 538.06 229.24 C 549.54 223.24 562.93 219.26 575.86 222.39 C 576.45 227.24 576.87 232.11 577.65 236.94 C 565.35 237.04 552.63 238.60 541.97 245.21 C 540.73 239.87 539.38 234.56 538.06 229.24 Z" />
<path fill="#31a6b7" d="M 627.78 268.53 C 635.05 252.83 642.41 237.18 649.72 221.50 C 653.97 226.38 656.75 232.25 659.46 238.07 C 657.12 245.18 654.30 252.13 651.81 259.19 C 649.12 257.87 646.20 255.93 643.10 257.02 C 638.17 258.63 635.45 263.67 634.49 268.48 C 632.25 268.46 630.01 268.48 627.78 268.53 Z" />
<path fill="#43d8c5" d="M 521.48 225.40 C 524.34 226.82 527.60 227.91 529.79 230.33 C 531.60 234.25 532.33 238.55 533.39 242.71 C 537.56 260.13 538.50 278.79 532.91 296.01 C 519.33 304.87 507.32 316.45 499.11 330.51 C 497.30 331.21 495.51 331.92 493.74 332.69 C 495.26 328.36 497.78 324.47 499.19 320.10 C 502.90 309.15 503.07 297.23 500.87 285.94 C 500.49 283.85 499.64 281.88 498.83 279.93 C 498.94 279.65 499.17 279.09 499.29 278.81 C 506.63 260.99 514.27 243.28 521.48 225.40 Z" />
<path fill="#31a6b7" d="M 681.47 225.22 C 684.63 231.48 685.98 238.42 687.85 245.12 C 688.22 247.12 689.97 248.33 691.36 249.64 C 696.83 254.40 701.75 259.75 706.53 265.18 C 705.31 268.66 703.61 271.96 701.44 274.94 C 696.64 268.38 690.69 262.80 684.84 257.20 C 682.67 255.01 679.60 253.30 678.79 250.12 C 677.60 245.88 676.71 241.55 675.50 237.31 C 677.39 233.23 679.47 229.25 681.47 225.22 Z" />
<path fill="#bcc4b7" d="M 959.66 231.64 C 961.17 229.48 962.77 227.40 964.52 225.43 C 961.89 238.96 952.73 250.75 941.46 258.41 C 924.66 269.91 901.50 271.05 883.64 261.31 C 881.53 260.28 879.42 258.39 876.90 259.16 C 870.21 260.55 863.58 262.21 856.89 263.58 C 858.56 257.91 860.13 252.21 861.94 246.58 C 876.21 256.40 893.91 261.35 911.20 259.22 C 930.20 257.09 948.22 246.99 959.66 231.64 Z" />
<path fill="#75e2ff" d="M 612.90 234.97 C 614.69 232.27 617.92 231.42 620.94 230.94 C 618.44 239.25 616.26 247.66 613.64 255.94 C 613.50 256.38 613.24 257.28 613.11 257.73 C 608.50 251.17 608.14 241.54 612.90 234.97 Z" />
<path fill="#d5f6ff" d="M 620.94 230.94 C 632.54 235.03 635.18 252.34 626.80 260.70 C 622.77 264.96 613.03 262.45 613.64 255.94 C 616.26 247.66 618.44 239.25 620.94 230.94 Z" />
<path fill="#43d8c5" d="M 675.41 236.97 L 675.50 237.31 C 676.71 241.55 677.60 245.88 678.79 250.12 C 679.60 253.30 682.67 255.01 684.84 257.20 C 690.69 262.80 696.64 268.38 701.44 274.94 C 700.45 276.26 699.44 277.56 698.44 278.87 C 685.76 274.12 672.39 271.42 658.96 269.89 C 660.20 267.42 661.46 264.95 662.73 262.49 C 666.97 253.99 671.44 245.60 675.41 236.97 Z" />
<path fill="#c1e4ea" d="M 659.46 238.07 L 659.55 238.35 C 660.48 243.24 662.05 248.05 662.18 253.06 C 662.25 256.21 662.36 259.36 662.73 262.49 C 661.46 264.95 660.20 267.42 658.96 269.89 C 655.34 269.52 651.72 269.24 648.10 268.99 C 649.31 265.72 650.58 262.46 651.81 259.19 C 654.30 252.13 657.12 245.18 659.46 238.07 Z" />
<path fill="#c1e4ea" d="M 454.12 246.19 C 460.67 243.84 467.75 245.06 474.22 247.08 L 474.00 247.66 C 471.25 255.18 468.47 262.69 465.69 270.19 C 464.67 273.04 463.56 275.85 462.56 278.70 C 459.37 287.42 456.13 296.13 452.93 304.85 C 451.05 310.10 449.11 315.32 447.15 320.54 C 445.96 323.79 444.75 327.04 443.47 330.25 L 443.24 330.87 C 437.13 324.71 434.76 316.22 431.34 308.52 C 431.47 307.86 431.59 307.21 431.72 306.57 C 435.62 289.74 439.44 272.89 443.31 256.05 C 443.71 254.32 444.13 252.60 444.53 250.87 C 447.67 249.22 450.73 247.34 454.12 246.19 Z" />
<path fill="#59da41" d="M 543.50 254.64 C 552.61 245.26 566.91 244.85 579.14 244.92 C 581.33 254.72 584.51 264.32 589.15 273.24 C 573.00 276.80 557.22 282.30 542.65 290.18 C 545.04 278.51 545.30 266.41 543.50 254.64 Z" />
<path fill="#31a6b7" d="M 474.00 247.66 C 480.72 250.28 485.74 255.71 490.28 261.11 C 489.05 265.67 487.46 270.13 486.13 274.66 C 483.22 271.08 479.86 267.14 474.97 266.61 C 471.41 265.98 468.38 268.24 465.69 270.19 C 468.47 262.69 471.25 255.18 474.00 247.66 Z" />
<path fill="#31a6b7" d="M 432.58 270.55 C 434.88 264.25 437.72 257.62 443.23 253.47 C 443.25 254.11 443.29 255.41 443.31 256.05 C 439.44 272.89 435.62 289.74 431.72 306.57 C 428.33 294.89 428.87 282.09 432.58 270.55 Z" />
<path fill="#4bbbd1" d="M 634.49 268.48 C 635.45 263.67 638.17 258.63 643.10 257.02 C 646.20 255.93 649.12 257.87 651.81 259.19 C 650.58 262.46 649.31 265.72 648.10 268.99 C 643.57 268.71 639.03 268.55 634.49 268.48 Z" />
<path fill="#c1e4ea" d="M 490.28 261.11 L 490.40 261.27 C 494.21 266.66 496.72 272.76 499.29 278.81 C 499.17 279.09 498.94 279.65 498.83 279.93 C 490.54 299.77 482.20 319.59 473.99 339.46 C 471.01 340.15 468.02 340.76 464.99 341.22 C 465.77 338.72 466.56 336.23 467.35 333.74 C 468.82 328.95 470.34 324.17 471.90 319.40 C 473.58 314.13 475.21 308.85 476.94 303.59 C 479.89 303.11 483.32 302.99 485.30 300.39 C 491.26 293.50 490.56 282.77 485.90 275.38 C 485.96 275.20 486.07 274.84 486.13 274.66 C 487.46 270.13 489.05 265.67 490.28 261.11 Z" />
<path fill="#39d4ff" d="M 351.61 273.47 C 357.99 270.91 364.29 268.12 370.80 265.91 C 371.81 271.00 373.34 275.97 374.99 280.88 C 364.18 285.92 353.04 290.23 342.20 295.20 C 338.62 296.69 340.39 301.09 340.10 304.03 C 339.88 306.57 340.10 310.60 337.01 311.43 C 333.02 310.61 331.60 306.08 330.41 302.70 C 328.80 296.51 327.65 289.41 330.46 283.42 C 337.02 279.20 344.49 276.61 351.61 273.47 Z" />
<path fill="#75e2ff" d="M 465.69 270.19 C 468.38 268.24 471.41 265.98 474.97 266.61 C 479.86 267.14 483.22 271.08 486.13 274.66 C 486.07 274.84 485.96 275.20 485.90 275.38 C 482.85 284.76 479.89 294.18 476.94 303.59 C 466.41 300.63 461.97 288.72 462.56 278.70 C 463.56 275.85 464.67 273.04 465.69 270.19 Z" />
<path fill="#203a13" d="M 609.83 269.78 C 615.79 269.11 621.78 268.68 627.78 268.53 C 630.01 268.48 632.25 268.46 634.49 268.48 C 639.03 268.55 643.57 268.71 648.10 268.99 C 651.72 269.24 655.34 269.52 658.96 269.89 C 672.39 271.42 685.76 274.12 698.44 278.87 C 701.02 279.87 703.55 281.07 706.25 281.74 L 706.28 281.75 L 706.44 281.48 C 708.50 278.46 710.54 275.40 712.13 272.10 C 717.13 278.46 721.64 285.23 725.46 292.37 C 726.20 294.00 727.65 295.09 729.03 296.16 C 747.31 288.97 767.72 286.15 787.04 290.48 C 802.71 294.03 817.37 301.96 828.92 313.14 C 842.82 327.08 849.94 346.63 851.28 366.03 C 852.52 383.93 849.59 402.16 842.67 418.73 C 839.32 426.72 834.07 433.79 827.72 439.64 C 823.51 451.51 818.47 463.51 809.87 472.92 C 806.53 476.39 802.23 479.94 797.10 479.52 C 793.54 479.24 790.91 476.53 788.89 473.84 C 780.08 484.03 767.31 489.40 755.64 495.54 C 747.11 499.67 739.24 504.98 731.69 510.67 C 718.08 520.93 703.25 529.58 687.63 536.38 C 697.48 540.62 707.30 545.04 716.69 550.29 C 735.99 561.07 756.84 569.14 778.50 573.65 C 793.50 576.63 808.69 578.46 823.86 580.34 C 825.87 573.08 828.23 565.92 830.91 558.88 C 831.59 556.98 832.75 555.32 833.94 553.71 C 833.63 552.42 833.33 551.14 833.04 549.87 C 817.02 547.45 800.93 545.47 784.88 543.20 C 781.13 543.00 778.71 539.47 778.10 536.06 C 777.08 530.71 777.70 524.98 779.95 520.00 C 781.31 516.96 784.34 514.15 787.92 514.81 C 807.61 517.45 827.30 520.14 846.98 522.86 C 852.75 523.59 857.72 528.26 858.86 533.96 C 860.02 539.12 861.11 544.29 862.22 549.47 C 877.34 549.54 892.47 549.46 907.60 549.51 C 905.93 541.65 906.51 533.27 909.77 525.89 C 914.41 515.02 924.44 506.64 935.98 504.07 C 946.72 501.54 958.51 504.07 967.26 510.82 C 977.12 518.22 982.93 530.68 982.10 543.00 C 981.47 557.85 971.09 571.63 957.04 576.42 C 955.14 576.69 957.17 577.88 957.82 578.16 C 964.42 581.63 968.08 588.56 970.91 595.16 C 976.71 609.64 978.18 625.60 976.86 641.06 C 975.52 654.90 971.77 669.01 963.27 680.26 C 957.55 687.97 948.52 693.15 938.96 694.08 C 937.40 694.31 935.63 694.18 934.43 695.37 C 926.71 701.50 917.61 705.76 908.08 708.18 C 908.07 719.46 908.07 730.73 908.08 742.01 C 919.76 745.88 930.82 752.86 937.51 763.41 C 940.07 767.87 939.23 773.97 935.53 777.54 C 932.75 780.37 928.65 780.93 925.02 781.97 C 901.80 788.05 876.81 787.67 854.00 780.05 C 848.98 778.47 845.60 773.15 846.13 767.94 C 846.40 763.88 849.23 760.70 851.79 757.80 C 857.97 750.96 866.10 746.38 874.21 742.21 C 874.00 730.89 874.31 719.56 874.05 708.24 C 869.16 707.52 864.77 704.70 859.98 704.04 C 813.95 710.84 766.11 709.39 721.51 695.35 C 733.78 759.75 735.13 825.63 733.12 890.98 C 732.43 913.02 729.26 936.29 715.79 954.50 C 733.26 958.90 749.92 967.45 762.72 980.26 C 768.69 986.31 774.02 993.18 777.27 1001.10 C 779.46 1006.47 780.96 1012.21 781.06 1018.04 C 781.18 1020.36 779.21 1022.48 776.92 1022.65 C 769.77 1023.54 762.52 1023.12 755.38 1022.39 C 755.48 1025.57 757.20 1029.84 754.08 1032.15 C 751.67 1033.73 748.58 1032.62 745.91 1032.62 C 730.29 1031.21 714.74 1028.59 699.02 1028.63 C 671.66 1028.57 644.29 1028.64 616.93 1028.61 C 609.83 1028.69 602.79 1024.93 599.34 1018.64 C 593.80 1008.76 593.71 997.03 593.42 986.01 C 593.09 977.68 593.93 969.21 591.97 961.03 C 589.94 951.93 584.52 944.15 579.64 936.38 C 574.87 929.15 569.54 922.29 563.80 915.82 C 560.20 924.39 556.35 932.87 552.01 941.09 C 547.49 949.63 545.18 959.33 545.42 968.99 C 545.57 974.60 545.88 980.21 545.87 985.83 C 545.62 997.37 545.14 1009.75 538.75 1019.79 C 533.51 1028.30 524.08 1034.13 514.04 1034.55 C 488.35 1035.31 462.60 1035.87 437.04 1038.80 C 424.66 1039.94 412.54 1043.44 400.03 1043.08 C 394.21 1042.86 388.24 1042.92 382.60 1041.35 C 379.43 1039.79 380.13 1035.93 381.07 1033.22 C 373.37 1033.20 365.67 1032.71 358.06 1031.59 C 355.69 1031.43 353.48 1029.45 353.61 1026.99 C 353.76 1016.38 358.35 1006.19 365.27 998.28 C 378.35 983.59 397.36 976.79 414.73 968.72 C 409.38 961.05 405.12 952.72 400.86 944.43 C 367.86 940.37 335.79 929.06 307.48 911.64 C 279.81 894.51 255.22 871.66 238.46 843.58 C 221.67 815.52 210.32 784.28 204.46 752.14 C 202.30 739.22 200.61 725.99 202.23 712.90 C 202.92 708.13 204.34 702.38 209.23 700.29 C 213.47 698.54 217.83 701.15 220.97 703.88 C 227.92 710.06 233.69 717.41 239.99 724.22 C 246.33 721.68 253.21 719.21 260.14 720.47 C 264.46 721.22 268.11 724.67 269.01 728.98 C 270.73 736.32 268.75 743.88 266.57 750.90 C 269.56 753.47 272.60 755.98 275.72 758.39 C 281.49 754.40 287.84 750.40 295.06 750.07 C 299.70 749.83 304.28 752.48 306.35 756.65 C 309.72 763.26 309.33 770.98 308.64 778.15 C 311.78 779.50 314.99 780.73 318.22 781.87 C 321.60 775.18 325.56 768.16 332.26 764.32 C 336.69 761.72 342.55 762.30 346.51 765.52 C 352.84 770.53 356.18 778.27 358.59 785.76 C 359.19 785.75 360.39 785.74 360.99 785.73 C 357.81 774.86 356.06 763.60 356.08 752.26 C 338.91 743.51 321.96 734.11 306.53 722.51 C 295.00 713.54 283.48 703.64 276.51 690.57 C 270.31 679.43 269.33 666.50 269.05 654.02 C 267.92 640.91 269.09 627.54 273.20 615.01 C 279.28 595.84 291.68 578.68 308.30 567.30 C 328.44 553.33 352.49 546.79 376.07 541.31 C 363.76 535.00 351.69 528.01 341.19 518.92 C 326.10 506.18 313.54 490.24 305.75 472.04 C 296.43 450.80 293.38 427.09 295.76 404.09 C 299.05 371.95 311.39 341.45 326.89 313.36 C 329.05 316.33 332.18 318.56 335.84 319.23 C 321.28 347.84 308.97 378.51 307.30 410.92 C 305.56 440.55 313.94 471.47 333.55 494.17 C 348.63 513.12 369.46 526.81 391.26 536.89 C 431.48 555.82 475.72 563.97 519.48 569.85 C 510.64 571.20 501.65 570.95 492.73 570.91 C 460.54 570.04 428.60 563.10 398.69 551.24 C 395.76 550.07 392.91 548.65 389.81 548.00 C 373.38 551.43 356.99 555.41 341.25 561.27 C 326.05 567.01 311.34 575.14 300.33 587.30 C 288.01 600.90 280.58 618.71 279.08 636.96 C 278.32 645.32 279.34 653.69 279.60 662.05 C 279.98 671.87 282.41 681.80 287.98 690.02 C 294.21 699.17 302.73 706.44 311.25 713.37 C 312.24 714.13 313.26 714.86 314.30 715.57 C 328.58 725.92 343.92 734.79 359.78 742.47 L 359.95 741.07 C 361.00 735.86 362.61 730.72 365.11 726.01 C 365.60 724.67 366.97 724.15 368.12 723.54 C 368.82 727.24 367.04 730.79 366.72 734.46 C 365.39 742.27 366.38 750.17 366.55 758.03 C 367.11 766.93 368.09 776.02 371.78 784.25 C 374.63 790.59 378.50 796.61 383.73 801.25 C 387.17 797.53 390.36 793.55 392.58 788.97 C 390.54 780.77 390.61 772.06 393.13 763.98 C 393.73 764.11 394.93 764.36 395.52 764.48 C 396.15 770.41 395.95 776.49 397.78 782.26 C 398.82 787.15 402.08 791.06 405.13 794.86 C 407.35 797.58 409.98 799.98 412.99 801.83 C 419.53 791.33 421.77 778.95 423.16 766.86 C 421.55 760.39 420.24 753.52 422.11 746.95 C 423.56 745.14 424.99 747.70 424.97 749.04 C 426.31 755.46 428.20 762.24 433.07 766.93 C 436.93 770.04 441.91 771.29 446.66 772.35 C 441.34 757.10 443.54 740.71 440.42 725.10 C 439.49 718.74 441.21 712.11 444.86 706.86 C 448.08 702.15 452.13 698.09 455.91 693.85 C 446.92 688.53 435.96 688.05 425.93 690.09 C 423.65 690.81 421.59 689.42 420.32 687.65 C 412.87 678.41 405.36 669.22 397.91 659.97 C 395.11 656.68 393.51 652.58 390.67 649.32 C 384.36 641.08 377.40 633.37 370.19 625.92 C 370.77 624.77 372.23 623.34 373.51 624.50 C 381.81 630.73 389.20 638.05 396.65 645.24 C 402.93 625.35 408.56 604.99 418.78 586.68 C 419.28 584.98 421.99 582.87 422.53 585.82 C 416.35 599.96 412.85 615.04 408.97 629.92 C 407.24 637.53 405.38 645.12 403.95 652.80 C 411.78 661.77 418.93 671.31 426.70 680.34 C 432.68 679.35 438.81 679.16 444.82 680.05 C 450.49 681.00 456.18 682.68 461.03 685.85 C 465.57 688.88 466.64 695.90 463.15 700.11 C 458.77 705.52 452.96 710.13 450.58 716.88 C 448.92 721.44 450.64 726.21 451.21 730.80 C 452.75 743.74 451.56 757.27 456.34 769.65 C 457.86 772.82 458.38 776.95 455.75 779.71 C 452.59 783.45 447.22 782.31 443.00 781.68 C 439.08 780.91 435.38 779.34 431.64 777.99 C 429.96 788.23 427.09 798.54 421.28 807.25 C 418.64 811.48 412.62 813.12 408.23 810.73 C 403.89 808.40 400.43 804.79 397.15 801.20 C 393.88 804.99 390.92 809.48 386.11 811.45 C 386.27 832.42 388.31 853.36 391.55 874.07 C 396.76 905.72 405.88 937.40 423.38 964.56 C 429.91 969.66 438.65 970.58 446.47 972.55 C 446.62 973.11 446.90 974.22 447.05 974.78 C 439.23 977.05 431.01 976.12 423.03 975.51 C 410.27 980.82 397.46 986.30 385.62 993.52 C 375.00 1000.09 365.10 1010.00 363.41 1022.93 C 370.22 1023.53 377.05 1024.00 383.89 1023.84 C 388.72 1009.73 398.60 996.22 413.13 991.20 C 414.98 989.99 416.96 992.10 416.11 994.00 C 412.73 996.64 408.99 998.88 406.18 1002.18 C 398.09 1010.75 394.72 1022.31 391.18 1033.24 C 406.93 1035.39 422.33 1030.72 437.90 1029.28 C 462.68 1026.56 487.62 1025.94 512.52 1025.24 C 517.82 1025.01 523.24 1023.27 527.13 1019.56 C 533.50 1013.05 535.45 1003.68 536.17 994.91 C 536.86 986.63 536.40 978.33 536.08 970.05 C 535.68 959.01 538.09 947.88 543.06 938.03 C 547.71 929.12 552.00 920.02 555.72 910.68 C 554.79 910.60 552.95 910.44 552.02 910.35 C 523.28 907.63 494.38 898.44 471.90 879.80 C 469.92 877.27 465.02 875.57 466.13 871.81 C 468.38 871.29 470.22 872.86 472.00 873.96 C 486.28 883.64 502.40 890.44 519.07 894.77 C 526.49 896.56 533.97 898.44 541.62 898.82 C 555.88 901.36 570.51 901.14 584.92 900.24 C 611.08 898.26 636.99 891.92 660.83 880.92 C 667.65 877.95 674.14 874.30 680.69 870.77 C 681.20 871.37 682.24 872.57 682.75 873.17 C 678.26 878.57 671.57 881.48 665.98 885.59 C 639.22 901.00 608.69 909.58 577.87 910.95 C 575.98 911.02 574.08 911.07 572.21 911.15 C 581.39 921.77 589.49 933.34 596.16 945.71 C 600.12 953.14 602.26 961.50 602.56 969.91 C 602.89 981.31 602.33 992.80 604.13 1004.10 C 605.00 1009.11 606.47 1014.62 610.89 1017.68 C 613.40 1018.93 616.21 1019.28 618.99 1019.31 C 646.01 1019.20 673.03 1019.23 700.04 1019.29 C 715.20 1019.27 730.19 1021.78 745.25 1023.08 C 746.17 1021.77 744.53 1020.27 744.20 1018.98 C 737.66 1005.72 724.88 996.57 711.21 991.69 C 709.42 991.30 709.75 989.40 710.18 988.13 C 726.52 989.34 742.28 998.38 751.09 1012.28 C 757.74 1013.41 764.49 1013.93 771.24 1013.75 C 768.53 998.04 756.82 985.61 743.98 977.06 C 732.31 969.47 719.03 963.58 705.11 962.17 C 695.56 965.67 685.55 968.55 675.31 968.69 C 672.90 967.98 673.14 964.10 675.67 963.84 C 684.54 961.28 693.23 957.96 701.18 953.21 C 703.96 951.47 707.17 949.98 708.93 947.07 C 715.07 937.43 718.37 926.26 719.91 915.02 C 722.35 897.45 721.19 879.67 721.65 862.00 C 721.72 822.55 720.48 783.04 716.25 743.80 C 716.00 740.82 715.06 737.73 716.10 734.80 C 715.88 734.68 715.44 734.43 715.22 734.30 C 710.05 693.59 702.01 652.98 687.77 614.41 C 682.99 600.12 676.53 586.45 670.04 572.88 C 669.09 571.45 670.37 569.70 672.00 569.92 C 673.37 571.10 674.39 572.63 675.49 574.08 C 696.66 606.84 710.31 643.93 718.69 681.90 C 718.86 682.58 719.18 683.96 719.34 684.65 C 760.48 698.42 804.80 701.17 847.72 696.04 C 846.46 694.96 845.21 693.90 843.98 692.82 C 829.40 680.26 821.23 661.65 818.58 642.85 C 815.93 625.10 817.67 606.97 821.54 589.54 C 806.99 587.62 792.39 585.92 777.98 583.11 C 756.22 578.70 735.16 570.95 715.64 560.37 C 702.47 553.32 689.16 546.00 674.51 542.56 C 672.97 542.11 671.53 542.98 670.10 543.40 C 658.41 547.29 646.53 550.63 634.45 553.08 C 623.31 555.20 612.10 557.11 600.76 557.72 C 641.42 548.64 681.58 534.21 715.62 509.70 C 724.33 503.79 731.86 496.28 740.98 490.97 C 745.35 488.28 749.96 486.01 754.37 483.38 C 762.01 479.58 769.64 475.58 776.44 470.38 C 779.47 467.72 782.37 464.19 782.87 460.10 C 781.74 455.10 780.17 450.20 779.03 445.20 C 772.86 443.20 766.66 440.50 760.03 440.91 C 748.33 441.42 737.82 447.70 729.00 454.96 C 718.52 463.69 705.91 469.73 692.62 472.70 C 689.73 481.21 687.24 489.96 682.81 497.83 C 680.68 501.48 677.55 505.41 672.97 505.62 C 667.83 505.71 663.59 502.14 660.36 498.51 C 654.30 491.43 650.48 482.71 647.69 473.90 C 639.41 472.63 631.12 471.47 622.90 469.87 C 607.37 467.10 591.86 463.42 576.00 463.52 C 569.08 463.10 562.16 463.66 555.25 463.99 C 550.94 473.22 546.87 482.66 540.99 491.03 C 538.31 494.61 534.84 498.54 530.05 498.76 C 524.55 498.86 520.49 494.32 517.82 490.02 C 511.76 479.86 509.36 468.04 507.50 456.50 C 500.57 453.47 493.13 451.53 487.07 446.80 C 479.66 441.77 472.99 435.54 467.87 428.18 C 463.86 419.11 458.07 410.94 451.69 403.40 C 447.77 399.02 443.65 394.65 438.51 391.70 C 436.61 390.55 434.65 389.50 432.71 388.43 C 441.72 386.03 450.46 390.98 457.56 396.05 C 463.63 401.98 468.96 408.61 473.36 415.87 C 474.44 415.06 475.53 414.26 476.61 413.45 C 484.14 407.84 492.53 402.38 502.08 401.40 C 507.02 400.72 511.96 404.81 511.65 409.91 C 511.30 417.94 508.42 425.58 506.70 433.38 C 505.93 436.56 505.31 439.78 504.74 443.00 C 524.70 452.09 547.14 454.11 568.82 452.56 C 569.98 448.59 571.14 444.60 572.83 440.82 C 576.37 433.17 580.74 425.71 586.89 419.86 C 589.80 417.11 593.83 414.67 597.98 415.83 C 601.59 416.74 603.58 420.27 604.66 423.56 C 606.90 430.36 608.24 437.41 610.06 444.33 C 611.27 448.85 612.64 453.33 614.25 457.74 C 633.22 461.87 652.49 465.64 672.00 465.16 C 685.78 464.74 699.70 461.72 711.73 454.81 C 718.45 451.10 723.96 445.66 730.40 441.52 C 739.96 435.09 751.24 430.25 762.99 431.03 C 774.18 431.39 784.01 437.71 795.03 439.04 C 806.94 440.78 819.82 435.85 826.88 425.95 C 834.07 415.93 838.47 404.00 840.11 391.81 C 843.15 374.53 841.57 356.28 835.02 339.97 C 827.99 322.48 812.32 309.57 794.89 303.20 C 774.35 295.38 751.11 297.69 731.13 306.11 C 727.92 307.66 724.35 306.62 721.02 306.13 C 700.52 302.43 678.92 302.28 658.99 308.92 C 645.68 313.43 632.88 320.79 624.19 332.07 C 615.74 342.83 611.78 356.50 611.03 370.02 C 610.63 374.68 611.21 379.38 610.64 384.03 C 606.08 369.34 605.04 353.03 610.66 338.48 C 616.18 323.73 627.97 312.03 641.60 304.53 C 660.78 293.97 683.38 290.12 705.05 292.65 C 689.48 284.95 672.27 281.08 655.04 279.61 C 630.92 277.64 606.54 280.10 583.06 285.83 C 556.03 292.70 529.41 304.30 508.88 323.58 C 503.52 328.44 499.15 334.20 494.54 339.72 C 495.84 336.55 497.39 333.48 499.11 330.51 C 507.32 316.45 519.33 304.87 532.91 296.01 C 536.08 293.94 539.33 292.00 542.65 290.18 C 557.22 282.30 573.00 276.80 589.15 273.24 C 591.84 272.65 594.54 272.11 597.25 271.62 C 599.93 271.15 602.62 270.73 605.31 270.36 C 606.81 270.15 608.32 269.96 609.83 269.78 Z" />
<path fill="#d5f6ff" d="M 476.94 303.59 C 479.89 294.18 482.85 284.76 485.90 275.38 C 490.56 282.77 491.26 293.50 485.30 300.39 C 483.32 302.99 479.89 303.11 476.94 303.59 Z" />
<path fill="#31a6b7" d="M 462.56 278.70 C 461.97 288.72 466.41 300.63 476.94 303.59 C 475.21 308.85 473.58 314.13 471.90 319.40 C 469.55 314.65 466.69 309.82 462.00 307.06 C 459.31 305.29 456.03 305.09 452.93 304.85 C 456.13 296.13 459.37 287.42 462.56 278.70 Z" />
<path fill="#59da41" d="M 583.06 285.83 C 606.54 280.10 630.92 277.64 655.04 279.61 C 672.27 281.08 689.48 284.95 705.05 292.65 C 683.38 290.12 660.78 293.97 641.60 304.53 C 627.97 312.03 616.18 323.73 610.66 338.48 C 605.04 353.03 606.08 369.34 610.64 384.03 C 611.21 379.38 610.63 374.68 611.03 370.02 C 611.78 356.50 615.74 342.83 624.19 332.07 C 632.88 320.79 645.68 313.43 658.99 308.92 C 678.92 302.28 700.52 302.43 721.02 306.13 C 724.35 306.62 727.92 307.66 731.13 306.11 C 751.11 297.69 774.35 295.38 794.89 303.20 C 812.32 309.57 827.99 322.48 835.02 339.97 C 841.57 356.28 843.15 374.53 840.11 391.81 C 835.99 399.80 832.42 408.43 825.62 414.60 C 820.04 419.39 813.27 422.99 805.95 424.11 C 798.01 425.22 789.86 424.24 782.30 421.65 C 775.41 419.33 768.45 416.63 761.06 416.74 C 748.04 416.61 736.35 423.68 726.53 431.59 C 718.70 438.19 709.84 443.66 700.13 447.01 C 681.18 453.62 660.65 452.70 641.04 450.12 C 630.67 448.48 620.14 447.31 610.06 444.33 C 608.24 437.41 606.90 430.36 604.66 423.56 C 603.58 420.27 601.59 416.74 597.98 415.83 C 593.83 414.67 589.80 417.11 586.89 419.86 C 580.74 425.71 576.37 433.17 572.83 440.82 C 565.88 440.94 558.98 441.90 552.02 441.78 C 541.23 441.95 530.46 440.52 519.97 438.05 C 515.45 436.82 510.72 435.91 506.70 433.38 C 508.42 425.58 511.30 417.94 511.65 409.91 C 511.96 404.81 507.02 400.72 502.08 401.40 C 492.53 402.38 484.14 407.84 476.61 413.45 C 471.21 409.34 469.36 402.06 463.66 398.27 C 461.87 396.95 459.64 396.61 457.56 396.05 C 450.46 390.98 441.72 386.03 432.71 388.43 C 434.65 389.50 436.61 390.55 438.51 391.70 C 430.38 390.43 422.10 391.35 413.96 392.08 C 398.86 393.52 384.65 400.40 373.18 410.16 C 361.16 420.63 354.41 436.21 353.18 451.95 C 351.33 474.59 358.39 497.56 371.60 515.93 C 364.29 514.32 357.97 510.05 351.53 506.44 C 345.17 502.89 339.75 497.96 333.55 494.17 C 313.94 471.47 305.56 440.55 307.30 410.92 C 308.97 378.51 321.28 347.84 335.84 319.23 C 338.83 319.15 342.03 318.49 344.07 316.12 C 347.74 312.07 347.88 306.27 347.95 301.12 C 357.74 296.91 367.49 292.57 377.35 288.52 L 377.83 288.71 C 384.27 304.09 391.82 319.41 403.35 331.66 C 413.20 342.20 427.46 347.49 441.52 349.23 C 461.12 351.53 481.20 347.29 498.89 338.81 C 502.23 333.76 505.56 328.67 508.88 323.58 C 529.41 304.30 556.03 292.70 583.06 285.83 Z" />
<path fill="#31a6b7" d="M 473.99 339.46 C 482.20 319.59 490.54 299.77 498.83 279.93 C 499.64 281.88 500.49 283.85 500.87 285.94 C 503.07 297.23 502.90 309.15 499.19 320.10 C 497.78 324.47 495.26 328.36 493.74 332.69 C 487.41 335.62 480.76 337.80 473.99 339.46 Z" />
<path fill="#3ea561" d="M 706.25 281.74 C 706.30 281.68 706.39 281.55 706.44 281.48 L 706.28 281.75 L 706.25 281.74 Z" />
<path fill="#aded9f" d="M 730.01 313.20 C 744.75 304.92 761.98 300.16 778.92 302.59 C 792.30 304.54 805.32 310.47 814.98 320.01 C 806.20 315.49 796.94 311.64 787.07 310.38 C 767.30 307.54 746.85 312.81 730.04 323.34 C 695.95 315.86 659.67 322.66 629.30 339.38 C 636.14 328.30 648.12 321.38 660.20 317.27 C 680.66 310.64 702.66 310.73 723.81 313.27 C 725.85 313.35 728.12 314.37 730.01 313.20 Z" />
<path fill="#4bbbd1" d="M 452.93 304.85 C 456.03 305.09 459.31 305.29 462.00 307.06 C 466.69 309.82 469.55 314.65 471.90 319.40 C 470.34 324.17 468.82 328.95 467.35 333.74 C 463.68 333.64 459.74 333.65 456.58 331.50 C 452.26 329.02 449.85 324.52 447.15 320.54 C 449.11 315.32 451.05 310.10 452.93 304.85 Z" />
<path fill="#c6f3ee" d="M 431.34 308.52 C 434.76 316.22 437.13 324.71 443.24 330.87 C 442.06 334.31 440.82 337.73 439.58 341.16 C 434.51 340.34 429.54 338.97 424.80 337.01 C 426.94 327.50 429.11 318.00 431.34 308.52 Z" />
<path fill="#31a6b7" d="M 447.15 320.54 C 449.85 324.52 452.26 329.02 456.58 331.50 C 459.74 333.65 463.68 333.64 467.35 333.74 C 466.56 336.23 465.77 338.72 464.99 341.22 C 461.77 341.68 458.52 341.95 455.28 342.08 C 450.97 338.63 445.28 335.84 443.47 330.25 C 444.75 327.04 445.96 323.79 447.15 320.54 Z" />
<path fill="#42b72a" d="M 361.30 322.43 C 368.36 321.32 376.15 323.63 380.85 329.16 C 385.73 334.29 386.35 342.71 382.60 348.66 C 376.76 358.45 362.82 361.54 353.00 356.09 C 346.13 352.74 341.76 344.48 343.81 336.95 C 345.80 329.00 353.39 323.46 361.30 322.43 Z" />
<path fill="#43d8c5" d="M 443.24 330.87 L 443.47 330.25 C 445.28 335.84 450.97 338.63 455.28 342.08 C 450.03 342.28 444.76 341.99 439.58 341.16 C 440.82 337.73 442.06 334.31 443.24 330.87 Z" />
<path fill="#203a13" d="M 790.02 338.07 C 793.23 334.31 799.44 333.43 803.23 336.83 C 808.17 341.32 809.25 348.98 807.29 355.14 C 805.89 359.77 800.82 363.17 796.00 361.76 C 792.40 360.83 790.60 357.22 787.60 355.39 C 784.46 354.62 782.85 358.29 781.01 360.16 C 782.44 352.34 784.57 344.11 790.02 338.07 Z" />
<path fill="#42b72a" d="M 413.33 344.40 C 421.47 342.78 431.45 348.86 430.63 357.90 C 429.68 369.30 414.00 374.39 405.63 367.36 C 401.30 364.26 399.41 358.25 401.37 353.27 C 403.44 348.48 408.13 344.98 413.33 344.40 Z" />
<path fill="#203a13" d="M 657.53 362.36 C 658.67 358.77 662.11 356.02 665.94 356.02 C 670.40 355.97 674.14 358.93 677.08 362.00 C 680.98 366.26 684.20 371.18 686.57 376.45 C 684.34 375.30 682.15 372.59 679.40 373.55 C 676.69 375.85 676.17 380.04 672.98 381.93 C 669.00 384.50 663.45 383.01 660.66 379.38 C 656.95 374.69 655.67 368.06 657.53 362.36 Z" />
<path fill="#42b72a" d="M 327.38 367.46 C 334.20 365.99 342.39 370.64 343.08 377.93 C 343.96 384.29 338.95 390.54 332.70 391.58 C 326.30 393.06 318.76 389.63 316.84 383.09 C 314.46 376.03 320.29 368.41 327.38 367.46 Z" />
<path fill="#42b72a" d="M 372.41 371.43 C 376.51 370.65 380.93 372.18 383.84 375.14 C 386.63 378.36 387.60 383.41 385.25 387.16 C 381.85 393.43 372.68 395.18 367.07 390.88 C 362.80 388.11 361.39 382.09 363.68 377.61 C 365.31 374.23 368.80 372.11 372.41 371.43 Z" />
<path fill="#ffdf46" d="M 413.96 392.08 C 422.10 391.35 430.38 390.43 438.51 391.70 C 443.65 394.65 447.77 399.02 451.69 403.40 C 458.07 410.94 463.86 419.11 467.87 428.18 C 472.99 435.54 479.66 441.77 487.07 446.80 C 493.13 451.53 500.57 453.47 507.50 456.50 C 509.36 468.04 511.76 479.86 517.82 490.02 C 520.49 494.32 524.55 498.86 530.05 498.76 C 534.84 498.54 538.31 494.61 540.99 491.03 C 546.87 482.66 550.94 473.22 555.25 463.99 C 562.16 463.66 569.08 463.10 576.00 463.52 C 591.86 463.42 607.37 467.10 622.90 469.87 C 631.12 471.47 639.41 472.63 647.69 473.90 C 650.48 482.71 654.30 491.43 660.36 498.51 C 663.59 502.14 667.83 505.71 672.97 505.62 C 677.55 505.41 680.68 501.48 682.81 497.83 C 687.24 489.96 689.73 481.21 692.62 472.70 C 705.91 469.73 718.52 463.69 729.00 454.96 C 737.82 447.70 748.33 441.42 760.03 440.91 C 766.66 440.50 772.86 443.20 779.03 445.20 C 780.17 450.20 781.74 455.10 782.87 460.10 C 782.37 464.19 779.47 467.72 776.44 470.38 C 769.64 475.58 762.01 479.58 754.37 483.38 C 752.08 483.27 749.83 483.73 747.74 484.63 C 743.46 486.37 738.97 487.84 735.28 490.70 C 718.92 494.64 703.87 502.39 687.93 507.56 C 670.74 513.18 652.15 513.35 634.56 509.60 C 635.57 510.21 636.59 510.82 637.62 511.43 C 635.46 512.70 632.99 511.67 630.72 511.43 C 622.49 509.88 614.08 510.71 605.92 512.25 C 562.17 519.85 518.50 529.24 473.99 531.12 C 444.75 532.33 415.00 530.73 386.87 522.12 C 382.33 520.83 378.03 518.71 373.32 518.09 C 372.74 517.36 372.16 516.65 371.60 515.93 C 358.39 497.56 351.33 474.59 353.18 451.95 C 354.41 436.21 361.16 420.63 373.18 410.16 C 384.65 400.40 398.86 393.52 413.96 392.08 Z" />
<path fill="#48aa31" d="M 825.62 414.60 C 832.42 408.43 835.99 399.80 840.11 391.81 C 838.47 404.00 834.07 415.93 826.88 425.95 C 819.82 435.85 806.94 440.78 795.03 439.04 C 784.01 437.71 774.18 431.39 762.99 431.03 C 751.24 430.25 739.96 435.09 730.40 441.52 C 723.96 445.66 718.45 451.10 711.73 454.81 C 699.70 461.72 685.78 464.74 672.00 465.16 C 652.49 465.64 633.22 461.87 614.25 457.74 C 612.64 453.33 611.27 448.85 610.06 444.33 C 620.14 447.31 630.67 448.48 641.04 450.12 C 660.65 452.70 681.18 453.62 700.13 447.01 C 709.84 443.66 718.70 438.19 726.53 431.59 C 736.35 423.68 748.04 416.61 761.06 416.74 C 768.45 416.63 775.41 419.33 782.30 421.65 C 789.86 424.24 798.01 425.22 805.95 424.11 C 813.27 422.99 820.04 419.39 825.62 414.60 Z" />
<path fill="#48aa31" d="M 457.56 396.05 C 459.64 396.61 461.87 396.95 463.66 398.27 C 469.36 402.06 471.21 409.34 476.61 413.45 C 475.53 414.26 474.44 415.06 473.36 415.87 C 468.96 408.61 463.63 401.98 457.56 396.05 Z" />
<path fill="#42b72a" d="M 329.19 409.34 C 335.36 407.40 342.88 410.30 345.52 416.35 C 348.06 422.21 344.83 429.65 338.99 432.06 C 332.25 435.36 322.61 432.39 320.17 424.96 C 317.83 418.36 322.53 410.85 329.19 409.34 Z" />
<path fill="#ffffff" d="M 479.21 424.06 C 485.84 418.53 493.27 413.56 501.68 411.24 C 500.07 420.27 497.27 429.03 495.49 438.02 C 489.43 434.16 483.92 429.48 479.21 424.06 Z" />
<path fill="#ffffff" d="M 579.06 452.60 C 582.26 442.72 587.20 432.96 594.94 425.88 C 598.09 435.64 599.77 445.81 602.94 455.57 C 595.05 454.12 587.08 453.04 579.06 452.60 Z" />
<path fill="#48aa31" d="M 504.74 443.00 C 505.31 439.78 505.93 436.56 506.70 433.38 C 510.72 435.91 515.45 436.82 519.97 438.05 C 530.46 440.52 541.23 441.95 552.02 441.78 C 558.98 441.90 565.88 440.94 572.83 440.82 C 571.14 444.60 569.98 448.59 568.82 452.56 C 547.14 454.11 524.70 452.09 504.74 443.00 Z" />
<path fill="#ffffff" d="M 790.09 448.34 C 798.08 450.01 806.46 449.56 814.24 447.07 C 810.36 455.36 806.07 463.99 798.68 469.71 C 796.73 468.33 795.84 466.07 794.96 463.96 C 792.93 458.89 791.53 453.59 790.09 448.34 Z" />
<path fill="#ffffff" d="M 518.15 459.86 C 526.73 462.02 535.52 463.32 544.35 463.84 C 539.98 472.43 536.51 481.87 529.69 488.89 C 526.84 486.38 525.11 482.93 523.65 479.50 C 521.01 473.21 519.40 466.54 518.15 459.86 Z" />
<path fill="#ffffff" d="M 658.51 474.80 C 666.18 475.25 673.89 475.23 681.55 474.48 C 678.87 481.72 677.01 489.56 672.19 495.76 C 665.17 490.79 661.65 482.50 658.51 474.80 Z" />
<path fill="#c8b63a" d="M 747.74 484.63 C 749.83 483.73 752.08 483.27 754.37 483.38 C 749.96 486.01 745.35 488.28 740.98 490.97 C 731.86 496.28 724.33 503.79 715.62 509.70 C 681.58 534.21 641.42 548.64 600.76 557.72 C 587.12 561.31 573.31 564.25 559.60 567.58 C 550.68 569.76 541.43 568.50 532.39 569.56 C 528.10 570.11 523.78 569.89 519.48 569.85 C 475.72 563.97 431.48 555.82 391.26 536.89 C 384.83 531.08 378.37 525.19 373.32 518.09 C 378.03 518.71 382.33 520.83 386.87 522.12 C 415.00 530.73 444.75 532.33 473.99 531.12 C 518.50 529.24 562.17 519.85 605.92 512.25 C 614.08 510.71 622.49 509.88 630.72 511.43 C 632.99 511.67 635.46 512.70 637.62 511.43 C 650.69 518.81 666.52 520.16 681.06 517.14 C 696.04 513.88 709.53 506.20 722.63 498.51 C 726.81 495.86 731.42 493.85 735.28 490.70 C 738.97 487.84 743.46 486.37 747.74 484.63 Z" />
<path fill="#203a13" d="M 687.93 507.56 C 703.87 502.39 718.92 494.64 735.28 490.70 C 731.42 493.85 726.81 495.86 722.63 498.51 C 709.53 506.20 696.04 513.88 681.06 517.14 C 666.52 520.16 650.69 518.81 637.62 511.43 C 636.59 510.82 635.57 510.21 634.56 509.60 C 652.15 513.35 670.74 513.18 687.93 507.56 Z" />
<path fill="#48aa31" d="M 333.55 494.17 C 339.75 497.96 345.17 502.89 351.53 506.44 C 357.97 510.05 364.29 514.32 371.60 515.93 C 372.16 516.65 372.74 517.36 373.32 518.09 C 378.37 525.19 384.83 531.08 391.26 536.89 C 369.46 526.81 348.63 513.12 333.55 494.17 Z" />
<path fill="#febc1d" d="M 931.08 513.15 C 943.73 506.73 960.42 510.76 968.83 522.16 C 977.66 533.21 977.18 550.34 967.75 560.89 C 964.13 565.17 959.28 568.28 954.01 570.15 C 952.15 564.46 951.49 558.12 947.51 553.39 C 946.36 550.93 945.37 548.41 944.35 545.90 C 943.76 547.38 943.14 548.85 942.48 550.30 C 941.50 550.09 939.55 549.66 938.58 549.45 C 939.37 547.54 940.17 545.63 940.96 543.72 C 935.76 545.49 930.65 547.47 925.52 549.41 C 921.95 549.67 918.37 549.41 914.81 549.49 C 910.56 535.49 917.79 519.27 931.08 513.15 Z" />
<path fill="#ffecce" d="M 938.04 520.93 C 942.18 519.65 946.65 519.64 950.80 520.94 C 948.76 525.71 946.68 530.47 944.66 535.26 C 941.62 530.99 940.35 525.63 938.04 520.93 Z" />
<path fill="#ffecce" d="M 926.20 530.33 C 928.32 527.15 931.08 524.48 934.28 522.39 C 936.55 526.92 938.40 531.64 940.31 536.33 C 935.56 534.44 930.81 532.53 926.20 530.33 Z" />
<path fill="#ffecce" d="M 954.26 522.51 C 958.08 524.39 961.12 527.66 963.05 531.44 C 958.07 533.18 953.16 535.11 948.18 536.83 C 950.18 532.05 952.33 527.32 954.26 522.51 Z" />
<path fill="#ffffff" d="M 786.28 534.77 C 785.84 530.90 786.13 526.92 787.62 523.29 C 806.81 525.94 826.01 528.52 845.20 531.15 C 847.60 531.32 849.87 532.99 850.46 535.38 C 851.61 540.06 852.50 544.80 853.57 549.50 C 849.65 549.49 845.73 549.46 841.82 549.56 C 840.94 545.65 838.00 542.10 833.93 541.39 C 818.06 539.06 802.14 537.13 786.28 534.77 Z" />
<path fill="#ffecce" d="M 924.45 534.11 C 929.27 536.01 934.37 537.62 938.75 540.43 C 933.72 541.99 928.95 544.31 923.85 545.58 C 923.29 541.74 923.49 537.86 924.45 534.11 Z" />
<path fill="#ffecce" d="M 949.80 540.41 C 954.74 538.60 959.64 536.66 964.65 535.03 C 965.37 538.87 965.78 542.93 964.39 546.69 C 959.58 544.47 954.63 542.56 949.80 540.41 Z" />
<path fill="#59da41" d="M 670.10 543.40 C 671.53 542.98 672.97 542.11 674.51 542.56 C 689.16 546.00 702.47 553.32 715.64 560.37 C 735.16 570.95 756.22 578.70 777.98 583.11 C 792.39 585.92 806.99 587.62 821.54 589.54 C 817.67 606.97 815.93 625.10 818.58 642.85 C 818.46 643.43 818.21 644.59 818.09 645.17 C 784.48 644.69 751.10 633.64 723.60 614.35 C 710.59 605.26 699.53 593.81 687.64 583.38 C 683.76 580.06 680.01 576.51 675.49 574.08 C 674.39 572.63 673.37 571.10 672.00 569.92 C 670.37 569.70 669.09 571.45 670.04 572.88 C 676.53 586.45 682.99 600.12 687.77 614.41 C 680.85 602.58 673.47 590.94 664.33 580.67 C 658.88 574.34 652.82 568.59 646.68 562.95 C 650.90 560.52 655.21 558.09 658.57 554.49 C 662.28 550.65 667.58 548.34 670.10 543.40 Z" />
<path fill="#48aa31" d="M 634.45 553.08 C 646.53 550.63 658.41 547.29 670.10 543.40 C 667.58 548.34 662.28 550.65 658.57 554.49 C 655.21 558.09 650.90 560.52 646.68 562.95 L 646.46 563.07 C 642.71 559.44 638.43 556.43 634.45 553.08 Z" />
<path fill="#ffebce" d="M 925.52 549.41 C 930.65 547.47 935.76 545.49 940.96 543.72 C 940.17 545.63 939.37 547.54 938.58 549.45 C 934.22 549.49 929.87 549.58 925.52 549.41 Z" />
<path fill="#ffecce" d="M 947.86 543.87 C 952.97 545.91 958.01 548.14 963.10 550.25 C 961.13 554.01 958.13 557.30 954.30 559.20 C 952.20 554.06 949.90 549.02 947.86 543.87 Z" />
<path fill="#ffffff" d="M 942.48 550.30 C 943.14 548.85 943.76 547.38 944.35 545.90 C 945.37 548.41 946.36 550.93 947.51 553.39 C 946.01 552.05 944.27 551.10 942.33 550.65 L 942.48 550.30 Z" />
<path fill="#59da41" d="M 341.25 561.27 C 356.99 555.41 373.38 551.43 389.81 548.00 C 392.75 553.01 397.78 556.20 402.42 559.47 C 414.70 567.46 428.69 572.41 442.73 576.32 C 456.24 579.94 470.04 582.45 483.92 584.13 C 465.31 613.43 452.00 646.09 444.82 680.05 C 438.81 679.16 432.68 679.35 426.70 680.34 C 418.93 671.31 411.78 661.77 403.95 652.80 C 405.38 645.12 407.24 637.53 408.97 629.92 C 412.85 615.04 416.35 599.96 422.53 585.82 C 421.99 582.87 419.28 584.98 418.78 586.68 C 408.56 604.99 402.93 625.35 396.65 645.24 C 389.20 638.05 381.81 630.73 373.51 624.50 C 372.23 623.34 370.77 624.77 370.19 625.92 C 377.40 633.37 384.36 641.08 390.67 649.32 C 393.51 652.58 395.11 656.68 397.91 659.97 C 405.36 669.22 412.87 678.41 420.32 687.65 C 421.59 689.42 423.65 690.81 425.93 690.09 C 435.96 688.05 446.92 688.53 455.91 693.85 C 452.13 698.09 448.08 702.15 444.86 706.86 C 441.21 712.11 439.49 718.74 440.42 725.10 C 443.54 740.71 441.34 757.10 446.66 772.35 C 441.91 771.29 436.93 770.04 433.07 766.93 C 428.20 762.24 426.31 755.46 424.97 749.04 C 424.99 747.70 423.56 745.14 422.11 746.95 C 420.24 753.52 421.55 760.39 423.16 766.86 C 421.77 778.95 419.53 791.33 412.99 801.83 C 409.98 799.98 407.35 797.58 405.13 794.86 C 402.08 791.06 398.82 787.15 397.78 782.26 C 395.95 776.49 396.15 770.41 395.52 764.48 C 394.93 764.36 393.73 764.11 393.13 763.98 C 390.61 772.06 390.54 780.77 392.58 788.97 C 390.36 793.55 387.17 797.53 383.73 801.25 C 378.50 796.61 374.63 790.59 371.78 784.25 C 368.09 776.02 367.11 766.93 366.55 758.03 C 366.38 750.17 365.39 742.27 366.72 734.46 C 367.04 730.79 368.82 727.24 368.12 723.54 C 354.11 714.85 339.73 706.56 327.12 695.84 C 315.46 686.08 305.11 674.39 298.49 660.60 C 292.00 646.92 289.68 631.39 291.44 616.37 C 291.98 612.37 292.91 608.43 293.22 604.41 C 291.99 605.83 290.79 607.32 289.99 609.05 C 284.72 619.92 281.51 631.90 281.52 644.03 C 281.55 651.90 281.91 659.78 282.49 667.64 C 283.55 680.32 289.92 692.18 299.08 700.87 C 303.05 705.15 307.81 708.55 312.01 712.59 L 311.25 713.37 C 302.73 706.44 294.21 699.17 287.98 690.02 C 282.41 681.80 279.98 671.87 279.60 662.05 C 279.34 653.69 278.32 645.32 279.08 636.96 C 280.58 618.71 288.01 600.90 300.33 587.30 C 311.34 575.14 326.05 567.01 341.25 561.27 Z" />
<path fill="#48aa31" d="M 389.81 548.00 C 392.91 548.65 395.76 550.07 398.69 551.24 C 428.60 563.10 460.54 570.04 492.73 570.91 C 489.83 575.34 486.77 579.67 483.92 584.13 C 470.04 582.45 456.24 579.94 442.73 576.32 C 428.69 572.41 414.70 567.46 402.42 559.47 C 397.78 556.20 392.75 553.01 389.81 548.00 Z" />
<path fill="#bcad36" d="M 600.76 557.72 C 612.10 557.11 623.31 555.20 634.45 553.08 C 638.43 556.43 642.71 559.44 646.46 563.07 C 628.50 572.69 608.56 577.88 588.63 581.51 C 554.10 587.45 518.71 587.99 483.92 584.13 C 486.77 579.67 489.83 575.34 492.73 570.91 C 501.65 570.95 510.64 571.20 519.48 569.85 C 523.78 569.89 528.10 570.11 532.39 569.56 C 541.43 568.50 550.68 569.76 559.60 567.58 C 573.31 564.25 587.12 561.31 600.76 557.72 Z" />
<path fill="#a5b0a0" d="M 836.45 568.33 C 838.16 564.53 838.54 558.81 843.50 557.88 C 847.15 574.61 850.80 591.33 854.40 608.07 C 851.57 608.30 848.76 608.60 845.96 608.96 C 844.73 603.73 843.77 598.44 842.47 593.23 C 842.32 591.85 840.71 591.69 839.67 591.49 C 836.45 591.02 833.21 590.89 829.98 590.60 C 830.73 587.50 831.51 584.40 832.38 581.33 C 834.93 581.60 837.49 581.84 840.06 582.06 C 838.92 577.47 838.61 572.59 836.45 568.33 Z" />
<path fill="#ffffff" d="M 843.50 557.88 C 847.50 558.05 851.51 557.89 855.53 558.02 C 858.89 574.60 862.69 591.08 866.19 607.63 C 862.25 607.63 858.32 607.76 854.40 608.07 C 850.80 591.33 847.15 574.61 843.50 557.88 Z" />
<path fill="#a5b0a0" d="M 855.53 558.02 C 858.37 557.96 861.22 557.94 864.08 557.97 C 866.07 566.89 867.91 575.85 869.96 584.77 C 886.21 585.96 902.48 587.09 918.78 587.44 C 916.05 590.18 913.13 592.93 911.67 596.60 C 898.48 596.14 885.32 595.27 872.16 594.38 C 872.89 598.90 873.96 603.35 874.92 607.83 C 872.01 607.70 869.10 607.63 866.19 607.63 C 862.69 591.08 858.89 574.60 855.53 558.02 Z" />
<path fill="#cbfff0" d="M 864.08 557.97 C 879.65 557.98 895.21 557.92 910.78 558.00 C 915.57 567.66 924.72 574.49 934.90 577.66 C 928.95 579.82 923.41 583.11 918.78 587.44 C 902.48 587.09 886.21 585.96 869.96 584.77 C 867.91 575.85 866.07 566.89 864.08 557.97 Z" />
<path fill="#a5b0a0" d="M 910.78 558.00 C 913.43 557.96 916.09 557.94 918.76 557.98 C 924.74 566.73 935.07 571.97 945.66 571.77 C 945.86 572.60 946.25 574.26 946.44 575.09 C 942.47 575.28 938.62 576.33 934.90 577.66 C 924.72 574.49 915.57 567.66 910.78 558.00 Z" />
<path fill="#ffe5a4" d="M 918.76 557.98 C 925.20 557.99 931.65 557.89 938.09 558.01 C 940.06 558.00 941.92 559.45 942.59 561.28 C 943.76 564.73 944.62 568.28 945.66 571.77 C 935.07 571.97 924.74 566.73 918.76 557.98 Z" />
<path fill="#ffdf46" d="M 646.46 563.07 L 646.68 562.95 C 652.82 568.59 658.88 574.34 664.33 580.67 C 673.47 590.94 680.85 602.58 687.77 614.41 C 702.01 652.98 710.05 693.59 715.22 734.30 C 716.06 745.89 714.26 757.48 713.06 768.99 C 710.73 787.52 706.80 805.91 700.47 823.51 C 700.18 824.10 699.61 825.29 699.32 825.89 C 691.12 835.45 682.92 845.14 672.97 852.97 C 664.96 859.26 656.46 865.11 647.11 869.24 C 601.83 886.28 550.92 885.73 505.11 870.92 C 498.24 868.88 491.66 866.04 484.84 863.87 C 484.08 863.22 483.32 862.59 482.57 861.97 C 472.84 851.51 464.26 839.91 457.88 827.09 C 450.63 812.82 446.14 797.32 443.00 781.68 C 447.22 782.31 452.59 783.45 455.75 779.71 C 458.38 776.95 457.86 772.82 456.34 769.65 C 451.56 757.27 452.75 743.74 451.21 730.80 C 450.64 726.21 448.92 721.44 450.58 716.88 C 452.96 710.13 458.77 705.52 463.15 700.11 C 466.64 695.90 465.57 688.88 461.03 685.85 C 456.18 682.68 450.49 681.00 444.82 680.05 C 452.00 646.09 465.31 613.43 483.92 584.13 C 518.71 587.99 554.10 587.45 588.63 581.51 C 608.56 577.88 628.50 572.69 646.46 563.07 Z" />
<path fill="#cbfff0" d="M 836.45 568.33 C 838.61 572.59 838.92 577.47 840.06 582.06 C 837.49 581.84 834.93 581.60 832.38 581.33 C 833.62 576.96 835.01 572.64 836.45 568.33 Z" />
<path fill="#42b72a" d="M 675.49 574.08 C 680.01 576.51 683.76 580.06 687.64 583.38 C 699.53 593.81 710.59 605.26 723.60 614.35 C 751.10 633.64 784.48 644.69 818.09 645.17 C 818.21 644.59 818.46 643.43 818.58 642.85 C 821.23 661.65 829.40 680.26 843.98 692.82 C 802.06 697.26 759.10 694.25 718.69 681.90 C 710.31 643.93 696.66 606.84 675.49 574.08 Z" />
<path fill="#59da41" d="M 922.22 597.39 C 927.71 590.78 935.66 586.48 944.03 584.79 C 949.89 583.56 956.03 586.82 958.85 592.01 C 966.36 604.53 968.30 619.60 968.05 633.98 C 967.45 648.91 964.22 664.71 954.32 676.39 C 946.94 684.99 934.08 687.08 923.80 682.93 C 926.01 674.89 931.93 668.00 939.09 663.84 C 942.74 663.33 946.57 663.60 950.06 662.21 C 951.83 661.22 951.10 658.22 949.03 658.27 C 944.97 657.77 941.18 656.33 937.60 654.42 C 930.02 651.79 922.27 647.57 918.73 639.97 C 921.56 631.22 927.35 622.64 936.31 619.43 C 940.56 619.08 945.00 619.52 949.07 617.98 C 950.46 616.18 948.98 614.12 946.94 614.10 C 940.47 613.23 934.96 609.64 929.26 606.78 C 926.29 604.34 922.90 601.24 922.22 597.39 Z" />
<path fill="#bdf1b3" d="M 825.98 626.62 C 825.36 614.53 827.44 602.40 829.98 590.60 C 833.21 590.89 836.45 591.02 839.67 591.49 C 840.71 591.69 842.32 591.85 842.47 593.23 C 843.77 598.44 844.73 603.73 845.96 608.96 C 843.75 609.71 839.43 608.58 839.36 611.94 C 837.25 624.61 836.70 637.67 839.09 650.35 C 832.76 643.68 829.25 635.05 825.98 626.62 Z" />
<path fill="#bdf1b3" d="M 872.16 594.38 C 885.32 595.27 898.48 596.14 911.67 596.60 C 913.09 602.61 916.66 607.83 920.89 612.22 C 905.51 611.41 890.32 608.51 874.92 607.83 C 873.96 603.35 872.89 598.90 872.16 594.38 Z" />
<path fill="#42b72a" d="M 289.99 609.05 C 290.79 607.32 291.99 605.83 293.22 604.41 C 292.91 608.43 291.98 612.37 291.44 616.37 C 289.68 631.39 292.00 646.92 298.49 660.60 C 305.11 674.39 315.46 686.08 327.12 695.84 C 339.73 706.56 354.11 714.85 368.12 723.54 C 366.97 724.15 365.60 724.67 365.11 726.01 C 362.61 730.72 361.00 735.86 359.95 741.07 C 345.12 733.64 330.51 725.59 316.97 715.97 C 316.13 715.60 315.24 715.47 314.30 715.57 C 313.26 714.86 312.24 714.13 311.25 713.37 L 312.01 712.59 C 307.81 708.55 303.05 705.15 299.08 700.87 C 289.92 692.18 283.55 680.32 282.49 667.64 C 281.91 659.78 281.55 651.90 281.52 644.03 C 281.51 631.90 284.72 619.92 289.99 609.05 Z" />
<path fill="#febc1d" d="M 845.96 608.96 C 848.76 608.60 851.57 608.30 854.40 608.07 C 858.32 607.76 862.25 607.63 866.19 607.63 C 869.10 607.63 872.01 607.70 874.92 607.83 C 890.32 608.51 905.51 611.41 920.89 612.22 C 922.29 612.98 923.44 614.12 924.72 615.10 C 916.80 621.20 911.34 630.31 909.13 640.00 C 911.20 649.47 919.21 656.41 927.64 660.44 C 924.78 662.98 922.44 666.01 919.97 668.90 C 910.18 672.90 899.71 675.58 889.06 675.13 C 873.51 674.75 858.03 668.93 846.43 658.48 C 844.21 656.44 842.06 654.32 839.70 652.46 C 839.49 651.75 839.29 651.04 839.09 650.35 C 836.70 637.67 837.25 624.61 839.36 611.94 C 839.43 608.58 843.75 609.71 845.96 608.96 Z" />
<path fill="#203a13" d="M 662.90 617.07 C 670.00 616.18 677.01 614.61 684.15 614.06 C 684.30 614.55 684.60 615.52 684.75 616.01 C 677.90 619.17 670.32 620.56 663.07 622.62 C 622.25 632.81 579.99 636.03 538.02 635.57 C 514.20 635.27 490.38 633.44 466.84 629.70 C 465.65 629.66 464.84 629.07 464.39 627.94 C 530.70 629.74 597.23 626.70 662.90 617.07 Z" />
<path fill="#aded9f" d="M 359.99 625.94 C 358.91 623.75 362.39 622.60 363.34 624.60 C 383.66 644.71 402.07 666.90 417.10 691.25 C 411.12 690.02 405.85 686.63 401.03 683.03 C 389.45 674.45 381.81 661.93 374.08 650.04 C 369.19 642.12 364.29 634.19 359.99 625.94 Z" />
<path fill="#87af7b" d="M 825.98 626.62 C 829.25 635.05 832.76 643.68 839.09 650.35 C 839.29 651.04 839.49 651.75 839.70 652.46 C 842.25 664.72 848.94 676.48 859.53 683.48 C 864.98 687.23 871.34 689.35 877.75 690.80 C 872.43 693.11 866.57 693.44 860.93 694.36 C 848.77 687.79 839.00 677.06 833.46 664.41 C 828.28 652.57 825.55 639.54 825.98 626.62 Z" />
<path fill="#bb951a" d="M 839.70 652.46 C 842.06 654.32 844.21 656.44 846.43 658.48 C 858.03 668.93 873.51 674.75 889.06 675.13 C 899.71 675.58 910.18 672.90 919.97 668.90 C 916.80 674.81 912.87 681.12 913.57 688.08 C 902.09 691.93 889.68 692.64 877.75 690.80 C 871.34 689.35 864.98 687.23 859.53 683.48 C 848.94 676.48 842.25 664.72 839.70 652.46 Z" />
<path fill="#59da41" d="M 718.69 681.90 C 759.10 694.25 802.06 697.26 843.98 692.82 C 845.21 693.90 846.46 694.96 847.72 696.04 C 804.80 701.17 760.48 698.42 719.34 684.65 C 719.18 683.96 718.86 682.58 718.69 681.90 Z" />
<path fill="#7e8c75" d="M 877.75 690.80 C 889.68 692.64 902.09 691.93 913.57 688.08 C 914.86 689.13 916.29 690.00 917.85 690.65 C 905.39 694.51 892.68 697.43 880.10 700.78 C 873.39 699.86 866.97 697.36 860.93 694.36 C 866.57 693.44 872.43 693.11 877.75 690.80 Z" />
<path fill="#97c4ad" d="M 880.10 700.78 C 892.68 697.43 905.39 694.51 917.85 690.65 C 919.64 691.23 921.43 691.85 923.21 692.51 C 910.76 700.85 894.74 703.29 880.10 700.78 Z" />
<path fill="#203a13" d="M 701.36 706.57 C 703.10 705.92 707.79 704.00 706.58 707.66 C 691.41 715.32 675.08 720.41 658.61 724.46 C 621.85 733.24 583.78 735.93 546.08 734.33 C 514.72 732.80 483.16 728.30 453.60 717.37 C 451.41 716.75 453.04 713.44 454.87 714.35 C 493.37 724.13 533.34 727.04 572.96 726.07 C 598.42 725.39 623.84 723.00 648.97 718.83 C 666.66 715.85 684.28 712.15 701.36 706.57 Z" />
<path fill="#59da41" d="M 212.27 708.95 C 216.04 710.96 218.72 714.41 221.66 717.41 C 232.08 728.91 242.16 740.76 253.53 751.36 C 268.42 765.41 285.18 777.74 303.98 786.03 C 318.12 792.23 333.41 796.59 348.99 795.99 C 354.31 795.96 359.55 795.01 364.80 794.27 C 367.73 797.69 369.95 801.97 373.27 805.22 C 365.15 808.10 361.35 816.85 359.57 824.65 C 356.76 837.86 356.44 851.45 353.61 864.67 L 353.27 864.65 C 333.43 863.15 313.72 858.16 296.06 848.89 C 271.82 836.34 252.19 816.13 237.95 793.04 C 225.96 773.73 217.37 752.48 211.05 730.70 C 210.45 723.48 210.06 715.95 212.27 708.95 Z" />
<path fill="#cbfff0" d="M 882.61 709.79 C 888.24 710.34 893.92 710.39 899.54 709.70 C 899.70 721.44 899.53 733.18 899.62 744.92 C 899.36 747.32 901.41 749.03 903.57 749.49 C 913.79 752.61 923.69 758.20 929.84 767.18 C 931.33 768.85 930.30 771.84 928.12 772.29 C 905.19 779.35 880.04 779.70 857.17 772.16 C 854.98 771.77 853.67 768.88 855.20 767.13 C 861.15 758.54 870.64 753.36 879.90 749.05 C 881.49 748.44 882.68 746.86 882.58 745.12 C 882.65 733.35 882.58 721.57 882.61 709.79 Z" />
<path fill="#59da41" d="M 314.30 715.57 C 315.24 715.47 316.13 715.60 316.97 715.97 C 330.51 725.59 345.12 733.64 359.95 741.07 L 359.78 742.47 C 343.92 734.79 328.58 725.92 314.30 715.57 Z" />
<path fill="#246f10" d="M 246.95 731.24 C 250.86 730.09 255.23 728.17 259.24 729.71 C 261.96 733.67 260.20 739.05 259.31 743.40 C 257.98 743.91 257.28 742.30 256.38 741.65 C 253.30 738.13 249.30 735.35 246.95 731.24 Z" />
<path fill="#ffdf46" d="M 211.05 730.70 C 217.37 752.48 225.96 773.73 237.95 793.04 C 252.19 816.13 271.82 836.34 296.06 848.89 C 313.72 858.16 333.43 863.15 353.27 864.65 C 351.06 872.43 346.32 880.22 338.58 883.47 C 329.88 887.16 320.18 886.35 311.01 885.56 C 309.03 878.53 309.02 871.20 308.52 863.98 C 307.79 870.90 307.45 877.87 308.11 884.81 C 296.17 882.06 285.31 876.22 275.10 869.63 L 274.63 869.35 C 270.47 860.44 269.25 850.54 269.63 840.80 C 267.85 848.26 267.54 856.01 268.47 863.62 C 264.11 861.68 261.40 857.53 257.58 854.84 C 252.02 849.07 248.37 841.76 245.53 834.35 C 242.96 827.53 242.09 819.86 244.70 812.91 C 241.50 817.68 240.69 823.53 240.68 829.16 C 230.78 810.81 223.30 791.18 218.01 771.02 C 214.64 757.80 211.93 744.34 211.05 730.70 Z" />
<path fill="#59da41" d="M 715.22 734.30 C 715.44 734.43 715.88 734.68 716.10 734.80 C 715.06 737.73 716.00 740.82 716.25 743.80 C 720.48 783.04 721.72 822.55 721.65 862.00 C 721.19 879.67 722.35 897.45 719.91 915.02 C 718.37 926.26 715.07 937.43 708.93 947.07 C 707.17 949.98 703.96 951.47 701.18 953.21 C 693.23 957.96 684.54 961.28 675.67 963.84 C 673.14 964.10 672.90 967.98 675.31 968.69 C 685.55 968.55 695.56 965.67 705.11 962.17 C 719.03 963.58 732.31 969.47 743.98 977.06 C 756.82 985.61 768.53 998.04 771.24 1013.75 C 764.49 1013.93 757.74 1013.41 751.09 1012.28 C 742.28 998.38 726.52 989.34 710.18 988.13 C 709.75 989.40 709.42 991.30 711.21 991.69 C 724.88 996.57 737.66 1005.72 744.20 1018.98 C 720.35 1018.50 696.39 1017.00 673.06 1011.70 C 667.43 1010.23 661.57 1006.47 660.55 1000.30 C 659.56 993.78 660.75 987.06 662.83 980.86 C 664.03 977.06 666.40 973.76 667.66 970.01 C 667.60 966.30 663.30 966.23 660.68 965.38 C 656.00 964.36 652.08 960.70 650.77 956.10 C 648.26 947.65 647.48 938.79 647.22 930.02 C 646.88 919.46 648.51 908.42 654.57 899.52 C 657.58 894.24 662.38 890.40 665.98 885.59 C 671.57 881.48 678.26 878.57 682.75 873.17 C 682.24 872.57 681.20 871.37 680.69 870.77 C 691.55 859.89 697.90 845.13 700.37 830.09 C 700.76 827.91 700.57 825.69 700.47 823.51 C 706.80 805.91 710.73 787.52 713.06 768.99 C 714.26 757.48 716.06 745.89 715.22 734.30 Z" />
<path fill="#42b72a" d="M 407.38 754.37 C 409.84 751.21 413.81 748.40 418.00 749.06 C 418.92 753.75 417.27 758.38 416.92 763.04 C 416.27 771.00 416.95 779.13 415.12 786.96 C 414.89 788.52 413.84 789.71 412.84 790.85 C 407.83 789.25 406.08 783.74 405.12 779.12 C 403.44 770.98 402.55 761.64 407.38 754.37 Z" />
<path fill="#246f10" d="M 284.39 763.45 C 288.12 761.37 292.20 758.72 296.65 759.29 C 300.89 762.64 300.00 769.10 299.83 773.93 C 294.46 771.16 289.22 768.08 284.31 764.56 C 284.33 764.29 284.37 763.73 284.39 763.45 Z" />
<path fill="#42b72a" d="M 387.25 760.39 C 388.69 760.10 388.89 762.06 388.64 763.08 C 387.90 770.08 388.50 777.13 389.94 784.01 C 390.60 786.77 390.52 790.24 388.01 792.09 C 385.59 793.79 382.75 791.71 381.21 789.80 C 376.32 783.62 376.02 774.87 378.63 767.69 C 379.95 763.94 383.23 760.87 387.25 760.39 Z" />
<path fill="#246f10" d="M 336.34 772.40 C 338.28 771.02 340.86 772.06 342.24 773.75 C 345.52 777.47 348.12 781.98 349.08 786.89 C 341.82 786.81 334.16 786.96 327.34 784.16 C 329.53 779.73 332.25 775.31 336.34 772.40 Z" />
<path fill="#59da41" d="M 431.64 777.99 C 435.38 779.34 439.08 780.91 443.00 781.68 C 446.14 797.32 450.63 812.82 457.88 827.09 C 464.26 839.91 472.84 851.51 482.57 861.97 C 476.00 860.57 470.55 856.31 464.20 854.37 C 461.84 854.87 460.26 857.43 461.31 859.73 C 463.02 863.75 466.08 867.00 468.64 870.50 C 467.79 870.92 466.96 871.36 466.13 871.81 C 465.02 875.57 469.92 877.27 471.90 879.80 C 473.45 882.61 475.37 885.20 477.33 887.75 C 490.61 906.74 495.89 931.11 491.75 953.90 C 490.50 960.24 488.38 966.94 483.21 971.21 C 481.44 972.89 478.53 975.03 480.13 977.81 C 482.53 983.48 485.96 988.84 486.70 995.09 C 487.95 1001.81 485.93 1009.16 480.84 1013.86 C 474.03 1020.55 464.21 1022.37 455.07 1023.37 C 440.37 1025.07 425.68 1026.87 410.97 1028.61 C 404.23 1029.38 397.46 1030.57 391.18 1033.24 C 394.72 1022.31 398.09 1010.75 406.18 1002.18 C 408.99 998.88 412.73 996.64 416.11 994.00 C 416.96 992.10 414.98 989.99 413.13 991.20 C 398.60 996.22 388.72 1009.73 383.89 1023.84 C 377.05 1024.00 370.22 1023.53 363.41 1022.93 C 365.10 1010.00 375.00 1000.09 385.62 993.52 C 397.46 986.30 410.27 980.82 423.03 975.51 C 431.01 976.12 439.23 977.05 447.05 974.78 C 446.90 974.22 446.62 973.11 446.47 972.55 C 438.65 970.58 429.91 969.66 423.38 964.56 C 405.88 937.40 396.76 905.72 391.55 874.07 C 388.31 853.36 386.27 832.42 386.11 811.45 C 390.92 809.48 393.88 804.99 397.15 801.20 C 400.43 804.79 403.89 808.40 408.23 810.73 C 412.62 813.12 418.64 811.48 421.28 807.25 C 427.09 798.54 429.96 788.23 431.64 777.99 Z" />
<path fill="#42b72a" d="M 373.27 805.22 C 374.64 805.97 373.96 807.74 374.20 809.02 C 374.44 827.66 375.87 846.29 378.53 864.75 C 370.23 865.16 361.90 865.24 353.61 864.67 C 356.44 851.45 356.76 837.86 359.57 824.65 C 361.35 816.85 365.15 808.10 373.27 805.22 Z" />
<path fill="#203a13" d="M 690.42 812.59 C 691.93 812.13 693.43 811.62 695.00 811.35 C 697.05 810.92 697.68 814.32 695.72 814.77 C 666.88 827.89 635.56 835.10 604.09 838.17 C 569.71 841.27 534.79 839.68 500.98 832.55 C 487.77 829.62 474.64 826.01 462.09 820.90 C 459.64 819.95 461.72 816.19 463.95 817.49 C 529.45 836.06 599.52 834.70 665.50 819.27 C 673.88 817.34 682.20 815.12 690.42 812.59 Z" />
<path fill="#48aa31" d="M 700.47 823.51 C 700.57 825.69 700.76 827.91 700.37 830.09 C 697.90 845.13 691.55 859.89 680.69 870.77 C 674.14 874.30 667.65 877.95 660.83 880.92 C 678.61 866.78 691.68 847.18 699.32 825.89 C 699.61 825.29 700.18 824.10 700.47 823.51 Z" />
<path fill="#bcad36" d="M 672.97 852.97 C 682.92 845.14 691.12 835.45 699.32 825.89 C 691.68 847.18 678.61 866.78 660.83 880.92 C 636.99 891.92 611.08 898.26 584.92 900.24 C 570.51 901.14 555.88 901.36 541.62 898.82 C 520.60 891.20 500.48 880.07 484.84 863.87 C 491.66 866.04 498.24 868.88 505.11 870.92 C 550.92 885.73 601.83 886.28 647.11 869.24 C 656.46 865.11 664.96 859.26 672.97 852.97 Z" />
<path fill="#48aa31" d="M 464.20 854.37 C 470.55 856.31 476.00 860.57 482.57 861.97 C 483.32 862.59 484.08 863.22 484.84 863.87 C 500.48 880.07 520.60 891.20 541.62 898.82 C 533.97 898.44 526.49 896.56 519.07 894.77 C 502.40 890.44 486.28 883.64 472.00 873.96 C 470.22 872.86 468.38 871.29 466.13 871.81 C 466.96 871.36 467.79 870.92 468.64 870.50 C 466.08 867.00 463.02 863.75 461.31 859.73 C 460.26 857.43 461.84 854.87 464.20 854.37 Z" />
<path fill="#a59d31" d="M 257.58 854.84 C 261.40 857.53 264.11 861.68 268.47 863.62 L 268.74 863.75 C 269.03 865.74 269.35 867.75 269.74 869.74 C 265.54 864.94 260.49 860.53 257.58 854.84 Z" />
<path fill="#bcad36" d="M 353.27 864.65 L 353.61 864.67 C 361.90 865.24 370.23 865.16 378.53 864.75 C 382.06 888.63 387.73 912.29 396.72 934.73 C 390.78 933.69 384.71 932.97 378.96 931.11 C 369.68 926.18 364.02 916.74 359.35 907.69 C 354.71 898.13 350.90 888.13 348.35 877.81 C 348.26 879.40 348.30 880.99 348.58 882.59 C 351.50 898.21 355.75 913.96 364.52 927.41 C 353.45 924.14 342.70 919.86 332.29 914.88 C 320.32 910.13 314.00 897.38 311.01 885.56 C 320.18 886.35 329.88 887.16 338.58 883.47 C 346.32 880.22 351.06 872.43 353.27 864.65 Z" />
<path fill="#bcad36" d="M 275.10 869.63 C 285.31 876.22 296.17 882.06 308.11 884.81 C 308.96 891.68 310.75 898.41 313.62 904.72 C 303.31 898.55 293.52 891.46 284.44 883.60 C 280.53 879.59 276.96 874.94 275.10 869.63 Z" />
<path fill="#42b72a" d="M 471.90 879.80 C 494.38 898.44 523.28 907.63 552.02 910.35 C 548.68 919.31 545.00 928.15 540.75 936.71 C 538.70 940.81 536.80 945.00 535.49 949.40 C 530.08 966.82 535.52 985.25 532.10 1002.97 C 531.59 1008.82 528.54 1013.94 527.13 1019.56 C 523.24 1023.27 517.82 1025.01 512.52 1025.24 C 487.62 1025.94 462.68 1026.56 437.90 1029.28 C 422.33 1030.72 406.93 1035.39 391.18 1033.24 C 397.46 1030.57 404.23 1029.38 410.97 1028.61 C 425.68 1026.87 440.37 1025.07 455.07 1023.37 C 464.21 1022.37 474.03 1020.55 480.84 1013.86 C 485.93 1009.16 487.95 1001.81 486.70 995.09 C 485.96 988.84 482.53 983.48 480.13 977.81 C 478.53 975.03 481.44 972.89 483.21 971.21 C 488.38 966.94 490.50 960.24 491.75 953.90 C 495.89 931.11 490.61 906.74 477.33 887.75 C 475.37 885.20 473.45 882.61 471.90 879.80 Z" />
<path fill="#42b72a" d="M 577.87 910.95 C 608.69 909.58 639.22 901.00 665.98 885.59 C 662.38 890.40 657.58 894.24 654.57 899.52 C 648.51 908.42 646.88 919.46 647.22 930.02 C 647.48 938.79 648.26 947.65 650.77 956.10 C 652.08 960.70 656.00 964.36 660.68 965.38 C 663.30 966.23 667.60 966.30 667.66 970.01 C 666.40 973.76 664.03 977.06 662.83 980.86 C 660.75 987.06 659.56 993.78 660.55 1000.30 C 661.57 1006.47 667.43 1010.23 673.06 1011.70 C 696.39 1017.00 720.35 1018.50 744.20 1018.98 C 744.53 1020.27 746.17 1021.77 745.25 1023.08 C 730.19 1021.78 715.20 1019.27 700.04 1019.29 C 673.03 1019.23 646.01 1019.20 618.99 1019.31 C 616.21 1019.28 613.40 1018.93 610.89 1017.68 C 610.14 1013.14 608.17 1008.91 607.54 1004.35 C 605.69 991.63 606.46 978.75 605.85 965.96 C 605.16 954.12 599.64 943.33 593.53 933.42 C 588.94 925.50 583.51 918.13 577.87 910.95 Z" />
<path fill="#42b72a" d="M 405.19 909.29 C 412.03 907.26 416.94 914.02 419.68 919.30 C 424.44 928.71 430.12 937.80 437.68 945.24 C 441.24 949.02 445.43 953.46 444.90 959.09 C 444.72 962.71 442.13 966.13 438.35 966.45 C 430.46 967.50 423.37 961.64 419.89 955.00 C 414.89 945.39 410.94 935.29 406.45 925.44 C 404.17 920.74 402.99 915.34 404.32 910.19 C 404.53 909.97 404.97 909.52 405.19 909.29 Z" />
<path fill="#59da41" d="M 552.02 910.35 C 552.95 910.44 554.79 910.60 555.72 910.68 C 552.00 920.02 547.71 929.12 543.06 938.03 C 538.09 947.88 535.68 959.01 536.08 970.05 C 536.40 978.33 536.86 986.63 536.17 994.91 C 535.45 1003.68 533.50 1013.05 527.13 1019.56 C 528.54 1013.94 531.59 1008.82 532.10 1002.97 C 535.52 985.25 530.08 966.82 535.49 949.40 C 536.80 945.00 538.70 940.81 540.75 936.71 C 545.00 928.15 548.68 919.31 552.02 910.35 Z" />
<path fill="#59da41" d="M 572.21 911.15 C 574.08 911.07 575.98 911.02 577.87 910.95 C 583.51 918.13 588.94 925.50 593.53 933.42 C 599.64 943.33 605.16 954.12 605.85 965.96 C 606.46 978.75 605.69 991.63 607.54 1004.35 C 608.17 1008.91 610.14 1013.14 610.89 1017.68 C 606.47 1014.62 605.00 1009.11 604.13 1004.10 C 602.33 992.80 602.89 981.31 602.56 969.91 C 602.26 961.50 600.12 953.14 596.16 945.71 C 589.49 933.34 581.39 921.77 572.21 911.15 Z" />
<path fill="#7cffd7" d="M 552.01 941.09 C 556.35 932.87 560.20 924.39 563.80 915.82 C 569.54 922.29 574.87 929.15 579.64 936.38 C 584.52 944.15 589.94 951.93 591.97 961.03 C 593.93 969.21 593.09 977.68 593.42 986.01 C 577.57 985.68 561.71 985.61 545.87 985.83 C 545.88 980.21 545.57 974.60 545.42 968.99 C 545.18 959.33 547.49 949.63 552.01 941.09 Z" />
<path fill="#aded9f" d="M 717.07 971.87 C 716.04 968.61 720.24 969.80 722.03 970.07 C 731.66 972.59 740.59 977.63 748.02 984.24 C 747.76 984.70 747.26 985.61 747.01 986.07 C 736.25 983.56 724.66 980.47 717.07 971.87 Z" />
<path fill="#5fc49c" d="M 545.87 985.83 C 561.71 985.61 577.57 985.68 593.42 986.01 C 593.71 997.03 593.80 1008.76 599.34 1018.64 C 602.79 1024.93 609.83 1028.69 616.93 1028.61 C 644.29 1028.64 671.66 1028.57 699.02 1028.63 C 714.74 1028.59 730.29 1031.21 745.91 1032.62 C 748.58 1032.62 751.67 1033.73 754.08 1032.15 C 757.20 1029.84 755.48 1025.57 755.38 1022.39 C 762.52 1023.12 769.77 1023.54 776.92 1022.65 C 779.21 1022.48 781.18 1020.36 781.06 1018.04 C 780.96 1012.21 779.46 1006.47 777.27 1001.10 C 789.87 1003.62 802.50 1006.26 814.68 1010.44 C 821.16 1012.77 827.78 1015.31 833.13 1019.76 C 836.13 1022.10 838.21 1026.46 836.02 1030.04 C 832.53 1035.48 826.21 1038.08 820.53 1040.62 C 803.93 1047.14 786.31 1050.54 768.79 1053.62 C 725.23 1060.84 681.11 1064.08 637.03 1066.01 C 582.72 1068.24 528.31 1068.06 474.02 1065.38 C 429.81 1062.98 385.51 1059.45 341.99 1051.02 C 327.57 1047.99 312.99 1044.78 299.60 1038.45 C 295.06 1036.09 289.76 1033.29 288.16 1028.06 C 287.15 1022.88 292.01 1019.24 295.86 1016.84 C 306.10 1010.94 317.67 1007.94 329.05 1005.09 C 341.01 1002.30 353.09 999.89 365.27 998.28 C 358.35 1006.19 353.76 1016.38 353.61 1026.99 C 353.48 1029.45 355.69 1031.43 358.06 1031.59 C 365.67 1032.71 373.37 1033.20 381.07 1033.22 C 380.13 1035.93 379.43 1039.79 382.60 1041.35 C 388.24 1042.92 394.21 1042.86 400.03 1043.08 C 412.54 1043.44 424.66 1039.94 437.04 1038.80 C 462.60 1035.87 488.35 1035.31 514.04 1034.55 C 524.08 1034.13 533.51 1028.30 538.75 1019.79 C 545.14 1009.75 545.62 997.37 545.87 985.83 Z" />
</svg>
