<svg width="1191pt" height="1191pt" viewBox="0 0 1191 1191" version="1.1" xmlns="http://www.w3.org/2000/svg">
<path fill="#84fbff"  d="M 0 0 L 1191 0 L 1191 1191 L 0 1191 L 0 0 Z" />
<path fill="#000072"  d="M 239 260 C 250 252 264 248 278 249 C 292 250 305 256 315 266 C 325 275 332 288 333 301 C 334 314 332 326 326 337 C 328 344 330 351 332 358 C 333 362 330 365 327 364 C 319 363 311 361 303 359 C 292 366 278 368 265 366 C 249 364 234 354 225 339 C 216 327 214 311 217 296 C 220 282 228 269 239 260 Z" />
<path fill="#000072"  d="M 416 152 C 425 148 436 149 446 151 C 471 158 495 171 517 185 C 534 190 551 192 568 195 C 596 199 624 202 651 211 C 669 199 688 188 708 179 C 724 173 740 167 758 165 C 767 164 777 164 785 169 C 792 175 795 184 798 193 C 802 213 802 233 801 253 C 799 281 794 310 786 338 C 794 355 801 373 805 392 C 810 414 813 436 813 459 C 826 457 840 457 854 460 C 858 461 862 462 866 463 C 865 464 863 463 862 463 C 845 463 829 463 813 466 C 812 484 809 502 804 519 C 821 522 837 530 848 544 C 834 535 818 529 802 526 C 795 543 786 559 773 572 C 751 595 722 610 691 618 C 709 632 723 649 738 667 C 745 633 769 602 801 590 C 819 584 839 582 858 586 C 874 588 890 596 902 607 C 924 628 934 659 930 688 C 928 703 922 718 911 729 C 901 739 887 747 873 746 C 864 745 856 742 850 736 C 844 728 842 718 843 708 C 843 698 848 687 848 676 C 847 671 846 664 840 661 C 835 657 827 657 821 659 C 811 662 803 670 799 680 C 793 692 793 706 796 719 C 801 743 812 766 823 788 C 829 799 834 809 837 821 C 844 847 844 875 831 899 C 824 913 811 924 797 931 C 775 940 751 942 728 938 C 728 960 728 983 727 1006 C 728 1014 730 1023 729 1031 C 729 1040 726 1050 719 1056 C 712 1063 701 1063 692 1063 C 675 1063 659 1063 642 1063 C 633 1063 623 1061 615 1055 C 608 1049 606 1039 606 1030 C 606 1022 607 1015 608 1008 C 605 979 603 950 600 922 L 598 922 C 599 947 602 972 602 997 C 602 1008 603 1018 601 1029 C 600 1039 595 1048 587 1054 C 578 1061 567 1063 556 1064 C 538 1064 520 1064 502 1064 C 492 1064 482 1064 474 1058 C 465 1052 462 1041 463 1030 C 464 1017 474 1007 486 1002 C 478 967 471 932 465 897 C 452 895 438 891 428 881 C 417 870 412 854 411 839 C 409 814 415 789 423 766 C 435 728 455 693 478 662 C 488 647 500 633 512 621 C 479 616 447 606 418 589 C 402 579 387 567 376 552 C 364 538 355 520 353 501 C 336 500 319 501 304 506 C 302 507 301 507 299 508 C 314 496 334 492 352 494 C 351 480 353 466 357 452 C 341 446 325 440 308 436 C 304 435 300 434 295 433 C 317 430 340 434 360 443 C 361 439 363 435 365 432 C 365 410 369 389 374 369 C 381 342 389 317 402 293 C 396 263 393 232 395 201 C 396 189 398 177 403 166 C 405 160 409 154 416 152 Z" />
<path fill="#ffffff"  d="M 420 160 C 427 158 434 159 441 160 C 455 163 469 169 482 176 C 481 187 482 200 483 211 C 471 200 458 189 442 182 C 437 179 431 177 425 179 C 421 176 416 174 410 174 C 410 173 410 172 410 171 C 412 167 415 162 420 160 Z" />
<path fill="#cccce4"  d="M 406 185 C 407 181 408 176 410 171 C 410 172 410 173 410 174 C 416 174 421 176 425 179 C 420 182 418 187 417 192 C 413 206 413 221 413 235 C 410 236 407 236 404 237 C 403 220 403 202 406 185 Z" />
<path fill="#ffd6a0"  d="M 726 182 C 738 178 751 174 764 173 C 771 173 779 175 783 181 C 782 180 781 180 780 179 C 773 177 766 178 760 180 C 742 183 726 190 710 197 C 696 204 682 211 668 219 C 666 218 664 217 661 216 C 682 203 703 191 726 182 Z" />
<path fill="#ffad41"  d="M 760 180 C 766 178 773 177 780 179 C 771 178 764 186 761 194 C 752 195 743 200 735 205 C 722 214 709 223 699 235 C 697 238 693 243 697 246 C 722 263 742 286 759 310 C 761 313 765 313 767 310 C 769 313 771 315 773 318 C 776 326 779 333 781 341 C 765 352 747 359 729 362 C 712 365 694 364 678 359 C 659 353 642 343 629 328 C 635 328 641 327 646 325 C 640 316 632 307 622 301 C 619 298 615 296 610 296 C 601 268 602 238 607 209 C 631 212 654 216 676 224 C 674 222 671 221 668 219 C 682 211 696 204 710 197 C 726 190 742 183 760 180 Z" />
<path fill="#ff9243"  d="M 761 194 C 764 186 771 178 780 179 C 781 180 782 180 783 181 C 787 188 789 196 791 205 C 794 225 793 247 791 267 C 788 287 785 307 779 327 C 777 324 776 321 773 318 C 771 315 769 313 767 310 C 775 296 778 280 781 264 C 782 249 783 234 781 219 C 780 212 778 205 775 198 C 772 194 766 193 761 194 Z" />
<path fill="#ffffff"  d="M 491 185 C 502 190 513 195 524 198 C 551 205 579 207 607 209 C 602 238 601 268 610 296 C 605 297 601 300 598 303 C 594 309 594 318 599 323 C 601 326 605 327 608 328 C 615 330 622 329 629 328 C 642 343 659 353 678 359 C 694 364 712 365 729 362 C 747 359 765 352 781 341 C 794 380 803 420 802 460 C 787 464 772 470 759 480 C 773 475 787 470 802 468 C 802 485 800 502 795 518 C 782 517 769 518 756 523 C 768 523 780 523 792 525 C 786 541 775 557 762 569 C 759 572 756 575 753 576 C 752 576 750 577 749 578 C 715 595 678 604 640 608 C 594 612 547 610 502 602 C 480 598 458 593 438 585 C 433 584 428 581 423 580 C 414 575 405 568 398 561 C 382 547 370 529 365 508 C 370 507 374 507 379 505 C 390 500 399 489 398 477 C 397 462 384 450 369 448 C 371 444 373 440 375 436 C 379 395 386 354 403 316 C 411 297 421 280 433 264 C 442 266 451 266 459 262 C 443 262 429 255 418 245 C 430 243 443 239 454 234 C 465 229 476 225 488 223 C 499 220 511 223 523 221 C 513 220 504 216 494 213 C 491 204 491 195 491 185 Z" />
<path fill="#ff5c65"  d="M 428 188 C 431 187 434 188 436 189 C 445 193 453 198 461 204 C 465 208 470 211 474 215 C 467 217 461 219 454 222 C 450 215 445 208 439 202 C 437 200 435 198 432 198 C 429 197 427 199 424 201 C 425 196 426 192 428 188 Z" />
<path fill="#000072"  d="M 735 205 C 743 200 752 195 761 194 C 766 193 772 194 775 198 C 778 205 780 212 781 219 C 783 234 782 249 781 264 C 778 280 775 296 767 310 C 765 313 761 313 759 310 C 742 286 722 263 697 246 C 693 243 697 238 699 235 C 709 223 722 214 735 205 Z" />
<path fill="#f27e81"  d="M 424 201 C 427 199 429 197 432 198 C 435 198 437 200 439 202 C 445 208 450 215 454 222 C 444 226 433 230 423 233 C 422 222 422 211 424 201 Z" />
<path fill="#ff5c65"  d="M 761 203 C 763 203 765 202 767 203 C 770 209 771 216 772 223 C 769 219 766 215 762 212 C 759 211 755 212 752 214 C 745 221 741 231 741 241 C 742 251 747 261 753 270 C 757 277 761 285 765 292 C 764 294 764 297 762 298 C 746 277 728 257 706 241 C 716 230 727 222 739 214 C 746 210 753 205 761 203 Z" />
<path fill="#f27e81"  d="M 752 214 C 755 212 759 211 762 212 C 766 215 769 219 772 223 C 774 246 772 270 765 292 C 761 285 757 277 753 270 C 747 261 742 251 741 241 C 741 231 745 221 752 214 Z" />
<path fill="#cccce4"  d="M 404 246 C 408 249 411 252 415 255 C 416 259 417 264 417 268 C 414 272 412 276 409 281 C 407 269 405 257 404 246 Z" />
<path fill="#ffffff"  d="M 257 262 C 269 257 283 257 294 263 C 308 269 319 281 322 296 C 326 308 323 322 317 334 C 315 335 316 337 317 339 C 306 346 293 350 280 350 C 262 350 243 342 232 327 C 231 326 230 324 228 323 L 227 323 C 224 311 224 298 230 287 C 235 275 245 266 257 262 Z" />
<path fill="#ff0068"  d="M 259 291 C 264 288 270 290 274 294 C 278 289 287 288 292 292 C 297 297 296 306 291 310 C 286 315 281 320 276 325 C 275 327 272 326 271 325 C 266 319 261 314 255 309 C 251 303 253 294 259 291 Z" />
<path fill="#000072"  d="M 598 303 C 601 300 605 297 610 296 C 615 296 619 298 622 301 C 632 307 640 316 646 325 C 641 327 635 328 629 328 C 622 329 615 330 608 328 C 605 327 601 326 599 323 C 594 318 594 309 598 303 Z" />
<path fill="#000072"  d="M 436 309 C 439 306 444 303 448 302 C 454 303 459 306 462 310 C 464 316 463 323 459 327 C 455 330 450 331 446 332 C 437 334 429 334 421 333 C 425 325 430 316 436 309 Z" />
<path fill="#b2b2d4"  d="M 228 323 C 230 324 231 326 232 327 C 243 342 262 350 280 350 C 293 350 306 346 317 339 C 318 344 319 349 321 353 C 315 352 309 351 304 349 C 302 349 301 350 299 350 C 287 358 272 359 259 355 C 246 350 235 340 229 328 C 229 326 227 325 228 323 Z" />
<path fill="#000072"  d="M 433 404 C 442 402 452 404 459 410 C 472 420 477 438 473 454 C 470 464 464 473 455 478 C 448 482 439 483 431 480 C 422 477 415 471 411 463 C 404 449 405 431 414 419 C 418 412 425 406 433 404 Z" />
<path fill="#000072"  d="M 607 405 C 614 403 622 404 629 407 C 636 411 641 417 645 424 C 652 439 651 457 641 471 C 636 478 628 483 620 485 C 610 486 601 483 594 477 C 580 465 576 444 583 428 C 587 417 596 408 607 405 Z" />
<path fill="#ffffff"  d="M 428 426 C 433 424 439 428 441 433 C 443 439 442 447 437 451 C 434 454 429 454 426 452 C 417 446 417 430 428 426 Z" />
<path fill="#ffffff"  d="M 600 428 C 607 424 614 431 615 437 C 618 445 612 457 602 456 C 591 452 590 434 600 428 Z" />
<path fill="#ff989f"  d="M 369 448 C 384 450 397 462 398 477 C 399 489 390 500 379 505 C 374 507 370 507 365 508 L 365 508 C 361 488 363 467 369 448 Z" />
<path fill="#343390"  d="M 449 450 C 451 449 454 450 455 452 C 457 456 457 460 456 464 C 455 466 453 468 451 469 C 446 468 445 464 444 461 C 444 457 445 452 449 450 Z" />
<path fill="#343390"  d="M 625 452 C 627 452 629 454 630 456 C 632 460 632 466 629 470 C 627 471 624 472 622 471 C 619 468 618 464 619 460 C 619 457 621 452 625 452 Z" />
<path fill="#000072"  d="M 488 468 C 494 464 501 464 508 464 C 515 465 522 466 527 470 C 530 473 528 478 526 481 C 522 486 516 490 510 493 C 509 497 508 502 507 507 C 504 503 502 497 501 492 C 495 488 490 484 487 478 C 485 475 484 470 488 468 Z" />
<path fill="#ff989f"  d="M 702 467 C 713 465 726 468 735 476 C 740 480 745 488 745 495 C 746 504 741 512 735 517 C 723 527 706 528 692 522 C 684 519 677 512 674 504 C 672 497 673 489 677 482 C 683 474 692 469 702 467 Z" />
<path fill="#5a5aa4"  d="M 496 470 C 501 468 507 469 512 471 C 511 473 509 473 508 474 C 504 475 501 474 498 472 C 497 472 495 471 496 470 Z" />
<path fill="#000072"  d="M 567 509 C 570 505 576 504 580 507 C 584 509 586 514 584 518 C 583 517 582 516 581 516 C 578 526 570 534 559 537 C 547 541 531 537 524 526 C 536 535 556 535 567 523 C 570 520 572 516 574 512 C 572 510 569 510 567 509 Z" />
<path fill="#cccce4"  d="M 749 578 C 750 577 752 576 753 576 L 753 577 C 741 586 729 593 715 599 C 689 611 660 617 632 624 C 648 624 663 623 679 620 C 683 624 687 627 692 631 C 661 648 625 655 591 654 C 565 654 539 649 516 638 C 519 632 524 628 528 623 C 539 623 551 624 562 624 C 517 617 471 608 431 585 C 428 584 425 582 423 580 C 428 581 433 584 438 585 C 458 593 480 598 502 602 C 547 610 594 612 640 608 C 678 604 715 595 749 578 Z" />
<path fill="#ffffff"  d="M 804 599 C 816 595 830 593 843 593 C 844 595 844 596 846 597 C 848 600 851 603 851 607 C 851 613 846 618 844 624 C 843 628 845 631 846 635 C 837 632 827 632 819 636 C 803 642 792 658 789 675 C 789 675 789 677 789 678 C 785 688 784 700 785 711 C 788 734 797 755 807 775 C 812 786 817 796 822 807 C 831 828 835 852 830 875 C 828 877 827 880 825 883 C 819 893 809 902 798 907 C 787 910 776 911 766 909 C 762 908 758 908 756 905 C 767 903 779 897 786 887 C 794 876 797 863 798 851 C 801 820 796 788 787 759 C 777 730 763 703 745 678 C 749 644 771 612 804 599 Z" />
<path fill="#ffd6a0"  d="M 843 593 C 860 594 877 599 891 610 C 914 628 925 658 921 687 C 922 662 913 636 895 618 C 895 622 894 626 890 627 C 884 631 876 628 870 624 C 864 621 858 615 857 608 C 857 604 860 601 862 599 C 857 598 852 596 846 596 L 846 597 C 844 596 844 595 843 593 Z" />
<path fill="#ffad41"  d="M 846 596 C 852 596 857 598 862 599 C 860 601 857 604 857 608 C 858 615 864 621 870 624 C 876 628 884 631 890 627 C 894 626 895 622 895 618 C 913 636 922 662 921 687 C 918 703 911 719 897 729 C 889 729 881 731 873 728 C 867 726 862 720 861 713 C 858 702 861 691 863 680 C 864 668 864 655 857 644 C 854 640 850 637 846 636 C 846 635 846 635 846 635 C 845 631 843 628 844 624 C 846 618 851 613 851 607 C 851 603 848 600 846 597 L 846 596 Z" />
<path fill="#efefef"  d="M 511 636 C 515 631 520 627 524 622 C 525 622 527 622 528 623 C 524 628 519 632 516 638 C 514 637 512 637 511 636 Z" />
<path fill="#ffffff"  d="M 591 654 C 625 655 661 648 692 631 C 713 649 731 671 745 695 C 762 721 775 749 783 780 C 789 804 791 830 788 856 C 786 864 784 873 779 880 C 767 885 753 887 740 886 C 735 886 730 885 725 886 C 717 887 709 888 702 885 C 698 883 694 879 694 875 C 694 868 698 864 700 858 C 702 853 700 847 696 845 C 689 841 681 842 675 838 C 673 837 672 835 670 835 L 670 835 C 669 829 672 823 676 819 C 685 813 696 811 707 809 C 703 808 699 808 695 807 C 696 795 693 783 691 771 C 687 752 682 733 675 715 C 671 706 667 697 662 688 C 664 693 666 698 667 703 C 667 705 666 706 667 707 C 673 741 679 775 675 809 C 670 812 666 816 663 821 C 660 827 660 834 662 840 C 654 848 646 855 636 860 C 618 868 599 872 580 874 C 546 878 510 874 480 858 C 474 855 470 851 464 848 C 458 832 457 814 458 797 C 458 777 464 757 471 738 C 481 706 496 677 509 647 C 485 676 468 711 457 747 C 450 768 447 790 448 812 C 444 811 439 811 435 812 C 435 812 435 813 435 813 C 439 814 444 816 448 818 C 449 825 450 833 452 840 C 443 848 431 847 421 842 C 418 821 422 799 428 779 C 439 743 456 709 477 678 C 487 663 498 649 511 636 C 512 637 514 637 516 638 C 539 649 565 654 591 654 Z" />
<path fill="#cccce4"  d="M 819 636 C 827 632 837 632 846 635 C 846 635 846 635 846 636 C 847 638 848 640 848 643 C 848 646 845 649 843 651 C 832 646 819 648 809 654 C 800 659 793 668 789 678 C 789 677 789 675 789 675 C 792 658 803 642 819 636 Z" />
<path fill="#ff9243"  d="M 846 636 C 850 637 854 640 857 644 C 864 655 864 668 863 680 C 861 691 858 702 861 713 C 862 720 867 726 873 728 C 881 731 889 729 897 729 C 890 734 880 737 871 736 C 866 735 859 733 856 728 C 851 719 852 709 854 699 C 856 689 858 677 856 667 C 854 660 849 654 843 651 C 845 649 848 646 848 643 C 848 640 847 638 846 636 Z" />
<path fill="#cccce4"  d="M 667 707 C 666 706 667 705 667 703 C 672 715 674 728 677 740 C 681 762 684 783 685 804 C 682 806 678 807 675 809 C 679 775 673 741 667 707 Z" />
<path fill="#cccce4"  d="M 670 835 C 672 835 673 837 675 838 C 681 842 689 841 696 845 C 700 847 702 853 700 858 C 698 864 694 868 694 875 C 694 879 698 883 702 885 C 709 888 717 887 725 886 C 730 885 735 886 740 886 C 753 887 767 885 779 880 C 775 887 767 892 759 894 C 750 897 739 897 729 897 C 716 898 701 899 689 893 C 676 886 673 866 683 856 C 684 854 686 852 689 853 C 692 856 692 860 692 864 C 694 860 695 855 694 851 C 692 847 688 845 684 845 C 678 844 671 841 670 835 Z" />
<path fill="#cccce4"  d="M 421 842 C 431 847 443 848 452 840 C 453 843 453 845 454 848 C 450 851 444 853 440 855 L 439 855 C 445 856 451 856 456 854 C 457 858 460 861 460 864 C 461 872 462 879 463 887 C 452 885 440 881 432 872 C 425 864 422 853 421 842 Z" />
<path fill="#cccce4"  d="M 636 860 C 646 855 654 848 662 840 C 664 845 668 849 673 852 C 663 866 666 890 681 899 C 692 907 706 908 718 907 C 718 915 718 923 718 931 C 709 928 699 926 690 925 C 669 923 648 925 628 929 C 622 931 616 932 610 934 L 610 934 C 610 929 609 924 609 920 C 611 919 613 919 616 918 L 615 918 C 588 918 560 916 533 908 C 517 904 502 896 489 885 C 478 875 469 862 464 848 C 470 851 474 855 480 858 C 510 874 546 878 580 874 C 599 872 618 868 636 860 Z" />
<path fill="#cccce4"  d="M 825 883 C 827 880 828 877 830 875 C 827 893 816 910 800 919 C 778 931 752 932 728 928 C 728 921 728 914 728 906 C 729 906 731 906 732 906 C 740 907 748 906 756 905 C 758 908 762 908 766 909 C 776 911 787 910 798 907 C 809 902 819 893 825 883 Z" />
<path fill="#ffffff"  d="M 472 882 C 478 889 484 895 491 901 C 493 904 497 906 500 908 C 511 917 525 922 538 928 C 548 933 559 937 568 944 C 575 949 577 958 578 966 C 580 979 581 992 581 1004 C 581 1009 581 1014 579 1018 C 576 1024 569 1029 563 1031 C 550 1037 536 1039 522 1039 C 520 1032 522 1024 526 1018 C 521 1023 518 1029 517 1036 C 517 1037 517 1038 517 1039 C 508 1040 499 1039 490 1038 C 488 1031 490 1024 495 1018 C 489 1023 486 1030 485 1038 C 481 1037 477 1037 473 1035 C 473 1033 473 1030 473 1027 C 476 1017 486 1010 496 1008 C 513 1005 531 1006 549 1008 C 534 1003 518 1000 502 999 C 500 999 497 1000 495 999 C 486 960 478 921 472 882 Z" />
<path fill="#cccce4"  d="M 491 901 L 492 901 C 502 908 513 913 524 916 C 545 923 567 925 589 923 C 590 952 593 980 593 1009 C 593 1019 593 1031 587 1040 C 582 1048 573 1053 563 1054 C 554 1055 544 1054 535 1054 C 527 1053 523 1046 522 1039 C 536 1039 550 1037 563 1031 C 569 1029 576 1024 579 1018 C 581 1014 581 1009 581 1004 C 581 992 580 979 578 966 C 577 958 575 949 568 944 C 559 937 548 933 538 928 C 525 922 511 917 500 908 C 497 906 493 904 491 901 Z" />
<path fill="#84fbff"  d="M 598 922 L 600 922 C 603 950 605 979 608 1008 C 607 1015 606 1022 606 1030 C 604 1030 602 1030 601 1029 C 603 1018 602 1008 602 997 C 602 972 599 947 598 922 Z" />
<path fill="#ffffff"  d="M 628 929 C 648 925 669 923 690 925 C 699 926 709 928 718 931 C 718 953 718 976 718 998 C 718 1010 721 1022 720 1033 C 711 1038 702 1038 692 1038 C 692 1031 689 1023 685 1018 C 687 1024 689 1031 688 1038 C 672 1038 657 1038 641 1038 C 640 1031 641 1024 643 1017 C 639 1023 637 1031 637 1038 C 630 1038 622 1036 616 1033 C 615 1026 616 1018 618 1010 C 618 1009 618 1007 618 1006 C 615 982 613 958 610 934 C 616 932 622 931 628 929 Z" />
<path fill="#000072"  d="M 627 1012 C 640 1002 657 998 673 999 C 684 999 695 1003 703 1009 C 678 1002 652 1006 627 1012 Z" />
<path fill="#cccce4"  d="M 475 1046 C 472 1040 472 1033 473 1027 C 473 1030 473 1033 473 1035 C 477 1037 481 1037 485 1038 C 485 1043 486 1049 489 1054 C 484 1053 478 1051 475 1046 Z" />
<path fill="#6acae3"  d="M 587 1054 C 595 1048 600 1039 601 1029 C 602 1030 604 1030 606 1030 C 606 1039 608 1049 615 1055 C 623 1061 633 1063 642 1063 C 659 1063 675 1063 692 1063 C 701 1063 712 1063 719 1056 C 726 1050 729 1040 729 1031 C 749 1032 769 1033 789 1035 C 804 1037 820 1039 834 1043 C 838 1044 842 1045 845 1049 C 847 1051 845 1053 844 1055 C 838 1058 831 1060 824 1062 C 803 1067 782 1069 760 1072 C 706 1077 652 1080 598 1081 C 546 1082 493 1081 442 1077 C 424 1076 407 1075 390 1072 C 381 1070 372 1069 364 1065 C 362 1064 358 1062 360 1059 C 362 1056 365 1054 369 1053 C 379 1049 390 1047 401 1045 C 421 1041 442 1039 462 1037 C 463 1035 463 1033 463 1030 C 462 1041 465 1052 474 1058 C 482 1064 492 1064 502 1064 C 520 1064 538 1064 556 1064 C 567 1063 578 1061 587 1054 Z" />
<path fill="#cccce4"  d="M 616 1033 C 622 1036 630 1038 637 1038 C 637 1044 638 1049 641 1054 C 635 1054 628 1053 623 1049 C 618 1046 616 1039 616 1033 Z" />
<path fill="#cccce4"  d="M 692 1038 C 702 1038 711 1038 720 1033 C 719 1040 717 1047 711 1051 C 705 1054 698 1054 691 1054 C 693 1049 693 1043 692 1038 Z" />
<path fill="#cccce4"  d="M 517 1039 C 517 1038 517 1037 517 1036 C 517 1043 518 1049 521 1054 C 515 1054 509 1054 502 1054 C 495 1053 491 1045 490 1038 C 499 1039 508 1040 517 1039 Z" />
<path fill="#cccce4"  d="M 641 1038 C 657 1038 672 1038 688 1038 C 687 1044 686 1050 681 1054 C 672 1054 662 1054 652 1054 C 646 1051 642 1044 641 1038 Z" />
</svg>
