<?xml version="1.0" encoding="UTF-8" ?>
<!DOCTYPE svg PUBLIC "-//W3C//DTD SVG 1.1//EN" "http://www.w3.org/Graphics/SVG/1.1/DTD/svg11.dtd">
<svg width="1191pt" height="1191pt" viewBox="0 0 1191 1191" version="1.1" xmlns="http://www.w3.org/2000/svg">
<path fill="#bcf0da"  d="M 0 0 L 1191 0 L 1191 1191 L 0 1191 L 0 0 Z" />
<path fill="#1c3d08"  d="M 285 181 C 292 169 306 161 320 160 C 335 158 350 165 360 176 C 371 190 374 209 366 225 C 366 227 364 229 365 230 C 366 236 368 241 369 247 C 370 249 367 252 365 251 C 359 250 353 248 347 247 C 335 253 322 254 310 250 C 296 246 284 235 280 221 C 275 208 277 193 285 181 Z" />
<path fill="#1c3d08"  d="M 608 171 C 618 165 630 162 642 165 C 655 167 666 175 676 184 C 683 188 691 190 698 194 C 712 202 725 215 733 230 C 738 240 742 252 744 265 C 744 268 747 271 749 275 C 754 282 759 289 762 297 C 770 315 772 335 769 354 C 767 366 763 378 758 389 C 767 391 776 394 782 401 C 786 405 787 412 787 417 C 799 410 811 402 822 392 C 828 386 833 379 839 372 C 843 368 847 363 852 361 C 855 356 858 351 861 346 C 859 334 859 320 866 310 C 870 303 876 298 884 297 C 886 287 889 277 897 271 C 904 264 915 265 922 271 C 931 279 932 291 932 302 C 944 301 957 308 963 319 C 969 314 977 309 985 311 C 995 313 1001 322 1001 332 C 1001 343 996 353 989 362 C 987 365 984 367 983 370 C 980 377 978 383 976 389 C 973 396 970 403 967 409 C 965 416 962 421 958 426 C 956 432 954 439 950 445 C 935 468 915 488 894 505 C 862 529 825 547 787 556 C 798 587 805 621 801 654 C 800 662 798 670 795 677 C 796 678 797 679 798 680 C 805 677 814 674 822 676 C 826 676 830 679 832 683 C 834 688 834 693 834 698 C 839 692 845 688 853 686 C 857 686 862 687 865 691 C 869 695 870 700 872 706 C 873 705 874 705 876 705 C 879 698 884 692 891 688 C 895 685 900 685 904 687 C 909 690 911 694 914 698 C 922 695 931 692 940 692 C 945 692 948 697 948 701 C 949 711 945 720 940 728 C 927 754 906 774 881 789 C 854 806 822 817 789 817 C 779 824 768 829 756 829 C 768 834 781 839 789 850 C 799 863 802 880 800 896 C 799 907 795 918 790 928 C 784 945 774 960 760 971 C 744 983 724 990 705 990 C 679 991 654 986 630 978 C 628 980 627 983 625 985 C 617 991 606 992 597 991 C 583 989 569 983 560 972 C 553 965 549 955 551 945 C 488 917 425 888 362 860 C 359 867 354 872 347 874 C 335 879 321 876 309 871 C 297 865 287 856 282 843 C 280 837 281 831 283 825 C 271 818 260 809 250 800 C 237 787 226 771 220 754 C 215 739 214 723 217 707 C 217 703 219 699 219 695 C 221 677 229 660 241 647 C 250 637 262 630 275 626 C 293 621 312 623 329 631 C 340 635 349 642 359 648 C 360 643 363 636 367 633 C 372 629 379 628 384 629 C 389 609 397 589 411 574 C 422 563 438 557 454 555 C 461 529 473 504 491 483 C 485 477 482 470 483 462 C 474 458 465 453 456 448 C 450 444 444 440 437 438 C 424 435 411 432 398 426 C 388 421 378 414 372 405 C 367 405 362 402 358 398 C 354 391 351 383 349 375 C 349 371 346 369 344 366 C 339 357 339 346 339 336 C 340 322 343 306 351 294 C 355 287 360 280 368 279 C 375 277 383 279 388 284 C 399 280 411 277 423 279 C 425 279 427 278 429 278 C 434 269 440 262 447 255 C 443 238 443 219 450 202 C 454 191 463 182 474 178 C 488 172 504 174 518 179 C 546 168 578 166 608 171 Z" />
<path fill="#ffffff"  d="M 306 172 C 316 166 329 166 339 171 C 350 175 358 185 361 196 C 364 206 362 217 357 225 C 356 227 356 229 357 231 C 348 236 337 240 327 240 C 317 239 307 236 299 230 C 295 226 291 222 287 218 C 281 201 289 180 306 172 Z" />
<path fill="#8ce57b"  d="M 614 178 C 624 171 638 172 649 177 C 661 182 671 190 677 202 C 679 205 681 209 682 213 C 678 210 676 206 673 202 C 663 190 650 180 634 178 C 627 176 620 178 614 178 Z" />
<path fill="#8ce57b"  d="M 524 186 C 548 178 575 176 601 179 C 600 181 599 182 598 184 C 587 181 576 182 565 182 C 554 183 544 184 533 186 C 531 187 529 189 527 191 C 526 189 525 188 524 186 Z" />
<path fill="#59da41"  d="M 594 191 C 600 186 607 181 614 178 C 620 178 627 176 634 178 C 650 180 663 190 673 202 C 676 206 678 210 682 213 L 682 213 C 683 216 684 219 685 222 C 685 219 685 215 685 212 C 687 211 689 208 692 209 C 703 212 711 221 718 230 C 722 235 725 241 729 246 L 729 246 C 732 254 733 262 735 270 C 738 278 743 284 747 291 C 756 305 761 322 760 339 C 760 353 757 367 751 379 C 739 389 726 399 712 406 C 716 392 717 378 716 363 C 721 356 723 346 721 337 C 721 337 722 336 722 336 C 726 336 731 335 734 331 C 738 326 735 317 728 316 C 723 314 718 316 715 320 C 712 316 708 312 704 309 C 709 310 714 310 717 306 C 722 303 722 295 718 291 C 713 286 702 287 699 294 C 697 298 698 302 700 306 C 698 305 696 304 694 303 L 694 303 C 692 299 689 296 685 293 L 688 293 C 683 285 673 279 663 281 C 654 282 646 288 642 296 C 649 295 655 291 663 290 C 663 298 662 306 659 313 C 653 326 642 337 629 344 C 608 357 585 366 561 372 C 558 368 554 363 549 362 C 547 361 544 362 543 365 C 540 368 540 373 540 377 C 531 379 523 381 515 383 C 491 388 467 389 443 388 C 423 386 403 384 385 377 C 372 373 359 366 350 355 C 348 351 349 347 348 342 C 348 326 351 309 361 295 L 361 295 C 365 294 369 290 374 291 C 375 292 376 293 377 294 C 376 296 374 298 373 300 C 379 297 385 294 392 292 C 399 292 406 292 413 292 C 426 293 438 296 449 302 C 452 304 455 307 457 310 C 457 310 457 311 457 311 C 461 309 466 307 471 305 C 478 305 487 304 493 309 C 498 312 501 318 505 322 L 505 322 C 507 327 507 333 507 339 C 507 340 508 342 509 343 C 513 351 516 360 517 369 C 519 363 519 357 518 350 C 518 345 516 341 516 335 C 516 323 513 309 504 300 C 498 293 488 291 479 293 C 475 293 471 296 467 296 C 462 293 458 290 452 287 C 468 285 485 285 500 289 C 507 290 513 292 519 293 C 524 295 529 298 534 301 C 517 285 494 277 471 274 C 486 268 503 265 520 263 C 541 262 563 264 585 268 C 589 269 593 270 597 270 C 602 272 607 275 613 276 C 600 269 587 264 573 260 C 554 255 535 252 515 253 C 518 245 519 236 517 227 C 514 218 508 210 499 206 C 491 203 482 204 474 210 C 464 217 459 232 462 245 C 462 250 465 256 468 260 C 460 263 453 267 445 270 C 448 267 450 265 453 263 C 454 261 456 259 457 257 C 456 252 455 248 455 243 C 456 229 458 214 466 201 C 472 192 483 187 494 186 C 500 185 507 187 514 188 C 519 189 523 192 528 194 C 528 193 527 192 527 191 C 529 189 531 187 533 186 C 544 184 554 183 565 182 C 576 182 587 181 598 184 C 596 186 595 188 594 191 Z" />
<path fill="#8ce57b"  d="M 481 185 C 492 182 503 184 514 188 C 507 187 500 185 494 186 C 483 187 472 192 466 201 C 458 214 456 229 455 243 C 453 230 454 216 459 203 C 464 195 471 187 481 185 Z" />
<path fill="#ff0068"  d="M 312 192 C 316 191 320 192 323 195 C 326 193 330 191 334 192 C 340 194 342 202 338 206 C 335 211 330 214 326 218 C 325 220 324 221 322 220 C 318 216 313 211 309 207 C 305 203 307 194 312 192 Z" />
<path fill="#8ce57b"  d="M 682 197 C 703 206 722 223 729 246 C 725 241 722 235 718 230 C 711 221 703 212 692 209 C 689 208 687 211 685 212 C 684 207 683 202 682 197 Z" />
<path fill="#1c3d08"  d="M 625 200 C 634 198 643 202 649 208 C 662 220 664 243 653 257 C 646 267 633 273 621 269 C 607 264 598 247 599 233 C 600 218 610 203 625 200 Z" />
<path fill="#d2d8ce"  d="M 287 218 C 291 222 295 226 299 230 C 307 236 317 239 327 240 C 337 240 348 236 357 231 C 358 235 359 238 360 242 C 355 241 350 239 346 239 C 343 239 341 241 339 241 C 328 247 314 246 303 239 C 296 234 289 227 287 218 Z" />
<path fill="#ffffff"  d="M 637 221 C 641 219 647 222 648 227 C 651 232 650 240 645 244 C 642 246 638 246 635 244 C 627 239 628 225 637 221 Z" />
<path fill="#ffffff"  d="M 496 225 C 502 222 508 228 508 233 C 509 240 505 249 497 248 C 488 245 487 229 496 225 Z" />
<path fill="#496439"  d="M 612 236 C 615 235 617 238 618 241 C 619 245 618 250 614 252 C 611 254 608 251 608 248 C 607 243 608 238 612 236 Z" />
<path fill="#496439"  d="M 472 239 C 475 237 478 240 478 243 C 479 246 479 251 476 253 C 475 255 472 255 470 253 C 468 249 468 242 472 239 Z" />
<path fill="#8ce57b"  d="M 460 274 C 480 263 503 259 525 259 C 550 259 574 262 597 270 C 593 270 589 269 585 268 C 563 264 541 262 520 263 C 503 265 486 268 471 274 C 467 274 464 274 460 274 Z" />
<path fill="#59da41"  d="M 903 277 C 907 274 914 275 917 279 C 920 283 922 288 922 293 C 922 296 922 299 922 302 C 912 302 904 295 894 294 C 896 288 898 281 903 277 Z" />
<path fill="#8ce57b"  d="M 447 285 C 471 280 497 283 519 293 C 513 292 507 290 500 289 C 485 285 468 285 452 287 C 451 286 449 285 447 285 Z" />
<path fill="#8ce57b"  d="M 361 295 C 364 291 368 288 373 287 C 375 287 378 288 380 289 C 379 291 378 292 377 294 C 376 293 375 292 374 291 C 369 290 365 294 361 295 Z" />
<path fill="#8ce57b"  d="M 392 292 C 414 283 442 288 460 303 C 459 306 458 308 457 310 C 455 307 452 304 449 302 C 438 296 426 293 413 292 C 406 292 399 292 392 292 Z" />
<path fill="#299605"  d="M 699 294 C 702 287 713 286 718 291 C 722 295 722 303 717 306 C 714 310 709 310 704 309 C 703 308 701 307 700 306 L 700 306 C 698 302 697 298 699 294 Z" />
<path fill="#fbff60"  d="M 672 290 C 676 290 681 291 685 293 C 689 296 692 299 694 303 C 687 300 680 298 672 297 C 672 295 672 292 672 290 Z" />
<path fill="#299605"  d="M 737 291 C 741 290 747 292 748 297 C 749 301 745 306 741 306 C 737 307 732 305 731 301 C 730 297 733 292 737 291 Z" />
<path fill="#42b72a"  d="M 922 293 C 922 297 923 301 922 305 C 920 308 918 310 916 312 C 913 308 909 304 904 301 C 901 299 897 298 894 297 C 894 296 894 295 894 294 C 904 295 912 302 922 302 C 922 299 922 296 922 293 Z" />
<path fill="#1c3d08"  d="M 360 301 C 361 299 364 300 364 303 C 366 309 363 316 359 320 C 359 320 358 320 358 320 C 356 314 355 306 360 301 Z" />
<path fill="#8ce57b"  d="M 471 305 C 478 302 486 300 494 303 C 500 307 503 315 505 322 C 501 318 498 312 493 309 C 487 304 478 305 471 305 Z" />
<path fill="#f06b6c"  d="M 671 306 C 674 307 677 307 680 308 C 678 310 677 313 675 315 C 673 315 671 314 669 313 C 670 311 670 309 671 306 Z" />
<path fill="#59da41"  d="M 875 312 C 878 307 885 305 890 306 C 900 308 907 315 910 324 C 912 327 913 331 911 335 C 910 338 907 340 903 340 C 897 340 891 337 886 334 C 887 336 888 338 889 339 C 891 343 893 346 896 348 C 902 351 908 349 914 350 C 917 350 918 353 920 355 C 926 362 936 367 946 366 C 954 365 961 360 963 353 C 965 348 965 343 965 337 C 966 335 966 332 966 329 C 970 325 975 321 981 320 C 985 320 989 322 990 326 C 992 329 992 334 991 338 C 989 346 984 354 978 360 C 977 362 976 363 975 365 C 972 375 968 385 963 395 C 962 397 959 397 958 397 C 941 399 925 396 911 387 C 895 378 882 365 872 349 C 869 344 869 338 869 332 C 869 325 871 318 875 312 Z" />
<path fill="#ff8d8d"  d="M 675 315 C 677 313 678 310 680 308 C 689 310 698 315 705 322 C 712 331 715 343 711 353 C 707 356 702 357 698 356 C 689 355 683 348 677 342 C 674 339 670 336 670 331 C 671 328 672 324 674 320 C 683 322 691 327 698 334 C 693 326 685 319 675 315 Z" />
<path fill="#59da41"  d="M 922 322 C 924 317 927 312 933 311 C 940 311 947 315 952 320 C 956 324 958 330 956 336 C 952 339 947 341 942 340 C 933 338 923 332 922 322 Z" />
<path fill="#38a514"  d="M 629 344 C 642 337 653 326 659 313 C 656 329 644 342 630 351 C 610 364 587 373 564 379 C 563 376 562 374 561 372 C 585 366 608 357 629 344 Z" />
<path fill="#299605"  d="M 715 320 C 718 316 723 314 728 316 C 735 317 738 326 734 331 C 731 335 726 336 722 336 C 722 336 721 337 721 337 C 720 331 718 325 715 320 Z" />
<path fill="#f06b6c"  d="M 667 319 C 670 320 672 320 674 320 C 672 324 671 328 670 331 C 670 336 674 339 677 342 C 683 348 689 355 698 356 C 702 357 707 356 711 353 C 710 357 706 362 702 362 C 695 362 689 357 684 353 C 677 346 670 338 661 334 C 663 329 666 324 667 319 Z" />
<path fill="#1c3d08"  d="M 472 323 C 475 321 479 319 483 321 C 487 323 486 328 483 330 C 478 337 469 339 461 340 C 463 333 466 326 472 323 Z" />
<path fill="#42b72a"  d="M 922 336 C 921 331 922 326 922 322 C 923 332 933 338 942 340 C 947 341 952 339 956 336 C 954 339 952 343 948 345 C 939 350 926 346 922 336 Z" />
<path fill="#299605"  d="M 748 326 C 752 324 758 327 758 333 C 757 338 749 340 745 336 C 742 333 744 327 748 326 Z" />
<path fill="#42b72a"  d="M 960 347 C 962 344 964 341 965 337 C 965 343 965 348 963 353 C 961 360 954 365 946 366 C 936 367 926 362 920 355 C 918 353 917 350 914 350 C 908 349 902 351 896 348 C 893 346 891 343 889 339 C 894 343 899 347 905 347 C 909 348 912 346 915 344 C 921 351 928 355 936 356 C 945 357 954 354 960 347 Z" />
<path fill="#fbff60"  d="M 659 343 C 670 349 676 360 687 367 C 693 370 701 373 708 370 C 711 369 714 366 716 363 C 717 378 716 392 712 406 C 712 406 712 406 712 407 C 692 415 670 416 649 417 C 642 418 634 417 627 418 C 616 419 605 418 595 419 C 583 419 571 421 559 420 C 545 420 531 421 517 422 C 510 422 502 423 495 422 C 500 417 503 410 505 402 C 517 400 529 397 541 394 C 556 390 571 387 585 382 C 589 387 593 392 598 395 C 602 396 606 394 608 391 C 611 385 610 379 610 372 C 619 368 629 363 637 358 C 643 360 648 363 654 363 C 658 363 661 361 662 357 C 663 352 661 347 659 343 Z" />
<path fill="#e8e8e8"  d="M 644 353 C 647 350 649 348 652 345 C 652 346 653 347 653 348 C 651 350 650 352 648 354 C 646 354 645 353 644 353 Z" />
<path fill="#ffffff"  d="M 648 354 C 650 352 651 350 653 348 C 655 350 656 353 656 356 C 653 356 650 355 648 354 Z" />
<path fill="#38a514"  d="M 350 355 C 359 366 372 373 385 377 C 403 384 423 386 443 388 C 467 389 491 388 515 383 C 523 381 531 379 540 377 C 540 379 539 382 539 385 C 530 387 521 389 513 391 C 487 397 460 398 434 395 C 413 393 392 389 373 380 C 363 375 353 367 350 355 Z" />
<path fill="#ffffff"  d="M 860 367 C 862 363 864 360 866 356 C 871 365 878 373 885 380 C 887 384 891 388 890 392 C 889 396 885 396 882 397 C 873 389 864 379 860 367 Z" />
<path fill="#ffffff"  d="M 546 385 C 547 380 547 374 548 369 C 553 372 556 377 558 383 C 554 384 550 385 546 385 Z" />
<path fill="#399e5a"  d="M 834 392 C 840 386 845 378 852 372 C 853 375 855 379 856 382 C 859 394 867 404 876 412 C 887 422 899 430 912 437 C 914 439 918 441 918 444 C 918 450 914 455 911 459 C 902 470 890 479 878 488 C 872 492 864 497 856 500 C 831 511 803 516 776 515 C 773 509 769 504 763 504 C 756 502 748 506 745 512 C 730 515 718 524 704 529 C 694 532 683 533 674 530 C 681 524 689 519 695 512 C 701 507 708 501 713 495 C 718 489 725 483 730 477 C 735 471 740 466 745 461 C 751 454 758 448 764 441 C 768 438 773 435 778 433 C 799 422 818 410 834 392 Z" />
<path fill="#e8e8e8"  d="M 592 380 C 596 378 599 377 603 375 C 603 379 603 382 603 386 C 603 384 603 382 603 381 C 600 381 597 382 595 383 C 594 382 593 381 592 380 Z" />
<path fill="#42b72a"  d="M 712 406 C 726 399 739 389 751 379 C 740 408 718 431 693 447 C 689 449 685 452 681 453 C 695 441 707 425 712 407 C 712 406 712 406 712 406 Z" />
<path fill="#ffffff"  d="M 595 383 C 597 382 600 381 603 381 C 603 382 603 384 603 386 C 602 386 602 388 602 389 C 599 387 597 385 595 383 Z" />
<path fill="#d2e4ee"  d="M 885 380 C 897 390 910 399 925 403 C 936 406 947 407 959 406 C 957 411 955 415 951 419 C 927 420 901 413 882 397 C 885 396 889 396 890 392 C 891 388 887 384 885 380 Z" />
<path fill="#e8e8e8"  d="M 358 381 C 363 384 367 387 372 389 C 372 391 371 392 371 393 C 368 392 365 390 361 389 C 360 387 359 384 358 381 Z" />
<path fill="#2a8444"  d="M 856 382 C 863 390 869 398 877 405 C 897 421 922 428 948 429 C 945 437 939 444 934 450 C 898 499 843 534 783 547 C 781 541 778 535 776 529 C 774 527 776 525 776 522 C 777 520 776 517 776 515 C 803 516 831 511 856 500 C 864 497 872 492 878 488 C 890 479 902 470 911 459 C 914 455 918 450 918 444 C 918 441 914 439 912 437 C 899 430 887 422 876 412 C 867 404 859 394 856 382 Z" />
<path fill="#ffffff"  d="M 361 389 C 365 390 368 392 371 393 C 371 395 370 396 370 398 C 366 397 363 393 361 389 Z" />
<path fill="#fbff60"  d="M 378 392 C 397 399 416 403 435 404 C 449 406 462 406 475 405 C 476 411 478 418 482 422 C 454 424 426 421 399 413 C 396 411 393 411 390 410 C 385 407 381 401 378 396 C 378 395 378 393 378 392 Z" />
<path fill="#ffffff"  d="M 740 416 C 745 411 749 404 754 398 C 761 399 768 401 774 405 C 777 408 778 412 778 416 C 762 424 747 433 734 444 C 718 457 704 471 689 485 C 685 488 682 492 677 494 C 670 498 661 493 654 498 C 651 499 649 502 648 504 C 643 509 641 517 635 521 C 630 523 624 525 619 523 C 611 519 605 510 596 507 C 595 506 594 506 593 505 C 600 505 606 508 613 508 C 626 508 638 503 649 496 C 664 487 677 476 689 463 C 693 459 698 456 700 451 C 715 441 729 430 740 416 Z" />
<path fill="#e8e8e8"  d="M 482 405 C 487 405 492 404 497 403 C 497 405 496 406 496 408 C 492 408 487 409 483 409 C 483 408 483 406 482 405 Z" />
<path fill="#ffe461"  d="M 649 417 C 670 416 692 415 712 407 C 707 425 695 441 681 453 C 678 456 674 457 671 459 C 659 465 646 469 633 473 C 645 472 656 470 666 466 C 655 477 642 488 628 494 C 619 497 610 496 601 494 C 591 491 581 485 571 480 C 578 479 584 479 591 478 C 547 477 502 466 465 441 C 486 443 507 441 529 442 C 537 442 545 443 554 441 C 543 440 532 437 521 436 C 501 433 482 434 462 431 C 443 429 422 426 404 418 C 399 416 394 414 390 410 C 393 411 396 411 399 413 C 426 421 454 424 482 422 C 486 425 491 424 495 422 C 502 423 510 422 517 422 C 531 421 545 420 559 420 C 571 421 583 419 595 419 C 605 418 616 419 627 418 C 634 417 642 418 649 417 Z" />
<path fill="#ffffff"  d="M 483 409 C 487 409 492 408 496 408 C 494 411 492 417 488 417 C 484 416 484 412 483 409 Z" />
<path fill="#d2e4ee"  d="M 734 444 C 747 433 762 424 778 416 C 777 419 777 421 776 423 C 749 437 725 457 703 478 C 690 490 678 502 664 511 C 666 508 666 503 663 500 C 661 497 657 497 654 498 C 661 493 670 498 677 494 C 682 492 685 488 689 485 C 704 471 718 457 734 444 Z" />
<path fill="#2a8444"  d="M 748 451 C 753 448 758 444 764 441 C 758 448 751 454 745 461 C 740 466 735 471 730 477 C 725 483 718 489 713 495 C 708 501 701 507 695 512 C 689 519 681 524 674 530 C 670 528 667 526 665 522 C 695 501 719 473 748 451 Z" />
<path fill="#d2e4ee"  d="M 686 459 C 691 456 696 454 700 451 C 698 456 693 459 689 463 C 677 476 664 487 649 496 C 638 503 626 508 613 508 C 606 508 600 505 593 505 C 590 504 586 504 584 507 C 581 509 581 514 582 517 C 556 506 532 493 507 482 C 504 480 499 479 497 476 C 512 478 526 485 539 492 C 548 497 557 502 567 505 C 570 507 575 508 579 507 C 582 506 586 504 590 503 C 573 496 556 487 540 478 C 545 479 550 479 554 480 C 567 488 580 496 594 501 C 605 505 617 507 628 503 C 640 499 650 492 659 485 C 669 477 677 468 686 459 Z" />
<path fill="#ffffff"  d="M 492 466 C 507 472 523 476 540 478 C 556 487 573 496 590 503 C 586 504 582 506 579 507 C 575 508 570 507 567 505 C 557 502 548 497 539 492 C 526 485 512 478 497 476 C 494 473 492 470 492 466 Z" />
<path fill="#2a8444"  d="M 488 501 C 491 496 495 492 498 488 C 528 500 556 517 586 529 C 586 532 586 536 585 539 C 585 537 584 535 581 535 C 561 527 542 517 523 509 C 512 505 500 502 488 501 Z" />
<path fill="#399e5a"  d="M 463 555 C 469 536 477 518 488 501 C 500 502 512 505 523 509 C 542 517 561 527 581 535 C 584 535 585 537 585 539 C 583 551 584 562 589 573 C 579 573 571 577 562 578 C 555 575 551 568 546 562 C 543 554 542 545 539 536 C 541 567 546 598 555 627 C 560 645 567 661 571 679 C 564 678 557 675 550 673 C 531 668 511 668 492 672 C 480 674 467 678 454 678 C 447 637 452 595 463 555 Z" />
<path fill="#ffffff"  d="M 654 505 C 655 503 657 502 659 504 C 661 506 659 508 658 510 C 655 517 659 526 665 531 C 672 537 682 538 692 537 C 710 536 725 523 743 518 C 743 520 743 522 743 524 C 729 529 716 538 700 542 C 687 544 672 544 661 536 C 652 529 648 515 654 505 Z" />
<path fill="#d2e4ee"  d="M 635 521 C 641 517 643 509 648 504 C 646 510 645 516 646 522 C 640 525 633 527 627 527 C 619 528 611 527 604 525 C 603 518 600 512 596 507 C 605 510 611 519 619 523 C 624 525 630 523 635 521 Z" />
<path fill="#ffffff"  d="M 588 515 C 585 513 589 509 591 511 C 596 515 598 523 598 529 C 597 539 594 550 596 560 C 598 567 604 573 611 575 C 626 578 641 570 656 570 C 655 572 655 574 654 576 C 641 576 628 583 614 581 C 606 581 597 576 593 568 C 588 558 589 546 591 536 C 593 529 593 521 588 515 Z" />
<path fill="#ffffff"  d="M 756 511 C 763 508 771 514 769 522 C 768 528 759 532 754 528 C 748 524 749 514 756 511 Z" />
<path fill="#2a8444"  d="M 629 536 C 636 535 643 533 649 531 C 651 534 654 536 656 539 C 649 542 641 544 633 546 C 632 543 631 540 629 536 Z" />
<path fill="#399e5a"  d="M 713 544 C 724 540 734 533 746 530 C 749 533 753 536 758 536 C 762 537 767 535 771 533 C 781 559 789 586 791 613 C 788 620 784 627 777 631 C 766 638 753 636 742 632 C 733 630 725 625 716 623 C 699 620 681 624 664 628 C 646 631 628 635 610 631 L 610 631 C 608 621 608 610 609 599 C 613 600 617 600 621 600 C 635 601 649 603 662 603 C 668 603 674 604 679 602 C 675 597 670 595 664 593 C 670 594 676 594 681 591 C 692 594 704 599 716 602 C 706 596 696 591 686 586 C 687 582 689 578 687 573 C 686 565 678 559 669 560 C 666 561 662 563 659 565 C 653 564 647 565 640 566 C 638 559 636 553 633 546 C 641 544 649 542 656 539 C 662 544 669 547 677 548 C 689 550 701 548 713 544 Z" />
<path fill="#2a8444"  d="M 603 534 C 611 536 618 537 626 537 C 627 540 628 543 629 545 C 620 546 611 544 602 542 C 603 540 603 537 603 534 Z" />
<path fill="#399e5a"  d="M 602 542 C 611 544 620 546 629 545 C 632 553 634 560 637 567 C 630 570 621 567 614 568 C 609 569 605 566 603 562 C 600 556 601 549 602 542 Z" />
<path fill="#2a8444"  d="M 546 562 C 551 568 555 575 562 578 C 571 577 579 573 589 573 C 584 575 578 576 573 578 C 566 581 560 585 553 589 C 551 580 548 571 546 562 Z" />
<path fill="#8ce57b"  d="M 413 587 C 422 575 436 567 451 565 C 450 569 449 572 449 575 C 439 577 429 581 422 588 C 408 599 400 616 395 633 C 394 632 393 631 394 630 C 397 614 403 599 413 587 Z" />
<path fill="#ffffff"  d="M 667 568 C 674 565 682 571 681 578 C 680 585 671 589 665 585 C 660 581 661 571 667 568 Z" />
<path fill="#59da41"  d="M 422 588 C 429 581 439 577 449 575 C 445 592 442 609 441 626 C 436 623 430 620 423 621 C 414 622 406 629 402 638 C 400 636 397 634 395 633 C 400 616 408 599 422 588 Z" />
<path fill="#2a8444"  d="M 594 580 C 595 579 597 581 598 582 C 591 584 583 587 578 593 C 574 595 573 600 574 604 C 576 610 580 614 584 617 C 590 623 597 627 605 630 C 605 629 606 628 606 628 C 608 640 611 651 615 663 C 598 658 583 650 570 639 C 569 638 568 636 567 634 C 562 621 558 607 554 594 C 567 587 580 583 594 580 Z" />
<path fill="#399e5a"  d="M 578 593 C 583 587 591 584 598 582 C 601 584 605 585 608 587 C 607 587 606 587 606 587 C 602 588 599 589 596 591 C 595 592 594 594 595 595 C 598 597 602 598 605 599 L 605 599 C 604 608 605 618 606 628 C 606 628 605 629 605 630 C 597 627 590 623 584 617 C 580 614 576 610 574 604 C 573 600 574 595 578 593 Z" />
<path fill="#399e5a"  d="M 636 586 C 639 584 644 583 647 583 C 650 582 653 582 656 583 C 657 587 660 590 664 592 C 655 589 645 587 636 586 Z" />
<path fill="#c3e3ce"  d="M 629 586 C 632 586 634 586 636 586 C 645 587 655 589 664 592 L 664 593 C 670 595 675 597 679 602 C 674 604 668 603 662 603 C 649 603 635 601 621 600 C 617 600 613 600 609 599 C 609 595 610 591 611 586 C 617 588 623 587 629 586 Z" />
<path fill="#bbc3b4"  d="M 606 587 C 606 587 607 587 608 587 C 609 587 610 586 611 586 C 610 591 609 595 609 599 C 608 599 606 599 605 599 L 605 599 C 606 595 606 592 607 588 C 607 588 606 587 606 587 Z" />
<path fill="#c3e3ce"  d="M 596 591 C 599 589 602 588 606 587 C 606 587 607 588 607 588 C 606 592 606 595 605 599 C 602 598 598 597 595 595 C 594 594 595 592 596 591 Z" />
<path fill="#2a8444"  d="M 777 631 C 784 627 788 620 791 613 C 793 626 793 639 792 651 C 791 665 786 679 777 689 C 767 678 753 670 738 668 C 719 664 699 667 680 668 C 659 669 639 669 619 664 C 615 653 612 642 610 631 C 628 635 646 631 664 628 C 681 624 699 620 716 623 C 725 625 733 630 742 632 C 753 636 766 638 777 631 Z" />
<path fill="#59da41"  d="M 419 631 C 427 627 436 632 440 639 C 441 643 440 647 441 651 C 436 646 430 642 423 643 C 416 644 411 649 407 654 C 407 645 412 636 419 631 Z" />
<path fill="#ffda41"  d="M 271 635 C 287 629 305 630 322 636 C 335 641 347 649 359 658 C 373 668 388 678 403 687 C 422 698 441 707 460 716 C 461 720 460 724 459 727 C 446 721 433 715 421 708 C 417 707 416 704 413 702 C 405 693 394 687 383 685 C 381 684 380 684 379 683 C 363 673 348 661 332 652 C 316 643 297 640 279 643 C 262 645 247 654 235 667 C 243 653 256 641 271 635 Z" />
<path fill="#59da41"  d="M 373 640 C 376 638 380 638 383 638 C 390 639 395 644 399 648 C 400 651 400 654 401 658 C 395 653 388 649 381 650 C 376 651 373 654 370 657 C 369 656 368 655 367 654 C 368 649 369 644 373 640 Z" />
<path fill="#42b72a"  d="M 407 654 C 411 649 416 644 423 643 C 430 642 436 646 441 651 C 441 661 442 672 444 683 C 446 690 450 697 457 700 C 457 702 457 704 457 706 C 443 700 429 693 416 686 C 400 677 385 667 370 657 C 373 654 376 651 381 650 C 388 649 395 653 401 658 C 403 665 405 672 407 680 C 407 671 406 663 407 654 Z" />
<path fill="#52ad9c"  d="M 263 656 C 277 649 294 648 309 651 C 331 657 348 672 366 684 C 362 685 358 686 354 688 C 342 680 330 670 316 665 C 303 659 287 658 273 663 C 258 668 246 680 240 694 C 231 713 231 736 240 755 C 251 778 270 795 291 809 C 289 812 288 815 286 818 C 274 811 263 802 253 792 C 242 780 233 767 227 752 C 221 733 221 712 228 693 C 235 677 247 663 263 656 Z" />
<path fill="#d9e8ef"  d="M 574 654 C 591 665 611 673 631 676 L 631 676 C 631 676 631 677 631 677 C 637 683 646 685 653 685 C 681 685 709 681 737 683 C 745 684 753 686 761 687 C 764 689 766 691 769 694 C 761 690 754 687 745 685 C 736 683 726 684 717 685 C 702 687 687 689 672 689 C 652 690 632 689 612 684 C 602 682 592 678 582 673 C 581 672 580 672 580 670 C 578 665 576 659 574 654 Z" />
<path fill="#288976"  d="M 273 663 C 287 658 303 659 316 665 C 330 670 342 680 354 688 C 350 691 346 694 344 698 C 340 707 336 715 332 724 C 329 731 331 740 334 747 C 330 745 326 743 322 741 C 318 738 312 740 310 743 C 307 747 306 750 304 754 C 302 757 300 761 300 765 C 301 767 302 769 304 771 C 308 776 313 780 317 785 C 310 787 304 789 299 794 C 295 798 293 804 291 809 C 270 795 251 778 240 755 C 231 736 231 713 240 694 C 246 680 258 668 273 663 Z" />
<path fill="#2a8444"  d="M 492 672 C 511 668 531 668 550 673 C 557 675 564 678 571 679 L 571 679 C 572 686 574 693 572 700 C 558 690 541 685 525 683 C 504 682 484 684 465 690 C 463 690 462 691 460 690 C 457 687 455 682 454 678 C 467 678 480 674 492 672 Z" />
<path fill="#ffffff"  d="M 631 676 C 656 679 682 677 708 675 C 726 675 746 676 761 687 C 753 686 745 684 737 683 C 709 681 681 685 653 685 C 646 685 637 683 631 677 C 631 677 631 676 631 676 Z" />
<path fill="#42b72a"  d="M 583 684 C 602 693 624 697 645 698 C 666 700 687 698 707 696 C 718 695 729 693 740 694 C 752 695 763 701 772 707 C 775 709 778 711 780 715 C 772 712 765 709 757 707 C 733 702 707 706 685 716 C 676 720 667 725 659 730 C 647 725 633 726 621 732 C 617 734 614 738 611 741 C 600 736 590 732 579 727 C 580 723 580 719 580 715 C 579 712 581 709 582 706 C 585 699 584 691 583 684 Z" />
<path fill="#8ce57b"  d="M 791 686 C 799 694 809 701 820 705 C 835 712 851 715 868 715 C 884 715 901 711 916 706 C 924 704 931 702 939 701 C 939 702 939 704 939 706 L 939 706 C 930 706 921 709 913 712 C 895 717 877 721 859 720 C 839 719 821 713 804 703 C 799 698 793 694 789 688 C 789 687 790 686 791 686 Z" />
<path fill="#2e7b15"  d="M 807 687 C 812 686 817 684 822 686 C 825 689 824 693 823 697 C 818 694 811 692 807 687 Z" />
<path fill="#59da41"  d="M 787 691 C 788 690 788 689 789 688 C 793 694 799 698 804 703 C 821 713 839 719 859 720 C 877 721 895 717 913 712 C 921 709 930 706 939 706 C 937 717 931 727 925 736 C 923 739 921 743 918 745 C 905 754 891 762 876 766 C 863 770 848 772 834 772 C 832 771 830 771 827 771 C 821 768 815 766 809 764 L 809 764 C 806 744 798 726 787 710 C 787 708 787 707 788 705 C 789 701 788 695 787 691 Z" />
<path fill="#d8d8d8"  d="M 367 693 C 379 692 390 695 400 702 C 407 707 413 714 415 723 C 416 728 414 734 410 737 C 403 742 394 742 387 740 C 374 738 363 731 356 720 C 352 715 350 709 353 703 C 355 697 361 694 367 693 Z" />
<path fill="#ffffff"  d="M 466 701 C 486 696 508 693 529 696 C 544 698 559 703 570 714 C 571 717 571 720 570 723 C 560 712 545 707 531 704 C 509 701 487 702 466 706 C 466 705 466 703 466 701 Z" />
<path fill="#2e7b15"  d="M 888 704 C 891 700 894 697 898 696 C 901 696 902 699 904 700 C 899 702 894 703 888 704 Z" />
<path fill="#2e7b15"  d="M 842 703 C 846 700 850 696 856 696 C 860 697 860 702 861 705 C 855 705 849 704 842 703 Z" />
<path fill="#1c3d08"  d="M 369 700 C 374 698 378 700 383 701 C 378 702 372 702 369 707 C 381 706 394 712 401 723 C 402 720 402 717 402 714 C 404 716 405 719 405 721 C 405 726 401 729 396 730 C 388 732 380 729 373 724 C 369 721 365 716 364 711 C 363 706 365 702 369 700 Z" />
<path fill="#9e9fa4"  d="M 383 701 L 383 701 C 387 703 392 705 396 708 C 398 710 400 712 402 714 L 402 714 C 402 717 402 720 401 723 C 394 712 381 706 369 707 C 372 702 378 702 383 701 Z" />
<path fill="#d9e8ef"  d="M 466 706 C 487 702 509 701 531 704 C 545 707 560 712 570 723 C 570 723 570 724 570 725 C 566 722 563 719 558 717 C 542 708 523 705 505 705 C 492 705 479 707 467 709 C 467 708 466 707 466 706 Z" />
<path fill="#59da41"  d="M 685 716 C 707 706 733 702 757 707 C 765 709 772 712 780 715 C 789 730 797 747 799 765 C 801 776 799 789 792 799 C 785 809 774 816 762 818 C 747 821 731 818 717 813 C 705 809 694 805 685 797 C 672 787 661 775 651 762 C 650 761 649 760 648 760 C 646 764 643 769 638 771 C 629 775 619 770 611 765 C 613 756 617 746 625 740 C 635 733 647 732 659 730 C 667 725 676 720 685 716 Z" />
<path fill="#f9f9f9"  d="M 369 712 C 380 711 391 716 396 725 C 386 726 375 721 369 712 Z" />
<path fill="#42b72a"  d="M 470 718 C 490 714 511 713 531 717 C 536 718 541 719 546 722 C 540 721 534 719 528 718 C 517 717 507 717 497 718 C 490 719 483 721 479 726 C 476 731 475 737 475 743 C 475 750 478 758 484 761 C 488 764 494 764 500 764 C 492 770 483 774 473 774 C 470 773 466 772 465 769 C 462 765 462 760 462 756 C 463 746 466 736 469 727 C 469 724 470 721 470 718 Z" />
<path fill="#59da41"  d="M 497 718 C 507 717 517 717 528 718 C 534 719 540 721 546 722 C 553 724 560 728 566 734 C 566 742 566 751 563 759 C 558 770 549 779 540 786 C 537 788 535 789 532 791 C 526 790 520 789 518 783 C 515 771 519 759 521 747 C 521 743 523 738 524 733 C 517 744 510 756 500 764 C 494 764 488 764 484 761 C 478 758 475 750 475 743 C 475 737 476 731 479 726 C 483 721 490 719 497 718 Z" />
<path fill="#52ad9c"  d="M 424 718 C 435 724 446 729 457 734 C 456 738 455 741 454 745 C 444 740 434 735 424 731 C 425 726 425 722 424 718 Z" />
<path fill="#d8d8d8"  d="M 340 730 C 341 726 343 723 344 719 C 349 730 358 738 368 743 C 369 746 370 749 368 751 C 366 754 363 754 359 755 C 369 761 382 765 393 761 C 397 759 400 754 401 750 L 402 750 C 403 750 404 749 406 749 C 403 753 402 759 398 762 C 392 766 384 766 377 765 C 365 763 353 757 346 748 C 342 743 339 736 340 730 Z" />
<path fill="#288976"  d="M 424 731 C 434 735 444 740 454 745 C 453 754 452 763 455 771 C 457 775 460 778 463 780 C 456 789 449 797 442 806 C 429 794 417 782 404 769 L 404 769 C 407 766 410 762 412 757 C 416 748 421 740 424 731 Z" />
<path fill="#bcf0da"  d="M 578 737 C 588 741 597 745 606 750 C 603 757 601 764 599 771 C 597 770 595 770 594 768 C 588 758 583 748 578 737 Z" />
<path fill="#9e9fa4"  d="M 368 743 C 378 749 390 751 401 750 C 400 754 397 759 393 761 C 382 765 369 761 359 755 C 363 754 366 754 368 751 C 370 749 369 746 368 743 Z" />
<path fill="#fbff60"  d="M 876 766 C 891 762 905 754 918 745 C 911 753 904 761 896 767 L 896 767 C 890 768 884 770 879 772 C 864 775 849 776 834 772 C 848 772 863 770 876 766 Z" />
<path fill="#42b72a"  d="M 515 761 C 517 756 518 752 521 747 C 519 759 515 771 518 783 C 520 789 526 790 532 791 C 527 793 521 796 515 794 C 511 792 509 786 509 782 C 509 774 511 767 515 761 Z" />
<path fill="#d8d8d8"  d="M 309 763 C 312 758 315 753 317 748 C 324 755 331 761 337 767 C 335 773 332 779 329 785 C 322 778 316 770 309 763 Z" />
<path fill="#54bc0f"  d="M 575 753 C 577 756 578 759 580 763 C 578 762 576 761 574 760 C 573 758 575 755 575 753 Z" />
<path fill="#42b72a"  d="M 648 760 C 649 760 650 761 651 762 C 652 767 655 770 658 774 C 667 788 677 800 690 811 C 679 807 669 802 658 798 C 642 790 625 783 609 776 C 609 772 610 768 611 765 C 619 770 629 775 638 771 C 643 769 646 764 648 760 Z" />
<path fill="#d8d8d8"  d="M 327 805 C 334 791 341 777 347 763 C 350 764 352 766 355 767 C 348 781 341 796 334 810 C 337 812 341 814 344 813 C 347 811 348 807 350 804 C 355 793 359 782 365 772 C 366 772 367 772 368 773 C 361 787 354 802 347 817 C 341 818 334 815 329 811 C 328 809 326 807 327 805 Z" />
<path fill="#42b72a"  d="M 809 764 C 815 766 821 768 827 771 C 821 771 815 770 809 769 C 809 767 809 765 809 764 Z" />
<path fill="#9e9fa4"  d="M 355 767 C 358 769 361 771 365 772 L 365 772 C 359 782 355 793 350 804 C 348 807 347 811 344 813 C 341 814 337 812 334 810 C 341 796 348 781 355 767 Z" />
<path fill="#ffda41"  d="M 565 776 C 567 773 569 770 570 767 C 594 777 618 788 642 799 C 636 799 630 800 625 802 C 605 794 585 785 565 776 Z" />
<path fill="#ffe461"  d="M 879 772 C 884 770 890 768 896 767 C 885 777 871 785 858 792 C 839 800 819 806 798 807 C 807 796 811 782 809 769 C 815 770 821 771 827 771 C 830 771 832 771 834 772 C 849 776 864 775 879 772 Z" />
<path fill="#ffe52a"  d="M 386 775 C 392 774 398 773 404 769 L 404 769 C 417 782 429 794 442 806 C 449 797 456 789 463 780 L 463 779 C 464 780 465 781 465 782 C 478 798 491 815 503 831 C 511 826 518 820 525 815 C 543 844 561 873 579 902 C 561 888 544 873 526 859 C 519 866 512 874 504 882 C 489 866 475 850 460 835 C 452 842 445 849 437 856 C 415 841 393 826 371 812 C 378 812 384 813 391 814 C 395 814 398 812 400 808 C 402 804 404 799 405 795 C 407 791 405 785 401 783 C 396 781 391 778 386 775 Z" />
<path fill="#288976"  d="M 480 783 C 487 782 494 779 500 775 C 499 783 499 791 505 797 C 509 803 517 805 524 804 C 535 802 544 796 552 789 L 552 789 C 557 792 563 794 568 797 C 583 804 597 810 612 817 C 609 824 605 832 601 839 C 598 847 600 855 603 862 C 599 860 595 858 591 856 C 587 853 581 855 578 860 C 576 864 574 869 571 873 C 569 877 569 882 572 885 C 577 890 582 895 587 900 C 579 902 571 905 567 912 C 563 917 561 923 558 928 C 499 902 439 875 380 849 C 377 847 373 846 370 844 C 372 839 375 834 375 829 C 376 823 373 817 371 812 C 393 826 415 841 437 856 C 445 849 452 842 460 835 C 475 850 489 866 504 882 C 512 874 519 866 526 859 C 544 873 561 888 579 902 C 561 873 543 844 525 815 C 518 820 511 826 503 831 C 491 815 478 798 465 782 C 470 782 475 783 480 783 Z" />
<path fill="#52ad9c"  d="M 560 782 C 579 790 598 799 618 807 C 616 810 614 813 612 817 C 597 810 583 804 568 797 C 563 794 557 792 552 789 C 555 787 557 784 560 782 Z" />
<path fill="#9e9fa4"  d="M 369 786 C 370 785 372 786 373 786 C 381 788 389 789 397 791 C 395 796 393 800 391 805 C 382 804 372 803 362 802 C 364 796 367 791 369 786 Z" />
<path fill="#d8d8d8"  d="M 306 801 C 310 796 318 794 324 794 C 323 798 321 801 320 805 C 319 808 322 811 321 814 C 320 817 322 819 323 821 C 323 823 323 825 322 827 C 316 826 312 822 308 818 C 313 827 321 833 330 837 C 338 839 346 840 353 837 C 358 835 362 831 362 826 C 363 820 361 816 359 811 C 363 816 367 823 366 830 C 365 837 359 841 353 842 C 342 844 331 841 322 836 C 314 832 307 825 303 816 C 301 811 302 805 306 801 Z" />
<path fill="#d8d8d8"  d="M 636 808 C 649 806 662 811 671 819 C 678 824 684 831 685 840 C 686 845 682 851 677 853 C 669 857 660 857 652 854 C 641 851 631 844 625 835 C 621 829 620 823 622 817 C 625 812 631 809 636 808 Z" />
<path fill="#9e9fa4"  d="M 358 810 C 358 810 358 811 359 811 C 361 816 363 820 362 826 C 362 831 358 835 353 837 C 346 840 338 839 330 837 C 321 833 313 827 308 818 C 312 822 316 826 322 827 C 323 825 323 823 323 821 C 328 826 334 830 342 828 C 344 828 346 826 347 824 C 348 823 350 823 351 823 C 353 822 355 823 356 821 C 358 818 357 814 358 811 L 358 810 Z" />
<path fill="#cdcfcd"  d="M 351 823 C 354 819 355 815 358 811 C 357 814 358 818 356 821 C 355 823 353 822 351 823 Z" />
<path fill="#1c3d08"  d="M 639 815 C 643 813 648 815 652 816 C 647 817 641 817 638 822 C 651 821 664 827 670 838 C 672 835 672 831 671 828 C 673 830 674 833 674 835 C 675 840 671 844 667 845 C 658 847 650 844 643 839 C 638 836 634 831 633 825 C 632 821 635 817 639 815 Z" />
<path fill="#9e9fa4"  d="M 652 816 C 659 819 666 822 671 828 C 672 831 672 835 670 838 C 664 827 651 821 638 822 C 641 817 647 817 652 816 Z" />
<path fill="#ffda41"  d="M 683 816 C 700 824 718 828 736 832 C 750 835 764 839 775 847 C 790 857 794 876 793 892 C 791 883 788 874 782 867 C 775 858 765 852 755 848 C 734 841 713 839 693 832 C 691 826 687 821 683 816 Z" />
<path fill="#d8d8d8"  d="M 290 835 C 290 830 293 825 295 821 C 300 832 309 840 319 845 C 319 848 321 851 318 853 C 316 855 313 856 310 857 C 317 861 326 864 334 864 C 339 864 343 863 346 860 C 349 858 350 855 352 852 C 353 851 355 851 356 851 C 354 855 352 861 348 864 C 341 868 333 868 326 867 C 315 865 304 859 297 850 C 293 846 290 840 290 835 Z" />
<path fill="#f9f9f9"  d="M 639 827 C 649 825 660 831 666 840 C 655 841 644 836 639 827 Z" />
<path fill="#d8d8d8"  d="M 614 834 C 619 845 628 853 638 859 C 638 861 640 864 638 867 C 635 869 632 869 629 870 C 639 876 651 880 663 876 C 667 874 669 869 671 865 C 672 865 674 864 675 864 C 673 868 672 873 668 876 C 662 880 656 881 650 881 C 638 880 626 874 618 866 C 613 861 609 855 609 848 C 609 843 612 839 614 834 Z" />
<path fill="#52ad9c"  d="M 694 840 C 709 845 724 847 739 851 C 751 854 762 858 771 866 C 780 873 784 884 786 895 C 788 915 781 936 769 952 C 758 966 741 976 723 980 C 705 985 686 983 668 980 C 656 978 645 975 633 971 C 635 968 636 965 638 962 C 661 969 686 974 711 972 C 728 970 744 963 756 950 C 770 936 778 915 775 895 C 774 886 770 877 763 872 C 754 866 744 864 734 861 C 720 857 706 855 692 850 C 693 847 694 844 694 840 Z" />
<path fill="#52ad9c"  d="M 370 844 C 373 846 377 847 380 849 C 439 875 499 902 558 928 C 557 932 555 935 553 938 C 491 910 428 882 365 854 C 367 850 368 847 370 844 Z" />
<path fill="#9e9fa4"  d="M 319 845 C 329 850 340 853 352 852 C 350 855 349 858 346 860 C 343 863 339 864 334 864 C 326 864 317 861 310 857 C 313 856 316 855 318 853 C 321 851 319 848 319 845 Z" />
<path fill="#288976"  d="M 692 850 C 706 855 720 857 734 861 C 744 864 754 866 763 872 C 770 877 774 886 775 895 C 778 915 770 936 756 950 C 744 963 728 970 711 972 C 686 974 661 969 638 962 C 641 956 645 950 645 943 C 645 938 643 932 641 927 C 647 927 653 928 660 929 C 664 929 668 927 670 923 C 671 918 673 914 675 910 C 676 905 674 900 670 898 C 665 895 660 893 655 890 C 665 889 674 885 679 877 C 684 868 688 859 692 850 Z" />
<path fill="#9e9fa4"  d="M 638 859 C 648 864 659 866 671 865 C 669 869 667 874 663 876 C 651 880 639 876 629 870 C 632 869 635 869 638 867 C 640 864 638 861 638 859 Z" />
<path fill="#d8d8d8"  d="M 587 863 C 594 870 600 876 607 882 C 604 888 602 894 599 899 C 598 900 597 898 596 898 C 591 891 585 885 579 878 C 581 873 584 868 587 863 Z" />
<path fill="#d8d8d8"  d="M 596 922 C 603 907 610 892 617 878 C 619 879 622 881 624 882 C 617 896 610 911 603 925 C 607 927 610 928 614 929 C 621 915 628 901 634 887 C 635 887 637 888 638 888 C 630 902 624 917 616 932 C 609 933 600 928 596 922 Z" />
<path fill="#9e9fa4"  d="M 624 882 C 627 884 631 886 634 887 C 628 901 621 915 614 929 C 610 928 607 927 603 925 C 610 911 617 896 624 882 Z" />
<path fill="#9e9fa4"  d="M 632 917 C 634 911 637 906 639 900 C 648 902 657 904 666 906 C 665 911 663 915 661 920 C 651 919 641 918 632 917 Z" />
<path fill="#d8d8d8"  d="M 574 917 C 579 911 587 909 594 909 C 593 913 591 916 589 920 C 588 922 590 925 591 927 C 590 930 590 933 592 935 C 592 938 592 940 592 942 C 586 942 582 937 578 934 C 583 943 593 950 603 953 C 610 954 617 955 623 952 C 627 950 631 946 632 941 C 633 936 631 931 628 927 C 627 930 627 933 625 936 C 624 938 622 937 621 937 C 624 934 625 929 627 926 C 630 928 632 932 634 935 C 636 940 636 947 632 951 C 627 957 620 958 613 958 C 598 957 584 949 576 937 C 572 931 570 923 574 917 Z" />
<path fill="#9e9fa4"  d="M 628 927 C 631 931 633 936 632 941 C 631 946 627 950 623 952 C 617 955 610 954 603 953 C 593 950 583 943 578 934 C 582 937 586 942 592 942 C 592 940 592 938 592 935 C 596 940 603 944 611 944 C 613 943 615 941 617 939 C 618 938 619 938 621 937 C 622 937 624 938 625 936 C 627 933 627 930 628 927 Z" />
<path fill="#d8d8d8"  d="M 560 947 C 561 943 563 940 565 936 C 569 947 578 955 588 960 L 588 960 C 589 963 590 966 588 968 C 586 970 582 971 579 972 C 586 976 594 979 602 979 C 606 979 611 978 616 976 C 619 973 620 970 621 967 C 623 966 624 966 626 966 C 623 970 622 976 618 979 C 611 983 603 983 596 982 C 584 980 573 974 566 964 C 562 960 559 954 560 947 Z" />
<path fill="#9e9fa4"  d="M 588 960 C 599 965 610 968 621 967 C 620 970 619 973 616 976 C 611 978 606 979 602 979 C 594 979 586 976 579 972 C 582 971 586 970 588 968 C 590 966 589 963 588 960 Z" />
<path fill="#85e0b7"  d="M 477 1065 C 531 1064 585 1064 638 1065 C 683 1067 728 1068 773 1073 C 786 1075 799 1076 812 1080 C 815 1081 819 1082 821 1085 C 820 1087 818 1088 816 1089 C 808 1092 799 1093 791 1094 C 769 1098 747 1099 726 1101 C 673 1104 621 1105 568 1105 C 512 1106 456 1105 401 1102 C 377 1100 352 1099 329 1096 C 318 1094 307 1093 297 1090 C 294 1089 291 1088 289 1086 C 289 1082 293 1081 295 1080 C 308 1076 322 1075 336 1073 C 382 1068 430 1067 477 1065 Z" />
</svg>
