<?xml version="1.0" encoding="UTF-8" ?>
<!DOCTYPE svg PUBLIC "-//W3C//DTD SVG 1.1//EN" "http://www.w3.org/Graphics/SVG/1.1/DTD/svg11.dtd">
<svg width="1191pt" height="1191pt" viewBox="0 0 1191 1191" version="1.1" xmlns="http://www.w3.org/2000/svg">
<path fill="#67e9ff"  d="M 0 0 L 1191 0 L 1191 1191 L 0 1191 L 0 0 Z" />
<path fill="#371a46"  d="M 470 214 C 477 209 487 205 496 208 C 508 212 519 219 528 228 C 539 237 549 248 555 261 C 557 267 556 274 554 279 C 550 291 544 302 537 312 C 548 326 560 341 572 356 C 574 358 573 363 569 364 C 566 364 564 362 561 361 C 542 356 523 354 504 351 C 503 351 501 351 500 352 C 496 354 492 357 487 358 C 480 360 474 358 468 355 C 454 345 441 333 432 318 C 425 308 421 294 424 281 C 427 268 433 255 441 244 C 449 232 458 221 470 214 Z" />
<path fill="#fcd21e"  d="M 483 217 C 488 215 494 216 499 218 C 511 224 522 233 531 242 C 537 249 543 256 547 264 C 549 269 547 275 545 279 C 541 290 535 300 528 309 C 526 311 527 313 528 315 C 538 327 547 339 557 351 C 538 347 519 344 500 342 C 498 342 496 344 494 345 C 490 348 486 350 481 350 C 476 350 471 346 467 343 C 455 334 444 323 437 309 C 432 301 430 291 433 282 C 437 265 446 250 457 237 C 464 229 472 221 483 217 Z" />
<path fill="#371a46"  d="M 1059 242 C 1064 231 1077 224 1089 226 C 1103 228 1115 240 1117 254 C 1118 265 1117 275 1115 286 C 1110 327 1102 368 1094 409 C 1084 453 1074 497 1062 541 C 1058 554 1055 566 1052 579 C 1062 590 1065 604 1063 618 C 1062 633 1054 649 1040 657 C 1038 664 1037 671 1036 678 C 1041 685 1041 695 1035 700 C 1032 704 1027 705 1023 705 C 1014 703 1005 702 997 701 C 987 698 982 684 989 676 C 989 675 990 674 990 674 C 981 681 971 686 960 688 C 943 690 926 690 910 683 C 910 693 911 702 911 711 C 911 716 910 722 906 726 C 904 728 904 731 903 734 C 899 763 890 792 877 818 C 889 835 899 853 905 873 C 912 871 920 872 926 875 C 935 880 941 890 943 901 C 944 907 946 914 942 919 C 937 924 931 927 926 930 C 900 946 870 957 839 957 C 832 958 824 955 820 948 C 812 938 807 926 802 914 C 801 915 800 916 799 917 C 806 927 807 940 802 951 C 800 954 798 956 794 957 C 781 961 766 963 751 962 C 746 962 740 961 734 959 C 727 956 722 950 717 945 C 710 937 704 929 700 919 C 696 909 693 898 696 888 C 698 881 703 875 708 871 C 722 860 734 847 744 833 C 737 826 730 819 724 811 C 715 801 708 790 702 778 C 688 775 674 771 661 765 C 652 761 644 757 638 750 C 634 745 632 740 630 734 C 628 726 626 718 625 710 C 624 702 622 695 622 687 C 609 691 596 694 582 695 C 580 710 567 723 552 726 C 551 733 549 740 547 747 C 547 749 546 750 547 751 C 558 787 560 826 550 862 C 544 886 531 909 513 927 C 503 936 492 944 480 951 C 475 953 470 954 465 955 C 450 958 434 958 418 957 C 413 956 408 960 403 961 C 398 962 392 961 387 962 C 381 964 374 965 369 961 C 367 960 366 960 365 960 C 337 960 310 956 282 957 C 259 960 237 972 212 972 C 203 972 194 972 185 968 C 182 966 178 967 174 967 C 154 964 136 950 129 932 C 124 921 123 908 123 896 C 123 881 125 865 133 852 C 137 844 143 837 151 836 C 158 835 164 838 169 842 C 183 840 195 847 205 856 C 229 842 255 832 283 831 C 311 806 339 780 368 755 C 340 745 317 724 302 699 C 295 689 290 678 285 667 C 284 664 283 661 282 658 C 273 645 267 630 266 614 C 266 606 266 598 269 590 C 270 588 270 585 270 583 C 271 566 273 549 278 532 C 272 525 264 519 255 517 C 244 515 233 519 225 525 C 218 529 212 534 207 540 C 206 548 202 556 194 558 C 185 560 175 553 175 544 C 174 538 178 533 182 529 C 184 528 187 527 188 525 C 198 513 210 502 224 495 C 235 489 248 487 260 490 C 271 492 280 498 289 505 C 303 475 326 448 354 431 C 388 411 429 405 467 413 C 495 419 521 434 542 453 C 569 478 589 511 598 546 C 602 563 605 580 603 597 C 611 592 619 587 627 581 C 630 572 631 560 639 553 C 647 545 658 541 668 538 C 675 536 681 535 688 534 C 681 528 674 522 668 515 C 661 507 654 499 648 490 C 642 489 635 487 630 483 C 626 480 621 478 618 475 C 608 467 603 456 600 444 C 596 428 598 410 607 395 C 611 386 617 377 625 371 C 631 341 645 312 665 289 C 689 263 722 244 756 237 C 791 229 828 233 861 247 C 889 259 914 279 932 304 C 951 330 963 362 964 394 C 966 431 955 468 934 498 C 919 519 900 536 877 548 C 892 558 905 571 919 583 C 922 586 926 589 930 589 C 943 590 956 589 968 587 C 971 587 974 587 976 585 C 982 580 988 575 993 570 C 995 567 997 564 1001 562 C 1003 561 1006 560 1009 560 C 1014 508 1019 456 1025 405 C 1029 374 1033 343 1039 313 C 1043 295 1046 278 1052 261 C 1054 254 1056 248 1059 242 Z" />
<path fill="#ffbb94"  d="M 1067 249 C 1070 240 1080 234 1089 236 C 1093 242 1096 248 1096 255 C 1096 269 1094 283 1092 297 C 1086 339 1077 381 1068 423 C 1060 461 1051 499 1040 537 C 1034 536 1028 535 1022 533 C 1027 482 1032 431 1039 380 C 1043 351 1047 321 1054 292 C 1057 277 1061 263 1067 249 Z" />
<path fill="#cd9280"  d="M 1089 236 C 1096 238 1102 243 1105 249 C 1108 256 1107 263 1107 270 C 1105 292 1101 313 1098 334 C 1090 381 1080 427 1069 473 C 1064 494 1058 516 1052 538 C 1048 538 1044 537 1040 537 L 1040 537 C 1051 499 1060 461 1068 423 C 1077 381 1086 339 1092 297 C 1094 283 1096 269 1096 255 C 1096 248 1093 242 1089 236 Z" />
<path fill="#ffffff"  d="M 778 242 C 800 240 823 243 844 250 C 822 248 800 250 779 256 C 725 272 679 315 663 368 C 655 365 647 364 638 365 C 639 365 640 365 641 365 C 641 360 641 355 640 350 C 648 324 664 301 684 283 C 710 260 743 246 778 242 Z" />
<path fill="#371a46"  d="M 500 246 C 503 244 508 247 506 251 C 498 267 480 277 463 275 C 459 275 458 270 460 268 C 462 266 464 267 466 267 C 479 267 491 260 497 249 C 498 248 499 247 500 246 Z" />
<path fill="#ffffff"  d="M 721 296 C 748 274 782 259 817 258 C 837 257 858 258 876 265 C 904 281 927 306 941 335 C 932 321 921 307 907 296 C 895 287 881 280 866 275 C 848 270 828 269 808 271 C 757 277 710 312 689 359 C 685 367 683 375 681 383 C 678 379 674 376 670 373 C 679 343 697 316 721 296 Z" />
<path fill="#371a46"  d="M 512 259 C 515 256 520 260 518 263 C 517 266 514 268 513 271 C 506 282 506 296 508 308 C 509 312 506 315 502 313 C 500 313 500 310 499 308 C 498 295 498 282 504 270 C 506 265 508 261 512 259 Z" />
<path fill="#ffe4d6"  d="M 1070 280 C 1072 279 1072 282 1073 283 C 1074 290 1073 297 1072 304 C 1071 316 1068 329 1064 341 C 1062 344 1061 347 1058 349 C 1056 350 1056 346 1055 345 C 1054 334 1056 323 1058 313 C 1060 304 1062 295 1065 287 C 1066 284 1067 282 1070 280 Z" />
<path fill="#371a46"  d="M 458 284 C 460 282 463 283 465 284 C 479 287 489 298 492 311 C 493 315 490 318 487 316 C 484 316 484 314 483 312 C 481 304 475 297 468 293 C 465 292 462 292 459 291 C 456 290 455 285 458 284 Z" />
<path fill="#9c8da2"  d="M 787 302 C 809 294 833 292 856 297 C 869 300 882 305 893 313 C 908 324 918 339 925 356 C 932 373 937 391 934 409 C 933 426 924 441 912 453 C 915 440 915 426 915 413 C 914 397 911 381 904 367 C 896 349 880 337 863 329 C 835 315 804 310 774 310 C 777 306 782 304 787 302 Z" />
<path fill="#cdc5d0"  d="M 640 350 C 641 355 641 360 641 365 C 640 365 639 365 638 365 C 638 366 636 366 635 366 C 637 361 638 355 640 350 Z" />
<path fill="#220f2d"  d="M 681 383 C 683 375 685 367 689 359 C 690 362 691 366 692 370 C 696 388 703 405 713 422 C 713 423 714 424 714 425 C 710 430 711 438 716 441 C 719 443 723 442 726 441 C 746 466 773 485 804 495 C 837 507 873 510 908 504 C 912 503 916 502 920 502 C 916 507 911 513 906 516 C 875 536 838 545 801 541 C 770 538 740 525 717 503 C 709 495 702 485 696 475 C 694 471 691 467 689 462 C 701 437 698 405 681 383 Z" />
<path fill="#9c8da2"  d="M 727 361 C 734 359 743 363 747 369 C 756 381 753 399 741 407 C 735 412 727 413 720 409 C 711 405 707 396 707 387 C 708 375 715 364 727 361 Z" />
<path fill="#ffffff"  d="M 627 380 C 632 375 639 372 646 372 C 657 372 666 378 673 386 C 684 399 688 415 688 432 C 685 432 682 433 680 432 C 677 431 674 430 671 428 C 670 413 664 397 652 387 C 645 381 636 378 627 380 Z" />
<path fill="#ffffff"  d="M 620 392 C 625 388 631 386 637 388 C 645 390 652 396 656 403 C 661 413 663 424 664 434 C 660 439 656 443 651 445 C 643 448 633 447 626 442 C 617 437 610 428 607 418 C 608 408 612 398 620 392 Z" />
<path fill="#cdc5d0"  d="M 615 461 C 607 448 605 432 607 418 C 610 428 617 437 626 442 C 633 447 643 448 651 445 C 656 443 660 439 664 434 C 663 445 661 457 654 466 C 650 471 643 475 636 475 C 627 474 620 468 615 461 Z" />
<path fill="#d1fac0"  d="M 358 440 C 389 421 428 414 465 422 C 497 429 527 448 549 473 C 564 489 576 508 584 529 C 570 502 551 478 526 461 C 518 456 510 451 502 447 C 504 450 507 454 505 457 C 502 462 496 464 491 465 C 477 466 464 464 451 460 C 445 457 438 454 433 449 C 431 446 430 442 431 439 C 434 435 439 434 443 433 C 409 431 374 442 347 462 C 328 476 312 495 300 516 C 299 514 297 513 296 511 C 309 482 330 456 358 440 Z" />
<path fill="#9c8da2"  d="M 714 425 C 717 422 722 420 726 422 C 732 426 731 436 725 440 C 721 435 718 430 714 425 Z" />
<path fill="#928797"  d="M 714 425 L 714 425 C 718 430 721 435 725 440 L 726 441 C 723 442 719 443 716 441 C 711 438 710 430 714 425 Z" />
<path fill="#cdc5d0"  d="M 671 428 C 674 430 677 431 680 432 C 682 433 685 432 688 432 C 688 447 683 463 671 474 C 664 480 655 483 646 481 C 655 477 662 469 666 460 C 671 450 672 439 671 428 Z" />
<path fill="#62ed2e"  d="M 347 462 C 374 442 409 431 443 433 C 439 434 434 435 431 439 C 430 442 431 446 433 449 C 438 454 445 457 451 460 C 464 464 477 466 491 465 C 496 464 502 462 505 457 C 507 454 504 450 502 447 C 510 451 518 456 526 461 C 551 478 570 502 584 529 C 590 545 593 561 595 578 C 596 595 592 612 585 628 C 577 646 565 663 551 677 C 545 683 539 689 532 694 C 526 697 521 700 516 703 C 489 718 461 730 431 737 C 408 742 384 744 362 739 C 359 739 356 738 353 738 C 329 724 312 702 300 678 C 311 685 324 690 338 687 C 346 686 354 681 356 673 C 360 663 359 652 357 642 C 354 625 346 610 335 597 C 325 587 312 578 298 577 C 291 576 285 577 280 579 C 281 568 284 557 287 546 C 289 549 290 552 292 555 C 293 556 295 555 296 555 C 300 555 304 555 308 553 C 311 552 312 550 315 548 C 316 547 318 546 317 544 C 313 534 307 524 300 516 C 312 495 328 476 347 462 Z" />
<path fill="#ffffff"  d="M 687 467 C 688 465 689 464 689 462 C 691 467 694 471 696 475 C 692 474 690 470 687 467 Z" />
<path fill="#371a46"  d="M 519 468 C 518 466 521 465 522 467 C 524 470 524 475 527 478 C 531 480 533 476 535 473 C 537 474 539 474 538 476 C 537 481 528 485 524 481 C 521 477 520 473 519 468 Z" />
<path fill="#cdc5d0"  d="M 681 475 C 683 473 685 470 687 467 C 690 470 692 474 696 475 C 702 485 709 495 717 503 C 740 525 770 538 801 541 C 838 545 875 536 906 516 C 888 533 867 546 844 553 C 806 559 765 552 732 532 C 710 518 692 498 681 475 Z" />
<path fill="#371a46"  d="M 512 468 C 513 466 516 467 516 469 C 517 473 520 478 518 483 C 515 488 509 488 505 486 C 502 486 502 483 504 482 C 508 482 512 484 514 481 C 514 476 511 472 512 468 Z" />
<path fill="#371a46"  d="M 426 492 C 436 482 450 477 464 478 C 472 479 480 484 486 491 C 494 500 498 511 501 523 C 508 526 512 532 512 539 C 512 547 506 554 498 555 C 490 556 481 552 478 544 C 476 540 477 535 479 531 C 477 524 474 517 468 513 C 463 507 454 506 448 511 C 442 515 439 523 436 530 C 434 537 433 544 431 551 C 430 552 429 551 428 551 C 428 544 429 537 431 530 C 433 521 436 513 442 506 C 450 500 462 499 471 504 C 479 510 483 519 486 529 C 488 533 483 537 485 541 C 487 547 494 549 499 547 C 503 545 504 542 504 538 C 504 534 501 531 497 529 C 494 528 494 524 493 521 C 489 509 484 498 474 490 C 467 485 457 485 449 487 C 437 490 427 499 420 509 C 417 514 415 519 413 524 C 410 530 408 536 407 543 C 407 543 405 543 405 543 C 403 542 404 540 404 538 C 407 521 414 504 426 492 Z" />
<path fill="#cdc5d0"  d="M 658 489 C 664 488 670 485 675 481 C 689 508 711 530 737 544 C 754 552 771 558 790 561 C 757 560 725 549 699 530 C 683 519 669 505 658 489 Z" />
<path fill="#371a46"  d="M 532 485 C 535 483 539 484 542 486 C 544 487 543 491 541 490 C 538 489 534 487 532 490 C 531 494 533 498 533 503 C 532 504 530 505 529 503 C 528 500 527 496 527 492 C 527 489 529 486 532 485 Z" />
<path fill="#b1f797"  d="M 449 487 C 457 485 467 485 474 490 C 484 498 489 509 493 521 C 494 524 494 528 497 529 C 501 531 504 534 504 538 C 501 535 497 532 493 530 C 489 517 484 504 473 495 C 464 489 453 490 443 493 C 434 496 427 503 420 509 C 427 499 437 490 449 487 Z" />
<path fill="#371a46"  d="M 514 489 C 517 488 521 489 523 492 C 525 496 525 500 526 504 C 527 506 523 507 522 505 C 521 502 521 498 519 494 C 518 492 515 493 513 494 C 511 495 510 498 508 496 C 505 493 511 490 514 489 Z" />
<path fill="#62ed2e"  d="M 443 493 C 453 490 464 489 473 495 C 484 504 489 517 493 530 C 497 532 501 535 504 538 C 504 542 503 545 499 547 C 494 549 487 547 485 541 C 483 537 488 533 486 529 C 483 519 479 510 471 504 C 462 499 450 500 442 506 C 436 513 433 521 431 530 C 426 531 422 532 418 529 C 415 528 414 526 413 524 C 415 519 417 514 420 509 C 427 503 434 496 443 493 Z" />
<path fill="#b1f797"  d="M 226 504 C 235 499 245 496 256 498 C 263 499 269 501 275 505 C 269 503 263 501 256 500 C 243 499 229 504 219 512 C 209 518 201 527 194 537 C 190 537 186 539 183 542 C 184 537 189 535 192 533 C 202 522 213 511 226 504 Z" />
<path fill="#62ed2e"  d="M 219 512 C 229 504 243 499 256 500 C 263 501 269 503 275 505 C 286 510 295 519 303 529 C 301 531 300 534 297 536 C 294 537 291 536 287 535 C 282 526 274 516 263 512 C 253 507 240 508 229 512 C 219 517 209 524 202 533 C 200 535 198 537 198 539 C 198 544 196 548 192 550 C 187 551 183 546 183 542 C 186 539 190 537 194 537 C 201 527 209 518 219 512 Z" />
<path fill="#32c419"  d="M 407 543 C 408 536 410 530 413 524 C 414 526 415 528 418 529 C 422 532 426 531 431 530 C 429 537 428 544 428 551 C 421 552 414 551 409 546 C 408 545 406 544 405 543 C 405 543 407 543 407 543 Z" />
<path fill="#32c419"  d="M 297 536 C 300 534 301 531 303 529 C 307 535 311 541 315 548 C 312 550 311 552 308 553 C 304 555 300 555 296 555 C 294 548 291 541 287 535 C 291 536 294 537 297 536 Z" />
<path fill="#fb132b"  d="M 1019 563 C 1020 553 1021 543 1022 533 C 1028 535 1034 536 1040 537 L 1040 537 C 1037 549 1033 562 1031 574 C 1030 574 1029 575 1029 575 C 1026 571 1023 567 1019 563 Z" />
<path fill="#ca1633"  d="M 1040 537 C 1044 537 1048 538 1052 538 C 1049 550 1046 561 1043 573 C 1039 572 1034 572 1031 574 C 1033 562 1037 549 1040 537 Z" />
<path fill="#ffffff"  d="M 647 556 C 661 545 680 543 697 540 C 699 542 702 543 704 544 C 692 548 681 553 670 558 C 662 557 654 556 647 556 Z" />
<path fill="#d1fac0"  d="M 285 542 C 286 543 287 545 287 546 C 284 557 281 568 280 579 L 279 580 C 279 567 282 554 285 542 Z" />
<path fill="#ffffff"  d="M 670 568 C 684 561 699 554 715 551 C 747 567 785 574 822 568 C 838 565 853 560 868 553 C 887 564 902 582 920 595 C 915 603 911 611 908 620 C 898 611 890 600 881 591 C 877 586 875 581 872 576 C 870 575 868 577 869 578 C 878 595 885 613 890 631 C 885 631 880 631 876 632 C 844 633 813 634 782 635 C 771 635 760 644 759 655 C 758 661 759 666 759 672 C 749 673 739 674 729 671 C 725 669 720 667 718 662 C 717 658 720 655 722 652 C 728 646 733 639 734 631 C 735 623 732 615 725 612 C 722 611 718 609 715 610 C 710 611 705 613 701 615 C 683 624 666 635 648 643 C 643 626 634 608 619 597 C 636 586 652 576 670 568 Z" />
<path fill="#371a46"  d="M 447 554 C 449 554 451 554 452 554 C 455 554 455 558 453 558 C 447 559 442 561 438 564 C 425 571 417 584 404 591 C 400 594 394 595 389 593 C 386 591 383 587 383 583 C 384 581 387 582 388 584 C 390 587 394 587 397 585 C 405 582 411 575 417 570 C 425 562 435 556 447 554 Z" />
<path fill="#ffffff"  d="M 641 564 C 647 563 654 563 660 563 C 652 567 645 571 637 575 C 638 572 639 568 641 564 Z" />
<path fill="#371a46"  d="M 294 566 C 301 564 308 566 315 568 C 324 572 331 577 339 583 C 342 585 345 587 349 587 C 352 588 352 582 355 582 C 358 583 357 586 357 588 C 356 592 352 595 348 595 C 342 596 338 592 334 590 C 324 583 316 575 305 572 C 301 570 297 570 293 570 C 293 569 292 567 294 566 Z" />
<path fill="#371a46"  d="M 454 567 C 464 565 475 565 484 571 C 491 576 495 585 497 593 C 502 611 497 631 487 647 C 474 669 450 684 425 684 C 416 684 406 682 400 674 C 394 666 392 656 391 646 C 391 629 398 613 407 600 C 418 583 435 571 454 567 Z" />
<path fill="#ffffff"  d="M 1003 572 C 1004 570 1008 568 1010 569 C 1018 572 1023 581 1023 589 C 1024 595 1024 600 1021 605 C 1018 608 1014 606 1011 604 C 1008 599 1010 593 1010 587 C 1008 586 1007 588 1007 590 C 1004 594 1004 599 1004 604 C 1003 610 1003 617 1002 624 C 981 633 957 635 933 633 C 927 632 920 630 914 626 C 917 616 921 606 927 598 C 942 599 956 598 970 596 C 974 596 978 594 982 592 C 989 586 997 579 1003 572 Z" />
<path fill="#c4b9c7"  d="M 459 574 C 465 573 472 573 477 576 C 482 578 485 583 487 587 C 482 581 473 580 465 580 C 446 581 429 591 418 605 C 409 615 402 627 399 640 C 401 625 407 611 416 599 C 427 586 442 576 459 574 Z" />
<path fill="#ffffff"  d="M 1032 585 C 1031 581 1036 579 1039 580 C 1045 582 1050 587 1052 593 C 1058 607 1057 624 1049 637 C 1045 638 1040 637 1037 633 C 1030 626 1031 616 1030 607 C 1033 600 1033 593 1032 585 Z" />
<path fill="#c4b9c7"  d="M 282 587 C 290 582 301 584 310 588 C 326 596 338 611 345 627 C 338 615 329 604 316 597 C 306 592 294 589 284 593 C 279 594 276 598 274 602 C 275 596 276 590 282 587 Z" />
<path fill="#cdc5d0"  d="M 881 591 C 890 600 898 611 908 620 C 906 627 905 634 904 641 C 903 638 900 637 898 634 C 895 623 890 612 885 601 C 884 597 882 594 881 591 Z" />
<path fill="#2b1a3c"  d="M 490 599 C 492 605 492 611 490 617 C 488 632 481 645 471 656 C 461 666 449 673 436 676 C 427 677 418 678 410 673 C 406 671 404 667 402 664 C 400 658 399 652 399 647 C 404 653 412 656 421 656 C 437 656 453 649 466 639 C 478 628 486 614 490 599 Z" />
<path fill="#ffffff"  d="M 601 610 C 605 607 609 604 613 601 C 628 612 637 629 641 647 C 627 653 611 657 596 657 C 591 658 586 656 582 653 C 590 640 597 625 601 610 Z" />
<path fill="#cdc5d0"  d="M 1025 613 C 1027 612 1029 609 1030 607 C 1031 616 1030 626 1037 633 C 1040 637 1045 638 1049 637 C 1046 643 1041 648 1035 651 C 1030 648 1027 643 1026 638 C 1025 630 1025 622 1025 613 Z" />
<path fill="#cdc5d0"  d="M 701 615 C 705 613 710 611 715 610 C 718 609 722 611 725 612 C 732 615 735 623 734 631 C 733 639 728 646 722 652 C 720 655 717 658 718 662 C 720 667 725 669 729 671 C 739 674 749 673 759 672 C 759 672 759 674 759 675 C 737 677 715 675 694 671 C 694 664 694 657 695 650 C 703 643 711 636 717 628 C 717 627 716 627 716 626 C 695 641 674 656 650 667 C 651 659 650 651 648 643 C 666 635 683 624 701 615 Z" />
<path fill="#fb132b"  d="M 1012 615 C 1014 615 1016 615 1018 616 C 1017 625 1018 634 1020 644 C 1018 648 1017 653 1017 658 C 1014 657 1011 656 1008 654 C 1009 641 1011 628 1012 615 Z" />
<path fill="#2b1a3c"  d="M 274 616 C 277 621 280 628 284 633 C 291 643 301 653 313 657 C 323 660 335 661 344 656 C 347 654 349 651 351 649 C 352 657 353 667 347 674 C 341 681 331 681 323 680 C 312 678 301 671 294 662 C 283 649 275 633 274 616 Z" />
<path fill="#cdc5d0"  d="M 933 633 C 957 635 981 633 1002 624 C 1001 633 1000 642 999 651 C 990 665 976 676 960 679 C 945 681 929 681 915 676 C 911 660 910 642 914 626 C 920 630 927 632 933 633 Z" />
<path fill="#ffffff"  d="M 873 639 C 878 639 882 638 887 639 C 894 639 901 646 901 653 C 902 667 903 681 903 694 C 903 696 903 698 903 700 C 889 706 874 707 858 707 C 858 704 859 700 860 697 C 863 693 868 691 871 687 C 874 682 875 676 874 670 C 874 660 874 650 873 639 Z" />
<path fill="#ffffff"  d="M 807 642 C 827 641 847 640 867 639 C 867 650 868 661 868 673 C 869 676 868 680 866 683 C 864 686 860 688 858 690 C 855 694 853 698 852 702 C 852 704 852 706 852 707 C 845 707 838 706 831 705 C 845 698 846 675 833 667 C 829 665 824 665 820 665 C 815 666 811 665 807 667 C 803 670 800 675 798 680 C 796 676 794 671 792 666 C 791 661 791 655 794 651 C 796 646 802 642 807 642 Z" />
<path fill="#ffffff"  d="M 766 659 C 767 651 773 644 781 643 C 784 643 787 643 790 643 C 786 647 784 653 784 659 C 784 667 785 674 785 681 C 783 681 782 681 780 681 C 779 680 778 678 777 677 C 775 673 771 670 766 669 C 766 666 766 662 766 659 Z" />
<path fill="#ca1633"  d="M 1017 658 C 1017 653 1018 648 1020 644 C 1022 648 1025 653 1029 656 C 1029 657 1029 659 1029 660 C 1025 659 1021 659 1017 658 Z" />
<path fill="#cdc5d0"  d="M 596 657 C 611 657 627 653 641 647 C 643 654 643 662 643 670 C 622 678 601 684 579 687 C 576 687 574 689 574 691 C 573 702 565 712 554 716 C 555 708 556 698 550 691 C 562 680 573 667 582 653 C 586 656 591 658 596 657 Z" />
<path fill="#ffbb94"  d="M 1008 654 C 1011 656 1014 657 1017 658 C 1016 662 1016 667 1015 671 C 1012 671 1009 670 1006 670 C 1006 665 1007 659 1008 654 Z" />
<path fill="#c4b9c7"  d="M 674 664 C 678 662 682 659 685 657 C 685 661 685 666 685 671 C 682 673 680 677 678 680 C 677 675 677 669 674 664 Z" />
<path fill="#cd9280"  d="M 1017 658 C 1021 659 1025 659 1029 660 C 1028 664 1027 668 1027 672 C 1023 672 1019 671 1015 671 C 1016 667 1016 662 1017 658 Z" />
<path fill="#371a46"  d="M 807 667 C 811 665 815 666 820 665 C 824 665 829 665 833 667 C 846 675 845 698 831 705 C 826 706 820 706 814 706 C 809 706 804 702 801 698 C 798 693 797 686 798 680 C 800 675 803 670 807 667 Z" />
<path fill="#cdc5d0"  d="M 792 666 C 794 671 796 676 798 680 C 797 686 798 693 801 698 C 804 702 809 706 814 706 C 820 706 826 706 831 705 C 838 706 845 707 852 707 C 852 706 852 704 852 702 C 852 711 853 720 853 729 C 839 729 825 730 812 730 C 802 730 794 722 794 712 C 793 697 792 681 792 666 Z" />
<path fill="#ffffff"  d="M 630 685 C 643 680 656 675 668 668 C 670 670 670 674 670 676 C 671 687 672 697 671 708 C 670 708 669 708 668 708 C 667 708 666 707 665 706 C 666 697 666 687 663 678 C 663 678 662 678 661 678 C 662 688 663 697 661 706 C 657 710 653 713 648 713 C 641 713 636 708 632 704 C 631 697 630 691 630 685 Z" />
<path fill="#cdc5d0"  d="M 766 669 C 771 670 775 673 777 677 C 774 675 770 674 767 674 C 767 672 766 671 766 669 Z" />
<path fill="#5ec0db"  d="M 991 673 C 992 671 994 671 996 669 C 995 671 993 673 991 673 Z" />
<path fill="#1c7aeb"  d="M 803 686 C 802 679 807 671 814 670 C 807 679 808 693 815 702 C 808 701 803 693 803 686 Z" />
<path fill="#bce5fb"  d="M 815 680 C 816 675 820 670 826 670 C 831 670 835 676 837 681 C 834 677 830 674 826 674 C 821 674 817 677 815 680 Z" />
<path fill="#371a46"  d="M 381 675 C 382 674 383 674 384 675 C 385 678 383 682 380 683 C 377 681 379 676 381 675 Z" />
<path fill="#23a7f1"  d="M 815 680 C 817 677 821 674 826 674 C 830 674 834 677 837 681 C 837 683 837 684 837 686 C 834 689 830 693 826 692 C 821 692 817 688 814 685 C 814 684 814 682 815 680 Z" />
<path fill="#371a46"  d="M 369 675 C 372 674 375 677 376 680 C 376 681 376 684 374 683 C 371 682 368 679 369 675 Z" />
<path fill="#ffffff"  d="M 684 689 C 684 684 686 681 688 677 C 714 683 740 685 766 681 C 770 681 774 684 775 688 C 772 694 765 696 759 696 C 734 698 708 698 684 689 Z" />
<path fill="#ffbb94"  d="M 999 680 C 1001 679 1003 680 1005 680 C 1012 681 1019 682 1026 683 C 1032 685 1031 695 1025 695 C 1016 694 1008 693 1000 691 C 995 691 994 682 999 680 Z" />
<path fill="#cdc5d0"  d="M 780 681 C 782 681 783 681 785 681 C 785 690 786 699 786 708 C 786 712 786 717 788 722 C 790 725 792 729 795 731 C 791 731 788 732 784 731 C 777 731 770 725 769 718 C 768 715 768 713 768 711 C 773 709 778 706 781 702 C 784 695 784 687 780 681 Z" />
<path fill="#1c7aeb"  d="M 814 685 C 817 688 821 692 826 692 C 830 693 834 689 837 686 C 837 691 835 697 831 700 C 827 702 823 701 820 698 C 816 695 814 690 814 685 Z" />
<path fill="#cdc5d0"  d="M 775 688 L 776 688 C 776 691 776 694 774 697 C 772 702 767 704 762 704 C 738 707 714 707 691 699 C 686 698 684 693 684 689 C 708 698 734 698 759 696 C 765 696 772 694 775 688 Z" />
<path fill="#32c419"  d="M 516 703 C 521 700 526 697 532 694 C 522 704 509 711 498 720 C 496 721 494 723 495 725 C 496 727 498 726 500 725 C 506 723 512 720 518 716 C 528 726 534 739 538 753 C 550 790 552 831 539 868 C 534 884 526 899 515 912 C 504 925 491 935 476 943 C 472 945 467 946 462 947 C 447 949 432 950 417 948 C 409 947 403 954 395 953 C 388 952 382 956 375 955 C 375 954 376 954 376 953 C 388 953 399 946 410 942 C 423 937 438 936 451 931 C 479 921 501 900 514 874 C 528 848 532 817 528 788 C 527 779 525 770 520 763 C 516 758 511 755 505 754 C 496 753 488 756 482 762 C 477 767 474 774 472 780 C 470 774 470 767 467 761 C 466 760 464 761 465 763 C 467 786 469 809 465 833 C 465 836 464 840 462 844 C 454 858 443 871 432 883 C 429 885 426 887 422 888 C 412 888 403 888 393 889 C 383 891 376 903 381 912 C 373 920 366 928 360 937 C 357 941 355 946 356 951 C 332 951 307 948 283 948 C 263 950 245 959 225 962 C 215 964 205 964 195 962 C 189 961 182 957 179 951 C 168 931 161 909 152 888 C 151 884 149 881 149 878 C 149 873 151 869 153 865 C 150 895 169 926 197 938 C 203 940 210 937 215 934 C 238 920 266 914 292 915 C 307 916 322 917 335 911 C 344 908 351 901 353 892 C 355 886 353 880 351 874 C 359 880 368 884 378 885 C 394 887 411 882 424 872 C 441 859 450 837 450 815 C 450 805 448 794 441 786 C 436 780 428 776 421 774 C 409 771 397 768 385 764 C 387 763 389 761 390 759 C 409 761 429 759 447 753 C 452 751 457 749 460 745 C 462 744 460 741 458 742 C 449 743 440 746 430 748 C 405 754 376 752 353 738 C 356 738 359 739 362 739 C 384 744 408 742 431 737 C 461 730 489 718 516 703 Z" />
<path fill="#cdc5d0"  d="M 903 694 C 904 700 904 706 904 711 C 904 720 897 727 889 727 C 879 728 869 728 859 728 C 859 721 859 714 858 707 C 874 707 889 706 903 700 C 903 698 903 696 903 694 Z" />
<path fill="#32c419"  d="M 525 711 C 532 707 537 702 543 697 C 546 710 544 723 541 736 C 537 727 532 718 525 711 Z" />
<path fill="#c4b9c7"  d="M 679 699 C 681 701 683 703 685 705 C 685 727 689 749 698 769 C 684 766 670 762 658 755 C 652 752 646 748 642 743 C 639 738 638 733 636 727 C 641 731 647 733 654 733 C 662 734 671 730 675 722 C 678 715 679 707 679 699 Z" />
<path fill="#371a46"  d="M 388 707 C 388 705 390 701 393 702 C 396 702 398 705 400 707 C 403 711 406 715 408 719 C 410 722 410 726 408 729 C 404 732 397 730 394 725 C 393 723 394 720 394 717 C 392 714 388 712 388 707 Z" />
<path fill="#c4b9c7"  d="M 632 704 C 636 708 641 713 648 713 C 653 713 657 710 661 706 C 659 713 657 720 651 725 C 648 725 645 723 642 722 C 636 718 634 710 632 704 Z" />
<path fill="#c4b9c7"  d="M 665 706 C 666 707 667 708 668 708 C 669 708 670 708 671 708 C 670 712 669 716 667 720 C 665 722 662 724 660 725 C 663 719 664 713 665 706 Z" />
<path fill="#cdc5d0"  d="M 694 708 C 715 714 738 714 761 712 C 760 720 763 729 770 734 C 775 738 783 740 789 739 C 819 738 849 736 879 735 C 884 735 889 735 894 734 C 890 747 884 760 874 770 C 867 777 859 783 850 787 C 837 774 821 764 803 759 C 802 759 801 760 801 760 C 795 760 789 761 785 765 C 778 771 776 781 779 789 C 780 798 786 806 793 812 C 801 820 811 827 818 836 C 824 843 829 851 833 859 C 819 864 804 869 789 869 C 779 855 766 843 754 831 C 744 820 734 810 725 799 C 705 773 694 741 694 708 Z" />
<path fill="#62ed2e"  d="M 482 762 C 488 756 496 753 505 754 C 511 755 516 758 520 763 C 525 770 527 779 528 788 C 532 817 528 848 514 874 C 501 900 479 921 451 931 C 438 936 423 937 410 942 C 399 946 388 953 376 953 C 382 941 393 933 402 923 C 401 922 400 921 400 921 C 391 928 382 934 375 942 C 372 942 370 941 368 940 C 372 934 377 929 382 923 C 388 917 393 911 401 907 C 402 906 401 903 400 903 C 395 904 392 906 388 907 C 387 903 390 898 394 898 C 404 897 414 897 423 896 C 430 895 435 891 439 887 C 450 875 460 862 468 848 C 472 839 473 830 473 821 C 474 807 473 794 472 780 C 474 774 477 767 482 762 Z" />
<path fill="#62ed2e"  d="M 376 759 C 377 758 378 757 380 757 C 364 773 348 789 336 807 C 330 806 325 807 321 811 C 314 816 313 825 314 833 C 308 832 302 832 295 832 C 322 807 349 783 376 759 Z" />
<path fill="#ffffff"  d="M 785 765 C 789 761 795 760 801 760 C 803 762 806 763 808 764 C 828 773 844 789 857 806 C 863 814 869 822 874 830 C 864 844 848 852 833 859 C 829 851 824 843 818 836 C 811 827 801 820 793 812 C 786 806 780 798 779 789 C 776 781 778 771 785 765 Z" />
<path fill="#62ed2e"  d="M 344 811 C 356 794 370 779 385 764 C 397 768 409 771 421 774 C 428 776 436 780 441 786 C 448 794 450 805 450 815 C 450 837 441 859 424 872 C 411 882 394 887 378 885 C 368 884 359 880 351 874 C 353 880 355 886 353 892 C 351 901 344 908 335 911 C 322 917 307 916 292 915 C 266 914 238 920 215 934 C 210 937 203 940 197 938 C 169 926 150 895 153 865 C 157 858 163 852 170 851 C 182 849 192 856 200 863 C 210 872 216 884 219 897 C 220 901 220 906 221 910 C 222 912 223 911 224 911 C 225 901 224 891 221 882 C 250 868 282 861 314 861 C 324 861 334 864 341 871 C 342 871 343 873 345 872 C 346 871 344 870 344 868 C 338 862 331 858 323 855 C 324 852 324 850 325 848 C 330 850 338 852 342 847 C 345 844 347 842 348 838 C 350 834 350 830 350 826 C 352 820 347 815 344 811 Z" />
<path fill="#ffffff"  d="M 886 770 C 882 784 877 797 871 810 C 867 804 863 799 858 793 C 869 788 879 780 886 770 Z" />
<path fill="#d1fac0"  d="M 321 832 C 319 825 322 816 330 814 C 336 812 343 816 347 822 C 343 819 338 817 333 819 C 326 820 323 826 321 832 Z" />
<path fill="#62ed2e"  d="M 321 832 C 323 826 326 820 333 819 C 338 817 343 819 347 822 L 347 822 C 347 826 347 830 345 834 C 343 837 339 840 335 840 C 331 841 327 838 323 836 C 322 835 322 833 321 832 Z" />
<path fill="#371a46"  d="M 332 826 C 334 824 335 822 337 820 C 337 822 336 825 335 827 C 337 828 339 829 341 831 C 338 831 336 830 333 829 C 332 831 331 833 329 835 C 329 833 329 831 330 829 C 328 828 326 826 325 824 C 328 825 330 826 332 826 Z" />
<path fill="#2cc714"  d="M 347 822 C 348 823 349 824 350 826 C 350 830 350 834 348 838 C 347 842 345 844 342 847 C 339 846 335 847 332 845 C 328 843 325 840 323 836 C 327 838 331 841 335 840 C 339 840 343 837 345 834 C 347 830 347 826 347 822 Z" />
<path fill="#ffffff"  d="M 836 867 C 852 860 868 851 879 838 C 887 851 893 864 897 877 C 894 886 888 893 880 896 C 877 896 877 900 880 899 C 890 899 899 891 904 883 C 910 880 919 880 924 885 C 930 890 933 897 935 905 C 935 906 935 907 935 908 C 921 919 905 926 889 929 C 880 931 869 931 861 925 C 854 920 851 911 849 903 C 845 891 841 879 836 867 Z" />
<path fill="#62ed2e"  d="M 265 842 C 276 840 287 840 298 840 C 304 841 311 841 318 841 C 317 845 316 848 315 852 C 282 853 249 859 220 873 C 217 869 214 866 211 862 C 228 853 246 845 265 842 Z" />
<path fill="#cdc5d0"  d="M 712 880 C 726 868 739 854 751 840 C 763 852 775 864 784 878 C 776 885 766 891 757 896 C 756 896 755 894 754 895 C 752 895 752 897 753 898 C 748 902 743 906 742 913 C 740 922 745 931 753 936 C 766 944 782 945 796 940 C 795 943 795 947 792 949 C 777 953 761 955 745 953 C 740 952 734 949 730 945 C 720 935 711 923 706 910 C 705 904 703 899 704 894 C 705 888 708 883 712 880 Z" />
<path fill="#62ed2e"  d="M 142 852 C 146 847 153 841 159 846 C 152 850 146 858 143 866 C 140 872 140 879 142 886 C 152 910 160 935 173 958 C 157 955 144 944 138 930 C 133 921 132 910 132 900 C 132 883 133 866 142 852 Z" />
<path fill="#d1fac0"  d="M 280 868 C 287 866 295 865 303 866 C 304 867 307 867 307 869 C 305 872 302 873 299 874 C 291 877 283 878 275 878 C 272 878 268 877 267 875 C 270 871 275 869 280 868 Z" />
<path fill="#cdc5d0"  d="M 794 877 C 809 876 823 872 836 867 C 841 879 845 891 849 903 C 851 911 854 920 861 925 C 869 931 880 931 889 929 C 905 926 921 919 935 908 C 935 907 935 906 935 905 C 936 908 936 913 933 915 C 905 935 872 948 838 949 C 833 949 828 946 826 942 C 813 921 807 898 794 877 Z" />
<path fill="#d1fac0"  d="M 257 875 C 259 873 264 874 264 878 C 264 881 258 883 256 880 C 254 879 255 876 257 875 Z" />
<path fill="#ffffff"  d="M 757 896 C 766 891 776 885 784 878 C 790 887 795 896 799 906 C 796 908 793 910 791 912 C 778 912 765 906 757 896 Z" />
<path fill="#ffffff"  d="M 742 913 C 743 906 748 902 753 898 C 762 910 774 918 789 921 C 791 921 792 923 793 925 C 796 929 797 935 796 940 C 782 945 766 944 753 936 C 745 931 740 922 742 913 Z" />
<path fill="#5ec0db"  d="M 799 917 C 800 916 801 915 802 914 C 807 926 812 938 820 948 C 824 955 832 958 839 957 C 870 957 900 946 926 930 C 931 927 937 924 942 919 C 949 921 958 921 966 923 C 981 925 997 928 1012 932 C 1019 935 1027 937 1033 942 C 1036 944 1038 949 1036 952 C 1034 957 1029 959 1024 961 C 1011 967 997 970 983 973 C 940 981 896 984 852 985 C 805 986 758 984 711 980 C 687 977 663 974 640 968 C 631 965 622 962 614 957 C 611 954 608 950 611 946 C 615 939 623 937 629 934 C 651 927 675 923 698 920 C 699 920 699 920 700 919 C 704 929 710 937 717 945 C 722 950 727 956 734 959 C 740 961 746 962 751 962 C 766 963 781 961 794 957 C 798 956 800 954 802 951 C 807 940 806 927 799 917 Z" />
<path fill="#5ec0db"  d="M 480 951 C 492 944 503 936 513 927 C 529 930 547 933 563 939 C 568 942 575 945 578 950 C 580 955 575 959 572 962 C 561 968 549 971 537 974 C 508 980 478 984 449 986 C 412 989 376 990 340 991 C 298 991 256 989 215 986 C 191 984 166 981 142 977 C 127 974 112 971 99 964 C 94 962 89 960 87 954 C 86 949 90 946 94 944 C 104 937 117 935 129 932 C 136 950 154 964 174 967 C 178 967 182 966 185 968 C 194 972 203 972 212 972 C 237 972 259 960 282 957 C 310 956 337 960 365 960 C 366 960 367 960 369 961 C 374 965 381 964 387 962 C 392 961 398 962 403 961 C 408 960 413 956 418 957 C 434 958 450 958 465 955 C 470 954 475 953 480 951 Z" />
<path fill="#32c419"  d="M 368 940 L 368 940 C 370 941 372 942 375 942 C 372 945 370 948 368 951 C 367 950 365 949 364 947 C 365 945 366 943 368 940 Z" />
</svg>
