<?xml version="1.0" encoding="UTF-8"?>
<!DOCTYPE svg PUBLIC "-//W3C//DTD SVG 1.1//EN" "http://www.w3.org/Graphics/SVG/1.1/DTD/svg11.dtd">
<svg width="1191pt" height="1191pt" viewBox="0 0 1191 1191" version="1.1" xmlns="http://www.w3.org/2000/svg">
<path fill="#551e61" d="M0 0 L 1191 0 L 1191 1191 L 0 1191 L 0 0 Z"/>
<path fill="#ffffff" d="M558 64 C 561 64 562 69 559 69 C 555 69 555 64 558 64 Z"/>
<path fill="#ffffff" d="M157 82 C 159 80 162 84 160 86 C 158 88 155 84 157 82 Z"/>
<path fill="#ffe07d" d="M806 88 C 810 87 813 91 816 93 C 819 95 822 98 826 98 C 830 97 834 95 838 94 C 842 94 846 97 846 101 C 845 106 841 112 841 117 C 843 122 847 127 850 132 C 851 135 849 138 845 139 C 840 141 834 139 828 141 C 824 144 821 149 817 152 C 814 155 809 153 808 149 C 806 146 805 142 804 138 C 804 136 802 135 801 134 C 797 132 792 130 788 128 C 784 126 784 121 787 118 C 791 116 795 113 799 111 C 800 109 801 107 801 106 C 801 102 801 97 801 93 C 802 91 804 89 806 88 Z"/>
<path fill="#ffffff" d="M926 113 C 929 112 930 118 927 118 C 924 118 923 113 926 113 Z"/>
<path fill="#ffffff" d="M534 155 C 583 145 635 147 684 159 C 723 169 761 187 792 213 C 818 236 839 264 856 295 C 876 332 889 371 899 412 C 906 441 912 471 917 502 C 922 529 926 556 927 584 C 921 556 916 527 910 498 C 903 463 896 428 885 394 C 875 361 862 329 845 299 C 826 268 802 239 773 218 C 746 198 716 185 684 176 C 688 180 691 185 691 191 C 691 196 688 202 684 206 C 678 210 672 212 666 213 C 640 218 613 214 590 203 C 585 200 579 196 576 190 C 574 185 575 178 579 174 C 582 169 587 167 592 165 C 525 167 458 191 405 232 C 365 264 336 307 315 353 C 295 398 284 446 280 494 C 274 563 281 633 296 700 C 292 696 288 691 286 685 C 272 640 263 592 261 544 C 259 497 263 449 276 404 C 284 375 295 347 309 321 C 333 276 367 236 410 207 C 447 181 489 163 534 155 Z"/>
<path fill="#ffe07d" d="M295 152 C 298 150 301 154 303 155 C 307 158 311 151 315 154 C 318 157 314 161 315 165 C 316 167 318 169 320 172 C 321 173 320 176 318 176 C 315 177 312 177 309 177 C 307 179 306 182 304 184 C 303 185 300 185 299 183 C 298 181 297 179 296 177 C 294 173 288 175 286 171 C 286 166 292 165 293 162 C 295 159 292 154 295 152 Z"/>
<path fill="#ffe07d" d="M889 156 C 893 155 893 161 895 163 C 896 168 904 166 905 170 C 905 175 897 175 897 180 C 897 183 898 188 894 189 C 890 190 887 184 883 185 C 880 186 877 188 874 185 C 873 183 875 180 875 178 C 877 173 869 170 872 165 C 874 162 879 165 883 163 C 885 161 886 157 889 156 Z"/>
<path fill="#51fffe" d="M405 232 C 458 191 525 167 592 165 C 587 167 582 169 579 174 C 575 178 574 185 576 190 C 579 196 585 200 590 203 C 613 214 640 218 666 213 C 672 212 678 210 684 206 C 688 202 691 196 691 191 C 691 185 688 180 684 176 C 716 185 746 198 773 218 C 802 239 826 268 845 299 C 862 329 875 361 885 394 C 896 428 903 463 910 498 C 916 527 921 556 927 584 C 928 596 927 609 925 621 C 925 621 924 621 924 621 C 906 574 879 531 845 493 C 845 492 844 491 843 490 C 847 488 852 489 856 488 C 861 487 862 482 859 478 C 847 463 836 445 829 426 C 831 426 834 428 837 427 C 840 426 841 422 840 419 C 829 353 800 289 758 236 C 751 226 741 216 729 213 C 717 210 704 215 695 223 C 685 230 678 241 673 253 C 669 262 665 271 660 279 C 608 267 552 275 506 301 C 490 288 473 277 456 266 C 448 261 438 256 428 257 C 418 258 409 266 404 274 C 397 283 392 293 388 304 C 363 364 364 431 342 493 C 340 497 345 502 349 500 C 353 499 356 497 359 495 C 355 517 349 540 342 562 C 340 566 344 571 349 569 C 352 568 354 566 357 565 C 335 611 317 661 307 711 C 307 711 306 711 306 711 C 302 708 299 704 296 700 C 281 633 274 563 280 494 C 284 446 295 398 315 353 C 336 307 365 264 405 232 Z"/>
<path fill="#ffffff" d="M529 192 C 536 191 543 192 549 194 C 553 195 556 199 558 202 C 561 209 557 216 552 220 C 545 225 536 226 527 226 C 520 226 512 224 507 218 C 504 214 503 207 507 203 C 512 196 521 193 529 192 Z"/>
<path fill="#ffffff" d="M692 242 C 699 233 709 225 721 224 C 732 224 741 233 748 242 C 787 292 815 351 827 413 C 824 412 821 411 818 411 C 815 412 812 416 814 419 C 820 439 829 457 841 474 C 842 475 843 476 843 477 C 838 478 834 480 829 482 C 826 484 825 489 828 491 C 839 503 849 515 859 528 C 851 534 843 541 839 550 C 836 558 836 568 841 576 C 845 583 853 587 860 590 C 874 597 889 601 904 604 C 909 615 913 626 918 638 C 903 660 884 680 862 695 C 857 683 850 671 840 662 C 845 655 849 648 853 640 C 855 644 857 648 859 652 C 861 655 866 655 868 653 C 875 644 880 634 883 623 C 884 620 882 616 878 616 C 876 615 872 617 871 620 C 870 625 868 632 865 637 C 863 632 860 628 858 624 C 856 620 850 620 848 624 C 841 638 834 652 824 664 C 813 675 799 684 783 685 C 774 685 763 682 759 672 C 753 661 756 647 761 636 L 762 636 C 771 640 783 641 792 636 C 798 632 801 624 800 617 C 799 606 791 598 783 591 L 782 591 C 785 581 785 571 782 562 C 780 558 773 558 771 562 C 769 566 772 570 772 573 C 773 588 766 601 759 614 C 747 607 733 603 719 604 C 712 605 705 607 702 613 C 696 620 697 632 702 640 C 708 647 716 651 724 654 C 730 657 738 659 744 662 C 744 673 749 683 758 689 C 769 698 784 699 797 695 C 802 701 807 707 812 714 C 806 714 800 713 793 714 C 773 716 754 730 746 749 C 743 751 740 752 737 752 C 725 720 688 698 654 705 C 620 712 594 744 594 778 C 587 779 580 779 573 779 C 570 779 566 780 563 779 C 559 760 546 743 529 734 C 540 728 545 716 543 704 C 552 694 560 683 570 674 C 576 667 584 662 588 653 C 591 647 590 638 585 633 C 581 627 573 624 566 623 C 547 621 528 630 516 645 C 514 635 513 623 514 612 C 514 609 511 606 508 606 C 505 605 502 608 502 611 C 500 634 505 657 517 676 C 522 685 528 693 531 703 C 532 708 532 716 527 720 C 522 725 514 727 507 727 C 506 718 505 710 504 701 C 504 697 502 692 498 689 C 494 687 490 688 487 691 C 479 696 474 705 470 713 C 457 704 447 691 441 677 C 440 674 436 673 433 674 C 430 675 429 679 428 681 C 427 678 427 675 427 671 C 426 668 423 666 419 667 C 417 667 415 670 415 673 C 416 682 417 692 418 702 C 418 705 422 707 426 706 C 429 705 430 702 431 699 C 433 697 434 694 435 693 C 440 701 447 709 454 716 C 445 715 435 715 426 717 C 408 721 392 732 381 746 C 381 747 380 748 379 749 C 357 742 336 733 317 720 C 324 688 332 657 344 627 L 344 627 C 347 626 349 624 351 623 C 393 593 426 552 446 504 C 449 495 452 484 448 474 C 444 467 436 463 429 464 C 417 464 405 469 395 474 C 386 480 378 487 371 495 C 372 491 373 487 373 483 C 373 478 369 475 365 477 C 362 478 360 480 358 481 C 370 440 375 397 384 355 C 390 330 398 306 411 285 C 414 280 418 274 423 271 C 427 269 432 269 436 270 C 443 272 449 275 455 279 C 471 289 487 300 501 313 C 503 315 506 315 508 314 C 515 310 522 306 529 303 C 536 319 548 333 562 344 C 569 349 576 354 584 357 C 590 359 598 360 604 357 C 609 354 612 349 614 344 C 621 325 625 306 629 287 C 629 287 631 286 631 286 C 641 287 651 289 661 292 C 663 292 665 292 667 290 C 677 275 682 257 692 242 Z"/>
<path fill="#ff9595" d="M720 249 C 726 246 732 251 736 255 C 744 265 750 276 754 287 C 755 291 755 294 754 298 C 752 301 749 302 746 302 C 735 304 724 304 713 303 C 707 303 700 301 695 297 C 694 295 693 293 694 291 C 696 280 702 270 709 260 C 712 256 715 251 720 249 Z"/>
<path fill="#ffffff" d="M1065 257 C 1068 256 1069 261 1067 262 C 1064 263 1062 258 1065 257 Z"/>
<path fill="#c2c2c2" d="M529 303 C 561 289 597 283 631 286 C 631 286 629 287 629 287 C 625 306 621 325 614 344 C 612 349 609 354 604 357 C 598 360 590 359 584 357 C 576 354 569 349 562 344 C 548 333 536 319 529 303 L 529 303 Z"/>
<path fill="#ff9595" d="M431 293 C 437 291 443 293 448 296 C 457 301 465 309 470 318 C 475 324 477 332 474 339 C 472 346 466 349 461 353 C 452 357 444 362 436 366 C 431 369 424 371 419 367 C 412 363 411 355 411 349 C 412 335 415 321 419 308 C 421 302 424 295 431 293 Z"/>
<path fill="#551e61" d="M674 318 C 689 315 705 322 712 335 C 714 338 713 343 709 344 C 705 346 700 343 697 341 C 690 338 683 338 677 342 C 671 345 666 350 659 348 C 653 347 650 339 653 333 C 657 325 666 320 674 318 Z"/>
<path fill="#ffffff" d="M168 343 C 171 342 172 348 169 348 C 166 348 165 344 168 343 Z"/>
<path fill="#551e61" d="M513 349 C 521 348 530 348 536 353 C 540 357 541 366 536 370 C 529 374 520 370 512 373 C 507 375 503 378 501 383 C 499 386 496 390 491 391 C 488 392 485 388 484 385 C 484 368 497 352 513 349 Z"/>
<path fill="#551e61" d="M675 374 C 679 369 684 366 691 366 C 698 367 704 371 708 377 C 715 386 718 399 714 410 C 712 417 708 423 701 426 C 694 428 687 426 681 422 C 672 414 668 401 669 389 C 671 394 677 396 682 395 C 688 393 692 386 689 381 C 688 375 681 372 675 374 Z"/>
<path fill="#ffffff" d="M976 368 C 978 366 981 369 979 371 C 977 374 974 370 976 368 Z"/>
<path fill="#551e61" d="M511 406 C 514 402 519 399 525 399 C 532 399 539 403 543 409 C 551 418 554 432 550 444 C 548 450 543 457 536 459 C 528 461 521 458 515 453 C 507 445 504 433 505 422 C 507 427 514 430 520 427 C 526 424 528 416 524 410 C 521 406 515 405 511 406 Z"/>
<path fill="#ff9595" d="M747 405 C 757 403 767 404 776 409 C 781 413 785 418 785 424 C 785 432 780 438 775 443 C 765 451 752 454 739 453 C 731 453 722 450 717 442 C 713 436 714 428 718 423 C 724 413 736 407 747 405 Z"/>
<path fill="#551e61" d="M626 433 C 629 431 635 431 638 434 C 641 438 641 442 640 447 C 638 456 632 465 624 470 C 626 482 630 495 639 503 C 646 509 656 512 664 509 C 673 506 680 496 679 486 C 678 482 682 479 686 480 C 690 481 691 484 691 487 C 691 503 679 519 663 521 C 647 525 631 515 622 502 C 621 509 617 516 612 522 C 603 530 589 533 578 530 C 566 527 556 520 548 511 C 546 509 546 505 549 503 C 551 501 555 501 557 504 C 563 510 570 516 579 518 C 587 520 597 519 603 513 C 608 509 610 504 611 498 C 612 490 612 481 611 473 C 602 472 593 466 589 458 C 587 453 587 448 589 443 C 592 439 598 438 603 439 C 608 440 612 443 616 445 C 618 441 621 436 626 433 Z"/>
<path fill="#ffffff" d="M111 434 C 114 433 116 437 113 438 C 111 440 108 435 111 434 Z"/>
<path fill="#c2c2c2" d="M669 443 C 675 442 681 442 687 443 C 690 443 690 447 688 448 C 687 449 685 449 683 448 C 673 447 662 450 654 456 C 651 458 649 454 651 452 C 656 447 662 444 669 443 Z"/>
<path fill="#c2c2c2" d="M554 458 C 564 456 574 457 583 463 C 586 465 583 470 580 468 C 571 463 560 461 550 465 C 548 467 545 462 547 460 C 549 459 552 458 554 458 Z"/>
<path fill="#ff9595" d="M489 459 C 499 457 510 457 519 462 C 524 465 529 471 529 477 C 529 485 524 492 518 497 C 508 505 494 508 481 507 C 473 506 464 502 460 495 C 457 489 458 481 462 476 C 468 467 478 461 489 459 Z"/>
<path fill="#c2c2c2" d="M664 462 C 670 461 677 462 682 467 C 684 469 680 473 678 471 C 673 467 665 466 659 470 C 657 472 654 469 655 466 C 657 464 661 463 664 462 Z"/>
<path fill="#c2c2c2" d="M395 474 C 405 469 417 464 429 464 C 436 463 444 467 448 474 C 452 484 449 495 446 504 C 426 552 393 593 351 623 C 349 624 347 626 344 627 L 344 626 C 353 602 363 579 375 556 C 377 552 374 547 369 548 C 365 549 361 550 357 552 C 363 533 368 514 371 495 C 378 487 386 480 395 474 Z"/>
<path fill="#c2c2c2" d="M571 472 C 573 472 576 471 578 472 C 580 474 578 478 576 478 C 569 477 563 480 559 485 C 556 487 552 483 554 481 C 559 476 565 473 571 472 Z"/>
<path fill="#ffe07d" d="M1088 474 C 1090 473 1092 475 1092 478 C 1092 480 1091 484 1094 486 C 1096 488 1100 489 1100 492 C 1098 496 1092 495 1090 498 C 1089 500 1089 503 1088 505 C 1087 507 1084 508 1083 506 C 1081 505 1079 503 1077 501 C 1074 499 1070 501 1067 499 C 1065 496 1068 493 1070 490 C 1073 486 1066 481 1069 477 C 1073 475 1077 479 1081 479 C 1083 477 1085 475 1088 474 Z"/>
<path fill="#c2c2c2" d="M839 550 C 843 541 851 534 859 528 C 877 552 892 577 904 604 C 889 601 874 597 860 590 C 853 587 845 583 841 576 C 836 568 836 558 839 550 Z"/>
<path fill="#ffe07d" d="M110 545 C 112 544 116 544 117 547 C 120 550 122 553 125 556 C 126 558 127 559 129 559 C 134 559 138 559 142 560 C 147 561 149 566 146 570 C 143 574 139 578 138 582 C 138 588 141 593 142 599 C 142 602 139 605 135 605 C 130 604 124 602 118 601 C 114 603 109 607 105 609 C 101 610 97 608 97 604 C 96 599 97 594 96 588 C 92 584 87 581 83 577 C 81 574 82 568 86 567 C 90 566 94 565 99 564 C 100 563 102 562 103 560 C 104 556 105 552 107 549 C 107 547 108 546 110 545 Z"/>
<path fill="#c2c2c2" d="M781 595 C 782 594 782 592 783 591 C 791 598 799 606 800 617 C 801 624 798 632 792 636 C 783 641 771 640 762 636 L 761 636 C 767 622 776 610 781 595 Z"/>
<path fill="#ffe07d" d="M939 607 C 955 610 971 616 984 627 C 995 635 1003 648 1006 661 C 1011 684 1006 708 997 729 C 989 747 978 763 965 778 C 942 806 915 830 885 850 C 849 873 809 891 768 904 C 691 928 609 934 529 933 C 461 932 393 928 328 909 C 306 902 284 893 263 882 C 247 874 231 863 218 851 C 202 836 188 817 183 795 C 180 781 181 767 184 754 C 186 787 199 819 221 843 C 238 862 261 876 285 883 C 296 886 306 890 316 893 C 460 936 615 938 760 900 C 797 889 832 874 864 853 C 895 833 927 812 953 786 C 966 772 978 756 987 739 C 995 723 1001 705 1002 687 C 1003 673 1001 658 994 646 C 988 635 979 626 968 620 C 959 615 948 612 938 610 C 938 609 939 607 939 607 Z"/>
<path fill="#ff9595" d="M938 610 C 948 612 959 615 968 620 C 979 626 988 635 994 646 C 1001 658 1003 673 1002 687 C 1001 705 995 723 987 739 C 978 756 966 772 953 786 C 927 812 895 833 864 853 C 832 874 797 889 760 900 C 615 938 460 936 316 893 C 306 890 296 886 285 883 C 261 876 238 862 221 843 C 199 819 186 787 184 754 C 187 737 195 721 205 707 C 221 685 242 667 264 651 C 266 658 268 666 270 673 C 258 677 250 688 247 700 C 244 711 246 722 251 732 C 258 747 271 758 284 768 C 315 792 352 806 390 816 C 429 826 470 830 511 833 C 580 838 650 837 719 824 C 763 815 806 800 846 780 C 880 762 912 740 939 714 C 947 706 955 698 961 688 C 966 681 969 672 969 664 C 969 653 964 643 956 636 C 951 631 944 627 936 625 C 937 620 938 615 938 610 Z"/>
<path fill="#ff9595" d="M710 625 C 709 621 712 617 716 617 C 729 615 742 618 753 624 C 753 626 752 627 751 629 C 744 625 735 621 727 621 C 721 620 715 622 710 625 Z"/>
<path fill="#ffe07d" d="M948 623 C 947 620 951 619 953 619 C 955 619 959 619 960 622 C 960 624 957 625 954 625 C 952 625 949 625 948 623 Z"/>
<path fill="#6046b3" d="M710 625 C 715 622 721 620 727 621 C 735 621 744 625 751 629 C 748 635 745 642 744 649 C 737 646 731 644 724 641 C 717 638 710 633 710 625 Z"/>
<path fill="#ffffff" d="M1143 624 C 1145 623 1147 625 1146 627 C 1146 628 1144 629 1143 628 C 1141 627 1141 625 1143 624 Z"/>
<path fill="#ff9595" d="M551 636 C 558 634 566 634 573 637 C 553 636 533 647 524 664 C 523 663 522 661 521 660 C 528 648 538 639 551 636 Z"/>
<path fill="#ffe07d" d="M933 637 C 939 637 944 641 948 645 C 950 659 945 673 936 684 C 926 696 914 706 903 715 C 867 744 826 766 783 781 C 719 804 651 813 584 813 C 573 813 563 812 553 813 C 486 815 420 804 357 783 C 339 777 321 770 304 759 C 292 751 281 741 272 729 C 267 721 262 711 263 701 C 263 698 264 695 265 691 C 267 688 270 686 273 685 C 275 692 279 699 284 705 C 295 719 309 730 324 739 C 343 749 364 757 384 764 C 539 814 715 795 856 713 C 888 695 914 668 933 637 Z"/>
<path fill="#6046b3" d="M524 664 C 533 647 553 636 573 637 C 576 639 579 644 577 648 C 575 653 571 656 568 659 C 557 669 548 679 539 690 C 535 681 528 673 524 664 Z"/>
<path fill="#ffffff" d="M193 641 C 196 639 198 644 195 645 C 193 647 191 643 193 641 Z"/>
<path fill="#ffffff" d="M948 645 C 953 650 957 657 957 664 C 956 676 948 687 940 696 C 914 723 884 745 853 763 C 808 788 758 804 707 813 C 641 826 572 826 504 821 C 461 817 417 812 375 799 C 341 789 308 773 280 750 C 271 742 262 732 259 720 C 256 710 258 699 265 691 C 264 695 263 698 263 701 C 262 711 267 721 272 729 C 281 741 292 751 304 759 C 321 770 339 777 357 783 C 420 804 486 815 553 813 C 563 812 573 813 584 813 C 651 813 719 804 783 781 C 826 766 867 744 903 715 C 914 706 926 696 936 684 C 945 673 950 659 948 645 Z"/>
<path fill="#ffe07d" d="M981 649 C 985 648 990 648 993 652 C 994 655 991 657 988 657 C 984 658 979 658 977 654 C 975 652 979 649 981 649 Z"/>
<path fill="#ffe07d" d="M246 672 C 249 671 253 672 254 675 C 252 679 246 679 243 677 C 241 675 244 672 246 672 Z"/>
<path fill="#6046b3" d="M809 690 C 818 685 826 679 833 672 C 841 680 847 690 851 701 C 851 701 851 702 851 702 C 843 706 836 711 828 715 C 822 706 815 699 809 691 L 809 690 Z"/>
<path fill="#c2c2c2" d="M487 691 C 490 688 494 687 498 689 C 502 692 504 697 504 701 C 505 710 506 718 507 727 C 494 726 481 720 470 713 C 474 705 479 696 487 691 Z"/>
<path fill="#ffe07d" d="M223 704 C 227 703 233 703 236 707 C 238 709 238 713 236 715 C 231 718 225 718 220 716 C 218 715 216 712 216 709 C 217 706 220 705 223 704 Z"/>
<path fill="#ffe07d" d="M969 704 C 974 702 981 703 985 707 C 987 709 988 713 986 716 C 982 721 975 722 970 721 C 965 720 961 717 961 712 C 961 708 965 705 969 704 Z"/>
<path fill="#c2c2c2" d="M746 749 C 754 730 773 716 793 714 C 800 713 806 714 812 714 C 814 716 815 718 817 720 C 794 732 770 742 746 749 Z"/>
<path fill="#c2c2c2" d="M426 717 C 435 715 445 715 454 716 C 455 716 455 716 455 717 C 448 732 444 750 445 767 C 422 763 400 756 379 749 L 379 749 C 380 748 381 747 381 746 C 392 732 408 721 426 717 Z"/>
<path fill="#ff9595" d="M606 774 C 608 744 634 717 664 716 C 686 715 707 726 719 744 C 710 735 699 727 687 723 C 675 719 661 719 649 724 C 631 731 617 747 610 765 C 608 768 608 771 606 774 Z"/>
<path fill="#6046b3" d="M649 724 C 661 719 675 719 687 723 C 699 727 710 735 719 744 C 722 747 724 752 725 756 C 719 758 712 760 706 761 C 700 750 689 741 676 738 C 666 736 655 739 646 745 C 636 752 630 763 629 776 C 621 776 614 777 606 778 C 606 777 606 775 606 774 C 608 771 608 768 610 765 C 617 747 631 731 649 724 Z"/>
<path fill="#6046b3" d="M457 770 C 456 754 459 738 465 724 C 478 732 492 738 508 739 C 504 747 502 756 501 765 C 500 768 501 772 500 776 C 486 774 471 772 457 770 Z"/>
<path fill="#c2c2c2" d="M522 737 C 524 736 527 735 529 734 C 546 743 559 760 563 779 C 566 780 570 779 573 779 L 574 779 C 554 780 533 779 513 777 C 512 763 515 749 522 737 Z"/>
<path fill="#ffffff" d="M666 750 C 677 749 688 755 694 764 C 676 768 659 772 641 774 C 643 762 653 751 666 750 Z"/>
<path fill="#ffe07d" d="M915 763 C 921 762 928 763 933 767 C 936 770 938 774 937 778 C 936 783 932 787 928 789 C 920 791 911 791 905 785 C 901 782 899 777 901 773 C 903 767 909 764 915 763 Z"/>
<path fill="#ffe07d" d="M221 765 C 231 762 243 766 248 776 C 252 784 250 794 243 800 C 234 808 218 807 210 798 C 206 793 204 785 206 779 C 209 772 214 767 221 765 Z"/>
<path fill="#ff5a70" d="M918 840 C 945 820 968 796 987 768 C 981 783 972 796 963 809 C 942 838 915 862 886 881 C 851 904 813 921 774 933 C 729 947 683 956 636 960 C 580 965 523 964 467 959 C 430 956 393 950 356 941 C 324 932 291 919 263 901 C 250 894 238 885 228 874 C 258 896 293 911 328 921 C 387 938 449 943 510 944 C 566 946 623 944 679 936 C 725 929 770 918 813 901 C 851 885 886 865 918 840 Z"/>
<path fill="#ffe07d" d="M816 821 C 823 819 832 820 839 825 C 843 827 846 832 846 838 C 846 843 843 848 838 851 C 829 858 815 857 807 849 C 802 846 800 839 802 834 C 804 827 810 823 816 821 Z"/>
<path fill="#ffe07d" d="M316 822 C 327 820 338 827 341 838 C 342 846 339 854 333 858 C 325 865 312 865 303 858 C 298 853 295 845 297 837 C 299 829 307 823 316 822 Z"/>
<path fill="#ffffff" d="M1032 831 C 1035 829 1038 833 1035 835 C 1033 837 1030 833 1032 831 Z"/>
<path fill="#ffe07d" d="M422 848 C 430 846 440 849 445 856 C 450 861 451 869 448 875 C 445 883 437 889 429 889 C 421 890 412 886 408 879 C 404 873 404 866 407 860 C 410 854 415 849 422 848 Z"/>
<path fill="#ffe07d" d="M689 858 C 699 855 711 858 716 867 C 720 873 719 880 714 885 C 705 895 689 895 679 887 C 675 883 673 877 674 872 C 676 865 682 860 689 858 Z"/>
<path fill="#ffe07d" d="M561 862 C 569 860 578 863 583 870 C 587 875 589 881 587 887 C 585 894 580 900 573 902 C 561 907 546 899 543 886 C 541 875 550 864 561 862 Z"/>
<path fill="#ffffff" d="M141 896 C 143 894 146 899 143 900 C 140 902 138 897 141 896 Z"/>
<path fill="#ffe07d" d="M1013 900 C 1017 899 1020 902 1023 904 C 1027 905 1029 908 1033 907 C 1037 905 1042 903 1046 901 C 1050 900 1054 903 1054 907 C 1054 912 1052 917 1052 922 C 1055 928 1060 931 1063 935 C 1064 938 1063 943 1059 944 C 1054 945 1050 945 1045 946 C 1041 947 1041 952 1039 955 C 1036 958 1035 963 1031 963 C 1025 964 1024 958 1021 955 C 1019 952 1018 948 1015 946 C 1010 945 1006 944 1002 943 C 998 942 996 937 999 934 C 1002 930 1006 927 1009 922 C 1010 916 1008 910 1009 905 C 1009 902 1011 901 1013 900 Z"/>
<path fill="#ff5a70" d="M840 921 C 843 919 846 917 849 917 C 853 931 849 948 839 959 C 839 950 838 941 833 933 C 836 929 838 925 840 921 Z"/>
<path fill="#ffe07d" d="M628 972 C 694 967 760 954 821 929 C 820 931 818 933 816 935 C 802 947 785 957 767 964 C 729 978 689 987 648 992 C 595 998 540 995 488 983 C 486 983 485 983 483 983 C 475 979 467 975 459 971 C 515 976 571 977 628 972 Z"/>
<path fill="#ff9595" d="M799 964 C 812 956 824 945 833 933 C 838 941 839 950 839 959 C 838 960 836 961 835 963 C 832 963 829 964 826 964 C 826 962 827 959 824 959 C 819 958 813 957 808 959 C 806 960 807 963 807 965 C 805 965 802 965 799 964 Z"/>
<path fill="#ffffff" d="M767 964 C 785 957 802 947 816 935 C 802 950 784 961 765 970 C 725 987 682 995 640 1000 C 592 1004 543 1002 497 988 C 493 986 488 984 483 983 C 485 983 486 983 488 983 C 540 995 595 998 648 992 C 689 987 729 978 767 964 Z"/>
<path fill="#ffe07d" d="M808 959 C 813 957 819 958 824 959 C 827 959 826 962 826 964 C 829 964 832 963 835 963 C 823 972 806 974 792 969 C 795 967 797 966 799 964 C 802 965 805 965 807 965 C 807 963 806 960 808 959 Z"/>
<path fill="#ff5a70" d="M424 967 C 428 968 434 966 437 970 C 441 973 444 976 448 978 C 445 985 444 993 445 1000 C 434 992 427 980 424 967 Z"/>
<path fill="#ff9595" d="M448 978 C 462 987 478 994 494 999 C 492 1001 489 1003 486 1003 C 485 1002 485 1000 482 1000 C 478 1000 473 998 469 1001 C 468 1003 469 1006 470 1008 C 467 1008 463 1008 459 1008 C 454 1006 449 1004 445 1000 L 445 1000 C 444 993 445 985 448 978 Z"/>
<path fill="#ffe07d" d="M469 1001 C 473 998 478 1000 482 1000 C 485 1000 485 1002 486 1003 C 489 1003 492 1001 494 999 C 498 1001 503 1002 507 1003 C 493 1012 475 1014 459 1008 C 463 1008 467 1008 470 1008 C 469 1006 468 1003 469 1001 Z"/>
<path fill="#ffe07d" d="M298 1002 C 302 1001 304 1009 309 1007 C 312 1007 316 1005 317 1008 C 319 1011 314 1015 315 1018 C 316 1021 318 1023 319 1026 C 319 1027 318 1029 317 1029 C 314 1030 312 1029 309 1029 C 305 1029 303 1037 298 1035 C 295 1033 296 1029 294 1026 C 292 1024 290 1023 287 1022 C 285 1021 285 1017 287 1016 C 289 1015 292 1014 294 1013 C 296 1010 293 1003 298 1002 Z"/>
<path fill="#ffe07d" d="M695 1004 C 698 1003 701 1002 705 1002 C 697 1019 682 1032 664 1036 C 668 1032 674 1030 678 1026 C 675 1026 673 1027 671 1025 C 668 1023 669 1019 672 1017 C 675 1015 678 1013 681 1012 C 684 1011 685 1015 686 1017 C 689 1013 693 1009 695 1004 L 695 1004 Z"/>
<path fill="#ff9595" d="M630 1012 C 652 1011 673 1008 695 1004 C 693 1009 689 1013 686 1017 C 685 1015 684 1011 681 1012 C 678 1013 675 1015 672 1017 C 669 1019 668 1023 671 1025 C 673 1027 675 1026 678 1026 C 674 1030 668 1032 664 1036 L 664 1036 C 660 1037 655 1038 650 1038 C 647 1036 643 1034 639 1032 C 633 1027 629 1020 630 1012 Z"/>
<path fill="#ff5a70" d="M602 1014 C 611 1013 621 1013 630 1012 C 629 1020 633 1027 639 1032 C 643 1034 647 1036 650 1038 C 631 1038 613 1029 602 1014 Z"/>
<path fill="#ffffff" d="M778 1031 C 780 1030 782 1032 781 1034 C 781 1035 779 1036 778 1035 C 776 1034 776 1032 778 1031 Z"/>
<path fill="#ffe07d" d="M414 1035 C 417 1033 422 1035 423 1038 C 424 1043 424 1049 425 1054 C 429 1058 435 1060 439 1063 C 441 1066 441 1071 438 1073 C 434 1075 430 1076 427 1078 C 425 1079 423 1080 422 1082 C 421 1087 420 1091 419 1095 C 418 1099 413 1101 410 1099 C 406 1095 402 1091 398 1088 C 393 1086 386 1088 381 1087 C 378 1086 376 1083 377 1080 C 379 1075 382 1071 384 1066 C 383 1060 380 1055 378 1050 C 378 1046 381 1042 384 1042 C 390 1043 396 1045 401 1045 C 406 1043 409 1038 414 1035 Z"/>
<path fill="#ffffff" d="M1038 1074 C 1040 1072 1044 1076 1041 1078 C 1039 1080 1036 1076 1038 1074 Z"/>
<path fill="#ffffff" d="M185 1101 C 188 1100 189 1105 186 1106 C 183 1107 182 1102 185 1101 Z"/>
<path fill="#ffffff" d="M622 1127 C 625 1126 626 1132 623 1132 C 620 1132 619 1128 622 1127 Z"/>
</svg>
