<?xml version="1.0" encoding="UTF-8" ?>
<!DOCTYPE svg PUBLIC "-//W3C//DTD SVG 1.1//EN" "http://www.w3.org/Graphics/SVG/1.1/DTD/svg11.dtd">
<svg width="1191pt" height="1191pt" viewBox="0 0 1191 1191" version="1.1" xmlns="http://www.w3.org/2000/svg">
<path fill="#e8c0ff"  d="M 0 0 L 1191 0 L 1191 1191 L 0 1191 L 0 0 Z" />
<path fill="#000072"  d="M 534 144 C 577 129 623 127 667 137 C 700 144 733 160 760 181 C 786 202 808 227 824 256 C 842 290 853 327 854 365 C 855 402 849 439 835 472 C 819 508 796 540 766 565 C 768 579 759 593 748 602 C 751 618 748 637 736 650 C 740 657 742 665 740 673 C 738 686 732 697 731 709 C 738 718 742 729 743 740 C 743 747 743 754 740 760 C 751 776 751 798 747 816 C 755 830 755 847 752 863 C 758 872 760 884 759 896 C 758 905 754 913 751 922 C 742 939 732 956 727 975 C 725 983 726 991 726 999 C 726 1014 727 1030 728 1046 C 729 1048 729 1050 730 1052 C 734 1058 735 1065 736 1072 C 736 1076 734 1081 730 1083 C 721 1088 710 1089 699 1090 C 688 1090 675 1089 664 1085 C 656 1082 649 1075 648 1067 C 648 1048 648 1030 648 1012 C 648 1003 646 995 642 987 C 641 992 640 996 638 1000 C 636 1002 635 1005 635 1008 C 634 1019 634 1029 635 1039 C 635 1043 637 1046 638 1049 C 640 1057 640 1064 637 1071 C 635 1076 630 1079 624 1080 C 611 1081 597 1082 584 1078 C 582 1084 576 1089 570 1088 C 552 1088 535 1089 517 1087 C 513 1087 508 1085 506 1080 C 503 1071 506 1061 512 1053 C 514 1051 514 1047 515 1044 C 516 1034 515 1023 512 1013 C 511 1025 510 1036 508 1048 C 507 1057 505 1067 499 1075 C 495 1080 489 1083 483 1084 C 468 1085 454 1087 440 1085 C 434 1084 427 1082 423 1077 C 420 1071 420 1064 421 1058 C 424 1046 430 1034 432 1021 C 436 1003 433 983 426 966 C 418 948 408 931 400 914 C 393 898 387 881 386 864 C 386 852 389 840 394 829 C 385 816 387 798 392 784 C 383 770 380 752 380 736 C 381 713 389 690 405 673 C 409 670 412 667 416 664 C 422 661 430 662 435 667 C 442 674 446 685 447 694 C 453 693 460 693 466 694 C 471 690 478 688 485 689 C 488 689 491 688 494 687 C 489 677 490 665 492 654 C 485 648 480 640 478 631 C 476 620 477 610 479 599 C 468 591 461 579 462 565 C 437 544 415 517 400 488 C 381 450 372 406 374 363 C 376 309 397 256 432 215 C 459 183 495 158 534 144 Z" />
<path fill="#c1c3ff"  d="M 551 148 C 593 136 637 136 678 148 C 711 158 741 175 766 197 C 791 220 812 248 825 279 C 842 317 849 360 844 402 C 839 452 817 501 782 538 C 781 537 783 535 783 534 C 802 510 816 482 825 453 C 838 405 837 354 824 307 C 824 327 824 346 820 365 C 816 387 810 409 800 429 C 797 436 793 444 788 450 C 787 441 784 431 778 423 C 783 405 780 385 771 368 C 767 362 762 357 756 353 C 755 348 755 344 754 340 C 767 328 777 313 784 296 C 790 280 793 262 790 245 C 788 235 784 224 776 217 C 766 208 751 205 739 210 C 728 216 721 228 719 241 C 718 251 715 260 710 269 C 704 261 695 253 685 250 C 677 247 669 248 663 251 C 655 242 644 235 632 233 C 611 230 590 238 577 254 C 568 250 557 248 547 251 C 539 254 532 260 528 268 C 526 271 525 274 523 277 C 520 273 517 268 515 263 L 515 262 C 530 252 546 242 563 234 C 578 226 594 219 607 208 C 612 205 616 201 617 195 C 618 188 614 181 608 177 C 598 170 585 167 572 166 C 549 165 526 172 506 183 C 495 190 484 198 475 208 L 474 208 C 464 209 454 214 448 222 C 440 234 437 248 437 262 C 437 262 437 263 437 263 C 432 274 428 287 426 300 C 425 308 424 317 428 325 C 431 329 436 331 441 329 C 447 327 451 322 456 318 L 456 318 C 462 327 470 336 478 343 C 461 354 453 377 459 396 C 450 409 445 425 448 441 C 449 449 453 457 459 463 C 455 472 453 481 453 490 C 428 466 409 437 397 405 C 394 398 391 391 389 383 C 389 401 392 418 396 435 C 406 471 423 505 447 533 C 454 542 461 550 469 557 C 469 558 470 559 470 560 C 445 541 425 516 410 488 C 387 446 378 397 383 350 C 389 295 414 243 453 205 C 480 178 514 158 551 148 Z" />
<path fill="#ecedff"  d="M 506 183 C 526 172 549 165 572 166 C 585 167 598 170 608 177 C 614 181 618 188 617 195 C 616 201 612 205 607 208 C 594 219 578 226 563 234 C 546 242 530 252 515 262 C 512 255 511 248 510 241 C 508 229 502 217 491 211 C 486 209 480 208 475 208 C 484 198 495 190 506 183 Z" />
<path fill="#000072"  d="M 448 222 C 454 214 464 209 474 208 C 472 211 469 213 467 216 C 459 220 453 226 450 234 C 448 238 447 243 445 247 C 442 252 440 257 437 262 C 437 248 440 234 448 222 Z" />
<path fill="#b2b2d4"  d="M 474 208 L 475 208 C 480 208 486 209 491 211 C 502 217 508 229 510 241 C 511 248 512 255 515 262 L 515 263 C 513 264 511 266 509 267 C 506 259 504 250 502 241 C 501 232 496 222 487 218 C 481 214 474 215 467 216 C 469 213 472 211 474 208 Z" />
<path fill="#ffffff"  d="M 467 216 C 474 215 481 214 487 218 C 496 222 501 232 502 241 C 504 250 506 259 509 267 C 510 268 511 270 511 271 L 511 271 C 508 277 506 284 502 289 C 499 286 497 283 495 279 C 491 271 487 262 484 253 C 481 246 472 243 466 246 C 460 249 457 255 456 261 C 455 269 456 277 458 284 L 457 286 C 451 275 448 263 448 250 C 448 245 450 240 450 234 C 453 226 459 220 467 216 Z" />
<path fill="#ffffff"  d="M 741 218 C 751 212 764 215 772 224 C 776 227 778 232 780 237 L 780 237 C 779 240 780 243 780 247 C 781 259 778 272 773 284 C 772 285 771 286 770 287 C 773 278 774 268 772 259 C 771 254 768 249 763 246 C 758 243 752 245 748 249 C 745 251 744 255 743 258 C 739 269 734 280 727 289 C 723 284 720 277 718 271 C 722 262 725 252 726 243 C 727 233 732 223 741 218 Z" />
<path fill="#edecf4"  d="M 445 247 C 447 243 448 238 450 234 C 450 240 448 245 448 250 C 448 263 451 275 457 286 L 458 284 C 460 292 464 299 469 306 L 469 306 C 466 308 464 310 462 313 C 449 294 443 270 445 247 Z" />
<path fill="#c0bfde"  d="M 780 247 C 780 243 779 240 780 237 C 785 248 785 261 783 272 C 779 295 768 316 751 332 C 750 328 748 324 745 321 C 757 312 765 300 770 287 L 770 287 C 771 286 772 285 773 284 C 778 272 781 259 780 247 Z" />
<path fill="#ffffff"  d="M 582 262 C 592 247 611 239 629 242 C 640 243 651 249 657 259 C 658 261 662 263 664 261 C 669 257 676 256 682 258 C 693 262 701 270 706 279 C 711 287 714 296 715 305 C 715 307 716 309 718 309 C 725 311 732 316 736 322 C 743 332 746 344 748 356 C 748 357 749 359 751 359 C 761 366 767 377 770 389 C 773 400 773 412 770 423 C 768 426 771 428 773 430 C 779 441 781 454 780 466 C 780 479 775 494 765 503 C 763 504 763 507 764 508 C 770 524 768 542 758 555 C 756 558 752 559 752 563 C 724 575 696 583 666 588 C 665 586 664 584 662 583 C 659 582 660 587 660 589 C 658 589 657 589 656 590 C 654 589 653 588 651 587 C 650 587 649 589 648 591 C 648 591 647 591 646 591 C 646 591 644 590 644 590 C 643 589 642 586 640 587 C 638 587 638 590 638 591 C 584 595 529 586 480 565 C 477 554 476 543 478 532 C 479 530 478 528 477 527 C 469 519 463 509 462 498 C 461 486 463 474 468 463 C 469 461 468 459 466 458 C 460 453 457 445 456 437 C 455 424 459 410 468 399 C 469 397 468 394 467 392 C 464 380 467 367 475 358 C 478 353 482 350 487 348 C 489 347 490 345 490 343 C 489 335 491 326 495 319 C 501 310 512 305 522 305 C 525 305 527 303 527 301 C 529 290 531 279 536 270 C 540 265 546 260 553 259 C 561 258 569 260 576 264 C 578 265 581 264 582 262 Z" />
<path fill="#b2b2d4"  d="M 466 246 C 472 243 481 246 484 253 C 487 262 491 271 495 279 C 494 281 492 283 490 285 L 490 284 C 485 275 481 266 477 256 C 477 253 473 251 470 252 C 467 253 465 256 464 259 C 460 273 466 289 474 300 L 474 301 C 472 302 470 304 469 306 C 464 299 460 292 458 284 C 456 277 455 269 456 261 C 457 255 460 249 466 246 Z" />
<path fill="#b2b2d4"  d="M 437 262 C 440 257 442 252 445 247 C 443 270 449 294 462 313 L 462 313 C 460 315 458 316 456 318 L 456 318 C 446 302 439 283 437 263 C 437 263 437 262 437 262 Z" />
<path fill="#ffced1"  d="M 470 252 C 473 251 477 253 477 256 C 481 266 485 275 490 284 C 488 287 485 289 483 291 L 483 291 C 481 287 477 282 476 277 C 475 272 475 266 471 262 C 470 259 467 260 464 259 C 465 256 467 253 470 252 Z" />
<path fill="#ff5c65"  d="M 751 256 C 752 253 756 251 759 252 C 762 254 764 257 765 260 C 764 260 762 260 761 260 C 758 260 756 263 755 266 C 753 272 753 279 749 285 C 746 290 742 295 742 301 C 741 305 746 306 749 308 C 746 310 744 313 741 314 C 737 309 731 305 725 302 C 738 290 745 273 751 256 Z" />
<path fill="#fcd8da"  d="M 474 300 C 466 289 460 273 464 259 C 467 260 470 259 471 262 C 475 266 475 272 476 277 C 477 282 481 287 483 291 C 480 294 477 297 474 300 Z" />
<path fill="#f27e81"  d="M 755 266 C 756 263 758 260 761 260 C 762 260 764 260 765 260 C 767 270 765 281 761 290 C 758 297 754 303 749 308 C 746 306 741 305 742 301 C 742 295 746 290 749 285 C 753 279 753 272 755 266 Z" />
<path fill="#ecedff"  d="M 426 300 C 428 287 432 274 437 263 C 439 283 446 302 456 318 C 451 322 447 327 441 329 C 436 331 431 329 428 325 C 424 317 425 308 426 300 Z" />
<path fill="#c0bfde"  d="M 718 270 L 718 271 C 720 277 723 284 727 289 C 726 291 724 293 722 295 C 720 288 718 282 715 276 C 716 274 717 272 718 270 Z" />
<path fill="#c0bfde"  d="M 511 271 C 514 276 517 282 521 286 C 520 290 520 293 518 296 C 516 297 513 297 510 298 C 507 296 504 292 502 289 C 506 284 508 277 511 271 Z" />
<path fill="#c0bfde"  d="M 654 290 C 650 285 651 276 658 275 C 659 279 655 284 658 287 C 661 289 662 283 665 285 C 666 288 669 292 672 292 C 674 291 675 291 677 290 C 677 292 676 295 676 297 C 671 297 666 295 663 291 C 660 293 656 293 654 290 Z" />
<path fill="#ff5c65"  d="M 490 284 L 490 285 C 493 291 498 296 503 301 C 497 304 492 309 488 315 C 485 313 482 310 480 308 C 483 306 486 305 487 301 C 487 298 485 294 483 291 C 485 289 488 287 490 284 Z" />
<path fill="#f27e81"  d="M 483 291 L 483 291 C 485 294 487 298 487 301 C 486 305 483 306 480 308 C 478 306 476 303 474 301 L 474 300 C 477 297 480 294 483 291 Z" />
<path fill="#c0bfde"  d="M 462 313 C 464 310 466 308 469 306 C 473 312 478 317 484 321 C 482 326 482 331 481 336 C 474 329 467 322 462 313 L 462 313 Z" />
<path fill="#9292dc"  d="M 820 365 C 824 346 824 327 824 307 C 837 354 838 405 825 453 C 816 482 802 510 783 534 C 783 535 781 537 782 538 C 782 538 782 539 781 539 L 781 539 C 781 539 780 539 780 539 C 778 540 776 541 774 541 C 777 530 777 518 773 507 C 787 492 791 470 788 450 C 793 444 797 436 800 429 C 810 409 816 387 820 365 Z" />
<path fill="#c0bfde"  d="M 565 339 C 571 337 575 331 581 332 C 586 333 589 336 592 340 C 600 347 611 352 621 350 C 630 349 638 343 644 336 C 649 331 658 331 662 336 C 669 343 677 347 686 347 C 697 346 706 340 713 333 C 712 340 710 349 704 354 C 697 360 687 362 678 362 C 671 362 663 359 659 353 C 659 352 659 351 659 350 C 658 351 657 351 656 352 C 654 350 652 353 651 355 C 646 362 639 367 630 369 C 619 371 606 368 596 361 C 593 358 590 355 586 351 L 586 352 C 585 350 584 347 582 345 C 581 346 580 346 580 346 C 577 348 576 350 573 352 C 566 357 556 359 547 359 C 537 359 528 352 525 342 C 538 346 553 346 565 339 Z" />
<path fill="#000072"  d="M 708 357 C 710 352 711 347 715 344 C 716 345 717 345 717 346 C 715 351 712 356 713 362 C 714 371 719 381 728 386 C 730 388 733 388 736 390 C 738 392 736 396 735 398 C 729 411 729 427 736 440 C 740 447 740 455 741 463 C 741 475 737 488 731 498 C 723 510 712 519 699 526 C 683 535 665 540 647 542 C 625 545 603 545 581 541 C 563 538 545 532 529 523 C 517 515 506 506 499 494 C 491 482 488 468 489 454 C 490 448 490 443 493 438 C 495 434 500 432 502 428 C 508 419 509 407 504 398 C 503 396 503 395 502 393 C 499 393 497 393 495 392 L 494 392 C 494 391 493 389 495 389 C 499 388 503 388 507 386 C 512 384 517 380 520 374 C 523 368 525 360 522 354 C 522 352 519 348 523 347 C 526 349 527 353 529 356 C 533 360 538 363 543 364 C 557 367 571 362 581 353 C 581 351 580 349 580 346 C 580 346 581 346 582 345 C 584 347 585 350 586 352 C 590 361 597 369 606 372 C 620 378 638 374 649 363 C 652 360 654 356 656 352 C 657 351 658 351 659 350 C 659 351 659 352 659 353 C 658 355 657 357 656 360 C 664 369 678 371 689 368 C 696 366 703 362 708 357 Z" />
<path fill="#ffffff"  d="M 586 351 C 590 355 593 358 596 361 C 606 368 619 371 630 369 C 639 367 646 362 651 355 C 652 353 654 350 656 352 C 654 356 652 360 649 363 C 638 374 620 378 606 372 C 597 369 590 361 586 352 L 586 351 Z" />
<path fill="#e0a69a"  d="M 530 366 C 547 376 568 372 583 361 C 588 370 598 378 609 380 C 625 385 643 380 654 368 C 669 380 692 379 706 368 C 708 372 709 376 711 380 C 699 385 685 386 673 381 C 669 380 665 377 660 377 C 655 378 652 381 648 384 C 630 392 608 392 591 381 C 587 378 583 372 577 371 C 573 370 568 374 564 375 C 552 380 539 381 526 378 C 528 374 530 370 530 366 Z" />
<path fill="#ffd8be"  d="M 564 375 C 568 374 573 370 577 371 C 583 372 587 378 591 381 C 608 392 630 392 648 384 C 652 381 655 378 660 377 C 665 377 669 380 673 381 C 685 386 699 385 711 380 C 715 387 721 392 728 395 C 723 408 722 422 726 436 C 728 441 732 446 732 452 C 734 461 734 470 731 478 C 728 482 725 486 721 490 C 713 498 702 504 690 509 C 672 516 652 520 633 521 C 610 522 586 520 563 515 C 549 511 534 506 522 497 C 515 493 508 487 503 480 C 501 478 500 476 498 474 C 496 465 496 456 498 446 C 498 443 500 440 503 438 C 515 427 518 408 510 393 C 517 390 523 384 526 378 C 539 381 552 380 564 375 Z" />
<path fill="#9292dc"  d="M 389 383 C 391 391 394 398 397 405 C 409 437 428 466 453 490 C 452 506 459 521 470 532 C 468 541 468 549 469 557 C 461 550 454 542 447 533 C 423 505 406 471 396 435 C 392 418 389 401 389 383 Z" />
<path fill="#c0bfde"  d="M 495 392 C 497 393 499 393 502 393 C 503 395 503 396 504 398 C 504 403 504 408 501 412 C 502 417 500 423 495 426 C 492 428 485 427 485 423 C 487 420 491 421 493 418 C 496 416 492 413 492 411 C 492 408 496 407 497 405 C 499 400 495 396 495 392 Z" />
<path fill="#000072"  d="M 554 396 C 558 395 564 396 567 399 C 572 404 575 411 576 418 C 577 426 575 435 570 442 C 567 446 562 449 557 449 C 551 448 546 444 544 439 C 539 431 538 420 541 410 C 543 404 548 398 554 396 Z" />
<path fill="#000072"  d="M 669 396 C 673 395 678 396 681 399 C 687 403 690 409 691 416 C 692 425 691 434 686 442 C 683 446 678 449 673 449 C 667 449 662 444 659 439 C 654 430 653 419 657 410 C 659 404 663 398 669 396 Z" />
<path fill="#ffffff"  d="M 559 406 C 563 404 566 408 568 411 C 570 416 570 423 565 426 C 561 428 557 424 556 421 C 554 416 554 409 559 406 Z" />
<path fill="#ffffff"  d="M 668 406 C 671 405 674 408 675 411 C 677 416 676 423 670 426 C 666 428 663 424 662 421 C 661 416 662 408 668 406 Z" />
<path fill="#5a5aa4"  d="M 551 429 C 557 428 561 437 556 440 C 550 443 545 432 551 429 Z" />
<path fill="#5a5aa4"  d="M 677 429 C 679 428 681 429 682 431 C 684 435 680 442 675 441 C 670 438 673 431 677 429 Z" />
<path fill="#000072"  d="M 603 438 C 611 435 619 435 627 438 C 630 438 633 440 632 443 C 631 448 626 452 621 454 C 620 455 619 456 618 456 C 618 461 622 463 625 465 C 630 467 636 467 639 463 C 642 460 644 457 646 454 C 646 453 646 452 647 452 C 646 458 644 464 640 468 C 638 476 636 485 630 491 C 623 499 611 499 603 493 C 597 488 594 481 592 474 C 591 471 591 469 589 467 C 586 463 584 457 584 452 C 584 452 585 453 585 454 C 587 457 588 459 590 462 C 593 466 599 467 604 465 C 608 464 613 461 612 456 C 611 455 611 455 610 454 C 605 452 600 448 598 443 C 598 440 601 439 603 438 Z" />
<path fill="#9a98c7"  d="M 608 439 C 609 438 609 438 610 438 C 615 437 619 437 623 439 C 619 443 612 442 608 439 Z" />
<path fill="#e0a69a"  d="M 585 454 C 587 454 588 455 589 455 C 595 459 603 458 610 454 C 611 455 611 455 612 456 C 613 461 608 464 604 465 C 599 465 595 464 590 462 C 588 459 587 457 585 454 Z" />
<path fill="#e0a69a"  d="M 637 457 C 640 457 642 454 646 454 C 644 457 642 460 639 463 C 635 464 630 465 625 465 C 622 463 618 461 618 456 C 619 456 620 455 621 454 C 626 457 631 459 637 457 Z" />
<path fill="#ff67a0"  d="M 531 458 C 537 457 543 457 549 460 C 551 462 554 465 553 469 C 553 472 549 475 546 476 C 539 478 532 478 525 475 C 522 473 519 469 521 466 C 522 461 527 459 531 458 Z" />
<path fill="#ff67a0"  d="M 684 458 C 690 457 696 457 702 461 C 704 462 707 465 706 468 C 705 472 702 475 698 476 C 692 478 684 478 678 474 C 675 473 672 469 673 466 C 675 461 680 459 684 458 Z" />
<path fill="#ffd8be"  d="M 590 462 C 595 464 599 465 604 465 C 599 467 593 466 590 462 Z" />
<path fill="#ffd8be"  d="M 625 465 C 630 465 635 464 639 463 C 636 467 630 467 625 465 Z" />
<path fill="#e0a69a"  d="M 498 474 C 500 476 501 478 503 480 C 508 487 515 493 522 497 C 534 506 549 511 563 515 C 586 520 610 522 633 521 C 652 520 672 516 690 509 C 702 504 713 498 721 490 C 725 486 728 482 731 478 C 728 492 718 505 706 513 C 694 522 681 528 666 531 C 662 530 658 532 655 532 C 632 536 609 536 586 533 C 580 532 574 530 568 530 C 556 528 544 522 533 516 C 517 507 503 492 498 474 Z" />
<path fill="#ff67a0"  d="M 601 483 C 605 479 612 477 615 482 C 619 477 626 479 630 483 C 627 488 622 492 617 492 C 610 493 603 489 601 483 Z" />
<path fill="#c0bfde"  d="M 499 494 C 506 506 517 515 529 523 C 545 532 563 538 581 541 C 603 545 625 545 647 542 C 665 540 683 535 699 526 C 712 519 723 510 731 498 C 732 499 731 500 731 502 C 726 516 717 528 705 537 C 691 547 674 553 658 557 C 636 562 614 562 592 559 C 572 556 553 551 536 540 C 522 532 510 521 503 507 C 501 503 499 499 499 494 Z" />
<path fill="#ffd8be"  d="M 568 530 C 574 530 580 532 586 533 C 609 536 632 536 655 532 C 658 532 662 530 666 531 C 644 537 621 538 599 536 C 588 535 578 533 568 530 Z" />
<path fill="#c1c3ff"  d="M 774 541 C 776 541 778 540 780 539 C 780 539 781 539 781 539 C 778 542 775 545 772 548 C 773 546 773 544 774 541 Z" />
<path fill="#fd6ccb"  d="M 584 600 C 643 605 703 594 758 570 C 757 574 757 579 754 582 C 746 589 737 595 727 598 C 705 608 680 612 656 613 C 637 615 617 613 598 613 C 573 612 547 610 522 604 C 507 600 493 596 480 587 C 479 586 478 585 476 585 C 473 580 471 575 470 570 C 506 586 544 596 584 600 Z" />
<path fill="#c0bfde"  d="M 660 589 C 660 587 659 582 662 583 C 664 584 665 586 666 588 C 664 588 662 589 660 589 Z" />
<path fill="#bf50b6"  d="M 727 598 C 737 595 746 589 754 582 C 752 588 747 592 742 595 C 731 604 716 609 702 613 C 681 619 659 622 638 623 C 609 624 579 623 551 618 C 532 615 514 610 497 601 C 489 597 481 592 476 585 C 478 585 479 586 480 587 C 493 596 507 600 522 604 C 547 610 573 612 598 613 C 617 613 637 615 656 613 C 680 612 705 608 727 598 Z" />
<path fill="#c0bfde"  d="M 638 591 C 638 590 638 587 640 587 C 642 586 643 589 644 590 C 644 590 646 591 646 591 C 644 591 641 591 638 591 Z" />
<path fill="#a8a7cf"  d="M 648 591 C 649 589 650 587 651 587 C 653 588 654 589 656 590 C 653 590 651 590 648 591 Z" />
<path fill="#c0bfde"  d="M 486 613 C 486 610 486 608 487 605 C 500 613 514 618 529 622 C 553 628 577 631 602 632 C 627 632 653 631 679 627 C 700 623 721 618 740 607 C 741 611 740 614 740 618 L 740 618 C 740 618 739 618 739 618 C 726 625 713 630 699 634 C 677 640 653 643 630 644 C 604 644 577 643 551 638 C 528 633 505 627 486 613 Z" />
<path fill="#ffffff"  d="M 486 613 C 505 627 528 633 551 638 C 577 643 604 644 630 644 C 653 643 677 640 699 634 C 713 630 726 625 739 618 C 739 618 740 618 740 618 C 739 628 736 639 728 646 C 727 646 726 647 726 647 C 725 649 725 651 725 652 C 724 662 722 673 719 682 C 718 687 715 691 714 695 C 712 700 712 705 710 710 C 708 718 705 725 700 732 C 698 735 695 737 692 740 C 701 739 710 735 715 728 C 719 723 719 717 722 711 C 723 714 725 716 727 718 C 731 726 734 735 734 745 C 734 749 733 754 731 758 C 729 761 732 763 733 766 C 742 781 742 799 738 815 C 737 817 738 819 739 821 C 746 832 746 846 744 859 C 744 861 743 864 744 866 C 749 874 751 884 750 894 C 750 903 746 911 742 919 C 733 938 721 956 718 977 C 717 1000 718 1023 720 1046 C 710 1041 699 1039 688 1040 C 688 1023 688 1006 688 989 C 688 980 686 971 688 962 C 689 956 691 950 691 944 C 694 938 698 933 700 927 C 699 926 699 925 698 925 C 700 920 701 916 701 911 C 699 911 698 912 697 913 C 695 917 692 920 689 923 C 684 926 678 926 673 929 C 667 933 663 941 655 943 C 648 946 640 941 632 942 C 626 942 621 945 614 945 C 611 945 607 944 604 944 C 602 944 601 945 599 946 L 599 944 C 600 931 596 918 587 909 C 585 907 583 903 579 903 C 580 908 580 912 580 916 C 580 930 575 943 568 954 C 566 956 563 958 561 961 C 561 964 562 967 563 970 C 566 986 568 1002 567 1017 C 566 1025 564 1033 558 1037 C 552 1043 542 1043 535 1039 C 530 1037 527 1033 523 1029 C 522 1015 514 1003 510 991 C 500 966 495 939 498 912 C 498 912 498 912 497 911 C 494 910 494 915 494 917 C 490 920 486 924 481 923 C 476 921 472 919 468 916 C 465 913 463 909 461 906 C 458 901 458 895 453 892 C 450 888 445 886 442 882 C 436 875 435 865 434 855 C 433 854 432 856 432 858 C 427 878 432 901 446 917 C 450 922 453 927 458 931 C 459 933 460 936 461 939 C 455 940 449 940 445 936 C 443 935 442 933 440 933 C 440 935 442 937 444 938 C 449 943 456 944 462 943 C 464 948 467 952 470 957 C 470 962 471 966 472 971 C 475 994 470 1018 465 1041 C 455 1039 445 1039 435 1043 C 440 1030 443 1016 443 1001 C 442 986 438 971 431 957 C 423 939 413 921 405 902 C 399 889 395 875 395 861 C 395 850 398 840 403 831 C 404 829 404 827 402 826 C 397 820 396 812 396 805 C 397 793 401 782 409 772 C 410 770 409 767 408 764 C 406 753 408 740 416 732 C 419 730 423 729 426 727 C 428 721 431 715 435 711 C 443 704 453 700 463 703 C 465 703 468 704 470 703 C 472 700 475 699 479 698 C 476 704 474 711 475 718 C 475 720 479 720 479 718 C 480 711 482 702 489 698 C 489 703 487 708 489 713 C 492 719 498 723 503 727 C 504 729 506 731 508 729 C 507 724 504 719 504 715 C 502 710 503 705 505 701 C 506 710 504 721 512 728 C 521 736 534 734 544 731 C 528 723 517 705 517 686 C 518 680 512 677 509 673 C 505 668 504 661 501 655 L 501 655 C 502 653 502 649 499 648 C 488 640 485 626 486 613 Z" />
<path fill="#c0bfde"  d="M 725 652 C 725 651 725 649 726 647 C 726 652 730 654 731 658 C 734 668 731 678 728 687 C 725 695 723 703 722 711 C 719 717 719 723 715 728 C 710 735 701 739 692 740 C 695 737 698 735 700 732 C 705 725 708 718 710 710 C 712 705 712 700 714 695 C 715 691 718 687 719 682 C 722 673 724 662 725 652 Z" />
<path fill="#c0bfde"  d="M 504 687 C 498 678 499 666 501 655 C 504 661 505 668 509 673 C 512 677 518 680 517 686 C 517 705 528 723 544 731 C 534 734 521 736 512 728 C 504 721 506 710 505 701 C 506 698 508 696 509 693 C 509 690 506 689 504 687 Z" />
<path fill="#c0bfde"  d="M 669 665 C 670 661 673 658 677 659 C 676 662 676 664 675 666 C 676 668 680 667 680 670 C 681 673 677 675 678 678 C 680 680 683 681 684 684 C 684 687 680 688 677 687 C 671 685 668 677 671 672 C 670 669 668 667 669 665 Z" />
<path fill="#ffffff"  d="M 420 672 C 422 670 427 671 429 674 C 435 680 438 689 439 698 C 433 701 427 706 423 713 C 417 713 411 713 407 708 C 402 703 403 696 403 690 L 403 690 C 407 683 413 677 420 672 Z" />
<path fill="#c0bfde"  d="M 582 677 C 584 676 586 673 588 675 C 590 677 587 680 586 683 C 585 686 591 686 590 689 C 590 692 587 692 585 695 C 585 697 588 699 587 702 C 585 705 581 704 580 701 C 577 697 578 692 581 688 C 579 685 580 680 582 677 Z" />
<path fill="#c0bfde"  d="M 403 690 C 403 696 402 703 407 708 C 411 713 417 713 423 713 C 421 715 420 718 419 720 C 413 723 408 727 405 733 C 398 743 397 757 400 769 C 399 771 398 772 397 774 C 394 771 393 767 392 763 C 387 745 388 726 394 708 C 397 702 399 696 403 690 Z" />
<path fill="#c0bfde"  d="M 489 698 C 492 697 495 696 498 696 C 496 703 496 711 499 717 C 500 721 502 724 503 727 C 498 723 492 719 489 713 C 487 708 489 703 489 698 Z" />
<path fill="#c0bfde"  d="M 454 743 C 457 742 460 743 462 746 C 459 747 457 746 455 747 C 453 750 457 751 457 753 C 456 756 454 755 452 755 C 449 757 448 760 449 762 C 451 764 453 765 455 767 C 455 768 454 770 453 770 C 447 771 443 765 443 760 C 443 755 447 752 450 751 C 450 748 451 745 454 743 Z" />
<path fill="#c0bfde"  d="M 676 791 C 679 790 683 791 683 794 C 682 796 678 797 678 800 C 679 802 682 804 680 807 C 677 810 673 806 671 809 C 668 811 670 816 667 818 C 665 817 662 816 662 814 C 660 808 665 802 670 800 C 671 797 672 792 676 791 Z" />
<path fill="#c0bfde"  d="M 547 794 C 549 793 553 792 554 796 C 553 798 551 798 550 800 C 547 803 553 805 551 809 C 550 812 544 809 542 813 C 541 815 544 817 544 820 C 542 822 539 821 537 820 C 534 817 534 812 536 808 C 537 806 540 805 542 804 C 542 800 543 796 547 794 Z" />
<path fill="#c0bfde"  d="M 482 835 C 484 834 487 832 488 834 C 490 836 486 838 486 840 C 486 844 492 844 491 847 C 491 851 486 851 486 854 C 487 858 491 858 492 862 C 491 864 489 865 487 864 C 483 864 479 859 479 855 C 479 852 480 850 481 847 C 479 844 479 838 482 835 Z" />
<path fill="#c0bfde"  d="M 617 853 C 617 849 620 843 624 845 C 625 848 622 852 624 856 C 627 859 631 858 634 858 C 636 859 636 862 639 863 C 642 864 643 860 646 861 C 647 865 643 869 638 869 C 636 868 633 866 632 864 C 624 866 616 860 617 853 Z" />
<path fill="#c0bfde"  d="M 432 858 C 432 856 433 854 434 855 C 435 865 436 875 442 882 C 445 886 450 888 453 892 C 458 895 458 901 461 906 C 463 909 465 913 468 916 C 472 919 476 921 481 923 C 486 924 490 920 494 917 C 491 936 493 954 497 972 C 476 962 462 939 460 916 C 460 914 457 913 457 915 C 456 918 457 922 457 925 C 453 922 450 918 447 915 L 446 914 C 446 915 446 916 446 917 C 432 901 427 878 432 858 Z" />
<path fill="#c0bfde"  d="M 579 903 C 583 903 585 907 587 909 C 596 918 600 931 599 944 C 599 944 597 945 597 945 C 596 953 594 961 590 968 C 586 974 583 981 582 988 C 578 978 572 969 564 963 C 563 961 561 964 562 965 C 572 976 577 991 578 1006 C 577 1015 577 1024 577 1033 C 576 1041 576 1048 575 1056 C 560 1046 540 1041 523 1047 C 524 1041 523 1035 523 1029 C 527 1033 530 1037 535 1039 C 542 1043 552 1043 558 1037 C 564 1033 566 1025 567 1017 C 568 1002 566 986 563 970 C 562 967 561 964 561 961 C 563 958 566 956 568 954 C 575 943 580 930 580 916 C 580 912 580 908 579 903 Z" />
<path fill="#c0bfde"  d="M 697 913 C 698 912 699 911 701 911 C 701 916 700 920 698 925 C 697 925 696 925 695 926 C 685 950 663 968 637 973 C 623 975 608 976 593 977 C 598 967 601 957 599 946 C 601 945 602 944 604 944 C 607 944 611 945 614 945 C 621 945 626 942 632 942 C 640 941 648 946 655 943 C 663 941 667 933 673 929 C 678 926 684 926 689 923 C 692 920 695 917 697 913 Z" />
<path fill="#c0bfde"  d="M 652 977 C 668 970 682 958 691 944 C 691 950 689 956 688 962 C 686 971 688 980 688 989 C 688 1006 688 1023 688 1040 C 678 1041 669 1045 661 1051 C 661 1040 662 1030 662 1019 C 662 1011 662 1002 659 994 C 657 988 655 982 652 977 Z" />
<path fill="#c0bfde"  d="M 470 957 C 477 968 488 977 500 982 C 500 985 502 987 502 990 C 501 1011 497 1032 494 1054 C 486 1047 476 1043 465 1041 C 470 1018 475 994 472 971 C 471 966 470 962 470 957 Z" />
<path fill="#ffffff"  d="M 648 979 C 649 978 651 977 652 977 C 655 982 657 988 659 994 C 662 1002 662 1011 662 1019 C 662 1030 661 1040 661 1051 C 660 1052 658 1053 657 1054 C 657 1041 657 1027 657 1014 C 657 1001 654 989 648 979 Z" />
<path fill="#ffffff"  d="M 629 983 C 631 983 633 983 635 982 C 633 992 626 1000 626 1010 C 625 1020 625 1029 626 1038 C 624 1037 622 1037 620 1036 C 620 1025 619 1015 621 1004 C 624 997 627 990 629 983 Z" />
<path fill="#c0bfde"  d="M 590 986 C 603 985 616 984 629 983 C 627 990 624 997 621 1004 C 619 1015 620 1025 620 1036 C 610 1033 599 1033 589 1036 C 589 1024 586 1012 588 1000 C 589 996 590 991 590 986 Z" />
<path fill="#ffffff"  d="M 494 1054 C 497 1032 501 1011 502 990 C 503 992 504 995 504 997 C 502 1017 503 1038 497 1057 C 496 1056 495 1055 494 1054 Z" />
<path fill="#ffffff"  d="M 577 1033 C 577 1024 577 1015 578 1006 C 579 1024 581 1042 579 1060 C 578 1059 577 1058 575 1056 C 576 1048 576 1041 577 1033 Z" />
<path fill="#464777"  d="M 589 1043 C 600 1040 612 1041 623 1045 L 623 1045 C 622 1049 625 1053 625 1057 C 625 1061 625 1066 623 1070 C 624 1071 625 1071 626 1071 C 613 1072 600 1073 587 1070 C 589 1061 590 1052 589 1043 Z" />
<path fill="#5e5e78"  d="M 625 1057 C 625 1053 622 1049 623 1045 C 625 1046 628 1048 629 1051 C 631 1056 632 1061 630 1067 C 629 1069 627 1070 626 1071 C 625 1071 624 1071 623 1070 C 625 1066 625 1061 625 1057 Z" />
<path fill="#5e5e78"  d="M 443 1048 C 450 1046 457 1047 465 1048 L 464 1048 C 463 1055 463 1064 456 1067 C 448 1070 437 1072 429 1066 C 429 1062 430 1058 431 1054 C 434 1051 438 1049 443 1048 Z" />
<path fill="#5e5e78"  d="M 687 1047 C 700 1045 714 1049 723 1058 C 725 1061 726 1065 727 1068 C 727 1070 727 1071 726 1072 C 719 1077 710 1076 702 1076 C 696 1075 690 1072 689 1066 C 688 1060 688 1054 687 1047 Z" />
<path fill="#464777"  d="M 663 1059 C 669 1052 678 1048 687 1047 C 688 1054 688 1060 689 1066 C 690 1072 696 1075 702 1076 C 710 1076 719 1077 726 1072 C 727 1071 727 1070 727 1068 C 727 1071 728 1074 725 1075 C 718 1079 710 1080 702 1081 C 689 1082 676 1081 664 1075 L 664 1075 C 664 1070 663 1064 663 1059 L 663 1059 Z" />
<path fill="#464777"  d="M 464 1048 C 474 1050 483 1054 490 1061 L 490 1061 C 489 1065 487 1070 486 1074 L 486 1074 C 481 1076 476 1076 470 1076 C 459 1077 448 1078 438 1076 C 433 1075 429 1071 429 1066 C 437 1072 448 1070 456 1067 C 463 1064 463 1055 464 1048 Z" />
<path fill="#464777"  d="M 524 1054 C 531 1051 539 1051 547 1052 C 557 1054 566 1058 574 1065 L 574 1065 C 572 1070 570 1075 567 1079 C 550 1079 533 1080 516 1077 C 514 1077 514 1075 514 1074 C 522 1076 530 1075 538 1076 C 543 1076 549 1075 553 1071 C 556 1069 558 1064 557 1061 C 555 1056 551 1055 547 1054 C 539 1053 532 1053 524 1054 Z" />
<path fill="#5e5e78"  d="M 524 1054 C 532 1053 539 1053 547 1054 C 551 1055 555 1056 557 1061 C 558 1064 556 1069 553 1071 C 549 1075 543 1076 538 1076 C 530 1075 522 1076 514 1074 C 514 1069 515 1065 517 1061 C 519 1058 521 1055 524 1054 Z" />
<path fill="#5e5e78"  d="M 658 1070 C 658 1066 660 1062 663 1059 C 663 1064 664 1070 664 1075 C 662 1074 659 1072 658 1070 Z" />
<path fill="#5e5e78"  d="M 486 1074 C 487 1070 489 1065 490 1061 C 492 1062 493 1063 495 1065 C 493 1069 490 1072 486 1074 Z" />
<path fill="#5e5e78"  d="M 567 1079 C 570 1075 572 1070 574 1065 C 575 1066 577 1067 578 1069 C 576 1073 574 1080 567 1079 Z" />
</svg>
