<?xml version="1.0" encoding="UTF-8" ?>
<!DOCTYPE svg PUBLIC "-//W3C//DTD SVG 1.1//EN" "http://www.w3.org/Graphics/SVG/1.1/DTD/svg11.dtd">
<svg width="889pt" height="889pt" viewBox="0 0 889 889" version="1.1" xmlns="http://www.w3.org/2000/svg">
<path fill="#a1ccf7" d="M 0 0 L 889 0 L 889 889 L 0 889 L 0 0 " />
<path fill="#000000" d="M 237 134 C 267 122 298 112 330 109 C 350 108 370 109 387 118 C 394 121 400 125 403 131 C 405 134 405 137 406 140 C 407 146 409 151 412 156 C 413 159 416 160 417 163 C 423 172 427 181 432 190 C 444 193 456 199 465 209 C 469 214 472 221 471 227 C 471 237 466 245 461 252 C 474 265 486 279 497 294 C 503 303 509 312 512 322 C 513 325 514 329 513 333 C 511 336 506 335 503 334 C 506 339 509 343 509 348 C 510 351 508 353 506 353 C 504 355 501 354 498 354 C 497 387 484 420 461 444 C 466 447 470 451 473 456 C 475 455 477 454 479 452 C 481 447 483 442 488 439 C 491 437 494 436 498 435 C 500 431 504 428 508 426 C 513 424 518 425 523 426 C 572 385 627 352 685 326 C 686 325 687 324 687 323 C 688 324 689 324 689 324 C 691 323 694 322 696 321 C 699 320 702 318 705 318 C 710 318 714 323 712 327 C 711 330 707 331 704 333 C 705 338 708 344 709 349 C 723 400 725 455 707 505 C 717 506 728 510 735 517 C 747 526 752 542 753 556 C 754 566 753 576 752 585 C 756 594 761 603 762 614 C 762 619 761 625 757 629 C 754 631 750 631 748 629 C 744 627 743 623 741 620 C 735 636 727 650 717 664 C 709 672 701 680 690 684 C 698 692 701 703 702 714 C 702 722 702 730 699 738 C 698 741 695 745 692 745 C 687 745 683 742 681 738 C 675 732 672 724 669 716 C 662 721 655 727 646 730 C 643 731 639 732 637 729 C 635 724 636 718 637 713 C 639 703 644 692 653 684 C 656 681 661 679 666 678 C 652 664 646 644 641 625 C 635 629 628 632 620 631 C 616 631 612 627 611 622 C 609 615 610 607 612 599 C 616 584 626 570 640 563 C 643 546 649 528 663 516 C 675 506 691 503 706 505 C 720 465 721 422 714 381 C 712 365 708 348 702 333 C 701 334 700 335 699 336 C 698 336 698 336 697 336 C 668 349 639 365 612 382 C 586 399 561 417 538 437 C 547 453 548 472 549 489 C 549 510 547 533 536 551 C 530 561 519 567 507 568 C 499 569 491 566 483 562 C 491 581 496 602 497 623 C 510 634 519 649 526 665 C 527 667 527 671 530 673 C 551 689 567 711 576 735 C 579 742 579 750 584 756 C 587 749 592 742 600 740 C 599 747 598 755 598 762 C 601 759 604 757 608 756 C 611 755 614 756 617 756 C 611 762 605 769 604 777 C 661 777 719 777 776 777 C 780 777 784 777 787 779 C 783 779 779 779 775 779 C 552 779 329 779 106 779 C 104 779 102 779 101 778 C 103 778 104 777 106 777 C 115 777 123 777 132 777 C 129 767 126 756 119 747 C 126 747 132 750 137 753 C 136 746 135 738 132 732 C 131 728 129 725 128 722 C 139 725 149 734 153 745 C 155 740 158 735 160 730 C 166 710 176 692 189 677 C 186 673 184 668 182 662 C 179 663 174 664 172 661 C 170 657 172 652 173 647 C 171 648 168 649 166 647 C 163 645 163 641 164 638 C 166 627 171 616 181 609 C 191 602 204 600 216 601 C 217 593 219 585 222 577 C 213 563 209 547 210 532 C 211 510 221 489 234 471 C 226 467 218 461 211 454 C 211 458 210 462 207 465 C 205 466 202 466 201 464 C 198 459 198 454 197 449 C 194 452 191 457 186 457 C 183 457 181 453 179 451 C 174 440 171 428 169 416 C 165 396 164 376 165 355 C 157 356 149 354 143 348 C 136 341 134 331 136 321 C 139 306 149 292 159 281 C 156 271 152 261 150 252 C 149 249 150 247 151 245 C 149 236 146 227 141 220 C 138 215 138 209 139 204 C 141 195 147 189 153 183 C 161 174 171 167 182 161 C 199 150 218 142 237 134 " />
<path fill="#fdb48d" d="M 249 131 C 278 120 308 111 339 110 C 358 110 377 113 393 123 C 397 126 403 130 403 136 C 404 144 408 151 410 158 C 398 156 385 156 372 157 C 334 158 295 164 259 179 C 220 196 185 218 152 243 C 150 234 148 226 143 218 C 139 213 140 207 142 202 C 144 194 150 187 156 181 C 166 172 178 165 190 158 C 209 147 229 139 249 131 " />
<path fill="#fd6883" d="M 276 175 C 310 163 346 158 381 158 C 391 158 401 159 410 160 C 413 160 415 162 416 164 C 421 172 425 181 429 190 C 412 186 395 186 378 187 C 357 189 337 193 317 199 C 283 208 250 219 219 236 C 198 248 177 262 161 279 C 157 270 154 261 152 252 C 151 249 152 245 155 244 C 175 229 195 215 217 202 C 236 191 255 182 276 175 " />
<path fill="#e48670" d="M 151 193 C 156 186 163 180 169 175 C 173 179 177 183 181 187 C 190 193 200 195 210 194 C 213 194 216 194 218 195 C 217 197 215 198 214 199 C 194 210 174 223 156 237 C 154 231 153 225 149 220 C 147 216 145 213 145 209 C 144 203 147 198 151 193 Z" />
<path fill="#fdb48d" d="M 320 200 C 345 194 370 189 396 188 C 413 188 430 189 446 197 C 456 202 465 210 469 220 C 472 231 466 242 460 250 C 458 248 456 246 454 244 C 457 240 460 235 459 229 C 458 224 454 222 450 221 C 442 219 434 219 426 219 C 353 222 281 243 219 280 C 205 288 192 296 179 306 C 169 314 159 323 152 334 C 150 337 149 341 151 344 C 155 348 161 348 166 348 C 166 350 166 352 165 354 C 158 354 150 353 145 347 C 138 341 136 331 138 323 C 140 309 148 297 157 286 C 174 266 197 250 220 237 C 252 220 286 208 320 200 " />
<path fill="#b76952" d="M 203 214 C 208 211 212 208 217 206 C 214 215 208 223 206 232 C 205 236 206 241 202 243 C 188 252 174 262 162 274 C 159 267 155 260 155 251 C 154 248 157 246 160 244 C 173 233 188 223 203 214 Z" />
<path fill="#b76952" d="M 331 237 C 359 229 389 224 419 221 C 422 221 425 220 427 223 C 451 243 473 265 491 290 C 498 299 505 309 510 320 C 511 324 513 328 511 332 C 508 334 504 332 500 331 C 503 337 507 343 508 349 C 506 354 500 352 496 352 C 496 384 484 417 461 441 C 448 455 431 466 413 473 C 394 480 375 485 356 487 C 321 492 285 490 253 478 C 237 472 221 463 210 450 C 209 455 209 462 204 465 C 199 459 199 451 198 444 C 195 448 193 454 187 455 C 184 456 182 452 181 450 C 175 436 172 421 169 407 C 165 379 165 351 172 324 C 173 321 174 318 176 315 C 222 279 275 253 331 237 " />
<path fill="#000000" d="M 352 240 C 354 240 356 240 357 241 C 360 242 361 246 360 249 C 359 251 356 252 354 253 C 355 258 352 265 346 266 C 341 268 336 265 332 261 C 329 263 325 266 321 264 C 317 262 315 256 319 253 C 319 255 319 257 319 259 C 320 262 324 263 326 262 C 329 262 331 259 333 257 C 335 260 336 264 340 265 C 345 266 350 264 351 259 C 353 256 352 253 351 250 C 354 251 358 250 359 247 C 359 243 354 242 352 240 Z" />
<path fill="#000000" d="M 383 240 C 387 240 391 240 394 241 C 396 242 396 246 394 246 C 389 246 385 244 381 246 C 378 248 376 251 373 253 C 371 255 368 252 370 250 C 372 245 377 241 383 240 Z" />
<path fill="#e48670" d="M 269 245 C 276 244 282 242 288 242 C 282 246 276 248 270 251 C 243 262 217 274 194 291 C 182 299 170 308 160 318 C 155 323 150 328 148 335 C 147 339 148 343 148 347 C 146 345 143 343 142 339 C 139 331 141 323 143 316 C 148 305 154 296 161 287 C 171 275 183 265 196 256 C 201 253 207 254 212 253 C 231 251 251 249 269 245 Z" />
<path fill="#000000" d="M 382 260 C 388 255 396 254 403 257 C 412 260 419 268 424 276 C 433 290 436 307 431 323 C 432 324 433 325 433 325 C 428 325 422 325 416 326 C 410 327 404 329 398 333 C 407 334 415 337 422 343 C 435 353 441 369 443 385 C 444 397 440 408 434 417 C 424 432 408 442 391 446 C 377 449 362 448 349 442 C 336 436 326 424 323 410 C 318 391 324 371 336 356 C 323 358 312 363 303 372 C 300 374 298 378 295 380 C 296 377 297 375 299 373 C 285 365 276 351 271 335 C 268 324 267 311 271 300 C 274 293 279 286 286 283 C 293 279 301 279 309 282 C 319 287 327 294 333 303 C 341 317 346 333 344 348 C 348 345 352 343 357 340 C 358 338 360 335 363 334 C 369 331 375 329 382 328 C 372 315 367 298 370 282 C 371 274 375 265 382 260 " />
<path fill="#ffffff" d="M 386 259 C 392 257 399 257 404 259 C 416 264 423 275 427 286 C 432 298 433 311 429 323 C 427 323 425 323 424 323 C 427 309 425 293 417 280 C 411 281 405 283 398 284 C 402 279 406 274 409 270 C 403 263 395 259 386 259 Z" />
<path fill="#000000" d="M 279 264 C 283 263 287 263 291 264 C 294 264 294 267 292 268 C 290 269 287 268 284 269 C 280 269 275 271 272 275 C 271 277 270 279 269 280 C 267 281 264 279 265 277 C 268 271 273 266 279 264 Z" />
<path fill="#ffffff" d="M 284 285 C 290 282 296 281 303 282 C 316 285 327 296 333 308 C 340 320 344 335 342 349 C 341 352 338 354 335 355 C 338 338 333 320 323 306 C 316 308 309 310 302 312 C 305 306 309 300 312 295 C 305 288 294 284 284 285 Z" />
<path fill="#fdb48d" d="M 698 322 C 700 321 703 320 706 320 C 709 319 712 323 710 326 C 709 329 706 330 703 331 C 702 328 700 325 698 322 Z" />
<path fill="#fdb48d" d="M 694 323 C 699 324 699 329 702 332 C 701 332 700 333 699 333 C 697 330 696 326 694 323 Z" />
<path fill="#fdb48d" d="M 690 326 C 691 325 692 325 693 324 C 694 328 696 331 697 335 C 693 334 692 329 690 326 Z" />
<path fill="#fdb48d" d="M 525 427 C 574 386 629 352 688 327 C 690 329 692 332 694 335 C 637 361 585 396 537 435 C 534 431 530 428 525 427 " />
<path fill="#89453e" d="M 379 330 C 382 330 387 329 389 332 C 391 334 391 338 391 340 C 391 349 385 357 376 357 C 369 357 361 351 359 343 C 358 341 360 338 362 336 C 367 333 373 332 379 330 Z" />
<path fill="#e48670" d="M 675 342 C 678 337 682 333 686 330 C 684 335 680 339 675 342 Z" />
<path fill="#e48670" d="M 685 335 C 686 334 687 333 689 332 C 688 334 687 336 686 338 C 686 337 685 336 685 335 Z" />
<path fill="#fdb48d" d="M 393 334 C 403 335 413 337 420 344 C 433 354 439 369 441 384 C 443 395 439 406 434 415 C 426 427 414 436 401 441 C 385 447 366 447 351 441 C 339 436 330 425 326 413 C 320 398 323 380 332 366 C 337 356 346 348 357 342 C 358 353 370 362 381 358 C 391 355 395 343 393 334 " />
<path fill="#e48670" d="M 665 346 C 668 341 672 337 676 334 C 674 339 671 344 665 346 Z" />
<path fill="#e48670" d="M 654 348 C 658 346 662 342 666 339 C 665 341 664 344 662 346 C 654 351 644 352 636 357 C 632 360 630 365 628 369 C 628 365 629 361 633 358 C 639 352 647 351 654 348 Z" />
<path fill="#000000" d="M 410 350 C 412 350 414 351 417 352 C 419 353 421 352 424 352 C 422 354 420 354 418 355 C 422 367 424 380 420 393 C 418 401 413 408 405 412 C 394 419 380 421 368 416 C 354 410 344 396 338 382 C 336 384 333 385 331 384 C 333 383 335 382 337 381 C 338 379 339 376 340 374 C 340 376 340 378 340 380 C 358 382 377 380 393 372 C 402 368 409 362 415 354 C 413 353 411 351 410 350 " />
<path fill="#ffffff" d="M 391 375 C 401 371 410 364 416 356 C 417 357 417 359 418 360 C 409 373 397 383 382 387 C 369 390 355 389 342 385 C 341 384 340 383 339 382 C 357 383 375 382 391 375 Z" />
<path fill="#e48670" d="M 635 363 C 636 359 639 357 643 356 C 641 359 638 361 635 363 Z" />
<path fill="#e48670" d="M 619 372 C 619 369 620 365 622 362 C 622 366 621 369 621 373 C 620 372 619 372 619 372 Z" />
<path fill="#e48670" d="M 617 365 C 617 371 613 378 607 380 C 611 375 614 370 617 365 Z" />
<path fill="#89453e" d="M 481 383 C 484 379 485 375 488 371 C 489 371 490 371 491 371 C 491 377 489 382 488 388 C 483 405 473 422 460 435 C 441 455 416 468 390 476 C 368 482 345 485 323 485 C 292 486 260 480 234 464 C 229 462 224 459 222 454 C 229 455 237 458 244 459 C 286 468 328 467 369 463 C 390 461 410 455 427 443 C 450 429 468 407 481 383 Z" />
<path fill="#e48670" d="M 577 395 C 582 386 592 380 602 380 C 603 380 604 380 604 380 C 600 382 595 382 591 384 C 585 387 580 392 577 399 C 575 402 572 405 568 406 C 571 402 574 399 577 395 Z" />
<path fill="#e48670" d="M 585 393 C 587 389 592 386 596 385 C 597 385 597 386 597 386 C 593 388 589 391 585 393 Z" />
<path fill="#fd6883" d="M 366 413 C 379 401 398 395 416 398 C 407 416 383 422 366 413 Z" />
<path fill="#e48670" d="M 560 408 C 563 404 565 400 568 396 C 567 404 562 410 557 415 C 549 421 540 426 530 426 C 535 423 541 423 546 420 C 551 417 556 413 560 408 Z" />
<path fill="#e48670" d="M 542 417 C 546 413 550 410 555 407 C 552 412 547 415 542 417 Z" />
<path fill="#b76952" d="M 500 436 C 503 430 509 426 516 427 C 523 427 532 430 536 437 C 540 444 542 452 544 459 C 548 479 548 500 545 520 C 543 531 540 543 533 552 C 526 562 514 567 502 566 C 489 565 478 557 469 548 C 465 544 463 539 459 534 C 460 547 468 557 478 564 C 480 566 484 567 485 571 C 491 588 495 606 495 624 C 509 635 518 651 525 667 C 533 688 535 711 534 733 C 541 737 547 742 551 749 C 554 755 554 762 551 768 C 549 773 545 774 541 776 C 544 772 547 768 547 764 C 548 757 545 750 538 748 C 540 751 544 754 545 758 C 547 764 544 771 539 775 C 535 778 530 777 525 778 C 529 775 533 771 533 766 C 535 757 527 748 518 748 C 522 751 527 752 530 757 C 533 763 532 771 526 774 C 523 777 519 777 514 777 C 495 777 476 777 456 777 C 454 777 451 777 450 775 C 448 771 448 766 448 762 C 448 747 446 732 440 719 C 436 708 429 698 420 692 C 437 686 453 675 464 660 C 467 656 471 653 473 648 C 471 649 469 651 468 653 C 451 672 426 684 401 685 C 395 681 389 675 381 675 C 388 679 397 682 402 689 C 407 695 407 702 406 710 C 406 718 403 725 401 733 C 408 737 414 743 418 750 C 421 756 421 763 418 769 C 416 773 411 775 408 776 C 411 772 414 768 414 763 C 415 756 411 750 405 748 C 407 751 411 754 412 758 C 414 764 411 771 406 775 C 402 778 397 777 392 778 C 396 775 400 770 400 765 C 401 756 393 748 385 748 C 389 751 394 752 397 757 C 400 763 398 771 393 775 C 389 777 384 777 380 777 C 356 777 332 777 308 777 C 306 778 303 775 303 772 C 301 763 302 754 298 745 C 296 742 292 740 288 738 C 274 731 260 724 248 714 C 235 704 224 691 219 675 C 215 664 214 652 214 640 C 214 620 217 599 223 579 C 228 586 234 594 242 600 C 255 612 271 618 288 621 C 312 625 336 623 359 619 C 355 627 350 635 346 643 C 343 650 347 659 355 661 C 361 664 370 660 373 654 C 379 639 387 624 395 610 C 403 607 411 604 419 600 C 424 598 429 594 431 589 C 433 585 433 579 432 575 C 431 571 433 568 433 564 C 433 560 433 555 432 551 C 448 528 465 506 484 486 C 483 497 482 508 479 519 C 479 522 478 525 478 527 C 480 524 481 520 482 516 C 483 510 484 503 485 496 C 486 489 488 483 486 477 C 485 472 482 469 479 467 C 476 469 474 471 471 474 C 470 470 469 465 472 461 C 477 452 491 450 499 457 C 503 461 502 467 502 472 C 506 465 503 457 497 454 C 492 451 486 451 481 451 C 483 447 486 442 490 439 C 495 437 500 437 505 438 C 510 439 515 440 519 443 C 522 445 523 449 526 452 C 526 448 524 444 520 442 C 515 437 507 436 500 436 " />
<path fill="#b76952" d="M 409 478 C 429 471 447 460 462 446 C 466 449 469 453 472 458 C 470 460 469 463 468 466 C 468 469 469 472 470 475 C 454 492 437 510 422 529 C 415 524 407 524 399 525 C 386 527 374 530 362 530 C 349 531 337 529 326 523 C 322 521 319 518 315 517 C 317 521 322 523 327 525 C 341 532 357 533 372 531 C 383 530 394 527 406 526 C 411 526 417 527 421 531 C 425 534 426 539 427 544 C 420 540 409 539 403 546 C 408 545 412 542 417 543 C 422 543 427 546 429 551 C 432 557 431 563 430 569 C 423 564 412 562 405 568 C 410 568 415 565 420 566 C 424 567 429 570 430 575 C 432 579 431 584 428 588 C 423 594 416 596 410 599 C 390 607 369 613 347 616 C 326 620 303 621 282 616 C 266 613 251 606 239 594 C 226 582 216 566 213 548 C 209 523 218 497 232 477 C 267 491 305 496 343 493 C 365 491 388 486 409 478 " />
<path fill="#fdb48d" d="M 423 530 C 441 509 459 489 478 470 C 481 475 483 483 480 489 C 462 508 446 528 431 549 C 427 545 428 540 426 535 C 425 533 424 532 423 530 " />
<path fill="#e48670" d="M 467 486 C 469 482 474 481 479 480 C 475 483 471 485 467 486 Z" />
<path fill="#b4f2fe" d="M 665 517 C 676 508 691 505 705 506 C 703 513 703 521 704 528 L 706 528 C 705 521 705 514 707 507 C 717 508 727 512 735 519 C 744 527 749 539 750 551 C 752 561 752 571 750 582 C 740 575 729 569 717 566 C 713 565 711 562 707 561 C 702 560 697 561 693 561 C 676 560 659 560 642 561 C 645 545 652 528 665 517 " />
<path fill="#e48670" d="M 444 509 C 447 513 446 519 444 524 C 442 531 436 537 429 540 C 433 535 438 532 441 527 C 444 521 444 515 444 509 Z" />
<path fill="#e48670" d="M 439 513 C 441 521 436 529 429 532 C 432 528 435 525 437 521 C 438 518 439 516 439 513 Z" />
<path fill="#89453e" d="M 527 535 C 534 530 538 522 543 515 C 543 529 538 542 530 553 C 523 560 513 565 503 564 C 487 561 473 550 465 537 C 473 541 482 545 491 546 C 504 548 518 544 527 535 Z" />
<path fill="#000000" d="M 672 526 C 675 528 677 531 680 533 C 682 531 685 528 688 526 C 687 530 684 532 681 535 C 684 537 687 539 688 543 C 685 541 683 538 680 536 C 677 538 675 542 672 543 C 673 540 676 537 679 535 C 676 532 672 530 672 526 Z" />
<path fill="#89453e" d="M 218 539 C 220 539 221 541 222 542 C 230 554 242 564 255 571 C 272 580 291 586 310 589 C 338 594 366 594 394 592 C 399 592 404 591 409 591 C 413 592 409 595 407 596 C 389 604 370 609 350 613 C 330 616 310 618 290 614 C 272 611 255 603 241 591 C 228 578 219 561 216 544 C 216 542 215 539 218 539 Z" />
<path fill="#4bcef9" d="M 642 563 C 658 561 674 561 690 563 C 681 568 673 577 671 588 C 671 591 670 595 671 598 C 673 601 677 602 680 602 C 687 601 693 598 699 595 C 701 599 702 604 706 607 C 710 610 717 609 720 605 C 722 600 723 595 723 590 C 723 582 720 575 716 568 C 728 571 740 576 750 584 C 746 603 740 622 730 639 C 723 652 715 664 704 674 C 698 679 690 684 681 684 C 673 683 666 676 661 670 C 652 657 647 641 644 626 C 639 605 638 584 642 563 " />
<path fill="#4d73ca" d="M 676 579 C 680 571 687 565 696 563 C 702 562 708 562 712 566 C 717 571 719 577 720 583 C 721 589 722 596 719 601 C 717 605 711 607 707 604 C 703 601 702 595 700 591 C 694 594 688 598 681 599 C 678 599 673 598 673 594 C 672 589 674 584 676 579 " />
<path fill="#4d73ca" d="M 612 617 C 611 597 621 576 638 566 C 635 586 635 606 638 625 C 632 628 625 631 619 629 C 614 627 612 621 612 617 " />
<path fill="#4bcef9" d="M 688 573 C 691 570 695 568 700 567 C 696 570 691 572 687 576 C 683 579 681 583 678 587 C 679 581 683 576 688 573 Z" />
<path fill="#4bcef9" d="M 686 590 C 689 582 694 575 702 572 C 700 574 698 576 696 579 C 692 582 690 587 686 590 Z" />
<path fill="#b4f2fe" d="M 649 573 C 652 574 655 576 658 577 C 661 578 664 577 668 576 C 668 576 668 577 668 577 C 665 579 660 580 656 579 C 653 578 651 576 649 573 Z" />
<path fill="#4bcef9" d="M 712 573 C 715 577 717 583 716 588 C 714 583 712 578 712 573 Z" />
<path fill="#4bcef9" d="M 706 574 C 710 579 710 586 709 592 C 709 594 708 596 707 598 C 707 595 707 592 708 588 C 708 583 706 579 706 574 Z" />
<path fill="#4bcef9" d="M 622 593 C 624 586 628 579 635 576 C 630 581 626 587 622 593 Z" />
<path fill="#4bcef9" d="M 699 587 C 699 583 700 579 703 577 C 703 581 701 584 699 587 Z" />
<path fill="#b4f2fe" d="M 728 586 C 731 587 733 589 736 590 C 739 590 742 588 745 588 C 742 590 740 592 736 591 C 733 592 730 589 728 586 Z" />
<path fill="#4bcef9" d="M 633 590 C 633 590 634 590 634 591 C 632 593 629 595 627 598 C 624 602 622 607 618 611 C 620 602 626 595 633 590 Z" />
<path fill="#4d73ca" d="M 752 589 C 756 598 761 608 760 618 C 759 623 757 628 752 629 C 747 629 745 624 743 621 C 748 611 750 600 752 589 " />
<path fill="#b4f2fe" d="M 649 594 C 652 596 654 598 657 600 C 660 601 664 600 667 600 C 669 603 672 607 676 608 C 680 609 684 607 688 606 C 691 609 693 612 698 613 C 701 615 704 613 708 613 C 711 615 714 618 719 619 C 723 619 727 617 731 615 C 729 618 726 620 723 620 C 717 621 712 618 707 615 C 704 615 700 616 697 615 C 693 614 690 611 688 608 C 684 609 680 611 676 609 C 671 608 669 605 666 602 C 662 602 658 602 655 600 C 652 599 650 597 649 594 Z" />
<path fill="#4bcef9" d="M 751 597 C 756 603 758 612 755 620 C 754 616 754 613 754 609 C 753 605 752 601 751 597 Z" />
<path fill="#4bcef9" d="M 622 620 C 624 612 628 605 635 600 C 634 603 632 605 630 608 C 627 612 625 617 622 620 Z" />
<path fill="#b76952" d="M 183 610 C 192 604 203 602 214 603 C 206 629 208 657 213 684 C 207 685 201 684 195 680 C 189 675 185 667 183 659 C 181 661 178 662 175 661 C 173 661 173 658 173 657 C 173 652 175 648 176 644 C 173 645 169 648 166 645 C 164 642 166 638 166 634 C 169 625 174 615 183 610 Z" />
<path fill="#fdb48d" d="M 358 627 C 369 622 381 617 392 611 C 384 625 377 639 371 653 C 369 659 361 662 355 660 C 349 658 345 650 348 644 C 350 640 352 636 354 632 C 355 630 356 628 358 627 " />
<path fill="#4bcef9" d="M 629 621 C 630 618 632 614 635 613 C 634 616 632 619 629 621 Z" />
<path fill="#b4f2fe" d="M 658 623 C 655 622 654 620 653 617 C 656 619 658 622 661 624 C 664 624 667 624 670 624 C 673 627 676 631 680 632 C 684 633 689 631 693 629 C 695 632 697 637 702 637 C 706 638 709 636 712 634 C 714 635 716 636 718 637 C 721 638 724 637 727 637 C 725 638 723 639 721 639 C 717 639 715 638 712 636 C 709 638 705 640 701 639 C 697 638 694 635 692 632 C 688 633 684 635 680 633 C 675 632 673 629 670 626 C 666 626 661 626 658 623 Z" />
<path fill="#e48670" d="M 372 624 C 374 622 376 621 378 620 C 376 623 374 626 372 629 C 371 634 370 638 366 641 C 362 646 356 649 349 647 C 355 646 361 645 365 641 C 369 636 369 630 372 624 Z" />
<path fill="#e48670" d="M 356 640 C 360 637 363 632 366 628 C 366 634 362 639 356 640 Z" />
<path fill="#b4f2fe" d="M 657 638 C 660 641 663 644 667 646 C 670 648 674 647 678 647 C 680 649 682 652 685 653 C 689 654 692 652 695 651 C 697 652 700 654 702 654 C 705 653 708 652 711 651 C 709 653 707 655 704 655 C 701 656 698 654 695 653 C 692 654 689 655 685 654 C 682 654 680 651 677 649 C 669 650 660 646 657 638 Z" />
<path fill="#e48670" d="M 357 655 C 359 651 363 649 367 649 C 364 652 361 654 357 655 Z" />
<path fill="#b4f2fe" d="M 665 659 C 667 661 670 664 673 665 C 676 667 679 666 682 666 C 685 667 688 669 691 669 C 694 669 697 668 700 668 C 695 673 687 671 682 668 C 678 668 673 668 670 666 C 667 665 666 662 665 659 Z" />
<path fill="#89453e" d="M 222 668 C 228 670 230 676 234 680 C 251 697 273 710 296 718 C 304 720 310 724 314 731 C 318 737 320 745 322 752 C 323 756 327 758 331 760 C 339 764 348 767 356 770 C 359 770 361 772 363 773 C 359 774 355 774 351 774 C 339 773 327 773 315 772 C 313 772 311 771 308 771 C 305 762 306 752 303 743 C 302 740 299 738 296 737 C 282 730 267 724 255 715 C 242 705 232 691 225 676 C 224 673 223 671 222 668 Z" />
<path fill="#9cb795" d="M 529 674 C 552 693 570 719 578 748 C 576 746 574 745 572 743 C 568 730 562 718 554 707 C 548 712 542 718 536 723 C 536 706 534 690 529 674 Z" />
<path fill="#9cb795" d="M 162 729 C 168 710 178 693 190 678 C 192 684 196 690 202 693 C 206 695 210 696 214 696 C 220 709 232 717 244 724 C 257 731 272 736 284 745 C 287 746 289 749 290 751 C 282 750 274 747 266 744 C 235 734 207 718 184 696 C 178 704 174 713 170 722 C 167 724 164 726 162 729 Z" />
<path fill="#4d73ca" d="M 651 689 C 655 684 660 681 666 680 C 669 684 674 687 678 689 C 683 690 688 690 692 689 C 699 700 701 713 700 725 C 699 730 698 735 696 740 C 695 742 693 743 690 743 C 687 742 684 739 681 737 C 676 729 673 721 669 713 C 662 719 655 725 646 728 C 644 729 641 730 639 729 C 638 726 638 722 638 719 C 639 708 643 697 651 689 " />
<path fill="#89453e" d="M 427 694 C 431 691 435 688 440 687 C 443 690 445 693 447 697 C 456 712 461 730 466 747 C 468 751 470 756 473 759 C 479 764 486 767 494 769 C 496 770 499 772 501 773 C 493 774 484 774 475 774 C 468 774 462 774 456 774 C 453 773 452 772 452 769 C 451 763 452 757 451 751 C 450 742 449 732 447 722 C 443 711 436 701 427 694 Z" />
<path fill="#4bcef9" d="M 647 712 C 648 701 656 691 665 686 C 662 691 657 694 654 698 C 651 703 650 708 647 712 Z" />
<path fill="#4bcef9" d="M 669 707 C 669 701 670 695 673 690 C 673 696 672 702 669 707 Z" />
<path fill="#4bcef9" d="M 658 709 C 658 702 662 695 667 691 C 664 697 661 703 658 709 Z" />
<path fill="#9cb795" d="M 407 693 C 416 696 424 703 430 711 C 439 726 441 743 441 759 C 435 760 429 761 423 761 C 422 762 422 763 422 764 C 423 757 421 750 417 744 C 413 739 408 735 403 732 C 406 719 411 706 407 693 Z" />
<path fill="#4bcef9" d="M 683 693 C 687 697 688 703 689 708 C 690 715 691 723 687 729 C 687 722 689 716 688 710 C 687 704 684 698 683 693 Z" />
<path fill="#4bcef9" d="M 677 694 C 680 698 681 705 678 710 C 678 704 677 699 677 694 Z" />
<path fill="#837b92" d="M 170 722 C 174 713 178 704 184 696 C 207 718 235 734 266 744 C 274 747 282 750 290 751 C 294 758 293 766 295 774 C 258 774 221 774 184 774 C 186 762 195 752 204 744 C 199 743 194 742 189 744 C 183 745 179 750 175 755 C 174 743 176 731 178 719 C 175 720 172 721 170 722 Z" />
<path fill="#837b92" d="M 536 723 C 542 718 548 712 554 707 C 562 718 568 730 572 743 C 571 743 569 743 568 742 C 571 748 573 755 574 761 C 570 760 567 758 563 758 C 566 763 568 768 570 773 C 563 774 556 774 550 774 C 556 768 557 758 553 750 C 550 742 543 737 536 732 C 536 729 536 726 536 723 Z" />
<path fill="#9cb795" d="M 164 730 C 167 726 171 723 175 721 C 174 734 172 746 173 759 C 177 754 181 749 187 747 C 191 744 196 745 201 745 C 191 753 183 764 182 777 C 166 777 150 777 134 777 C 131 767 129 758 123 749 C 126 750 129 751 132 752 C 135 754 137 756 139 758 C 139 747 137 735 131 725 C 137 728 143 732 147 737 C 150 741 151 746 154 750 C 156 743 159 736 164 730 Z" />
<path fill="#9cb795" d="M 585 761 C 587 754 591 746 598 742 C 597 750 596 758 597 766 C 600 764 602 760 606 759 C 608 757 611 757 614 757 C 608 762 603 769 602 777 C 592 777 582 777 572 777 C 571 771 569 765 566 760 C 570 761 573 763 576 766 C 576 759 574 752 572 745 C 578 749 582 754 585 761 Z" />
<path fill="#837b92" d="M 423 761 C 429 761 435 760 441 759 C 441 764 441 769 442 774 C 433 774 425 774 417 774 C 419 771 421 768 422 764 C 422 763 422 762 423 761 Z" />
<path fill="#9cb795" d="M 550 774 C 556 774 563 774 570 773 C 570 774 570 776 570 777 C 561 778 552 777 542 777 C 545 776 547 775 550 774 Z" />
<path fill="#9cb795" d="M 184 774 C 221 774 258 774 295 774 C 296 775 296 776 297 777 C 259 777 221 777 184 777 C 184 776 184 775 184 774 Z" />
<path fill="#9cb795" d="M 409 777 C 412 776 414 775 417 774 C 425 774 433 774 442 774 L 442 774 C 443 775 444 776 444 777 C 433 777 421 777 409 777 Z" />
</svg>
