<svg width="1000" height="1000" viewBox="0 0 1001 1000" version="1.1" xmlns="http://www.w3.org/2000/svg">
<path fill="#3291b0" d="M 0 0 L 1 0 C 0 333 1 666 1 1000 L 0 1000 L 0 0 Z" />
<path fill="#49d2ff"  d="M 1 0 L 1000 0 C 999 333 1000 666 999 1000 L 1 1000 C 1 666 0 333 1 0 " />
<path fill="#2e829f"  d="M 1000 0 L 1001 0 L 1001 1000 L 999 1000 C 1000 666 999 333 1000 0 Z" />
<path fill="#000072"  d="M 523 146 C 530 139 537 131 548 129 C 556 128 564 132 570 138 C 579 147 584 159 588 171 C 596 196 599 222 598 248 C 615 273 626 301 636 330 C 636 331 637 332 638 333 C 637 334 636 335 634 337 C 629 333 623 330 617 329 C 608 328 600 331 594 337 C 589 341 586 348 584 354 C 580 367 581 380 585 393 C 589 407 597 420 609 428 C 615 431 622 433 629 433 C 631 441 633 448 634 456 C 636 456 638 455 640 455 C 641 454 643 455 645 454 C 643 446 641 438 639 429 C 648 424 653 416 655 406 C 656 405 656 404 657 403 C 659 403 660 404 662 404 L 662 405 C 660 414 656 422 650 428 C 649 430 648 432 647 434 C 648 441 650 448 652 454 C 665 456 676 464 685 473 C 694 484 700 498 701 513 C 705 529 705 546 698 562 C 691 575 679 585 665 588 C 646 592 626 591 609 583 C 615 599 620 616 621 633 C 622 650 621 668 615 684 C 615 705 612 727 607 748 C 603 767 598 787 592 807 C 591 811 589 816 589 820 C 595 824 601 830 603 837 C 605 845 603 855 596 860 C 588 866 579 867 570 868 C 557 869 545 868 533 867 C 523 866 512 864 504 859 C 499 856 496 852 495 847 C 494 837 494 828 494 819 C 494 796 496 772 496 749 C 494 760 493 772 492 783 C 490 796 488 810 487 823 C 488 828 490 832 491 837 C 492 846 490 857 482 863 C 472 869 460 870 449 870 C 436 870 423 871 411 867 C 404 865 397 861 394 855 C 390 847 390 837 390 829 C 389 792 389 755 389 719 C 378 724 364 725 353 720 C 341 715 334 702 330 690 C 326 673 326 655 328 638 C 328 638 329 638 329 638 L 328 638 C 330 618 335 598 343 580 C 352 556 366 534 384 516 C 363 512 343 504 326 489 C 313 478 305 462 300 445 C 293 421 290 396 291 370 C 292 345 297 319 309 296 C 305 277 302 258 300 240 C 298 221 297 201 300 183 C 302 175 304 165 312 161 C 321 156 332 158 342 160 C 370 167 395 183 416 202 C 439 194 463 190 487 189 C 499 175 510 160 523 146 " />
<path fill="#ffffff"  d="M 548 137 C 552 136 556 137 559 139 C 559 139 557 139 557 140 C 547 138 539 145 533 151 C 521 163 511 177 501 189 C 499 189 498 189 497 189 C 509 175 520 159 533 146 C 537 142 542 138 548 137 Z" />
<path fill="#ff9343"  d="M 559 139 C 569 144 574 155 578 165 C 587 188 591 213 591 238 C 590 238 589 237 589 236 C 588 217 585 197 578 180 C 575 171 571 163 566 155 C 563 152 560 148 555 148 C 553 148 551 150 548 151 C 550 147 553 143 557 140 C 557 139 559 139 559 139 Z" />
<path fill="#ffad40"  d="M 533 151 C 539 145 547 138 557 140 C 553 143 550 147 548 151 C 537 164 529 179 519 192 C 513 191 507 190 501 189 C 511 177 521 163 533 151 Z" />
<path fill="#d9d9eb"  d="M 554 157 C 555 155 557 156 558 158 C 555 164 552 172 551 179 C 551 185 554 189 556 194 C 553 192 550 192 548 191 C 550 187 549 180 544 178 C 543 176 541 177 539 176 C 544 169 548 162 554 157 Z" />
<path fill="#ffffff"  d="M 551 179 C 552 172 555 164 558 158 C 562 162 565 167 567 172 C 573 185 577 199 579 213 C 574 212 570 208 566 205 C 563 203 562 200 559 199 C 558 197 557 195 556 194 C 554 189 551 185 551 179 Z" />
<path fill="#ffffff"  d="M 312 171 C 315 166 321 165 326 165 C 336 165 347 168 357 172 C 375 180 393 191 407 205 L 408 205 C 407 205 406 206 406 206 C 392 194 378 185 362 177 C 351 173 339 169 327 168 C 323 168 318 168 313 170 C 313 170 312 170 312 171 Z" />
<path fill="#ffffff"  d="M 812 170 C 819 166 828 164 835 167 C 843 169 848 175 850 182 C 852 190 851 199 848 206 C 848 208 847 209 847 210 C 847 212 849 212 850 213 C 859 218 866 227 867 237 C 869 247 866 257 858 263 C 851 269 841 270 832 267 C 825 264 818 259 809 261 C 792 267 773 273 759 285 C 755 290 752 296 748 301 C 745 307 738 310 731 311 C 722 313 711 310 705 301 C 697 292 696 278 697 266 C 693 264 689 262 686 258 C 679 252 675 243 676 234 C 677 226 682 219 689 215 C 697 211 707 211 715 212 C 722 214 729 217 736 218 C 750 219 763 213 775 207 C 781 204 789 202 792 195 C 796 185 803 176 812 170 " />
<path fill="#ffad40"  d="M 313 170 C 318 168 323 168 327 168 C 339 169 351 173 362 177 C 378 185 392 194 406 206 C 405 207 405 209 407 210 C 418 206 429 203 441 201 C 455 198 470 197 484 197 C 504 196 525 199 543 208 C 562 217 577 232 589 248 C 605 272 617 299 626 325 C 618 322 609 322 600 325 C 594 327 589 332 585 337 C 582 328 575 319 566 314 C 558 311 548 311 541 316 C 532 323 529 336 531 347 C 532 349 533 352 535 354 C 536 355 539 354 540 352 C 541 344 541 336 546 330 C 549 325 555 324 560 326 C 567 328 572 333 576 338 C 577 341 580 343 581 345 C 576 355 575 365 576 376 C 569 380 562 383 555 382 C 549 381 545 377 540 374 C 535 371 529 368 522 366 L 520 367 L 520 366 C 504 364 488 367 475 377 C 465 385 459 398 448 404 C 441 407 433 407 425 405 C 416 402 407 397 397 396 C 377 392 356 396 337 402 C 325 406 313 412 302 420 C 297 391 299 360 305 332 C 309 315 315 299 321 282 C 321 282 321 281 320 281 C 321 278 323 276 325 274 C 326 276 329 276 331 274 C 340 261 352 250 366 242 C 372 237 380 233 381 224 C 382 213 374 203 366 195 C 354 184 340 176 324 174 C 320 173 317 172 313 170 " />
<path fill="#ff9343"  d="M 312 171 C 312 170 313 170 313 170 C 317 172 320 173 324 174 C 320 174 316 174 315 178 C 312 184 312 190 311 196 C 311 214 312 232 316 250 C 318 258 320 266 325 274 C 323 276 321 278 320 281 C 317 280 317 285 314 286 C 310 264 307 243 305 221 C 305 210 305 198 307 186 C 308 181 309 175 312 171 Z" />
<path fill="#8ae2ff"  d="M 823 174 C 827 172 833 173 837 176 C 841 178 843 182 844 187 C 844 193 844 200 841 206 C 839 209 840 214 842 217 C 844 218 846 219 848 220 C 855 225 860 232 860 240 C 861 247 858 255 852 259 C 847 262 841 262 835 261 C 829 258 823 254 816 254 C 809 253 803 256 797 258 C 781 263 766 269 754 280 C 749 286 745 293 740 299 C 732 307 716 306 710 295 C 703 287 704 276 704 266 C 704 262 700 259 697 258 C 691 254 685 248 684 241 C 682 234 685 228 690 224 C 696 218 705 218 713 219 C 723 221 732 227 742 226 C 758 224 773 216 787 209 C 793 207 797 202 799 196 C 804 186 812 177 823 174 " />
<path fill="#000072"  d="M 315 178 C 316 174 320 174 324 174 C 340 176 354 184 366 195 C 374 203 382 213 381 224 C 380 233 372 237 366 242 C 352 250 340 261 331 274 C 329 276 326 276 325 274 C 320 266 318 258 316 250 C 312 232 311 214 311 196 C 312 190 312 184 315 178 " />
<path fill="#d5d5e9"  d="M 321 182 C 328 181 336 184 342 188 C 349 191 356 195 361 200 C 356 201 350 204 349 209 C 347 214 351 219 355 221 C 355 221 355 222 355 222 C 351 224 348 227 348 232 C 347 236 351 239 355 240 L 355 240 C 345 247 336 255 329 264 C 329 264 328 264 328 264 C 327 261 326 258 325 255 C 327 254 328 251 330 249 C 337 240 346 231 347 220 C 348 214 347 209 344 204 C 340 194 331 189 321 186 C 321 186 320 187 319 187 C 320 185 320 184 321 182 Z" />
<path fill="#d9d9eb"  d="M 532 186 C 535 184 538 182 540 184 C 542 185 541 188 540 189 C 539 192 536 194 537 197 C 534 196 530 195 527 194 C 528 191 530 188 532 186 Z" />
<path fill="#ffffff"  d="M 825 184 C 831 182 838 188 835 195 C 834 201 825 203 821 198 C 817 194 819 185 825 184 Z" />
<path fill="#ffffff"  d="M 319 187 C 320 187 321 186 321 186 C 331 189 340 194 344 204 C 347 209 348 214 347 220 C 346 231 337 240 330 249 C 328 251 327 254 325 255 C 319 233 318 210 319 187 Z" />
<path fill="#d9d9eb"  d="M 543 199 C 545 199 549 198 551 200 C 552 201 552 203 552 204 C 549 202 545 201 543 199 Z" />
<path fill="#d9d9eb"  d="M 559 199 C 562 200 563 203 566 205 C 570 208 574 212 579 213 C 580 217 580 222 581 226 C 574 220 567 213 559 208 C 559 205 560 202 559 199 Z" />
<path fill="#d5d5e9"  d="M 356 212 C 359 208 364 208 368 209 C 372 213 374 219 373 225 C 372 230 366 232 362 235 C 360 233 357 233 355 232 C 355 228 359 226 362 224 C 363 223 366 222 365 220 C 362 217 356 216 356 212 Z" />
<path fill="#ffffff"  d="M 797 217 C 800 217 804 216 807 218 C 808 219 806 221 805 223 C 796 229 785 233 775 236 C 771 236 766 238 763 235 C 763 232 766 230 768 229 C 777 223 787 219 797 217 Z" />
<path fill="#ffffff"  d="M 702 230 C 707 229 713 230 715 235 C 717 237 717 241 714 243 C 710 247 704 248 699 246 C 696 244 693 241 693 237 C 694 233 698 231 702 230 Z" />
<path fill="#fff3e9"  d="M 531 274 C 536 272 542 274 547 276 C 553 279 558 283 562 289 C 564 291 562 294 560 296 C 554 300 547 301 540 301 C 534 301 528 300 525 295 C 521 288 523 278 531 274 Z" />
<path fill="#fff3e9"  d="M 424 291 C 431 290 439 295 440 302 C 441 307 439 313 435 316 C 427 321 418 323 408 323 C 406 323 401 323 401 319 C 401 315 404 310 406 306 C 410 300 416 293 424 291 Z" />
<path fill="#ffffff"  d="M 663 316 C 676 313 691 316 700 326 C 717 344 719 375 703 394 C 699 400 692 405 685 406 C 677 407 669 406 662 404 C 660 404 659 403 657 403 C 654 402 650 401 647 401 C 645 404 645 408 642 412 C 639 418 632 424 625 422 C 616 421 608 415 603 408 C 596 400 594 389 592 378 C 591 367 593 356 599 346 C 601 343 604 340 609 339 C 615 339 621 341 627 344 C 630 342 632 339 634 337 C 636 335 637 334 638 333 C 645 325 653 319 663 316 " />
<path fill="#d7f5ff"  d="M 671 320 C 680 319 690 322 696 329 C 710 344 713 368 703 386 C 699 393 692 400 684 401 C 674 403 665 400 656 398 C 652 396 647 395 643 397 C 639 399 640 405 638 408 C 635 412 632 416 627 416 C 621 416 616 412 611 409 C 605 402 602 393 599 384 C 598 376 597 367 599 359 C 600 353 603 348 609 345 C 613 343 618 344 622 347 C 624 349 627 349 629 348 C 634 346 636 341 640 338 C 644 334 648 329 653 326 C 658 322 664 320 671 320 " />
<path fill="#ffb8e7"  d="M 660 328 C 665 325 672 324 678 324 C 684 325 688 328 692 331 C 695 335 699 338 701 343 C 703 349 706 357 704 364 C 703 368 700 372 695 372 C 692 373 689 370 688 367 C 685 363 682 358 677 355 C 670 352 662 353 655 352 C 650 351 648 345 649 340 C 650 335 654 330 660 328 " />
<path fill="#ffffff"  d="M 669 327 C 675 326 681 328 686 331 C 689 334 692 337 691 342 C 691 345 688 347 685 348 C 678 350 671 347 666 341 C 663 339 662 335 663 332 C 664 329 666 327 669 327 Z" />
<path fill="#7ba2ff"  d="M 594 337 C 600 331 608 328 617 329 C 623 330 629 333 634 337 C 632 339 630 342 627 344 C 621 341 615 339 609 339 C 604 340 601 343 599 346 C 593 356 591 367 592 378 C 594 389 596 400 603 408 C 608 415 616 421 625 422 C 632 424 639 418 642 412 C 645 408 645 404 647 401 C 650 401 654 402 657 403 C 656 404 656 405 655 406 C 653 416 648 424 639 429 C 641 438 643 446 645 454 C 643 455 641 454 640 455 C 638 454 638 454 638 452 C 636 445 634 437 632 430 C 622 430 612 424 605 417 C 592 404 585 386 584 367 C 584 363 585 359 584 354 C 586 348 589 341 594 337 Z" />
<path fill="#000072"  d="M 426 335 C 444 331 463 346 462 365 C 463 368 458 370 456 367 C 452 361 447 354 440 351 C 433 348 425 349 420 355 C 413 362 411 372 410 382 C 409 384 404 385 403 382 C 400 371 402 358 407 348 C 412 342 418 337 426 335 Z" />
<path fill="#a2e1ff"  d="M 643 354 C 644 350 645 344 649 340 C 648 345 650 351 655 352 C 662 353 670 352 677 355 C 682 358 685 363 688 367 C 689 370 692 373 695 372 C 700 372 703 368 704 364 L 705 364 C 704 371 699 377 695 383 C 689 388 682 393 674 392 C 661 391 650 382 645 371 C 642 365 643 360 643 354 Z" />
<path fill="#5f85e2"  d="M 585 393 C 581 380 580 367 584 354 C 585 359 584 363 584 367 C 585 386 592 404 605 417 C 612 424 622 430 632 430 C 634 437 636 445 638 452 C 638 454 638 454 640 455 C 638 455 636 456 634 456 C 633 448 631 441 629 433 C 622 433 615 431 609 428 C 597 420 589 407 585 393 Z" />
<path fill="#ffffff"  d="M 475 377 C 488 367 504 364 520 366 L 520 367 C 513 366 505 368 498 371 C 495 372 491 374 491 378 C 490 380 492 383 494 385 C 500 389 506 391 513 392 C 515 396 517 400 521 403 C 523 403 524 401 527 401 C 530 402 532 406 531 409 C 529 416 522 418 519 424 C 517 427 521 431 524 429 C 528 428 529 425 530 422 C 532 423 535 426 535 429 C 535 437 525 443 519 438 C 517 436 513 440 515 442 C 521 446 528 446 534 442 C 539 439 543 432 541 425 C 541 422 538 419 535 417 C 542 410 538 398 530 394 C 527 393 523 394 520 396 C 519 394 518 392 517 391 C 523 387 526 381 526 375 C 526 371 524 367 520 367 L 522 366 C 529 368 535 371 540 374 C 545 377 549 381 555 382 C 562 383 569 380 576 376 C 577 393 583 410 594 423 C 602 431 612 438 624 439 C 625 441 625 442 626 444 C 622 446 619 449 615 451 C 599 463 580 471 561 478 C 548 483 534 488 520 490 C 508 492 497 494 486 496 C 474 498 463 498 452 499 C 425 500 399 499 373 493 C 358 488 343 482 331 472 C 323 466 317 459 311 451 C 311 450 310 449 309 448 C 306 439 303 430 302 420 C 313 412 325 406 337 402 C 356 396 377 392 397 396 C 407 397 416 402 425 405 C 433 407 441 407 448 404 C 459 398 465 385 475 377 " />
<path fill="#000072"  d="M 498 371 C 520 367 520 367 520 367 C 524 367 526 371 526 375 C 526 381 523 387 517 391 C 518 392 519 394 520 396 C 523 394 527 393 530 394 C 538 398 542 410 535 417 C 538 419 541 422 541 425 C 543 432 539 439 534 442 C 528 446 521 446 515 442 C 513 440 517 436 519 438 C 525 443 535 437 535 429 C 535 426 532 423 530 422 C 529 425 528 428 524 429 C 521 431 517 427 519 424 C 522 418 529 416 531 409 C 532 406 530 402 527 401 C 524 401 523 403 521 403 C 517 400 515 396 513 392 C 506 391 500 389 494 385 C 492 383 490 380 491 378 C 491 374 495 372 498 371 " />
<path fill="#ffffff"  d="M 506 374 C 508 371 511 370 514 370 C 516 370 519 370 518 372 C 516 374 513 375 510 375 C 508 375 506 375 506 374 Z" />
<path fill="#ff8080"  d="M 376 400 C 388 398 400 399 411 405 C 418 409 423 416 424 423 C 425 432 420 441 414 447 C 403 457 388 462 374 462 C 363 463 353 460 344 455 C 339 450 334 444 334 436 C 334 428 339 420 345 414 C 354 406 364 402 376 400 Z" />
<path fill="#d9d9eb"  d="M 615 451 C 619 449 622 446 626 444 C 626 446 626 447 626 448 C 614 462 598 472 582 481 C 563 490 543 497 523 504 C 522 504 522 505 522 506 C 507 509 492 511 477 514 C 477 514 476 513 476 513 C 449 513 422 515 396 511 C 377 508 357 502 341 491 C 326 481 314 466 309 448 C 310 449 311 450 311 451 C 317 459 323 466 331 472 C 343 482 358 488 373 493 C 399 499 425 500 452 499 C 463 498 474 498 486 496 C 497 494 508 492 520 490 C 534 488 548 483 561 478 C 580 471 599 463 615 451 Z" />
<path fill="#49d2ff"  d="M 601 478 C 610 472 620 465 628 457 C 629 458 629 458 629 459 C 621 464 616 472 614 481 C 609 481 605 479 601 478 Z" />
<path fill="#ffffff"  d="M 637 463 C 645 459 656 461 664 465 C 682 474 694 494 696 514 C 693 516 691 519 688 521 C 679 528 667 529 656 528 C 646 528 636 523 629 515 C 627 514 626 512 624 512 C 618 502 617 490 621 479 C 624 472 629 465 637 463 Z" />
<path fill="#ff9343"  d="M 525 507 C 548 502 571 495 593 483 C 590 490 585 495 581 501 C 577 506 570 508 565 511 C 545 519 523 524 501 526 C 474 528 446 526 419 520 C 438 520 458 519 476 515 C 477 515 477 514 477 514 C 492 511 507 509 522 506 C 522 507 523 508 525 507 Z" />
<path fill="#ffad40"  d="M 593 483 C 599 484 606 486 612 487 C 612 492 612 497 614 503 C 617 517 627 530 641 535 C 638 540 633 543 628 543 C 616 543 605 541 594 536 C 592 535 590 534 587 533 C 585 531 584 529 583 526 C 581 525 579 528 580 529 C 589 549 597 569 604 589 C 612 616 617 645 610 673 C 605 676 601 681 596 684 C 594 686 591 689 588 689 C 600 672 603 649 600 629 C 597 613 591 598 579 588 C 570 579 557 573 544 575 C 533 576 522 582 515 591 C 504 603 498 619 497 635 C 495 653 499 672 508 687 C 514 696 521 703 531 708 C 524 709 517 709 511 708 C 492 706 474 701 458 690 C 448 683 439 673 434 662 C 429 652 427 641 426 631 C 425 619 425 607 426 595 C 427 593 428 590 427 587 C 428 582 430 577 432 571 C 433 570 430 568 429 570 C 424 579 420 589 417 599 L 417 599 C 416 599 415 600 415 601 C 410 614 407 627 404 640 C 403 642 403 644 403 646 C 403 646 405 647 406 647 C 404 647 403 647 402 647 C 379 649 355 649 335 637 C 338 616 344 596 352 577 C 362 555 375 534 393 517 C 402 519 411 519 419 520 C 446 526 474 528 501 526 C 523 524 545 519 565 511 C 570 508 577 506 581 501 C 585 495 590 490 593 483 Z" />
<path fill="#e0e0f0"  d="M 624 512 C 626 512 627 514 629 515 C 636 523 646 528 656 528 C 667 529 679 528 688 521 C 691 519 693 516 696 514 C 696 516 697 518 696 520 C 692 529 682 535 672 535 C 673 535 674 534 675 534 L 674 533 C 664 534 653 535 643 530 C 635 526 628 520 624 512 Z" />
<path fill="#ff9343"  d="M 672 535 C 682 535 692 529 696 520 C 699 531 698 543 694 553 C 690 567 678 578 665 582 C 645 586 623 585 606 574 C 601 560 594 546 587 533 C 590 534 592 535 594 536 C 605 541 616 543 628 543 C 633 543 638 540 641 535 C 643 536 645 537 648 537 C 649 543 650 549 652 555 C 653 561 660 565 666 563 C 671 562 674 557 674 551 C 674 546 671 541 671 535 L 672 535 Z" />
<path fill="#7ba2ff"  d="M 658 538 C 660 538 663 537 665 538 C 666 542 667 546 668 551 C 668 552 668 553 667 555 L 667 555 C 665 553 662 552 661 549 C 659 546 659 542 658 538 Z" />
<path fill="#5f85e2"  d="M 654 538 C 655 538 657 538 658 538 C 659 542 659 546 661 549 C 662 552 665 553 667 555 C 665 559 659 558 658 553 C 656 548 655 543 654 538 Z" />
<path fill="#ffffff"  d="M 515 591 C 522 582 533 576 544 575 C 557 573 570 579 579 588 C 591 598 597 613 600 629 C 603 649 600 672 588 689 C 587 690 586 691 585 692 C 583 693 580 695 577 696 C 567 702 555 705 543 707 C 540 708 536 708 533 709 C 533 709 531 708 531 708 C 521 703 514 696 508 687 C 499 672 495 653 497 635 C 498 619 504 603 515 591 Z" />
<path fill="#ff9343"  d="M 427 587 L 427 587 C 428 590 427 593 426 595 C 425 607 425 619 426 631 C 427 641 429 652 434 662 C 439 673 448 683 458 690 C 474 701 492 706 511 708 C 517 709 524 709 531 708 C 531 708 533 709 533 709 C 544 714 557 713 568 708 C 575 704 581 699 585 692 C 586 691 587 690 588 689 C 591 689 594 686 596 684 C 601 681 605 676 610 673 C 606 693 596 711 581 724 C 579 725 577 726 576 728 C 576 730 578 731 579 730 C 591 722 603 711 609 698 C 610 699 609 700 609 702 C 607 710 606 719 604 728 C 598 734 593 739 586 743 C 571 752 554 754 537 759 C 530 760 522 763 519 770 C 515 780 513 791 512 801 C 512 803 511 804 511 805 C 508 804 505 803 502 801 C 502 784 503 767 504 750 C 520 749 537 746 552 741 C 554 740 554 737 552 737 C 533 741 514 742 495 743 C 492 742 490 743 489 746 C 488 749 488 753 487 757 L 487 757 C 481 755 475 752 468 751 C 458 747 447 745 437 744 C 429 743 422 742 414 743 C 408 744 402 744 396 746 C 396 735 396 724 396 713 C 406 702 409 687 412 672 C 416 644 418 615 427 587 Z" />
<path fill="#ff9343"  d="M 415 601 C 415 600 416 599 417 599 C 413 614 410 630 408 647 C 407 647 406 647 406 647 C 405 647 403 646 403 646 C 403 644 403 642 404 640 C 407 627 410 614 415 601 Z" />
<path fill="#ffffff"  d="M 335 637 C 355 649 379 649 402 647 C 400 658 397 669 393 679 C 390 687 384 696 375 699 C 365 702 353 703 343 697 C 342 696 341 696 340 695 L 340 695 C 338 690 336 685 335 680 C 333 665 333 651 335 637 Z" />
<path fill="#d6cfc9"  d="M 406 647 C 406 647 407 647 408 647 C 406 659 404 672 401 685 C 399 693 396 702 389 708 C 383 714 375 716 367 716 C 354 716 344 706 340 695 C 341 696 342 696 343 697 C 353 703 365 702 375 699 C 384 696 390 687 393 679 C 397 669 400 658 402 647 C 403 647 404 647 406 647 Z" />
<path fill="#d7d0ca"  d="M 577 696 C 580 695 583 693 585 692 C 581 699 575 704 568 708 C 557 713 544 714 533 709 C 536 708 540 708 543 707 C 555 705 567 702 577 696 Z" />
<path fill="#ffad40"  d="M 586 743 C 593 739 598 734 604 728 C 599 753 593 778 586 802 C 562 810 536 813 512 805 C 511 805 511 805 511 805 C 511 804 512 803 512 801 C 513 791 515 780 519 770 C 522 763 530 760 537 759 C 554 754 571 752 586 743 Z" />
<path fill="#ffad40"  d="M 414 743 C 422 742 429 743 437 744 C 447 745 458 747 468 751 C 475 752 481 755 487 757 C 486 771 484 786 482 801 C 458 807 433 808 408 804 C 404 803 401 802 397 801 L 397 801 C 396 783 396 765 396 746 C 402 744 408 744 414 743 Z" />
<path fill="#fff3e9"  d="M 397 801 C 401 802 404 803 408 804 C 433 808 458 807 482 801 C 481 809 480 817 480 826 C 482 831 484 837 484 843 C 481 845 478 848 475 849 C 467 853 458 853 449 853 C 439 854 428 854 418 852 C 413 851 408 850 404 847 C 402 846 400 844 398 842 C 397 839 397 835 398 832 C 397 821 397 811 397 801 Z" />
<path fill="#d8d0cb"  d="M 502 801 C 505 803 508 804 511 805 C 511 805 511 805 512 805 C 511 818 510 832 518 842 C 523 848 531 849 539 850 C 554 852 569 851 584 847 C 588 846 592 844 596 843 C 596 847 595 851 592 853 C 588 857 582 859 576 860 C 565 862 553 861 542 861 C 531 860 521 859 511 855 C 507 853 502 850 502 845 C 500 830 501 816 502 801 Z" />
<path fill="#fff3e9"  d="M 512 805 C 536 813 562 810 586 802 C 584 809 582 815 580 821 C 580 824 582 825 583 826 C 590 829 596 835 596 843 C 592 844 588 846 584 847 C 569 851 554 852 539 850 C 531 849 523 848 518 842 C 510 832 511 818 512 805 Z" />
<path fill="#dad2cd"  d="M 398 842 C 400 844 402 846 404 847 C 408 850 413 851 418 852 C 428 854 439 854 449 853 C 458 853 467 853 475 849 C 478 848 481 845 484 843 C 484 849 481 854 477 857 C 471 861 464 862 456 863 C 445 863 432 863 421 862 C 415 861 408 860 404 855 C 400 852 398 847 398 842 Z" />
</svg>
