<svg width="3000" height="2000" viewBox="0 0 3000 2000" fill="none" xmlns="http://www.w3.org/2000/svg">
<g clip-path="url(#clip0_1244_2779)">
<path d="M3000 0H0V2000H3000V0Z" fill="white"/>
<path d="M1 1997H2999V0H1V1997Z" fill="#FFE3BC"/>
<path d="M1189 1339C1189 1339 1778 1043 2155 1055C2533 1067 2999 1417 2999 1417L1189 1339Z" fill="#FFC68A"/>
<path d="M1189 1339C1189 1339 1777 1043 2155 1055C2533 1067 2999 1416 2999 1416L1189 1339Z" fill="#FFC68A"/>
<path d="M16 1249C16 1249 599 975 883 957C1168 940 2127 1400 2127 1400L1 1417L16 1249Z" fill="#FFCF95"/>
<path d="M431 1405C431 1405 450 1354 422 1323C394 1292 355 1325 355 1325C355 1325 354 1307 344 1296C335 1285 319 1293 319 1293C319 1293 312 1219 262 1206C212 1193 183 1238 183 1238C183 1238 155 1223 137 1237C119 1252 119 1279 119 1279C119 1279 67 1253 36 1302C36 1302 23 1282 0 1320V1400L1 1446L431 1405Z" fill="#932500"/>
<path d="M195 1315C193 1319 190 1321 187 1321L184 1320C180 1318 178 1313 180 1309C181 1307 187 1290 200 1288C207 1286 214 1289 219 1294C224 1285 233 1277 245 1276H246C269 1276 280 1304 281 1305C282 1309 280 1314 277 1316C273 1318 268 1316 266 1312C266 1312 259 1294 246 1294C233 1294 230 1310 229 1311C229 1314 226 1317 223 1318C220 1318 217 1317 215 1314C214 1312 208 1303 203 1305C200 1305 196 1311 195 1315Z" fill="#D5000D"/>
<path d="M67 1365C68 1355 74 1338 89 1337C99 1336 106 1343 111 1349C119 1342 131 1336 145 1343C153 1346 158 1353 161 1361C168 1357 177 1354 186 1358C202 1365 203 1383 202 1392C202 1397 198 1400 193 1400H192C187 1399 184 1394 185 1389C185 1387 185 1379 179 1376C174 1374 168 1380 167 1380L168 1398C167 1403 164 1407 160 1407H159C155 1406 152 1402 152 1397C152 1389 151 1364 139 1359C126 1352 117 1367 116 1368C114 1371 112 1372 109 1372C106 1372 104 1370 102 1367C101 1365 96 1354 90 1354C84 1355 83 1367 83 1367C82 1372 78 1375 74 1374C70 1374 67 1369 67 1365Z" fill="#D5000D"/>
<path d="M377 1243C377 1243 376 1221 386 1206C393 1195 413 1191 427 1179C427 1179 422 1189 412 1198C402 1206 404 1231 377 1243Z" fill="#D5000D"/>
<path d="M371 1259C371 1259 377 1244 374 1226C371 1208 364 1200 361 1185C361 1185 354 1202 357 1219C360 1237 365 1239 368 1247L371 1259Z" fill="#D5000D"/>
<path d="M365 1302L364 1283C364 1274 351 1259 339 1255C339 1255 345 1261 349 1279C353 1297 356 1301 366 1310L365 1302Z" fill="#D5000D"/>
<path d="M369 1277C369 1277 372 1259 385 1251C398 1244 414 1235 423 1224C423 1224 414 1247 403 1259C392 1272 378 1271 369 1277Z" fill="#D5000D"/>
<path d="M354 1271C354 1271 359 1279 360 1288C361 1297 366 1311 366 1311L365 1303L363 1291C362 1284 361 1279 354 1271Z" fill="#932500"/>
<path d="M395 1251L378 1264C372 1269 367 1279 367 1279V1282C367 1282 372 1272 379 1265L395 1251Z" fill="#932500"/>
<path d="M365 1215L369 1231C372 1241 369 1264 369 1264L371 1257C371 1257 373 1245 371 1234L365 1215Z" fill="#932500"/>
<path d="M390 1219L388 1222L386 1226L384 1229L383 1231V1232L376 1247L374 1254L371 1262V1265L370 1269L368 1277L367 1308V1316L368 1324L369 1340L367 1324L366 1317L365 1309V1293L366 1277L369 1261L372 1253L373 1249L375 1246L378 1239L382 1232L386 1225L390 1219Z" fill="#932500"/>
<path d="M2568 1405C2568 1405 2549 1354 2578 1323C2606 1292 2644 1325 2644 1325C2644 1325 2646 1307 2655 1296C2664 1285 2681 1293 2681 1293C2681 1293 2687 1219 2738 1206C2788 1193 2817 1238 2817 1238C2817 1238 2845 1223 2863 1237C2880 1252 2880 1279 2880 1279C2880 1279 2933 1253 2964 1302C2964 1302 2999 1271 2999 1317V1474L2568 1405Z" fill="#932500"/>
<path d="M2805 1315C2806 1319 2809 1321 2812 1321L2815 1320C2819 1318 2821 1313 2820 1309C2819 1307 2813 1290 2800 1288C2792 1286 2786 1289 2780 1294C2775 1285 2767 1277 2754 1276C2730 1276 2720 1304 2719 1305C2717 1309 2719 1314 2723 1316C2727 1318 2732 1316 2733 1312C2733 1312 2741 1294 2754 1294C2766 1294 2770 1310 2770 1311C2771 1314 2773 1317 2776 1318C2780 1318 2783 1317 2784 1314C2786 1312 2792 1303 2797 1305C2800 1305 2804 1311 2805 1315Z" fill="#D5000D"/>
<path d="M2932 1365C2931 1355 2926 1338 2911 1337C2901 1336 2894 1343 2889 1349C2881 1342 2869 1336 2855 1343C2847 1346 2842 1353 2838 1361C2832 1357 2823 1354 2814 1358C2798 1365 2796 1383 2797 1392C2798 1397 2802 1400 2806 1400H2808C2812 1399 2816 1394 2815 1389C2815 1387 2814 1379 2821 1376C2826 1374 2832 1380 2833 1380L2832 1398C2832 1403 2836 1407 2840 1407C2844 1406 2848 1402 2848 1397C2847 1389 2849 1364 2861 1359C2874 1352 2883 1367 2884 1368C2885 1371 2888 1372 2891 1372C2894 1372 2896 1370 2897 1367C2898 1365 2904 1354 2910 1354C2915 1355 2917 1367 2917 1367C2918 1372 2921 1375 2926 1374C2930 1374 2933 1369 2932 1365Z" fill="#D5000D"/>
<path d="M2623 1243C2623 1243 2624 1221 2614 1206C2607 1195 2587 1191 2573 1179C2573 1179 2578 1189 2588 1198C2597 1206 2596 1231 2623 1243Z" fill="#D5000D"/>
<path d="M2629 1259C2629 1259 2622 1244 2625 1226C2628 1208 2636 1200 2639 1185C2639 1185 2645 1202 2643 1219C2640 1237 2635 1239 2632 1247L2629 1259Z" fill="#D5000D"/>
<path d="M2635 1302L2636 1283C2636 1274 2649 1259 2660 1255C2660 1255 2654 1261 2651 1279C2647 1297 2644 1301 2633 1310L2635 1302Z" fill="#D5000D"/>
<path d="M2631 1277C2631 1277 2627 1259 2614 1251C2602 1244 2586 1235 2577 1224C2577 1224 2585 1247 2597 1259C2608 1272 2621 1271 2631 1277Z" fill="#D5000D"/>
<path d="M2645 1271C2645 1271 2640 1279 2640 1288C2639 1297 2634 1311 2634 1311V1303L2637 1291C2638 1284 2639 1279 2645 1271Z" fill="#932500"/>
<path d="M2605 1251L2622 1264C2628 1269 2633 1279 2633 1279L2632 1282C2632 1282 2628 1272 2620 1265L2605 1251Z" fill="#932500"/>
<path d="M2635 1215L2631 1231C2627 1241 2630 1264 2630 1264L2629 1257C2629 1257 2626 1245 2629 1234C2630 1226 2632 1224 2635 1215Z" fill="#932500"/>
<path d="M2609 1219L2611 1222L2613 1226L2615 1229L2616 1231L2617 1232L2623 1247L2626 1254L2628 1262L2629 1265L2630 1269L2631 1277C2633 1287 2633 1298 2633 1308V1312L2632 1316V1324L2630 1340L2633 1324L2634 1317V1309L2635 1293L2633 1277C2633 1271 2632 1266 2630 1261L2628 1253L2626 1249L2625 1246L2622 1239L2618 1232L2614 1225L2609 1219Z" fill="#932500"/>
<path d="M1500 1318C778 1318 1 1457 1 1457V1997H2999V1456C2999 1456 2222 1318 1500 1318Z" fill="#FF6700"/>
<path d="M773 1997C773 1997 1809 1461 2999 1633V1997H773Z" fill="#E54000"/>
<path d="M1071 324C1071 324 1044 370 995 370C947 369 927 325 927 325C927 325 904 371 847 370C801 369 775 332 775 332C775 332 699 390 621 374C529 355 504 251 504 251C501 251 403 231 404 177C404 102 546 93 546 93C546 93 554 25 596 0H1107C1148 26 1151 51 1151 51C1151 51 1301 58 1308 188C1315 319 1071 324 1071 324Z" fill="white"/>
<path d="M807 0C766 40 759 111 759 111C759 111 686 51 647 66C607 81 575 148 575 148C575 148 446 149 449 177C451 204 502 250 504 251C504 251 529 355 621 374C699 390 775 332 775 332C775 332 801 369 847 370C904 371 927 325 927 325C927 325 947 369 995 370C1044 370 1071 324 1071 324C1071 324 1257 277 1250 198C1243 119 1121 129 1121 129C1121 129 1129 77 1079 51C1029 25 986 97 986 97C986 97 966 36 927 0H807Z" fill="#F7DDBB"/>
<path d="M2344 609C2347 693 2132 696 2132 696C2132 696 2110 753 2059 752C2009 751 1983 720 1983 720C1983 720 1946 762 1886 755C1826 748 1802 716 1802 716C1802 716 1646 728 1638 653C1630 577 1734 579 1734 579C1734 579 1714 521 1745 481C1782 433 1832 452 1832 452C1832 452 1848 324 1958 333C2049 341 2062 458 2062 458C2062 458 2106 412 2158 443C2203 471 2196 520 2196 520C2196 520 2341 526 2344 609Z" fill="white"/>
<path d="M1906 534C1906 534 1870 487 1830 511C1785 537 1794 598 1794 598C1794 598 1685 605 1688 647C1690 689 1802 716 1802 716C1802 716 1826 748 1886 755C1946 762 1983 720 1983 720C1983 720 2009 751 2059 752C2110 753 2132 696 2132 696C2132 696 2320 643 2312 602C2303 560 2164 572 2164 572C2164 572 2164 532 2132 514C2085 489 2052 549 2052 549C2052 549 2050 448 1984 441H1979C1924 441 1906 534 1906 534Z" fill="#F7DDBB"/>
<path d="M1504 898C1501 916 1481 924 1459 928C1428 933 1394 930 1394 930C1394 930 1383 958 1355 963C1327 968 1302 937 1302 937C1275 939 1248 937 1225 933C1196 927 1176 916 1175 901C1174 882 1201 883 1201 883C1201 883 1193 859 1207 845C1220 832 1241 842 1241 842C1241 842 1238 809 1260 794C1284 777 1309 796 1309 796C1309 796 1324 756 1356 756C1388 755 1404 807 1404 807C1404 807 1426 794 1443 806C1458 818 1456 842 1456 842C1456 842 1512 864 1504 898Z" fill="white"/>
<path d="M1321 826C1321 826 1308 813 1289 819C1263 828 1262 863 1262 863C1262 863 1240 851 1226 857C1212 862 1219 892 1219 892C1219 892 1200 891 1195 902C1192 907 1210 922 1225 933C1248 937 1275 939 1302 937C1302 937 1327 968 1355 963C1383 958 1394 930 1394 930C1394 930 1428 933 1459 928C1474 923 1487 916 1488 908C1489 888 1437 876 1437 876C1437 876 1442 852 1426 839C1411 826 1386 839 1386 839C1386 839 1386 809 1362 802L1354 800C1333 800 1321 826 1321 826Z" fill="white"/>
<path d="M2999 869V919C2999 919 2996 999 2901 960C2901 960 2810 1023 2766 955C2766 955 2733 981 2699 949C2699 949 2613 1056 2528 965C2528 965 2420 1040 2352 983C2285 927 2292 865 2292 865C2292 865 2230 831 2242 771C2254 712 2304 708 2304 708C2303 707 2280 679 2291 641C2291 641 2180 635 2165 562C2151 489 2219 443 2219 443C2219 443 2202 372 2223 327C2244 282 2305 274 2305 274C2305 274 2306 161 2419 151C2419 151 2383 60 2470 0H2999V869Z" fill="#FF7500"/>
<path d="M2999 378V21C2999 116 3008 220 2921 136C2921 136 2923 211 2875 236C2827 262 2804 223 2804 223C2804 223 2781 252 2764 246C2746 240 2728 239 2728 239C2728 239 2704 280 2716 363C2716 363 2721 443 2782 463C2844 483 2859 471 2859 471C2859 471 2863 530 2925 539C2929 539 2999 539 2999 642V378Z" fill="#EF5000"/>
<path d="M2999 509V784C2895 829 2892 736 2892 736C2892 736 2867 779 2806 803L2801 805L2769 719C2769 719 2749 739 2716 739C2683 739 2671 685 2671 685C2671 685 2656 709 2634 712C2613 715 2588 678 2588 678C2588 678 2582 727 2555 741C2528 755 2495 717 2495 717C2479 738 2446 751 2446 751C2462 803 2536 838 2538 837L2641 842C2634 845 2625 847 2616 847C2546 850 2526 837 2526 837C2526 837 2485 944 2401 917C2347 900 2364 807 2364 807C2364 807 2321 837 2288 797C2255 757 2304 708 2304 708C2304 708 2254 712 2242 771C2230 831 2292 865 2292 865C2292 865 2285 927 2352 983C2420 1040 2528 965 2528 965C2613 1056 2699 949 2699 949C2733 981 2766 955 2766 955C2810 1023 2901 960 2901 960C2996 999 2999 919 2999 919V509Z" fill="#EF5000"/>
<path d="M2999 1198V1843C2918 1502 2956 1093 2856 951C2757 810 2622 887 2536 852C2450 817 2444 742 2444 742C2485 803 2512 837 2626 833C2606 820 2600 789 2599 770L2598 754L2603 768C2630 830 2673 831 2676 831C2777 832 2812 868 2813 869C2812 867 2780 793 2769 751C2755 702 2766 648 2761 581C2756 514 2752 467 2687 389C2621 311 2634 225 2634 225C2646 328 2705 364 2705 364C2691 289 2715 247 2726 231L2732 225L2727 244C2700 356 2760 421 2783 507C2807 594 2794 683 2793 691C2794 683 2811 604 2825 567C2839 528 2849 511 2849 458C2849 436 2853 418 2857 405C2862 387 2869 378 2869 378L2866 391C2856 442 2876 471 2869 513C2861 557 2825 648 2831 739C2835 810 2908 902 2941 989C2974 1076 2999 1198 2999 1198Z" fill="#65443A"/>
<path d="M2999 1258V1273C2981 1218 2967 1137 2946 1073C2918 991 2895 949 2864 891C2853 873 2842 852 2829 827C2808 787 2801 738 2808 681C2814 635 2828 596 2837 572L2839 564C2853 525 2857 511 2853 458C2852 436 2854 418 2857 405C2862 387 2869 378 2869 378L2866 391C2862 403 2856 425 2858 458C2862 511 2857 526 2844 566L2841 574C2824 622 2785 733 2833 824L2868 889C2900 946 2923 988 2950 1071C2970 1130 2981 1203 2999 1258Z" fill="#7D554B"/>
<path d="M2999 1419V1434C2976 1368 2968 1279 2950 1199C2937 1142 2925 1088 2913 1049C2896 992 2884 964 2869 936C2867 934 2851 913 2802 880C2772 859 2739 855 2706 852C2686 849 2666 847 2649 840C2617 828 2604 791 2599 770L2598 754L2603 768C2608 787 2621 823 2650 835C2667 842 2686 844 2707 846C2738 850 2773 854 2805 876C2832 894 2850 909 2860 919L2851 902C2842 886 2832 869 2821 846C2773 756 2775 684 2776 613L2777 607C2778 548 2772 534 2749 473L2728 417C2707 359 2708 309 2713 278C2717 256 2722 240 2726 231L2732 225L2727 244C2724 253 2720 265 2718 279C2713 310 2711 358 2732 415L2754 471C2777 533 2783 547 2781 607V614C2780 686 2778 755 2825 844L2855 899C2880 946 2893 969 2918 1048C2929 1086 2942 1140 2955 1198C2972 1272 2978 1355 2999 1419Z" fill="#7D554B"/>
<path d="M2262 199L2263 196C2263 191 2264 172 2244 165C2222 158 2213 130 2213 130C2213 130 2190 166 2210 204C2228 239 2257 217 2257 217L2271 229V223C2271 223 2241 202 2226 178C2226 178 2254 210 2262 199Z" fill="#FFB200"/>
<path d="M2307 1012L2310 1011C2315 1010 2332 1007 2339 1028C2348 1053 2373 1060 2373 1060C2373 1060 2344 1089 2307 1070C2274 1053 2291 1020 2291 1020L2280 1005L2285 1004C2285 1004 2306 1035 2329 1049C2329 1049 2298 1022 2307 1012Z" fill="#FFB200"/>
<path d="M2686 1059L2688 1063C2689 1069 2693 1092 2670 1103C2643 1116 2636 1151 2636 1151C2636 1151 2603 1113 2622 1062C2639 1017 2677 1038 2677 1038L2693 1021L2694 1029C2694 1029 2661 1059 2646 1091C2646 1091 2675 1047 2686 1059Z" fill="#FFB200"/>
<path d="M2367 715C2367 715 2371 749 2399 754C2424 759 2437 728 2437 728C2437 728 2469 736 2480 711C2490 686 2483 672 2483 672C2483 672 2513 699 2492 733C2476 760 2454 752 2454 752C2454 752 2426 797 2391 782C2356 767 2367 715 2367 715Z" fill="#EF5000"/>
<path d="M2567 744C2567 744 2571 763 2582 764C2593 764 2599 752 2599 752C2599 752 2606 765 2614 759C2622 754 2621 745 2621 745C2621 745 2627 757 2618 768C2609 778 2599 770 2599 770C2599 770 2588 788 2572 777C2560 768 2567 744 2567 744Z" fill="#FF7500"/>
<path d="M2842 329C2842 329 2839 357 2853 364C2867 372 2878 354 2878 354C2878 354 2885 380 2899 377C2912 374 2915 363 2915 363C2915 363 2917 382 2900 391C2883 401 2872 384 2872 384C2872 384 2849 401 2833 376C2821 357 2842 329 2842 329Z" fill="#FF7500"/>
<path d="M2557 141C2557 141 2527 203 2574 231C2620 257 2645 221 2645 221C2645 221 2651 242 2672 247C2693 253 2715 235 2715 235C2715 235 2717 254 2747 259C2777 265 2801 226 2801 226C2801 226 2734 258 2730 191C2730 191 2697 227 2672 209C2653 195 2651 177 2651 177C2651 177 2620 213 2588 202C2555 190 2557 141 2557 141Z" fill="#EF5000"/>
<path d="M2313 544C2313 544 2266 535 2259 502C2251 469 2283 450 2283 450C2283 450 2249 399 2269 359C2287 323 2355 341 2355 341C2355 341 2378 280 2409 281C2446 283 2458 343 2458 343C2458 343 2431 306 2409 311C2388 316 2374 373 2374 373C2374 373 2311 354 2303 377C2292 409 2344 457 2344 457C2344 457 2282 468 2283 496C2285 524 2313 544 2313 544Z" fill="#FFB200"/>
<path d="M2632 99.9998C2632 99.9998 2616 70.9998 2628 52.9998C2640 35.9998 2661 44.9998 2661 44.9998C2661 44.9998 2670 5.99976 2696 -0.000235379C2719 -4.00024 2740 39.9998 2740 39.9998C2740 39.9998 2776 26.9998 2788 44.9998C2803 65.9998 2781 96.9998 2781 96.9998C2781 96.9998 2786 66.9998 2775 57.9998C2764 47.9998 2733 63.9998 2733 63.9998C2733 63.9998 2716 20.9998 2702 25.9998C2683 32.9998 2683 80.9998 2683 80.9998C2683 80.9998 2653 51.9998 2641 63.9998C2629 75.9998 2632 99.9998 2632 99.9998Z" fill="#FFB200"/>
<path d="M2505 525C2505 525 2481 477 2507 456C2534 436 2556 471 2556 471C2556 471 2578 451 2595 458C2612 465 2608 499 2608 499C2608 499 2600 476 2588 474C2577 472 2553 498 2553 498C2553 498 2528 464 2517 472C2506 481 2505 525 2505 525Z" fill="#FFB200"/>
<path d="M1 902C1 902 190 1023 234 955C234 955 266 981 301 949C301 949 387 1056 471 965C471 965 580 1040 647 983C714 927 708 865 708 865C708 865 770 831 758 771C746 712 696 708 696 708C696 707 719 679 708 641C708 641 820 635 834 562C849 489 780 443 780 443C780 443 797 372 777 327C756 282 695 274 695 274C695 274 694 161 581 151C581 151 603 60 516 0H1V902Z" fill="#FF7500"/>
<path d="M1 0V148C62 186 79 136 79 136C79 136 77 211 125 236C173 262 196 223 196 223C196 223 218 252 236 246C254 240 272 239 272 239C272 239 295 280 284 363C284 363 278 443 217 463C156 483 141 471 141 471C141 471 136 530 75 539C71 539 1 463 1 614V0Z" fill="#EF5000"/>
<path d="M1 363V614C1 835 56 749 194 803L198 805L231 719C231 719 251 739 283 739C316 739 328 685 328 685C328 685 344 709 365 712C387 715 411 678 411 678C411 678 417 727 444 741C472 755 505 717 505 717C521 738 553 751 553 751C538 803 464 838 461 837L358 842C366 845 374 847 384 847C454 850 474 837 474 837C474 837 514 944 598 917C652 900 636 807 636 807C636 807 678 837 712 797C745 757 696 708 696 708C696 708 746 712 758 771C770 831 708 865 708 865C708 865 714 927 647 983C580 1040 471 965 471 965C387 1056 301 949 301 949C266 981 234 955 234 955C190 1023 1 902 1 902V363Z" fill="#EF5000"/>
<path d="M0 1197V1842C81 1501 44 1093 143 951C243 810 377 887 463 852C549 817 556 742 556 742C515 803 487 837 374 833C393 820 399 789 401 770V754L396 768C370 830 326 831 324 831C223 832 188 868 187 869C188 867 220 793 231 751C244 702 233 648 239 581C244 514 247 467 313 389C379 311 365 225 365 225C354 328 295 364 295 364C308 289 285 247 274 231L268 225L273 244C299 356 240 421 216 507C192 594 206 683 207 691C205 683 188 604 175 567C161 528 151 511 150 458C150 436 147 418 143 405C137 387 131 378 131 378L134 391C143 442 124 471 131 513C139 557 175 648 169 739C165 810 91 902 59 989C26 1076 0 1197 0 1197Z" fill="#65443A"/>
<path d="M0 1257V1272C19 1217 33 1137 54 1073C81 991 104 949 136 891L171 827C192 787 199 738 191 681C185 635 171 596 163 572L160 564C147 525 143 511 146 458C148 436 146 418 143 405C137 387 131 378 131 378L134 391C138 403 143 425 141 458C138 511 142 526 156 566L159 574C175 622 214 733 167 824L132 889C100 946 77 988 49 1071C30 1130 18 1202 0 1257Z" fill="#7D554B"/>
<path d="M0 1418V1433C24 1367 31 1279 49 1199C62 1142 75 1088 87 1049C104 992 116 964 131 936C132 934 149 913 197 880C228 859 261 855 293 852C314 849 334 847 351 840C383 828 396 791 401 770V754L396 768C392 787 379 823 350 835C333 842 313 844 293 846C262 850 226 854 195 876C167 894 150 909 140 919L149 902L179 846C226 756 225 684 223 613V607C222 548 227 534 250 473L272 417C293 359 291 309 286 278C283 256 277 240 274 231L268 225L273 244L282 279C287 310 288 358 267 415L246 471C223 533 217 547 218 607V614C220 686 222 755 175 844L145 899C119 946 106 969 82 1048C70 1086 58 1140 45 1198C28 1272 22 1354 0 1418Z" fill="#7D554B"/>
<path d="M738 199L737 196C736 191 736 172 755 165C778 158 787 130 787 130C787 130 810 166 790 204C772 239 743 217 743 217L729 229V223C729 223 758 202 773 178C773 178 745 210 738 199Z" fill="#FFB200"/>
<path d="M693 1012L690 1011C685 1010 668 1007 661 1028C652 1053 626 1060 626 1060C626 1060 656 1089 692 1070C725 1053 708 1020 708 1020L720 1005L714 1004C714 1004 693 1035 670 1049C670 1049 702 1022 693 1012Z" fill="#FFB200"/>
<path d="M314 1059L312 1063C311 1069 307 1092 330 1103C356 1116 363 1151 363 1151C363 1151 396 1113 377 1062C360 1017 323 1038 323 1038L307 1021L306 1029C306 1029 339 1059 353 1091C353 1091 324 1047 314 1059Z" fill="#FFB200"/>
<path d="M633.001 715C633.001 715 628.001 749 601.001 754C576.001 759 562.001 728 562.001 728C562.001 728 530.001 736 520.001 711C509.001 686 516.001 672 516.001 672C516.001 672 487.001 699 508.001 733C524.001 760 546.001 752 546.001 752C546.001 752 573.001 797 608.001 782C643.001 767 633.001 715 633.001 715Z" fill="#EF5000"/>
<path d="M433 744C433 744 428 763 418 764C407 764 401 752 401 752C401 752 394 765 386 759C378 754 379 745 379 745C379 745 373 757 381 768C390 778 400 770 400 770C400 770 412 788 428 777C440 768 433 744 433 744Z" fill="#FF7500"/>
<path d="M157 329C157 329 161 357 147 364C133 372 122 354 122 354C122 354 114 380 101 377C88.0001 374 85.0001 363 85.0001 363C85.0001 363 82.0001 382 99.0001 391C117 401 128 384 128 384C128 384 151 401 167 376C179 357 157 329 157 329Z" fill="#FF7500"/>
<path d="M443 141C443 141 473 203 425 231C380 257 355 221 355 221C355 221 348 242 328 247C307 253 285 235 285 235C285 235 283 254 253 259C223 265 198 226 198 226C198 226 266 258 270 191C270 191 303 227 328 209C346 195 349 177 349 177C349 177 380 213 411 202C445 190 443 141 443 141Z" fill="#EF5000"/>
<path d="M687 544C687 544 734 535 741 502C748 469 716 450 716 450C716 450 751 399 730 359C713 323 644 341 644 341C644 341 622 280 591 281C553 283 542 343 542 343C542 343 569 306 590 311C612 316 626 373 626 373C626 373 689 354 697 377C708 409 656 457 656 457C656 457 717 468 716 496C715 524 687 544 687 544Z" fill="#FFB200"/>
<path d="M368 99.9998C368 99.9998 383 70.9998 371 52.9998C360 35.9998 338 44.9998 338 44.9998C338 44.9998 330 5.99976 303 -0.000235379C280 -4.00024 260 39.9998 260 39.9998C260 39.9998 224 26.9998 212 44.9998C197 65.9998 219 96.9998 219 96.9998C219 96.9998 214 66.9998 225 57.9998C236 47.9998 267 63.9998 267 63.9998C267 63.9998 284 20.9998 298 25.9998C316 32.9998 317 80.9998 317 80.9998C317 80.9998 347 51.9998 358 63.9998C370 75.9998 368 99.9998 368 99.9998Z" fill="#FFB200"/>
<path d="M495 525C495 525 518 477 492 456C466 436 443 471 443 471C443 471 422 451 404 458C388 465 392 499 392 499C392 499 399 476 411 474C423 472 447 498 447 498C447 498 472 464 483 472C493 481 495 525 495 525Z" fill="#EF5000"/>
<path d="M2839 1708C2839 1708 2792 1691 2747 1626C2702 1560 2699 1523 2716 1512C2738 1499 2802 1549 2802 1549C2802 1549 2727 1459 2741 1423C2755 1387 2824 1450 2824 1450C2824 1450 2769 1362 2785 1337C2801 1311 2844 1383 2844 1383C2844 1383 2805 1286 2829 1266C2854 1247 2870 1306 2870 1306C2870 1306 2887 1195 2926 1206C2965 1217 2923 1322 2923 1322C2923 1322 2966 1285 2983 1302C3015 1334 2928 1384 2928 1384C2928 1384 2991 1391 2999 1417C3007 1442 2924 1461 2924 1461C2924 1461 2999 1419 2999 1452C2999 1489 2928 1555 2928 1555C2928 1555 2984 1507 2999 1544C2999 1544 2970 1668 2839 1708Z" fill="#570000"/>
<path d="M2890 1319L2878 1370L2872 1396L2867 1422L2858 1474L2851 1526L2848 1553L2845 1579L2844 1592L2843 1605L2842 1618V1632L2841 1645V1658L2840 1671V1698L2841 1711V1724L2842 1738L2839 1711L2838 1705L2837 1698V1685L2836 1631C2836.78 1560.25 2845.5 1489.81 2862 1421L2868 1395L2871 1382L2874 1369L2882 1344L2890 1319Z" fill="#932500"/>
<path d="M2741 1551C2770.79 1570.98 2796.85 1596.02 2818 1625L2821 1629L2822 1630L2824 1632L2829 1640L2834 1648L2838 1656L2832 1649L2826 1642L2814 1629L2790 1603L2766 1577L2741 1551Z" fill="#932500"/>
<path d="M2772 1453L2795 1475L2814 1500C2826.32 1517.69 2836.39 1536.83 2844 1557L2835 1544L2827 1531L2809 1505L2791 1479L2772 1453Z" fill="#932500"/>
<path d="M2812 1380L2827 1398L2839 1419L2849 1440L2857 1463L2846 1442L2835 1421L2824 1401L2812 1380Z" fill="#932500"/>
<path d="M2842 1314L2853 1333L2861 1353C2866.43 1366.48 2870.12 1380.59 2872 1395L2865 1375L2857 1354L2850 1334L2842 1314Z" fill="#932500"/>
<path d="M2838 1668C2848 1658 2859 1650 2870 1642L2903 1618L2938 1598C2950 1592 2962 1586 2975 1582L2941 1604L2907 1625L2873 1647L2838 1668Z" fill="#932500"/>
<path d="M2846 1553L2874 1530L2904 1509L2920 1500L2927 1495L2935 1491L2968 1476L2938 1496L2907 1515L2877 1535L2846 1553Z" fill="#932500"/>
<path d="M2855 1464L2877 1446L2899 1430L2923 1416L2948 1405L2925 1420L2902 1435L2879 1450L2855 1464Z" fill="#932500"/>
<path d="M2873 1384L2889 1371L2906 1359L2923 1349L2942 1340L2925 1352L2908 1363L2890 1374L2873 1384Z" fill="#932500"/>
<path d="M2466 1997C2466 1997 2454 1948 2485 1897C2526 1831 2614 1862 2614 1862C2614 1862 2616 1810 2665 1799C2665 1799 2647 1711 2693 1656C2743 1597 2818 1621 2818 1621C2818 1621 2831 1577 2860 1563C2889 1549 2918 1562 2918 1562C2918 1562 2917 1456 2999 1459V1997H2466Z" fill="#932500"/>
<path d="M2782 1748L2780 1747C2776 1747 2772 1742 2773 1737C2773 1736 2779 1702 2812 1697C2825 1695 2837 1701 2845 1708C2849 1695 2859 1678 2878 1668C2914 1651 2947 1692 2949 1694C2952 1698 2951 1704 2947 1707C2943 1710 2938 1710 2935 1706C2934 1705 2909 1674 2886 1685C2861 1697 2858 1727 2858 1728C2858 1731 2855 1735 2852 1736C2848 1737 2844 1735 2842 1732C2842 1732 2829 1712 2814 1715C2795 1718 2791 1739 2791 1740C2790 1744 2786 1748 2782 1748Z" fill="#D5000D"/>
<path d="M2942 1818H2939C2935 1817 2932 1812 2933 1807V1805C2934 1803 2935 1793 2925 1788C2916 1784 2908 1796 2908 1797C2905 1801 2899 1803 2895 1800C2891 1798 2890 1792 2892 1788C2898 1778 2913 1763 2933 1772C2953 1781 2953 1804 2950 1812C2949 1816 2945 1818 2942 1818Z" fill="#D5000D"/>
<path d="M2635 1997C2635 1997 2629 1968 2643 1943C2657 1918 2685 1919 2685 1919C2685 1919 2665 1847 2725 1824C2778 1803 2808 1845 2808 1845C2808 1845 2845 1815 2875 1833C2907 1851 2900 1889 2900 1889C2900 1889 2950 1857 2982 1875C3000 1888 2999 1940 2999 1940V1997H2635Z" fill="#D5000D"/>
<path d="M2742 1959C2739 1959 2736 1958 2734 1955C2727 1943 2718 1916 2738 1898C2754 1882 2774 1887 2787 1895C2794 1886 2807 1877 2822 1882C2842 1888 2845 1909 2844 1920C2843 1925 2839 1929 2834 1928C2829 1927 2825 1923 2826 1918C2826 1917 2828 1902 2817 1899C2805 1896 2797 1912 2797 1912L2790 1917L2783 1915C2782 1914 2764 1898 2750 1911C2737 1923 2749 1945 2750 1945C2752 1949 2751 1955 2747 1958L2742 1959Z" fill="#932500"/>
<path d="M2418 1998L2363 1999H2353L2311 2000C2311 2000 2284 1765 2466 1740C2466 1740 2361 1791 2418 1998Z" fill="#570000"/>
<path d="M2415 1998C2415 1998 2436 1846 2543 1864C2543 1864 2457 1882 2473 1998H2415Z" fill="#570000"/>
<path d="M2344 1998H2269C2269 1998 2300 1927 2243 1899C2185 1872 2259 1876 2259 1876C2259 1876 2347 1882 2344 1998Z" fill="#932500"/>
<path d="M2344 1998C2344 1998 2354 1926 2299 1880C2243 1834 2163 1866 2188 1951C2188 1951 2215 1901 2267 1901C2319 1901 2342 1935 2344 1998Z" fill="#570000"/>
<path d="M2308 1982V1995L2307 1998H2300L2301 1994V1988L2302 1982V1963C2301 1954 2300 1946 2297 1938L2295 1932L2294 1929L2292 1926L2285 1916L2293 1925L2295 1928L2296 1931L2299 1937C2303 1945 2305 1953 2306 1962L2307 1969L2308 1975V1982Z" fill="#570000"/>
<path d="M2431 1998H2373C2373 1998 2373 1878 2466 1861C2466 1861 2418 1897 2431 1998Z" fill="#932500"/>
<path d="M2407 1934L2402 1956L2399 1979V1998H2395V1990L2396 1984V1981L2397 1978L2401 1956L2407 1934Z" fill="#570000"/>
<path d="M2382 1809C2378 1818 2375 1828 2373 1837L2366 1867C2362 1886 2360 1907 2360 1927V1972L2361 1979L2362 1987L2363 1999H2353L2352 1988V1957L2353 1926C2355.74 1895.77 2361.78 1865.92 2371 1837L2382 1809Z" fill="#932500"/>
<path d="M2999 1997H2970C2970 1997 2962 1965 2999 1917V1913V1997Z" fill="#570000"/>
<path d="M2953 1997H2899C2861 1944 2832 1960 2836 1915C2839 1870 2895 1872 2924 1907L2927 1912C2952 1946 2953 1997 2953 1997Z" fill="#570000"/>
<path d="M2999 1913V1917C2991 1938 2989 1962 2993 1997H2942C2942 1997 2923 1971 2927 1912L2928 1904C2934 1840 2973 1805 2999 1835V1913Z" fill="#570000"/>
<path d="M2965 1990L2966 1997H2958L2957 1991L2956 1982V1955L2959 1919L2961 1911L2963 1902L2970 1886L2965 1903L2963 1911L2962 1920C2961 1931 2960 1943 2961 1955V1964L2962 1972L2963 1977L2965 1990Z" fill="#932500"/>
<path d="M2999 1997H2995L2996 1996C3000 1971 2999 1956 2999 1997Z" fill="#932500"/>
<path d="M2931 1997H2923L2920 1985L2918 1979L2917 1976V1975L2916 1974L2911 1962L2905 1952L2902 1947L2898 1942L2894 1938L2892 1936L2891 1935L2890 1934C2887 1931 2884 1929 2880 1928L2891 1933L2892 1934L2893 1935L2895 1937L2900 1941L2904 1945L2908 1950L2915 1960L2921 1971V1972L2922 1974L2926 1982L2930 1994L2931 1997Z" fill="#932500"/>
<path d="M2522 1660C2522 1660 2523 1598 2497 1557C2479 1528 2424 1518 2385 1484C2385 1484 2399 1511 2426 1535C2453 1560 2448 1627 2522 1660Z" fill="#D5000D"/>
<path d="M2539 1702C2539 1702 2520 1660 2528 1612C2536 1563 2558 1543 2565 1501C2565 1501 2583 1547 2575 1595C2568 1642 2553 1648 2547 1670C2540 1691 2539 1702 2539 1702Z" fill="#D5000D"/>
<path d="M2554 1818L2556 1766C2556 1743 2592 1704 2623 1690C2623 1690 2607 1708 2597 1757C2587 1807 2578 1817 2551 1841C2551 1841 2551 1828 2554 1818Z" fill="#D5000D"/>
<path d="M2543 1752C2543 1752 2534 1703 2499 1681C2464 1660 2421 1637 2397 1608C2397 1608 2419 1671 2450 1704C2482 1737 2518 1735 2543 1752Z" fill="#D5000D"/>
<path d="M2583 1736C2583 1736 2569 1758 2567 1781C2565 1805 2552 1844 2552 1844L2553 1822C2553 1822 2558 1805 2560 1788C2563 1771 2564 1757 2583 1736Z" fill="#932500"/>
<path d="M2472 1681C2472 1681 2503 1703 2519 1717C2535 1730 2548 1757 2548 1757V1765C2548 1765 2535 1737 2515 1720L2472 1681Z" fill="#932500"/>
<path d="M2554 1582C2554 1582 2552 1600 2543 1626C2533 1654 2542 1716 2542 1716L2537 1697C2537 1697 2531 1664 2537 1636C2542 1614 2547 1608 2554 1582Z" fill="#932500"/>
<path d="M2485 1594L2491 1603L2496 1612L2501 1621L2504 1625L2506 1630C2514.95 1649.27 2522.96 1668.96 2530 1689L2536 1709L2539 1720L2541 1730L2544 1751C2548 1779 2549 1808 2548 1837V1858L2546 1880L2542 1923L2549 1880L2552 1859L2553 1837L2554 1794C2554 1779 2552 1764 2551 1750C2549 1736 2546 1721 2542 1707L2535 1687L2532 1677L2528 1667L2519 1647L2509 1628L2497 1611L2485 1594Z" fill="#932500"/>
<path d="M160 1708C160 1708 207 1691 252 1626C297 1560 301 1523 284 1512C262 1499 198 1549 198 1549C198 1549 273 1459 259 1423C244 1387 175 1450 175 1450C175 1450 231 1362 214 1337C198 1311 156 1383 156 1383C156 1383 195 1286 170 1266C146 1247 130 1306 130 1306C130 1306 112 1195 73.0002 1206C34.0002 1217 76.0002 1322 76.0002 1322C76.0002 1322 33.0002 1285 16.0002 1302C-13.9998 1334 71.0002 1384 71.0002 1384C71.0002 1384 8.00018 1359 0.000179946 1384C-6.99982 1410 76.0002 1461 76.0002 1461C76.0002 1461 13.0002 1424 1.00018 1457C-10.9998 1489 72.0002 1555 72.0002 1555C-96.9998 1542 100 1689 160 1708Z" fill="#570000"/>
<path d="M110 1319L122 1370L127 1396L132 1422L141 1474L149 1526L152 1553L154 1579L155 1592L156 1605L157 1618L158 1625V1632L159 1645V1724L158 1738L161 1711L162 1705V1698L163 1685L164 1631C163 1596 160 1560 156 1525L148 1473L138 1421L132 1395L129 1382L125 1369L118 1344L110 1319Z" fill="#932500"/>
<path d="M259 1551C238.326 1562.88 220.02 1578.48 205 1597C196 1606 188 1615 181 1625L179 1629L177 1630L176 1632L171 1640L166 1648L161 1656L168 1649L174 1642L185 1629L210 1603L234 1577L259 1551Z" fill="#932500"/>
<path d="M227 1453L205 1475L186 1500L169 1528L155 1557L164 1544L173 1531L191 1505C196 1496 203 1487 209 1479L227 1453Z" fill="#932500"/>
<path d="M187 1380L173 1398L161 1419C157 1426 153 1433 151 1440C147 1448 145 1455 143 1463L154 1442L165 1421L176 1401L187 1380Z" fill="#932500"/>
<path d="M158 1314L147 1333L138 1353L132 1374L128 1395L135 1375L142 1354L150 1334L158 1314Z" fill="#932500"/>
<path d="M161 1668C151 1658 141 1650 130 1642L96 1618L61 1598C49 1592 37 1586 25 1582L59 1604L93 1625L127 1647L161 1668Z" fill="#932500"/>
<path d="M154 1553L125 1530L95 1509L80 1500L72 1495L64 1491C54 1485 43 1480 32 1476L62 1496L92 1515L123 1535L154 1553Z" fill="#932500"/>
<path d="M145 1464L123 1446L100 1430L77 1416L52 1405L75 1420L98 1435C113.072 1445.6 128.767 1455.28 145 1464Z" fill="#932500"/>
<path d="M127 1384L111 1371L94 1359L76 1349L58 1340L75 1352L92 1363L109 1374L127 1384Z" fill="#932500"/>
<path d="M534 1997C534 1997 545 1948 514 1897C474 1831 385 1862 385 1862C385 1862 383 1810 335 1799C335 1799 353 1711 306 1656C256 1597 182 1621 182 1621C182 1621 168 1577 140 1563C111 1549 82 1562 82 1562C82 1562 82 1456 0 1459L1 1549V1997H534Z" fill="#932500"/>
<path d="M218 1748L219 1747C224 1747 227 1742 227 1737C226 1736 221 1702 188 1697C174 1695 163 1701 155 1708C150 1695 141 1678 122 1668C85.9999 1651 51.9999 1692 50.9999 1694C47.9999 1698 48.9999 1704 51.9999 1707C55.9999 1710 61.9999 1710 64.9999 1706C64.9999 1705 90.9999 1674 114 1685C139 1697 141 1727 141 1728C142 1731 144 1735 148 1736C152 1737 156 1735 158 1732C158 1732 171 1712 185 1715C205 1718 209 1739 209 1740C210 1744 213 1748 218 1748Z" fill="#D5000D"/>
<path d="M58.0002 1818H60.0002C65.0002 1817 68.0002 1812 67.0002 1807L66.0002 1805C66.0002 1803 65.0002 1793 74.0002 1788C84.0002 1784 91.0002 1796 92.0002 1797C95.0002 1801 100 1803 104 1800C109 1798 110 1792 107 1788C102 1778 86.0002 1763 67.0002 1772C46.0002 1781 47.0002 1804 49.0002 1812C51.0002 1816 55.0002 1818 58.0002 1818Z" fill="#D5000D"/>
<path d="M364 1997C364 1997 371 1968 357 1943C343 1918 315 1919 315 1919C315 1919 335 1847 275 1824C222 1803 192 1845 192 1845C192 1845 155 1815 124 1833C92 1851 100 1889 100 1889C100 1889 50 1857 17 1875C1 1893 1 1941 1 1941V1997H364Z" fill="#D5000D"/>
<path d="M258 1959C261 1959 264 1958 265 1955C273 1943 281 1916 262 1898C246 1882 226 1887 213 1895C206 1886 193 1877 177 1882C157 1888 155 1909 156 1920C156 1925 161 1929 166 1928C171 1927 174 1923 174 1918C174 1917 172 1902 182 1899C194 1896 203 1912 203 1912L209 1917L217 1915C218 1914 236 1898 250 1911C263 1923 250 1945 250 1945C248 1949 249 1955 253 1958L258 1959Z" fill="#932500"/>
<path d="M581 1998L636 1999H647L689 2000C689 2000 716 1765 534 1740C534 1740 639 1791 581 1998Z" fill="#570000"/>
<path d="M584 1998C584 1998 564 1846 456 1864C456 1864 543 1882 527 1998H584Z" fill="#570000"/>
<path d="M656 1998H731C731 1998 700 1927 757 1899C814 1872 741 1876 741 1876C741 1876 653 1882 656 1998Z" fill="#932500"/>
<path d="M656 1998C656 1998 645 1926 701 1880C757 1834 837 1866 811 1951C811 1951 784 1901 733 1901C681 1901 658 1935 656 1998Z" fill="#570000"/>
<path d="M692 1982V1998H700L699 1994V1991L698 1988V1982L697 1978V1969L698 1963C698 1954 700 1946 702 1938L705 1932L706 1929L708 1926L715 1916L707 1925L705 1928L703 1931L701 1937C697 1945 695 1953 693 1962L692 1969V1982Z" fill="#570000"/>
<path d="M568 1998H627C627 1998 627 1878 534 1861C534 1861 582 1897 568 1998Z" fill="#932500"/>
<path d="M592 1934L597 1956C599 1964 600 1971 600 1979V1982L601 1984V1998H605L604 1990V1984L603 1981V1978L599 1956L592 1934Z" fill="#570000"/>
<path d="M617 1809L627 1837C635.53 1866.24 639.906 1896.54 640 1927V1957L639 1972V1979L638 1987L636 1999H647V1988L648 1980V1957L646 1926C645 1906 641 1886 637 1866L629 1837C625 1827 622 1818 617 1809Z" fill="#932500"/>
<path d="M47 1997H101C138 1944 167 1960 164 1915C160 1870 104 1872 76 1907L72 1912C48 1946 47 1997 47 1997Z" fill="#570000"/>
<path d="M1 1915V1997H57C57 1997 76 1971 72 1912V1904C65 1840 27 1805 0 1836L1 1915Z" fill="#570000"/>
<path d="M35 1990L33 1997H42L43 1991V1982L44 1977V1955C44 1943 43 1931 40 1919L39 1911L36 1902L30 1886L35 1903L37 1911L38 1920L39 1955L38 1964L37 1972V1977L35 1990Z" fill="#932500"/>
<path d="M68 1997H76L80 1985L82 1979L83 1976V1975L84 1974L89 1962L94 1952L98 1947L101 1942L105 1938L107 1936L109 1935L110 1934L119 1928L109 1933L108 1934L107 1935L104 1937L100 1941L96 1945L92 1950L85 1960L79 1971L78 1972V1974L74 1982L69 1994L68 1997Z" fill="#932500"/>
<path d="M478 1660C478 1660 476 1598 502 1557C521 1528 576 1518 614 1484C614 1484 600 1511 574 1535C547 1560 552 1627 478 1660Z" fill="#D5000D"/>
<path d="M461 1702C461 1702 479 1660 471 1612C463 1563 442 1543 435 1501C435 1501 416 1547 424 1595C432 1642 446 1648 453 1670C460 1691 461 1702 461 1702Z" fill="#D5000D"/>
<path d="M446 1818C446 1818 443 1790 443 1766C443 1743 408 1704 376 1690C376 1690 393 1708 403 1757C412 1807 421 1817 449 1841C449 1841 449 1828 446 1818Z" fill="#D5000D"/>
<path d="M456 1752C456 1752 466 1703 501 1681C536 1660 578 1637 602 1608C602 1608 580 1671 549 1704C518 1737 482 1735 456 1752Z" fill="#D5000D"/>
<path d="M417 1736C417 1736 431 1758 432 1781C434 1805 448 1844 448 1844L447 1822L439 1788C437 1771 435 1757 417 1736Z" fill="#932500"/>
<path d="M528 1681C528 1681 496 1703 480 1717C465 1730 451 1757 451 1757L452 1765C452 1765 465 1737 485 1720L528 1681Z" fill="#932500"/>
<path d="M446 1582C446 1582 447 1600 456 1626C466 1654 457 1716 457 1716L462 1697C462 1697 469 1664 462 1636C457 1614 452 1608 446 1582Z" fill="#932500"/>
<path d="M515 1594L509 1603L504 1612L499 1621L496 1625L494 1630C487 1643 482 1656 477 1669L470 1689C467 1696 465 1702 464 1709L461 1720L459 1730L455 1751C452 1779 451 1808 451 1837V1842L452 1848V1858L453 1880L458 1923C454 1909 452 1895 450 1880L448 1859L446 1837V1794C445.918 1764.58 449.957 1735.3 458 1707L464 1687L468 1677L472 1667L481 1647L491 1628L502 1611L515 1594Z" fill="#932500"/>
<path d="M2294 1395C2268 1389 2252 1393 2243 1400C2238 1404 2235 1410 2235 1416L2218 1421L2219 1422L2235 1420L2239 1429C2245 1438 2261 1451 2293 1454C2329 1456 2342 1442 2366 1441C2366 1441 2341 1405 2294 1395Z" fill="#932500"/>
<path d="M2245 1391C2236 1398 2234 1411 2241 1420C2247 1430 2262 1443 2295 1445C2331 1448 2343 1433 2368 1432C2368 1432 2342 1397 2295 1386C2270 1381 2254 1385 2245 1391Z" fill="#D5000D"/>
<path d="M2220 1412L2237 1408L2241 1407L2245 1406L2253 1405H2296L2304 1407L2312 1408L2316 1410L2321 1411C2331 1414 2342 1419 2352 1425V1426H2351C2341 1421 2330 1418 2320 1415L2303 1412L2295 1411L2287 1410H2254L2220 1413V1412Z" fill="#570000"/>
<path d="M2250 1407V1408L2251 1409L2252 1410L2254 1413L2255 1414L2256 1415L2257 1416L2260 1418L2274 1426H2276L2277 1427L2281 1428L2285 1429L2288 1430L2296 1431L2304 1432L2305 1433L2304 1434H2296L2288 1433L2284 1432L2280 1431L2277 1430L2275 1429H2273L2258 1421L2255 1419L2254 1417H2253L2252 1416L2249 1413L2248 1411L2247 1409V1406L2250 1407Z" fill="#570000"/>
<path d="M2289 1397L2282 1398L2274 1400L2268 1403L2265 1406L2263 1408V1409H2260L2259 1406V1405L2263 1402L2266 1400C2268 1399 2271 1397 2274 1397L2281 1395H2289L2290 1396L2289 1397Z" fill="#570000"/>
<path d="M2311 1402L2307 1403L2303 1404L2300 1405L2297 1408H2295V1405L2298 1403L2302 1401H2306L2310 1400L2311 1401V1402Z" fill="#570000"/>
<path d="M2286 1405L2287 1406L2288 1408L2289 1409L2290 1410L2291 1411H2292L2294 1413L2304 1419L2307 1420L2309 1421L2314 1423L2317 1424L2320 1425L2325 1426L2326 1427L2325 1428L2319 1427L2317 1426H2314L2308 1424L2306 1423L2303 1422L2293 1416L2290 1414L2289 1413L2288 1412L2287 1411L2286 1410L2285 1409L2283 1408L2284 1405H2286Z" fill="#570000"/>
<path d="M829 1708C810 1705 799 1709 793 1714C789 1717 787 1722 788 1726H787L776 1730V1731L788 1729L791 1735C796 1742 807 1751 831 1751C857 1751 866 1740 883 1738C883 1738 864 1714 829 1708Z" fill="#932500"/>
<path d="M794 1708C788 1713 787 1723 792 1729C797 1735 808 1744 832 1744C858 1745 867 1734 884 1732C884 1732 865 1707 830 1702C811 1699 800 1703 794 1708Z" fill="#D5000D"/>
<path d="M777 1724L789 1720L791 1719H794L801 1717L825 1715L831 1716H837L843 1717L846 1718H849C857 1720 865 1723 872 1728C865 1725 857 1723 849 1722L837 1720H825C817 1719 809 1720 801 1721L777 1725V1724Z" fill="#570000"/>
<path d="M798 1719V1720H799V1721L801 1723L802 1724H803L804 1725L806 1727L816 1731L817 1732H819L821 1733H824L827 1734H838L839 1735L838 1736H827L824 1735H821L818 1734H815L805 1729L802 1727L801 1726L800 1725L798 1723L797 1722L796 1720V1719H798Z" fill="#570000"/>
<path d="M826 1710L821 1711L816 1713C814 1713 812 1714 811 1716L809 1717L807 1719L805 1720V1717L807 1715L810 1713L815 1710L820 1709L826 1708L827 1709L826 1710Z" fill="#570000"/>
<path d="M842 1713H839L836 1714L834 1716L832 1717L831 1718L830 1716L833 1714L836 1712H839L842 1711V1713Z" fill="#570000"/>
<path d="M824 1716L825 1717L826 1718H827V1719L828 1720H829L831 1721L838 1725L840 1726L842 1727L845 1728H847L849 1729H853L854 1730L853 1731L849 1730H845L841 1729L839 1728L837 1727L829 1724L828 1722H827L826 1721L825 1720H824L823 1719L822 1718L823 1716H824Z" fill="#570000"/>
<path d="M1692 1462C1724 1457 1744 1463 1755 1472C1762 1478 1765 1486 1764 1494L1785 1501L1784 1502L1764 1498L1759 1509C1750 1520 1730 1536 1689 1536C1644 1536 1629 1517 1598 1514C1598 1514 1632 1472 1692 1462Z" fill="#932500"/>
<path d="M1754 1462C1764 1470 1765 1487 1757 1498C1748 1510 1728 1525 1687 1525C1642 1526 1627 1507 1596 1504C1596 1504 1630 1461 1690 1452C1723 1446 1743 1453 1754 1462Z" fill="#D5000D"/>
<path d="M1783 1490L1763 1483L1757 1482L1752 1480L1742 1478C1728 1476 1713 1475 1699 1475H1689L1678 1476L1667 1478L1662 1479L1657 1480C1643 1483 1629 1489 1617 1496V1497C1636.83 1489.18 1657.74 1484.46 1679 1483L1689 1482H1699C1727.18 1482.99 1755.25 1486 1783 1491V1490Z" fill="#570000"/>
<path d="M1746 1481V1482L1745 1483L1744 1485L1740 1488L1739 1489L1738 1490L1736 1492L1732 1494C1727 1498 1721 1500 1715 1502L1713 1503L1710 1504L1706 1505L1701 1506L1696 1507H1686L1677 1508L1675 1509L1677 1511H1687L1696 1510L1701 1509H1706L1711 1508L1713 1507L1716 1506C1722 1504 1728 1502 1734 1498L1739 1495L1741 1494L1742 1493L1743 1492L1746 1488L1748 1486L1750 1483L1749 1480L1746 1481Z" fill="#570000"/>
<path d="M1697 1465L1707 1467L1716 1470L1724 1475L1727 1478L1730 1482L1734 1483V1478L1730 1474L1726 1471L1717 1466L1707 1464L1697 1462L1696 1464L1697 1465Z" fill="#570000"/>
<path d="M1670 1470L1675 1471L1679 1473L1683 1475L1687 1478C1687 1479 1689 1480 1690 1479V1475L1685 1472L1680 1470L1675 1468H1670L1669 1469L1670 1470Z" fill="#570000"/>
<path d="M1700 1476L1699 1477L1698 1479L1697 1480L1695 1481L1694 1482L1693 1483L1690 1485L1677 1492L1674 1493L1671 1494L1664 1496L1660 1497L1657 1498L1650 1499L1649 1500L1650 1501L1657 1500H1661L1664 1499L1671 1498L1675 1497L1678 1496L1692 1489L1695 1487L1696 1486L1698 1485L1699 1484L1701 1482L1702 1481L1704 1479V1476H1700Z" fill="#570000"/>
<path d="M729 1426C696 1433 679 1447 671 1460C667 1467 666 1476 669 1483L652 1498V1499L671 1487C673 1491 676 1494 679 1496C692 1503 715 1511 755 1495C798 1478 807 1454 835 1439C835 1439 789 1412 729 1426Z" fill="#932500"/>
<path d="M669 1448C662 1461 666 1478 678 1485C690 1492 714 1499 753 1484C797 1467 805 1443 833 1428C833 1428 787 1401 727 1414C694 1422 677 1436 669 1448Z" fill="#D5000D"/>
<path d="M650 1487L667 1472L672 1469L677 1466L686 1460C699 1452 712 1446 726 1440L736 1437L747 1434L757 1431L763 1430L768 1429C782 1427 797 1427 811 1429H812L811 1430C797 1430 783 1432 769 1435L748 1440L738 1443L728 1447C714 1452 701 1459 688 1465L651 1488L650 1487Z" fill="#570000"/>
<path d="M682 1464L683 1465L684 1466L686 1467L691 1469H692L693 1470L695 1471L700 1472L719 1473H722L724 1472H729L734 1471L739 1469L748 1467L758 1463L760 1464L759 1466L749 1470L739 1473L735 1474L730 1475L725 1476L722 1477H720L699 1476L694 1475L692 1474H690L689 1473L684 1471L682 1470L680 1468L679 1465C680 1464 681 1463 682 1464Z" fill="#570000"/>
<path d="M724 1430L716 1435L709 1442L702 1450L700 1454L698 1459L695 1461L693 1457L696 1452C696 1450 697 1448 699 1447L706 1439L714 1432L723 1428H725L724 1430Z" fill="#570000"/>
<path d="M752 1424L748 1427L744 1431L741 1434L739 1439C738 1440 737 1441 736 1440C735 1440 734 1439 735 1437L738 1432L742 1428L747 1425L751 1422L753 1423L752 1424Z" fill="#570000"/>
<path d="M725 1442L727 1443H728L730 1444L731 1445H733L735 1446L738 1447L752 1448H759L766 1447H770L773 1446L780 1444L782 1445L781 1447L774 1449L770 1450H767L760 1451L756 1452H752L737 1451L734 1450H732L730 1449H728L726 1448L725 1447L723 1446C722 1446 721 1444 722 1443C722 1442 724 1441 725 1442Z" fill="#570000"/>
<path d="M2285 1658C2308 1656 2322 1661 2329 1668C2333 1671 2335 1677 2335 1683L2349 1689L2334 1686L2330 1693C2323 1701 2309 1711 2280 1710C2248 1708 2238 1695 2217 1691C2217 1691 2242 1663 2285 1658Z" fill="#932500"/>
<path d="M2328 1660C2335 1666 2336 1678 2329 1686C2323 1693 2308 1704 2279 1702C2247 1701 2237 1687 2216 1684C2216 1684 2241 1655 2284 1650C2307 1648 2321 1653 2328 1660Z" fill="#FF6700"/>
<path d="M2348 1681L2334 1675L2330 1674L2327 1673L2319 1671L2289 1667H2274L2267 1668L2263 1669H2259C2249 1671 2240 1674 2231 1679C2240 1676 2250 1674 2260 1673L2275 1672H2289L2319 1675L2348 1681Z" fill="#932500"/>
<path d="M2322 1673V1674L2321 1675L2320 1676L2318 1678L2317 1679H2316L2315 1680L2312 1682L2300 1687L2298 1688H2296L2293 1689H2286L2279 1690L2273 1689H2272L2271 1690L2272 1692H2290L2293 1691H2297L2298 1690H2300L2313 1685L2317 1683L2318 1682L2319 1681H2320L2322 1678L2324 1677L2325 1675V1673H2322Z" fill="#932500"/>
<path d="M2288 1660L2295 1662L2301 1664L2307 1668L2309 1670L2311 1673L2313 1674C2314 1673 2315 1672 2314 1671L2311 1668L2308 1665L2302 1662L2295 1659L2289 1658L2288 1659V1660Z" fill="#932500"/>
<path d="M2269 1662L2272 1663L2275 1665L2278 1667L2280 1669L2283 1670V1667L2280 1664L2276 1663L2273 1662L2269 1661L2268 1662H2269Z" fill="#932500"/>
<path d="M2290 1668L2289 1669L2288 1670L2287 1671H2286L2285 1672L2284 1673L2282 1674L2273 1678L2271 1679L2269 1680L2264 1681H2261L2259 1682H2254L2253 1683L2254 1684H2259L2262 1683H2264L2269 1682H2272L2274 1681L2284 1677L2286 1676L2287 1675L2288 1674L2289 1673L2290 1672H2291L2292 1671V1668H2290Z" fill="#932500"/>
<path d="M1345 1828C1312 1827 1293 1835 1284 1845C1278 1851 1276 1860 1277 1867L1258 1877L1278 1871C1279 1875 1281 1879 1284 1882C1294 1892 1315 1904 1355 1900C1399 1895 1412 1874 1441 1868C1441 1868 1404 1830 1345 1828Z" fill="#932500"/>
<path d="M1284 1835C1275 1844 1275 1861 1285 1871C1295 1881 1315 1893 1355 1889C1400 1884 1412 1863 1442 1857C1442 1857 1404 1819 1345 1817C1313 1816 1294 1824 1284 1835Z" fill="#FF6700"/>
<path d="M1259 1866C1265 1862 1271 1859 1278 1857L1283 1855L1288 1853L1298 1850C1311 1845 1325 1843 1339 1841L1349 1840H1370L1375 1841H1380C1394 1843 1408 1846 1421 1852V1853C1407 1849 1394 1847 1380 1847L1360 1846L1349 1847L1339 1848L1299 1855C1285 1858 1272 1862 1259 1867L1258 1866H1259Z" fill="#932500"/>
<path d="M1293 1853L1294 1854H1295L1296 1856L1300 1859L1301 1860L1302 1861L1304 1862L1308 1864L1326 1870H1328L1331 1871H1340L1345 1872L1354 1871L1364 1870L1365 1872C1366 1873 1365 1873 1364 1874L1355 1875H1335L1330 1874H1326C1319 1873 1313 1871 1307 1868L1302 1866L1300 1864H1299L1298 1863L1294 1860L1292 1858L1290 1856V1852L1293 1853Z" fill="#932500"/>
<path d="M1340 1831L1331 1834L1322 1838L1315 1844L1312 1848L1309 1852L1306 1853C1305 1852 1304 1850 1305 1849L1308 1844L1312 1840L1321 1835L1330 1831L1339 1829L1341 1830L1340 1831Z" fill="#932500"/>
<path d="M1367 1833L1362 1834L1358 1837C1356 1837 1355 1838 1354 1840L1351 1843L1348 1844V1840L1352 1836L1357 1834L1361 1832L1366 1831L1367 1832V1833Z" fill="#932500"/>
<path d="M1338 1842L1339 1844L1340 1845L1342 1846L1343 1847L1344 1848H1346L1349 1850L1362 1855L1365 1856L1368 1857L1375 1858H1389L1390 1860L1389 1861H1375L1368 1860L1364 1859H1361L1347 1854L1344 1853L1342 1852L1341 1851L1339 1850L1338 1849L1336 1847L1335 1846L1334 1843C1335 1842 1337 1841 1338 1842Z" fill="#932500"/>
<path d="M898 1552C896 1550 893 1551 892 1553L889 1559L887 1564L885 1570V1576L886 1577H887L889 1572L891 1567L894 1563L898 1560L899 1559C900 1557 900 1554 898 1552Z" fill="#D5000D"/>
<path d="M882 1565L880 1559L877 1553L876 1552C874 1551 871 1551 870 1553C868 1556 869 1559 871 1560L874 1563L877 1567L880 1572L882 1577H884L883 1571L882 1565Z" fill="#D5000D"/>
<path d="M1349 1428C1347 1426 1344 1426 1343 1429H1342L1339 1435L1337 1442L1335 1448V1456L1336 1455H1337L1339 1450L1342 1444L1345 1440L1349 1436L1350 1435C1352 1433 1351 1430 1349 1428Z" fill="#E54000"/>
<path d="M1331 1442L1329 1435L1325 1429L1324 1428C1322 1426 1319 1427 1317 1429C1316 1432 1317 1435 1319 1437L1323 1440L1326 1445L1329 1450L1331 1456H1332L1333 1455V1449L1331 1442Z" fill="#E54000"/>
<path d="M1993 1517C1991 1515 1988 1515 1987 1518L1983 1524L1981 1531L1979 1537V1545L1981 1544L1983 1539L1986 1533L1989 1529L1993 1525L1994 1524C1996 1522 1996 1519 1993 1517Z" fill="#D5000D"/>
<path d="M1975 1531L1973 1524L1970 1518H1969L1968 1517C1966 1515 1963 1516 1962 1518C1960 1521 1961 1524 1963 1526L1967 1529L1970 1534L1973 1539L1975 1545H1976L1977 1544V1538L1975 1531Z" fill="#D5000D"/>
<path d="M1627 1669C1624 1666 1619 1667 1617 1670L1611 1680L1608 1690L1606 1700L1605 1709L1606 1711L1608 1710L1611 1701L1616 1694L1621 1687L1626 1682L1628 1680C1631 1677 1630 1672 1627 1669Z" fill="#E54000"/>
<path d="M1600 1690L1597 1680L1592 1671L1591 1670L1590 1669C1586 1666 1582 1667 1580 1671C1578 1675 1579 1680 1582 1682L1588 1687L1593 1694L1597 1702L1600 1710L1602 1711L1603 1710L1602 1700L1600 1690Z" fill="#E54000"/>
<path d="M2106 1923C2104 1922 2101 1922 2099 1924L2095 1931L2092 1938L2091 1945V1953H2092L2095 1947L2098 1941L2101 1936L2105 1933L2107 1931C2108 1929 2108 1925 2106 1923Z" fill="#FF6700"/>
<path d="M2087 1938L2085 1931L2081 1925L2079 1923C2077 1922 2074 1922 2072 1925C2071 1928 2072 1931 2074 1933L2078 1936L2082 1941L2085 1947L2087 1953L2088 1954L2089 1952L2088 1945L2087 1938Z" fill="#FF6700"/>
<path d="M533 1351C530 1349 525 1349 523 1353L518 1362L514 1372L512 1382L511 1392L512 1394L514 1393L518 1384L522 1376L527 1369L532 1364L534 1363C537 1359 536 1354 533 1351Z" fill="#D5000D"/>
<path d="M506 1373C506 1369 504 1366 503 1363L498 1353H497L496 1351C492 1349 488 1350 486 1354C484 1357 485 1362 488 1365L494 1370L499 1376L503 1384L506 1393L508 1394L509 1392L508 1382L506 1373Z" fill="#D5000D"/>
<path d="M2683 1431C2680 1429 2675 1429 2673 1433L2667 1442L2664 1452L2662 1462L2661 1472L2662 1474L2664 1473L2667 1464L2672 1456L2677 1449L2682 1444L2684 1443C2687 1439 2686 1434 2683 1431Z" fill="#D5000D"/>
<path d="M2656 1453L2653 1443L2648 1433H2647L2646 1431C2642 1429 2638 1430 2636 1434C2634 1437 2635 1442 2638 1445L2644 1450L2649 1456L2653 1464L2656 1473L2658 1474L2659 1472L2658 1462L2656 1453Z" fill="#D5000D"/>
<path d="M1037 1919C1039 1917 1042 1918 1044 1920L1048 1928L1051 1935L1052 1942L1053 1950L1052 1951L1051 1950L1048 1944L1045 1938L1041 1933L1037 1929L1036 1928C1034 1925 1034 1921 1037 1919Z" fill="#FF6700"/>
<path d="M1048 1916L1047 1914C1046 1911 1048 1908 1051 1907C1053 1906 1056 1908 1057 1911L1059 1921V1941L1058 1950L1057 1951L1056 1950L1055 1941L1053 1932L1051 1923L1048 1916Z" fill="#FF6700"/>
<path d="M1062 1936L1065 1928L1069 1921L1070 1920C1073 1918 1076 1919 1078 1922C1079 1925 1079 1928 1076 1930L1072 1934L1068 1939L1065 1945L1062 1951L1061 1952L1060 1951L1061 1943L1062 1936Z" fill="#FF6700"/>
<path d="M2034 1306C2037 1303 2042 1304 2044 1307L2045 1308L2050 1317L2054 1328L2056 1338V1348L2055 1350L2054 1349L2050 1340L2046 1332L2041 1325L2035 1319L2033 1318C2030 1314 2031 1309 2034 1306Z" fill="#D5000D"/>
<path d="M2049 1301L2048 1299C2047 1295 2049 1290 2053 1289C2057 1287 2061 1290 2062 1294L2065 1309V1322L2064 1336L2063 1349L2062 1350L2060 1349L2059 1336L2056 1323L2053 1311L2049 1301Z" fill="#D5000D"/>
<path d="M2069 1329L2073 1319L2078 1309L2080 1307C2084 1304 2088 1306 2090 1309C2093 1313 2092 1318 2088 1321L2082 1326L2077 1333L2073 1341L2069 1350L2068 1351L2066 1349L2067 1339L2069 1329Z" fill="#D5000D"/>
<path d="M1088 1321C1086 1320 1084 1320 1082 1322L1079 1328L1077 1334L1076 1339L1075 1345L1076 1346H1077L1079 1341L1082 1336L1085 1332L1088 1329L1089 1328C1090 1326 1090 1323 1088 1321Z" fill="#D5000D"/>
<path d="M1080 1318V1317C1081 1315 1080 1312 1077 1311C1075 1311 1073 1312 1072 1314V1315L1071 1323L1070 1331L1071 1338L1072 1346V1347L1073 1346L1074 1338L1075 1331L1077 1324L1080 1318Z" fill="#D5000D"/>
<path d="M1068 1334L1066 1329L1063 1323L1062 1322C1060 1320 1057 1321 1056 1323C1055 1325 1055 1328 1057 1330L1061 1333L1064 1337L1066 1341L1068 1346L1069 1347L1070 1346L1069 1340L1068 1334Z" fill="#D5000D"/>
<path d="M1130 1672C1132 1671 1135 1671 1136 1673L1140 1679L1142 1684L1143 1690V1697H1142V1696L1140 1691L1137 1687L1134 1683L1131 1680L1130 1679C1128 1677 1129 1674 1130 1672Z" fill="#D5000D"/>
<path d="M1139 1669V1668C1138 1666 1139 1663 1141 1662C1144 1661 1146 1663 1147 1665L1148 1674V1689L1147 1697H1146L1145 1689L1143 1682L1142 1675L1139 1669Z" fill="#D5000D"/>
<path d="M1151 1685L1153 1679L1156 1674L1157 1673C1159 1671 1162 1672 1163 1674C1164 1676 1163 1679 1162 1680L1158 1683L1155 1687L1153 1692L1151 1697L1150 1698L1149 1697L1150 1691L1151 1685Z" fill="#D5000D"/>
<path d="M2005 1727C2002 1724 1998 1725 1995 1728L1990 1738L1986 1748L1985 1758L1984 1767L1985 1769L1986 1768L1990 1759L1994 1752L1999 1745L2005 1740L2006 1738C2009 1735 2008 1730 2005 1727Z" fill="#FF6700"/>
<path d="M1991 1722V1720C1993 1716 1991 1712 1987 1710C1983 1709 1979 1711 1978 1715V1716L1976 1730L1975 1743L1976 1756L1977 1768L1978 1769C1979 1770 1980 1769 1980 1768L1981 1756L1984 1744L1987 1732L1991 1722Z" fill="#FF6700"/>
<path d="M1971 1749L1968 1739L1963 1730L1962 1729L1961 1728C1957 1725 1953 1726 1951 1730C1949 1734 1950 1739 1953 1741L1959 1746L1964 1753L1968 1761L1971 1769L1973 1770L1974 1769L1973 1759L1971 1749Z" fill="#FF6700"/>
<path d="M1731 1882C1729 1880 1726 1881 1724 1883L1720 1890L1718 1897L1716 1904V1912H1718L1720 1905L1723 1900L1727 1895C1728 1894 1729 1892 1731 1892L1732 1890C1734 1888 1733 1884 1731 1882Z" fill="#FF6700"/>
<path d="M1721 1879V1877C1722 1874 1721 1871 1718 1870C1715 1869 1713 1871 1712 1874L1710 1884V1903L1711 1912L1712 1913L1713 1912L1714 1903L1716 1894L1718 1886L1721 1879Z" fill="#FF6700"/>
<path d="M1707 1898L1705 1891L1701 1884L1699 1883C1697 1881 1694 1882 1692 1885C1691 1887 1692 1891 1694 1892L1698 1896L1701 1901L1705 1906L1707 1912L1708 1913L1709 1912L1708 1905L1707 1898Z" fill="#FF6700"/>
<path d="M2663 1624C2661 1622 2658 1623 2657 1625L2653 1631L2651 1636L2650 1642V1649L2651 1648L2653 1643L2656 1639L2659 1635L2662 1632L2663 1631C2665 1629 2664 1626 2663 1624Z" fill="#FF6700"/>
<path d="M2654 1621V1620C2655 1618 2654 1615 2652 1614C2649 1613 2647 1615 2646 1617L2645 1626V1641L2646 1649H2648V1641L2650 1634L2651 1627L2654 1621Z" fill="#FF6700"/>
<path d="M2642 1637L2640 1631C2640 1629 2638 1627 2637 1626L2636 1625C2634 1623 2631 1624 2630 1626C2629 1628 2630 1631 2632 1632L2635 1635L2638 1639L2640 1644L2642 1649L2643 1650L2644 1649V1643L2642 1637Z" fill="#FF6700"/>
</g>
<defs>
<clipPath id="clip0_1244_2779">
<rect width="3000" height="2000" fill="white"/>
</clipPath>
</defs>
</svg>
