<?xml version="1.0" encoding="UTF-8" ?>
<!DOCTYPE svg PUBLIC "-//W3C//DTD SVG 1.1//EN" "http://www.w3.org/Graphics/SVG/1.1/DTD/svg11.dtd">
<svg width="1000pt" height="1000pt" viewBox="0 0 1000 1000" version="1.1" xmlns="http://www.w3.org/2000/svg">
<path fill="#8f828b" d="M 0 0 L 1000 0 L 1000 1000 L 0 1000 L 0 0 Z" />
<path fill="#000000" d="M 868 111 C 876 107 884 105 892 109 C 904 114 912 125 919 135 C 927 149 935 163 936 179 C 937 192 934 205 927 215 C 934 218 939 225 939 233 C 940 246 932 259 922 267 C 923 287 922 307 915 326 C 910 341 901 355 890 367 C 876 381 859 392 841 400 C 836 416 828 430 819 443 C 801 467 779 487 755 504 C 733 521 708 534 682 545 C 701 569 718 595 730 624 C 736 638 740 654 738 669 C 737 683 728 695 717 703 C 706 710 693 711 680 710 C 662 708 645 701 629 692 C 625 695 621 698 617 699 C 617 701 618 704 617 706 C 616 709 613 709 611 710 C 611 712 611 714 611 715 C 614 717 616 719 616 723 C 616 726 613 728 610 729 C 608 743 605 756 597 768 C 591 775 582 780 573 781 C 563 782 552 780 544 773 C 535 763 531 749 528 736 C 523 710 524 684 528 658 C 531 643 534 627 542 614 C 547 603 559 596 571 596 C 584 596 595 603 604 610 C 613 606 623 608 631 613 C 638 618 642 627 643 636 C 646 636 649 637 650 635 C 651 631 650 627 648 624 C 644 613 637 602 631 592 C 625 583 618 574 612 566 C 561 576 508 577 456 570 C 444 619 431 667 419 715 C 423 722 426 729 424 736 C 423 742 419 746 414 748 C 418 760 416 773 412 784 C 408 798 401 812 393 824 C 389 831 380 832 372 831 C 358 830 345 824 333 818 C 307 805 282 787 260 768 C 244 755 229 741 217 725 C 211 717 205 709 201 700 C 200 694 199 688 201 683 C 210 668 223 655 241 650 C 261 645 283 652 301 662 C 303 661 306 660 309 662 C 311 664 312 667 313 669 C 314 670 315 670 316 671 C 318 671 320 670 322 671 C 324 672 325 674 326 675 C 329 672 332 668 336 666 C 341 664 346 665 350 666 C 362 629 374 591 385 554 C 326 535 271 502 231 454 C 221 443 212 430 206 416 C 192 421 179 428 169 439 C 163 447 158 456 155 465 C 162 467 170 473 172 481 C 175 489 172 498 167 505 C 181 509 194 518 202 530 C 206 538 210 547 208 556 C 206 569 199 580 191 590 C 193 599 195 608 191 617 C 187 628 175 634 164 633 C 155 632 147 627 141 621 C 130 623 118 625 108 620 C 102 618 98 614 96 609 C 87 608 78 604 72 598 C 66 591 64 581 65 572 C 67 560 68 549 72 539 C 74 531 78 523 84 517 C 81 514 79 511 78 507 C 76 499 78 491 83 484 C 88 477 96 472 103 469 C 107 439 119 410 140 389 C 160 369 187 357 214 351 C 230 326 251 303 274 283 C 321 241 379 210 441 196 C 489 185 540 184 589 194 C 650 206 707 234 755 273 C 779 293 802 316 820 341 C 834 336 848 327 858 315 C 866 306 870 296 872 284 C 865 284 857 281 853 274 C 848 269 848 262 849 255 C 832 252 816 245 805 232 C 798 222 792 210 796 198 C 791 188 787 177 787 165 C 787 155 790 144 797 137 C 803 129 813 126 822 125 C 828 119 836 113 845 111 C 852 109 861 109 868 111 Z" />
<path fill="#fcf7d1" d="M 869 114 C 874 110 882 108 888 110 C 894 111 900 115 904 119 C 912 127 918 137 923 148 C 929 158 934 169 934 181 C 935 193 931 205 925 214 C 920 213 915 213 909 214 C 909 214 908 215 908 216 C 914 216 921 214 926 217 C 934 220 938 229 937 236 C 936 248 929 257 921 264 C 920 257 919 249 917 242 C 908 239 898 240 889 244 C 882 247 876 252 871 258 C 873 266 874 274 873 282 C 865 282 857 278 853 272 C 848 264 850 253 855 246 C 857 242 861 239 864 235 C 864 235 864 234 864 233 C 857 238 852 245 849 253 C 833 250 816 243 806 229 C 800 221 795 212 797 202 C 799 192 807 185 814 179 C 820 172 827 166 833 159 C 837 154 842 150 848 149 C 855 149 862 152 866 158 C 870 163 871 170 869 177 C 868 184 864 190 859 196 C 858 198 857 199 856 201 C 864 199 873 197 882 199 C 888 200 894 203 900 207 C 900 206 900 205 901 205 C 889 196 874 194 861 197 C 868 189 873 178 872 167 C 875 172 879 177 885 180 C 890 183 897 183 901 179 C 908 173 909 162 906 154 C 904 149 902 143 898 139 C 900 139 903 140 905 139 C 900 135 894 138 892 144 C 894 147 895 142 897 140 C 901 147 905 154 905 162 C 906 170 902 178 894 180 C 888 181 883 177 879 172 C 870 162 864 149 862 135 C 861 128 862 119 869 114 Z" />
<path fill="#fcf7d1" d="M 824 127 C 831 118 843 111 855 111 C 858 111 862 112 866 113 C 862 117 860 123 860 129 C 860 137 862 145 865 153 C 858 147 849 145 841 149 C 833 153 829 162 822 168 C 816 155 817 139 824 127 Z" />
<path fill="#000000" d="M 669 119 C 670 118 671 116 672 115 C 675 123 680 130 687 135 C 691 138 695 140 700 142 C 694 145 689 147 684 151 C 678 156 675 163 672 170 C 669 166 668 161 665 157 C 660 150 652 146 645 143 C 646 140 650 140 652 138 C 660 134 666 127 669 119 Z" />
<path fill="#f0c64e" d="M 672 120 C 676 130 684 138 695 142 C 684 147 676 155 672 165 C 668 155 659 147 649 142 C 659 138 668 130 672 120 Z" />
<path fill="#fcf7d1" d="M 800 137 C 805 131 813 128 821 127 C 815 140 814 156 820 169 C 812 177 803 185 797 195 C 792 185 789 173 789 162 C 790 152 793 143 800 137 Z" />
<path fill="#000000" d="M 253 163 C 256 161 258 157 260 153 C 262 157 263 161 266 164 C 269 166 273 168 276 170 C 271 172 265 176 262 181 C 261 183 261 185 259 186 C 258 183 256 179 254 177 C 251 174 247 172 243 170 C 247 168 251 166 253 163 Z" />
<path fill="#f0c64e" d="M 260 158 C 262 163 266 167 271 170 C 266 172 262 176 260 182 C 257 176 253 172 248 170 C 253 167 257 163 260 158 Z" />
<path fill="#000000" d="M 739 186 C 742 184 744 180 746 176 C 748 180 749 184 752 187 C 755 189 759 191 762 193 C 759 195 755 196 752 199 C 749 202 748 206 746 209 C 744 206 742 202 739 199 C 736 196 733 195 729 193 C 733 191 737 189 739 186 Z" />
<path fill="#f0c64e" d="M 746 181 C 748 186 753 190 758 193 C 753 195 748 199 746 205 C 743 199 739 195 734 193 C 739 190 743 186 746 181 Z" />
<path fill="#bb4c14" d="M 482 191 C 529 186 576 190 621 204 C 655 214 687 229 717 248 C 715 258 713 267 710 277 C 693 268 674 259 655 252 C 656 246 655 240 652 234 C 648 229 642 226 636 223 C 596 201 550 193 505 195 C 467 197 429 207 396 227 C 388 232 384 243 386 252 C 367 259 348 268 330 277 C 328 267 326 258 323 248 C 371 217 426 197 482 191 Z" />
<path fill="#8e3811" d="M 457 204 C 497 195 539 194 579 203 C 600 208 620 216 639 226 C 643 229 648 232 650 236 C 653 241 654 247 653 252 C 651 251 649 251 648 250 C 647 247 647 243 644 241 C 639 238 633 236 628 234 C 628 231 629 227 627 224 C 625 220 619 219 615 222 C 613 223 612 226 611 229 C 601 226 591 224 580 222 C 581 217 582 212 579 208 C 575 204 568 203 564 207 C 561 210 561 215 561 219 C 551 218 541 217 531 217 C 531 213 532 207 528 204 C 524 199 515 199 512 205 C 509 208 509 213 509 217 C 499 217 488 218 478 219 C 477 215 478 210 474 207 C 470 203 463 204 460 208 C 457 212 458 218 458 222 C 448 224 438 226 428 229 C 427 226 426 223 423 222 C 420 219 414 220 412 224 C 409 227 410 231 411 235 C 406 237 401 238 396 241 C 393 243 393 247 393 250 C 391 251 390 251 388 252 C 386 244 389 234 396 230 C 415 218 436 210 457 204 Z" />
<path fill="#fcf7d1" d="M 517 203 C 521 201 526 203 528 207 C 529 209 529 212 529 215 C 529 224 529 234 529 244 C 529 248 526 252 523 253 C 518 255 512 251 512 246 C 511 234 512 223 512 211 C 511 208 514 204 517 203 Z" />
<path fill="#fcf7d1" d="M 465 207 C 469 205 475 209 475 213 C 476 224 478 235 479 246 C 479 250 474 255 469 254 C 466 253 463 250 463 246 C 462 236 461 226 460 215 C 459 212 462 208 465 207 Z" />
<path fill="#fcf7d1" d="M 569 207 C 572 206 576 208 578 211 C 579 213 579 216 579 219 C 577 228 577 237 575 247 C 575 251 571 254 567 254 C 563 254 560 250 560 246 C 561 235 562 225 563 214 C 563 211 566 208 569 207 Z" />
<path fill="#fcf7d1" d="M 478 221 C 489 220 499 220 509 219 C 509 225 509 231 509 236 C 500 237 490 238 480 239 C 479 233 479 227 478 221 Z" />
<path fill="#fcf7d1" d="M 531 219 C 541 220 551 220 561 221 C 560 227 559 233 559 238 C 550 237 540 237 531 236 C 531 231 531 225 531 219 Z" />
<path fill="#fcf7d1" d="M 416 223 C 419 221 424 223 425 227 C 427 235 429 244 432 253 C 433 256 431 260 427 261 C 424 262 420 260 420 256 C 417 248 415 239 413 231 C 412 228 413 224 416 223 Z" />
<path fill="#fcf7d1" d="M 617 223 C 621 220 628 225 626 230 C 624 239 622 248 619 256 C 618 260 615 262 611 261 C 608 260 606 256 607 253 C 609 245 611 237 614 228 C 614 226 615 224 617 223 Z" />
<path fill="#fcf7d1" d="M 580 224 C 590 226 601 228 611 231 C 609 236 608 241 607 246 C 597 244 588 242 578 241 C 579 235 579 230 580 224 Z" />
<path fill="#fcf7d1" d="M 428 231 C 438 228 448 226 459 224 C 459 230 460 236 460 241 C 451 243 442 244 432 246 C 431 241 429 236 428 231 Z" />
<path fill="#000000" d="M 203 242 C 208 238 210 232 213 226 C 215 231 217 237 221 242 C 226 247 233 251 240 254 C 238 255 235 257 233 258 C 224 262 217 270 214 280 C 214 281 212 282 211 280 C 208 270 201 262 192 257 C 189 256 187 255 185 254 C 192 251 198 248 203 242 Z" />
<path fill="#f0c64e" d="M 190 254 C 200 250 208 241 213 231 C 217 242 225 250 235 254 C 225 258 217 267 213 277 C 208 267 200 258 190 254 Z" />
<path fill="#fcf7d1" d="M 397 243 C 402 240 407 239 412 237 C 413 241 414 246 416 250 C 411 251 406 253 401 254 C 396 254 393 247 397 243 Z" />
<path fill="#fcf7d1" d="M 623 250 C 624 245 626 241 627 236 C 632 238 637 240 642 243 C 645 244 646 248 645 251 C 643 253 640 254 638 253 C 633 252 628 251 623 250 Z" />
<path fill="#8e3811" d="M 481 242 C 490 241 500 240 509 240 C 509 245 509 250 512 254 C 516 259 525 258 529 253 C 532 249 531 244 531 240 C 540 240 549 241 558 242 C 558 246 557 250 560 254 C 564 258 571 258 575 254 C 577 252 578 248 578 244 C 587 246 596 248 606 249 C 605 253 604 257 606 260 C 608 264 614 266 618 263 C 621 261 622 257 623 253 C 628 254 633 256 639 257 C 642 258 645 255 647 252 C 649 253 650 253 652 254 C 650 259 648 265 642 269 C 638 272 633 273 628 272 C 587 264 545 262 503 263 C 473 264 443 266 413 272 C 407 273 400 271 395 266 C 392 263 390 258 389 254 C 390 253 392 253 393 252 C 395 255 398 258 401 257 C 406 256 411 255 416 254 C 417 257 418 261 421 263 C 425 266 431 264 433 260 C 435 257 434 253 433 250 C 442 248 451 246 461 245 C 461 248 461 252 464 255 C 468 258 475 258 479 254 C 481 250 481 246 481 242 Z" />
<path fill="#bb4c14" d="M 875 268 C 886 257 899 246 916 245 C 920 266 922 287 918 308 C 914 328 905 346 892 361 C 873 382 848 396 821 406 C 807 411 792 415 776 417 C 775 417 774 418 773 419 C 777 419 780 420 784 420 C 776 428 767 435 758 441 C 758 440 758 439 758 437 C 755 396 758 355 764 314 C 777 324 790 335 802 347 C 793 350 783 351 774 354 C 775 355 777 354 779 354 C 799 351 818 346 835 336 C 849 329 861 318 868 303 C 874 293 876 280 875 268 Z" />
<path fill="#fcf7d1" d="M 274 286 C 289 273 305 261 321 250 C 324 259 326 269 328 278 C 311 288 294 298 278 310 C 277 302 275 294 274 286 Z" />
<path fill="#fcf7d1" d="M 719 250 C 736 261 752 273 767 286 C 765 294 764 302 762 310 C 747 298 730 288 712 278 C 714 269 717 259 719 250 Z" />
<path fill="#bb4c14" d="M 330 279 C 349 270 367 261 387 254 C 388 259 390 263 393 266 C 397 272 405 275 413 274 C 457 266 502 264 546 265 C 571 266 595 269 619 272 C 624 273 629 274 633 274 C 641 273 647 269 651 263 C 652 260 653 257 654 254 C 673 261 692 270 710 279 C 697 344 692 410 702 475 C 672 489 640 499 607 505 C 565 513 522 515 480 511 C 431 508 383 496 339 475 C 339 475 339 473 339 472 C 348 408 344 343 330 279 Z" />
<path fill="#000000" d="M 464 272 C 471 271 478 272 484 275 C 485 276 487 277 488 279 C 489 280 487 282 486 281 C 481 278 475 275 470 276 C 464 276 459 278 454 281 C 453 283 450 279 452 278 C 455 275 460 273 464 272 Z" />
<path fill="#000000" d="M 566 272 C 573 271 582 273 587 278 C 587 280 585 282 584 281 C 579 277 573 275 566 276 C 561 276 557 279 553 281 C 551 283 549 279 551 278 C 555 274 560 272 566 272 Z" />
<path fill="#fcf7d1" d="M 278 313 C 294 301 311 290 328 280 C 344 354 347 431 331 505 C 313 496 297 485 281 473 C 289 420 287 366 278 313 Z" />
<path fill="#fcf7d1" d="M 712 280 C 729 290 746 301 762 313 C 754 366 752 420 759 473 C 744 485 727 496 710 505 C 693 431 697 354 712 280 Z" />
<path fill="#bb4c14" d="M 217 350 C 232 327 251 306 272 288 C 273 296 275 304 276 312 C 261 323 247 335 234 348 C 229 349 223 350 217 350 Z" />
<path fill="#bb4c14" d="M 769 288 C 787 304 804 322 818 342 C 813 344 809 345 805 347 C 792 334 778 323 764 312 C 766 304 767 296 769 288 Z" />
<path fill="#000000" d="M 466 299 C 475 298 484 301 491 307 C 502 316 508 329 510 342 C 512 359 510 376 501 391 C 495 399 487 406 476 408 C 467 410 457 406 450 400 C 440 391 434 377 432 364 C 430 347 433 330 442 316 C 447 308 456 301 466 299 Z" />
<path fill="#000000" d="M 565 299 C 574 298 584 301 591 308 C 602 318 608 332 609 346 C 611 363 607 380 598 393 C 592 401 583 408 573 408 C 563 409 553 404 546 397 C 536 387 532 372 531 359 C 529 343 533 327 542 315 C 547 307 555 301 565 299 Z" />
<path fill="#8e3811" d="M 447 313 C 453 306 462 301 471 301 C 480 301 488 306 494 313 C 504 323 508 337 509 351 C 495 343 479 340 463 342 C 453 344 443 348 434 353 C 434 338 438 324 447 313 Z" />
<path fill="#8e3811" d="M 546 312 C 552 306 560 301 570 301 C 579 301 588 306 594 313 C 603 324 607 338 607 351 C 594 343 578 340 563 342 C 552 344 542 348 532 353 C 532 338 537 323 546 312 Z" />
<path fill="#8e3811" d="M 910 310 C 911 309 912 307 915 307 C 910 326 901 343 889 357 C 880 370 867 379 853 386 C 831 398 806 406 782 411 C 778 412 773 413 770 409 C 765 402 768 390 777 389 C 804 386 831 379 855 365 C 878 352 898 334 910 310 Z" />
<path fill="#bb4c14" d="M 237 348 C 250 336 263 324 277 314 C 283 356 286 399 282 442 C 271 433 261 425 251 415 C 257 413 264 413 271 411 C 267 410 263 410 259 409 C 240 408 220 409 202 415 C 188 420 174 429 165 442 C 156 453 151 466 148 480 C 135 488 119 495 103 492 C 104 458 113 424 134 398 C 153 375 182 360 212 354 C 229 350 247 349 264 350 C 263 348 262 348 261 348 C 253 347 245 348 237 348 Z" />
<path fill="#8e3811" d="M 434 355 C 444 349 457 344 469 344 C 483 343 497 347 509 354 C 509 368 505 384 495 395 C 489 402 480 407 470 406 C 461 406 453 401 447 394 C 438 383 434 369 434 355 Z" />
<path fill="#8e3811" d="M 532 355 C 543 349 555 345 567 344 C 581 343 596 347 607 354 C 607 368 603 383 594 394 C 588 401 579 407 569 406 C 560 406 551 400 546 393 C 537 383 533 369 532 355 Z" />
<path fill="#8e3811" d="M 185 396 C 207 384 231 375 256 377 C 261 377 268 378 271 382 C 275 388 276 396 274 402 C 273 405 270 408 266 407 C 245 404 223 404 202 410 C 173 419 150 445 146 475 C 143 478 139 480 135 483 C 137 466 141 449 148 433 C 156 418 168 403 185 396 Z" />
<path fill="#000000" d="M 509 396 C 512 390 518 386 525 386 C 533 385 540 392 542 399 C 545 407 541 417 534 422 C 528 426 520 427 514 424 C 512 424 512 423 512 422 C 517 423 522 424 527 423 C 536 420 542 411 541 402 C 540 394 531 387 523 388 C 517 388 513 392 510 396 C 510 396 509 396 509 396 Z" />
<path fill="#e16f7b" d="M 417 393 C 425 392 433 392 440 397 C 443 399 446 403 444 407 C 443 412 438 414 434 416 C 426 418 417 418 409 414 C 405 412 402 407 403 403 C 405 397 411 394 417 393 Z" />
<path fill="#e16f7b" d="M 611 393 C 618 392 626 392 632 397 C 636 399 638 402 637 406 C 636 411 632 414 628 416 C 619 419 609 418 601 413 C 597 411 594 406 597 402 C 599 396 605 394 611 393 Z" />
<path fill="#000000" d="M 582 416 C 581 414 577 411 579 408 C 581 410 582 413 585 415 C 588 416 591 416 593 417 C 592 420 588 418 585 418 C 585 436 581 454 572 470 C 565 480 554 489 541 491 C 522 495 502 490 488 477 C 473 462 466 440 464 418 C 461 419 457 420 455 417 C 458 417 461 417 463 416 C 466 415 468 412 470 409 C 471 412 468 415 467 417 C 487 425 508 432 529 432 C 548 432 567 427 582 416 Z" />
<path fill="#8e3811" d="M 228 423 C 235 420 243 417 251 415 C 261 425 271 433 282 442 C 281 452 281 461 279 471 C 261 457 243 441 228 423 Z" />
<path fill="#ffffff" d="M 532 434 C 550 434 568 429 583 418 C 583 422 583 425 583 428 C 569 439 553 447 535 448 C 511 449 488 441 467 428 C 467 425 467 422 466 419 C 487 428 509 434 532 434 Z" />
<path fill="#8e3811" d="M 784 420 C 794 422 804 422 814 422 C 798 440 780 456 761 471 C 760 460 759 449 758 437 C 758 439 758 440 758 441 C 767 435 776 428 784 420 Z" />
<path fill="#bb4c14" d="M 825 422 C 827 422 828 422 830 421 C 823 434 815 445 805 456 C 793 470 780 483 765 494 C 765 493 765 491 764 489 C 788 470 810 448 825 422 Z" />
<path fill="#8e3811" d="M 817 422 C 820 422 822 422 825 422 C 810 448 788 470 764 489 C 763 484 763 479 762 474 C 782 458 800 441 817 422 Z" />
<path fill="#8e3811" d="M 219 428 C 221 427 223 426 226 424 C 242 442 260 459 279 474 C 278 479 277 484 276 489 C 254 472 234 452 219 428 Z" />
<path fill="#bb4c14" d="M 216 430 C 217 430 218 429 219 428 C 234 452 254 472 276 489 C 276 491 275 493 275 494 C 252 476 232 455 216 430 Z" />
<path fill="#e16f7b" d="M 487 473 C 502 467 519 464 536 467 C 545 468 555 472 564 476 C 554 486 540 491 526 490 C 512 490 497 484 487 473 Z" />
<path fill="#fcf7d1" d="M 149 491 C 150 482 151 474 154 467 C 160 469 167 473 170 480 C 173 487 171 496 166 503 C 162 508 156 512 150 515 C 150 515 151 516 151 516 C 156 514 161 511 165 507 C 179 511 192 519 200 531 C 204 539 208 548 206 557 C 204 568 197 579 190 588 C 186 576 180 564 177 551 C 179 550 181 549 182 547 C 180 547 178 549 175 550 C 173 550 172 550 170 551 C 171 552 173 552 175 552 C 179 567 187 582 190 597 C 192 606 192 615 187 622 C 180 630 169 633 159 630 C 149 627 142 620 136 612 C 128 598 126 581 127 565 C 127 565 126 565 126 565 C 124 584 127 604 140 619 C 129 621 116 623 106 617 C 100 614 98 607 94 601 C 89 589 88 575 90 562 C 88 562 88 564 88 565 C 86 579 88 594 95 607 C 85 605 75 600 70 591 C 65 580 68 568 69 557 C 72 543 75 529 85 518 C 91 521 97 523 103 523 C 102 521 99 521 98 521 C 91 520 84 516 81 510 C 78 504 79 496 82 490 C 86 481 94 475 103 471 C 102 479 101 486 101 494 C 109 499 118 501 128 500 C 135 499 143 495 149 491 Z" />
<path fill="#8e3811" d="M 333 506 C 335 495 337 484 339 472 C 339 473 339 475 339 475 C 383 496 431 508 480 511 C 522 515 565 513 607 505 C 640 499 672 489 702 475 C 703 486 705 496 708 506 C 680 522 651 534 620 542 C 544 562 460 558 386 531 C 368 524 350 516 333 506 Z" />
<path fill="#fcf7d1" d="M 281 475 C 296 487 313 498 330 508 C 329 514 327 520 325 527 C 308 518 292 507 277 496 C 278 489 280 482 281 475 Z" />
<path fill="#fcf7d1" d="M 710 508 C 727 498 744 487 760 475 C 761 482 762 489 764 496 C 748 507 732 518 715 527 C 713 520 712 514 710 508 Z" />
<path fill="#000000" d="M 837 494 C 841 491 842 487 845 484 C 847 487 848 491 852 494 C 854 497 858 498 861 500 C 858 502 854 504 851 507 C 848 510 846 513 845 517 C 843 513 841 509 838 507 C 835 504 831 502 828 500 C 831 498 835 497 837 494 Z" />
<path fill="#f0c64e" d="M 833 500 C 838 498 842 493 845 488 C 847 493 851 498 856 500 C 851 503 847 507 845 512 C 842 507 838 503 833 500 Z" />
<path fill="#8e3811" d="M 332 509 C 362 525 395 538 428 546 C 503 564 584 560 656 532 C 674 526 692 518 708 509 C 709 513 710 518 712 523 C 646 556 570 568 497 565 C 439 562 381 549 329 523 C 330 518 331 513 332 509 Z" />
<path fill="#bb4c14" d="M 329 523 C 381 549 439 562 497 565 C 570 568 646 556 712 523 C 712 524 713 526 713 528 C 682 544 648 556 614 563 C 572 572 530 574 487 571 C 432 568 377 554 327 528 C 328 526 328 524 329 523 Z" />
<path fill="#000000" d="M 790 534 C 793 538 794 543 798 547 C 803 554 810 558 817 561 C 817 561 817 562 817 562 C 809 565 801 570 796 577 C 794 581 793 586 790 589 C 787 581 782 572 774 567 C 770 565 766 563 762 561 C 768 559 773 557 778 553 C 784 548 787 541 790 534 Z" />
<path fill="#f0c64e" d="M 790 539 C 794 549 803 557 813 561 C 803 566 794 574 790 584 C 786 574 778 566 767 561 C 778 557 786 549 790 539 Z" />
<path fill="#bb4c14" d="M 648 567 C 660 561 670 554 681 546 C 699 571 717 597 729 626 C 734 640 738 655 736 669 C 735 683 726 695 715 702 C 703 709 688 709 675 707 C 656 704 639 695 622 686 C 618 684 614 682 611 679 C 610 677 610 675 610 673 C 610 662 612 651 618 641 C 621 637 625 633 630 630 C 635 634 640 637 646 638 C 648 639 652 637 652 634 C 653 629 651 624 648 619 C 642 604 633 592 624 579 C 626 578 627 578 629 577 C 639 592 649 607 654 624 C 654 626 656 628 657 630 C 659 626 660 623 660 620 C 660 602 655 584 648 567 Z" />
<path fill="#bb4c14" d="M 387 556 C 401 564 416 571 431 578 C 418 610 404 642 391 675 C 401 680 410 686 418 693 C 428 656 437 620 447 583 C 448 583 449 584 450 584 C 440 623 430 661 421 700 C 401 684 379 669 353 665 C 364 629 375 593 387 556 Z" />
<path fill="#8e3811" d="M 629 577 C 635 574 642 571 648 567 C 655 584 660 602 660 620 C 660 623 659 626 657 630 C 656 628 654 626 654 624 C 649 607 639 592 629 577 Z" />
<path fill="#8e3811" d="M 431 578 C 436 580 441 582 447 583 C 437 620 428 656 418 693 C 410 686 401 680 391 675 C 404 642 418 610 431 578 Z" />
<path fill="#000000" d="M 297 596 C 299 593 301 590 303 586 C 305 590 306 594 310 597 C 312 600 316 601 319 603 C 316 605 312 607 309 610 C 306 613 305 616 303 620 C 301 616 299 612 296 609 C 293 606 290 605 286 603 C 290 601 294 599 297 596 Z" />
<path fill="#f0c64e" d="M 291 603 C 296 601 300 596 303 591 C 305 596 309 601 314 603 C 309 606 305 610 303 615 C 300 610 296 606 291 603 Z" />
<path fill="#f0c64e" d="M 543 615 C 549 605 560 598 572 598 C 559 604 551 617 546 630 C 538 653 538 678 538 701 C 539 726 542 752 551 776 C 540 768 535 754 531 742 C 526 717 526 691 529 666 C 532 648 535 631 543 615 Z" />
<path fill="#fcf7d1" d="M 559 611 C 564 606 569 602 576 599 C 577 599 579 599 580 600 C 588 602 596 606 602 611 C 599 614 595 618 594 623 C 595 622 595 622 596 622 C 598 618 601 614 605 612 C 612 608 621 610 628 613 C 635 618 639 626 641 635 C 635 631 629 627 623 623 C 616 628 611 635 609 643 C 605 655 606 668 609 680 C 615 684 621 688 627 691 C 623 694 619 697 614 697 C 608 695 601 694 597 689 C 589 683 585 674 585 664 C 585 664 584 664 583 664 C 583 674 587 685 596 691 C 593 691 590 690 588 693 C 584 696 586 703 590 704 C 597 706 603 708 609 710 C 609 711 609 713 609 715 C 603 713 598 711 592 710 C 589 709 585 711 584 715 C 583 718 585 722 588 723 C 595 725 601 727 608 729 C 606 744 602 760 591 771 C 581 780 567 781 554 777 C 546 758 543 737 541 717 C 540 697 540 678 542 659 C 544 642 549 625 559 611 Z" />
<path fill="#fcf7d1" d="M 217 666 C 226 658 237 652 249 651 C 267 649 284 655 299 664 C 298 666 296 668 295 671 C 295 676 301 680 306 678 C 309 677 310 674 312 671 C 313 672 313 672 314 673 C 312 675 310 677 310 680 C 309 685 315 689 319 688 C 322 687 324 684 326 682 C 333 687 340 693 347 700 C 347 699 348 699 348 699 C 342 691 334 685 327 679 C 330 674 334 668 340 667 C 350 666 359 670 367 674 C 382 682 396 693 408 705 C 413 711 419 718 422 726 C 425 733 421 743 413 746 C 409 739 404 733 396 730 C 396 730 395 731 394 731 C 400 734 407 739 410 745 C 416 756 414 768 411 779 C 408 791 403 801 398 811 C 393 798 384 787 375 776 C 358 759 341 742 323 726 C 300 707 277 687 249 674 C 239 669 229 665 217 666 Z" />
<path fill="#8e3811" d="M 615 658 C 631 666 648 674 665 678 C 683 682 702 684 720 680 C 722 680 725 678 727 680 C 729 683 726 685 725 687 C 717 698 704 703 691 704 C 672 705 655 699 639 691 C 630 687 621 683 613 678 C 613 671 614 665 615 658 Z" />
<path fill="#f0c64e" d="M 303 664 C 307 662 312 666 310 670 C 309 672 308 674 306 676 C 302 679 296 673 298 669 C 299 667 301 665 303 664 Z" />
<path fill="#f0c64e" d="M 209 675 C 212 672 214 668 219 668 C 232 667 245 674 257 680 C 286 696 311 719 335 741 C 351 755 366 770 380 786 C 386 794 393 802 396 812 C 397 815 394 817 393 820 C 390 811 383 803 377 796 C 357 773 335 752 312 733 C 297 719 280 706 263 695 C 251 687 239 680 226 675 C 221 673 214 673 209 675 Z" />
<path fill="#f0c64e" d="M 318 673 C 322 672 326 676 324 680 C 323 682 321 684 319 686 C 315 688 310 682 312 678 C 314 676 315 674 318 673 Z" />
<path fill="#f0c64e" d="M 590 694 C 592 692 595 694 598 694 C 603 696 608 697 614 699 C 617 701 616 708 611 708 C 606 707 600 705 595 703 C 593 702 589 702 588 699 C 587 697 588 695 590 694 Z" />
<path fill="#f0c64e" d="M 589 712 C 594 711 598 714 603 715 C 606 716 609 717 612 718 C 615 720 614 725 611 726 C 609 727 607 726 605 726 C 600 724 594 722 589 720 C 585 719 585 713 589 712 Z" />
<path fill="#000000" d="M 457 838 C 499 837 541 837 584 839 C 619 841 654 843 690 847 C 707 849 724 852 741 855 C 751 858 761 860 770 866 C 773 868 777 871 775 875 C 772 880 765 882 760 884 C 741 891 722 893 703 896 C 666 901 629 904 592 906 C 520 909 447 908 375 904 C 340 901 305 898 271 892 C 259 889 247 887 235 882 C 232 880 228 878 226 874 C 225 871 228 868 230 866 C 236 862 244 860 251 858 C 272 852 293 849 314 847 C 362 841 409 839 457 838 Z" />
</svg>
