<?xml version="1.0" encoding="UTF-8" ?>
<!DOCTYPE svg PUBLIC "-//W3C//DTD SVG 1.1//EN" "http://www.w3.org/Graphics/SVG/1.1/DTD/svg11.dtd">
<svg width="1000pt" height="1000pt" viewBox="0 0 1000 1000" version="1.1" xmlns="http://www.w3.org/2000/svg">
<path fill="#a9f7e9"  d="M 0 0 L 1000 0 L 1000 1000 L 0 1000 L 0 0 Z" />
<path fill="#000072"  d="M 383 225 C 432 201 489 193 543 202 C 605 212 663 245 704 293 C 728 320 746 352 757 386 C 770 427 773 471 766 513 C 760 551 746 587 724 619 C 729 622 733 627 734 633 C 735 637 734 642 734 647 C 734 652 735 658 733 663 C 740 663 747 663 753 667 C 761 671 766 680 766 689 C 766 700 766 710 766 720 C 784 719 803 721 819 729 C 829 735 839 743 844 753 C 856 753 869 753 881 753 C 885 753 887 759 884 761 C 880 763 875 762 871 762 C 623 762 376 762 129 762 C 124 762 119 763 115 761 C 112 759 114 753 118 753 C 132 753 147 753 161 753 C 167 741 178 732 190 727 C 203 721 218 719 233 720 C 233 710 233 700 233 689 C 233 679 240 669 250 665 C 255 663 260 663 266 663 C 263 654 265 645 265 637 C 264 629 269 622 275 619 C 255 590 241 556 234 522 C 223 464 231 402 257 349 C 284 295 329 251 383 225 Z" />
<path fill="#c1eafe"  d="M 461 211 C 510 204 561 211 606 231 C 627 241 647 253 665 268 C 660 266 657 264 653 261 C 618 239 578 225 537 221 C 485 216 430 227 384 253 C 381 255 379 260 377 263 C 368 278 355 291 341 301 C 331 309 320 316 308 321 C 306 322 304 323 303 325 C 270 369 252 424 252 479 C 251 513 258 547 271 579 C 269 580 266 580 264 580 C 242 534 234 482 242 431 C 250 377 276 325 315 286 C 354 246 406 219 461 211 Z" />
<path fill="#82d4fa"  d="M 384 253 C 430 227 485 216 537 221 C 578 225 618 239 653 261 C 657 264 660 266 665 268 C 673 273 679 281 686 288 C 711 313 731 344 743 377 C 769 446 765 525 730 590 C 724 589 718 589 713 587 C 708 584 702 581 697 579 C 693 578 689 579 685 579 C 681 579 677 577 673 576 C 670 569 666 563 660 558 C 660 554 660 550 660 546 C 672 546 685 546 698 546 C 702 546 706 543 708 539 C 709 536 709 532 707 529 C 700 519 694 509 688 499 C 691 499 694 499 696 497 C 700 494 701 487 698 483 C 691 472 685 461 677 450 C 680 449 683 448 685 446 C 688 442 688 436 686 432 C 675 416 665 400 655 384 C 653 381 651 378 648 377 C 644 375 637 376 635 380 C 625 395 616 409 607 424 C 603 420 598 416 593 413 C 591 409 589 405 586 401 C 586 388 585 375 586 362 C 590 361 593 357 593 353 C 593 349 594 344 592 340 C 590 338 586 336 582 336 C 572 336 561 336 551 336 C 545 336 540 340 540 345 C 540 350 539 355 542 359 C 544 361 549 361 548 365 C 543 362 537 360 533 355 C 528 350 522 346 516 342 C 509 333 500 325 489 321 C 483 319 477 323 471 327 C 466 331 461 335 457 340 C 456 341 454 343 453 344 C 447 347 442 351 437 356 C 434 360 430 361 426 363 C 418 369 410 377 404 386 C 402 388 400 389 398 391 C 390 397 383 404 378 412 C 369 419 360 427 354 436 C 352 433 350 429 347 426 C 343 422 336 423 333 427 C 324 440 315 453 307 466 C 305 469 304 472 306 475 C 307 478 309 479 311 481 C 306 488 302 495 297 502 C 295 505 295 509 297 513 C 299 515 301 516 303 517 C 299 523 295 529 290 536 C 287 541 291 549 297 550 C 307 550 317 550 326 550 C 326 552 326 555 326 557 C 321 562 316 569 313 576 C 299 576 285 577 271 579 C 258 547 251 513 252 479 C 252 424 270 369 303 325 C 304 323 306 322 308 321 C 320 316 331 309 341 301 C 355 291 368 278 377 263 C 379 260 381 255 384 253 Z" />
<path fill="#e7f5fe"  d="M 480 242 C 483 241 488 241 491 241 C 496 241 498 247 496 251 C 494 253 490 253 487 253 C 484 253 480 254 478 251 C 476 248 477 244 480 242 Z" />
<path fill="#ffffff"  d="M 567 247 C 570 246 574 249 574 252 C 574 256 569 258 566 256 C 563 254 563 248 567 247 Z" />
<path fill="#e7f5fe"  d="M 503 266 C 499 264 501 257 506 257 C 521 257 536 257 551 256 C 554 257 557 256 559 259 C 561 261 561 264 561 267 C 572 267 582 267 593 267 C 595 266 598 268 598 270 C 599 274 597 277 593 277 C 580 277 567 277 555 277 C 552 277 550 278 549 281 C 548 284 550 287 553 287 C 561 288 570 287 578 287 C 582 288 584 293 581 296 C 578 299 574 298 571 298 C 573 303 572 310 568 314 C 565 316 560 315 558 312 C 557 309 558 306 557 304 C 555 301 553 298 549 298 C 541 298 533 299 525 299 C 523 299 520 298 519 297 C 518 294 519 290 516 288 C 514 287 512 286 511 287 C 509 287 508 288 507 289 L 507 288 C 495 288 483 288 470 288 C 468 288 465 289 463 286 C 461 283 463 278 467 278 C 483 278 499 278 515 277 C 519 277 521 271 517 268 C 513 266 507 269 503 266 Z" />
<path fill="#ffffff"  d="M 429 259 C 433 258 437 262 435 265 C 434 269 429 270 427 267 C 424 265 425 260 429 259 Z" />
<path fill="#ffffff"  d="M 507 289 C 508 288 509 287 511 287 C 512 286 514 287 516 288 C 517 291 517 294 514 296 C 510 299 504 293 507 289 Z" />
<path fill="#ffffff"  d="M 342 310 C 345 308 349 312 349 316 C 348 319 344 321 341 319 C 337 317 338 311 342 310 Z" />
<path fill="#ffffff"  d="M 602 315 C 605 313 609 316 609 320 C 609 324 604 326 601 323 C 598 321 598 316 602 315 Z" />
<path fill="#fcfcfc"  d="M 460 347 C 466 339 474 332 484 328 C 485 327 486 328 488 328 C 497 332 505 339 511 347 C 519 352 526 358 532 364 C 543 369 552 377 559 386 C 562 388 563 392 566 394 C 575 400 583 407 587 417 C 595 422 603 429 609 436 C 610 439 612 441 612 444 C 611 447 608 446 607 445 C 600 442 594 438 588 433 C 583 428 577 423 575 416 C 568 411 561 405 555 399 C 553 396 552 393 550 391 C 544 388 539 383 535 378 C 532 376 529 375 526 374 C 518 369 511 362 505 355 C 502 352 498 350 495 348 C 492 345 489 340 484 342 C 480 344 477 347 474 349 C 471 352 467 353 465 356 C 459 363 453 369 445 373 C 442 375 439 376 437 379 C 432 383 428 387 423 391 C 421 392 420 393 419 394 C 414 403 405 410 397 416 C 393 425 385 432 378 438 C 373 441 369 444 364 445 C 362 446 359 446 359 444 C 360 440 362 438 364 435 C 370 428 377 422 384 417 C 389 406 399 399 408 392 C 415 380 427 370 439 364 C 445 358 452 352 460 347 Z" />
<path fill="#d96060"  d="M 548 346 C 548 345 549 344 550 345 C 550 346 550 346 548 346 Z" />
<path fill="#fbaea6"  d="M 550 345 C 561 344 573 344 584 345 C 580 346 577 346 573 346 C 567 346 560 345 554 346 C 551 347 552 352 549 352 L 549 352 C 547 351 549 348 548 346 C 550 346 550 346 550 345 Z" />
<path fill="#c64a54"  d="M 584 345 L 585 345 C 585 347 585 350 585 353 C 584 354 582 354 580 354 C 573 354 566 354 558 354 C 563 352 569 350 573 346 C 577 346 580 346 584 345 Z" />
<path fill="#f85c4d"  d="M 554 346 C 560 345 567 346 573 346 C 569 350 563 352 558 354 C 555 354 551 355 548 352 L 549 352 L 549 352 C 552 352 551 347 554 346 Z" />
<path fill="#ffffff"  d="M 413 348 C 416 346 421 350 420 354 C 419 357 414 359 411 357 C 408 354 409 349 413 348 Z" />
<path fill="#f85c4d"  d="M 471 359 C 476 356 481 353 486 349 C 488 351 491 354 494 356 C 497 358 500 359 502 361 C 509 370 518 377 528 383 C 533 387 538 392 543 396 C 547 398 549 403 552 406 C 557 412 563 416 569 421 C 575 431 583 439 593 445 C 596 448 601 450 605 452 C 608 453 608 456 609 458 C 609 464 604 468 598 468 C 595 467 593 465 591 462 C 587 458 582 454 579 450 C 579 448 581 446 579 444 C 577 443 575 444 574 445 C 548 419 522 393 496 367 C 493 364 490 359 486 359 C 481 359 479 363 476 365 C 456 386 435 407 415 427 C 415 425 415 423 412 422 C 409 420 405 424 407 427 C 407 430 410 430 412 430 C 401 442 389 454 378 465 C 375 468 369 468 366 466 C 366 463 365 459 367 457 C 369 454 372 451 374 449 C 383 443 392 435 399 426 C 401 424 402 421 404 419 C 412 414 419 408 424 400 C 426 396 430 394 433 391 C 438 388 441 383 446 381 C 456 376 464 368 471 359 Z" />
<path fill="#c9cadf"  d="M 556 362 C 563 362 570 362 577 362 C 577 367 577 372 577 377 C 570 374 563 370 556 366 C 556 365 556 364 556 362 Z" />
<path fill="#fcfcfc"  d="M 556 366 C 563 370 570 374 577 377 C 577 382 577 388 577 393 C 574 390 570 389 567 385 C 565 381 561 377 557 373 C 555 372 556 369 556 366 Z" />
<path fill="#ffffff"  d="M 687 367 C 690 366 695 369 694 372 C 694 377 688 379 685 376 C 683 373 684 368 687 367 Z" />
<path fill="#cccce4"  d="M 387 468 C 420 435 453 401 486 368 C 519 401 552 435 585 468 C 584 501 585 534 585 567 C 582 567 579 567 577 566 C 577 540 577 513 577 486 C 577 481 577 477 576 473 C 574 469 571 466 568 463 C 541 437 515 411 489 385 C 488 384 486 382 484 383 C 480 384 478 388 475 390 C 446 420 416 449 387 479 C 387 475 387 472 387 468 Z" />
<path fill="#ffffff"  d="M 316 379 C 320 377 324 382 323 385 C 322 389 316 390 314 387 C 312 385 313 380 316 379 Z" />
<path fill="#ffffff"  d="M 475 390 C 478 388 480 384 484 383 C 486 382 488 384 489 385 C 515 411 541 437 568 463 C 571 466 574 469 576 473 C 577 477 577 481 577 486 C 577 513 577 540 577 566 C 575 566 573 567 571 567 C 569 563 568 559 567 556 C 572 553 573 546 570 541 C 569 537 565 537 562 536 C 562 522 563 508 562 494 C 562 489 558 485 553 485 C 535 485 517 485 499 485 C 493 485 489 489 489 494 C 489 508 489 522 489 536 C 485 536 481 538 480 542 C 479 546 479 551 482 554 C 484 556 487 556 489 556 C 491 561 494 565 496 570 C 490 570 483 570 477 570 C 475 565 470 561 465 560 C 465 536 465 513 465 490 C 468 489 472 486 472 483 C 472 479 473 475 471 472 C 469 470 466 469 464 469 C 446 469 429 469 412 469 C 409 469 406 470 404 472 C 402 475 402 479 402 483 C 403 486 406 489 410 490 C 410 513 410 536 410 560 C 404 561 400 565 398 570 C 394 570 390 570 387 570 C 387 540 387 509 387 479 C 416 449 446 420 475 390 Z" />
<path fill="#c5e1a6"  d="M 641 385 C 644 382 647 387 648 390 C 638 406 628 422 618 438 C 616 435 615 433 613 430 C 622 415 632 400 641 385 Z" />
<path fill="#8cc34b"  d="M 648 390 C 649 391 650 392 651 394 C 651 403 652 413 652 422 C 650 422 647 422 647 424 C 647 427 650 427 652 427 C 652 449 651 472 646 494 C 643 506 638 518 629 527 C 625 531 620 534 615 536 C 611 533 605 530 600 529 C 607 518 614 506 621 495 C 618 495 615 495 612 495 C 613 494 613 492 614 491 C 611 491 607 491 603 491 C 612 476 622 462 630 447 C 628 446 625 445 623 445 C 623 442 621 441 619 441 C 618 440 618 439 618 438 C 628 422 638 406 648 390 Z" />
<path fill="#709b53"  d="M 651 394 C 660 407 668 421 677 434 C 678 436 680 438 679 440 C 674 442 670 441 666 441 C 664 442 664 444 665 446 C 674 459 682 473 691 486 C 692 488 692 490 690 491 C 685 491 679 491 673 491 C 681 505 690 518 699 532 C 699 533 701 535 700 536 C 699 538 697 537 696 537 C 669 537 643 537 617 537 C 616 537 616 536 615 536 C 620 534 625 531 629 527 C 638 518 643 506 646 494 C 651 472 652 449 652 427 C 652 425 652 424 652 422 C 652 413 651 403 651 394 Z" />
<path fill="#000072"  d="M 480 401 C 495 398 511 409 513 424 C 516 439 505 455 490 457 C 475 459 459 448 458 433 C 455 418 466 404 480 401 Z" />
<path fill="#fed837"  d="M 488 408 C 489 408 490 408 490 408 C 490 408 489 408 488 408 C 488 410 488 411 488 413 C 494 413 499 415 503 417 C 505 420 506 423 507 426 C 500 426 494 426 488 426 C 488 420 488 414 488 408 Z" />
<path fill="#ccad41"  d="M 464 426 C 466 417 474 409 483 408 C 483 410 483 412 483 414 C 477 416 473 421 470 426 C 468 426 466 426 464 426 Z" />
<path fill="#ccad41"  d="M 488 408 C 489 408 490 408 490 408 C 496 409 500 413 503 417 C 499 415 494 413 488 413 C 488 411 488 410 488 408 Z" />
<path fill="#fed837"  d="M 470 426 C 473 421 477 416 483 414 C 483 418 483 422 483 426 C 479 426 474 426 470 426 Z" />
<path fill="#ffffff"  d="M 407 427 C 405 424 409 420 412 422 C 415 423 415 425 415 427 C 414 429 413 430 412 430 C 410 430 407 430 407 427 Z" />
<path fill="#ffffff"  d="M 647 424 C 647 422 650 422 652 422 C 652 424 652 425 652 427 C 650 427 647 427 647 424 Z" />
<path fill="#c5e1a6"  d="M 322 459 C 328 450 334 440 340 431 C 342 433 343 434 344 436 C 336 448 328 461 319 473 C 317 473 315 473 313 473 C 315 468 319 463 322 459 Z" />
<path fill="#c3a743"  d="M 464 431 C 466 431 467 431 468 431 C 469 435 469 438 469 442 C 467 439 465 435 464 431 Z" />
<path fill="#fed837"  d="M 468 431 C 473 431 478 431 483 431 C 483 437 483 444 483 450 C 478 449 473 446 469 442 C 469 438 469 435 468 431 Z" />
<path fill="#fed837"  d="M 488 431 C 494 431 500 431 507 431 C 505 441 498 448 488 450 C 488 444 488 437 488 431 Z" />
<path fill="#8cc34b"  d="M 344 436 C 345 438 347 440 348 442 C 348 450 349 458 349 467 C 349 484 347 502 339 518 C 332 531 319 541 304 541 C 310 531 317 522 323 512 C 321 512 318 512 316 512 C 317 511 318 509 319 508 C 316 508 313 508 310 508 C 316 498 323 489 329 479 C 331 476 326 477 324 477 C 325 476 326 474 326 473 C 324 473 322 473 319 473 C 328 461 336 448 344 436 Z" />
<path fill="#709b53"  d="M 348 442 C 350 445 353 449 355 453 C 353 460 355 468 361 473 C 359 473 357 473 355 473 C 362 485 370 496 377 508 C 372 508 367 508 362 508 C 367 516 373 523 377 531 C 373 534 369 537 366 541 C 345 541 325 541 304 541 L 304 541 C 319 541 332 531 339 518 C 347 502 349 484 349 467 C 349 458 348 450 348 442 Z" />
<path fill="#ffffff"  d="M 574 445 C 575 444 577 443 579 444 C 581 446 579 448 579 450 C 576 450 573 448 574 445 Z" />
<path fill="#c5e1a6"  d="M 617 454 C 619 451 621 448 623 445 C 625 445 628 446 630 447 C 622 462 612 476 603 491 C 601 491 599 491 597 491 C 595 490 595 488 596 487 C 598 483 600 480 603 476 C 609 475 615 470 616 464 C 617 460 617 457 617 454 Z" />
<path fill="#fbaea6"  d="M 363 456 C 364 451 370 451 374 449 C 372 451 369 454 367 457 C 365 459 366 463 366 466 C 363 463 362 459 363 456 Z" />
<path fill="#ffffff"  d="M 723 451 C 726 448 731 451 731 455 C 731 458 727 461 724 460 C 720 458 720 453 723 451 Z" />
<path fill="#ffffff"  d="M 275 460 C 278 458 283 461 282 465 C 282 468 278 471 274 469 C 271 467 271 461 275 460 Z" />
<path fill="#82d4fa"  d="M 370 481 C 372 479 374 477 377 475 C 377 481 377 486 377 492 C 375 488 372 484 370 481 Z" />
<path fill="#c5e1a6"  d="M 324 477 L 324 477 C 326 477 331 476 329 479 C 323 489 316 498 310 508 C 308 508 306 508 304 508 C 310 497 317 487 324 477 Z" />
<path fill="#fcfcfc"  d="M 409 476 C 422 476 435 476 447 476 C 439 481 429 481 420 483 C 417 483 413 483 410 482 C 409 480 409 478 409 476 Z" />
<path fill="#c9cadf"  d="M 447 476 C 453 476 459 476 465 476 C 465 478 466 480 465 482 C 464 483 462 483 461 483 C 447 483 433 483 420 483 C 429 481 439 481 447 476 Z" />
<path fill="#000072"  d="M 489 494 C 489 489 493 485 499 485 C 517 485 535 485 553 485 C 558 485 562 489 562 494 C 563 508 562 522 562 536 C 565 537 569 537 570 541 C 573 546 572 553 567 556 C 562 556 557 556 552 556 C 531 556 510 556 489 556 C 487 556 484 556 482 554 C 479 551 479 546 480 542 C 481 538 485 536 489 536 C 489 522 489 508 489 494 Z" />
<path fill="#fbaea6"  d="M 417 490 C 418 490 420 490 421 490 C 421 513 421 536 421 559 C 420 559 418 559 417 559 C 417 536 417 513 417 490 Z" />
<path fill="#f85c4d"  d="M 421 490 C 433 490 446 490 458 490 C 458 503 458 516 458 528 C 457 528 456 527 455 526 C 453 526 451 528 453 530 C 454 532 457 531 458 529 C 458 539 458 549 458 559 C 446 559 433 559 421 559 C 421 536 421 513 421 490 Z" />
<path fill="#fed837"  d="M 496 495 C 495 494 497 492 499 492 C 505 492 511 492 517 492 C 512 499 506 507 501 514 C 499 514 497 514 496 514 C 496 508 496 502 496 495 Z" />
<path fill="#feeb97"  d="M 517 492 C 519 492 521 492 523 492 C 523 494 523 497 523 499 C 519 504 515 509 512 514 C 508 514 505 514 501 514 C 506 507 512 499 517 492 Z" />
<path fill="#fed837"  d="M 528 492 C 531 492 535 492 538 492 C 535 497 532 501 528 506 C 528 501 528 497 528 492 Z" />
<path fill="#ffec9c"  d="M 538 492 C 543 492 548 492 553 492 C 557 494 555 498 555 501 C 552 506 549 510 546 514 C 540 514 534 514 528 514 C 528 512 528 509 528 506 C 532 501 535 497 538 492 Z" />
<path fill="#c5e1a6"  d="M 612 495 C 615 495 618 495 621 495 C 614 506 607 518 600 529 C 598 529 596 528 594 528 C 594 525 594 523 595 521 C 601 512 606 504 612 495 Z" />
<path fill="#81d4f9"  d="M 594 499 C 596 499 597 499 599 499 C 597 502 596 504 594 507 C 594 504 594 501 594 499 Z" />
<path fill="#fed837"  d="M 512 514 C 515 509 519 504 523 499 C 523 504 523 509 523 514 C 519 514 515 514 512 514 Z" />
<path fill="#fed837"  d="M 546 514 C 549 510 552 506 555 501 C 555 506 555 510 555 514 C 552 514 549 514 546 514 Z" />
<path fill="#ffffff"  d="M 347 507 C 349 505 352 506 352 509 C 353 511 350 513 348 512 C 346 511 345 508 347 507 Z" />
<path fill="#ffffff"  d="M 624 509 C 626 507 629 508 630 511 C 630 513 628 515 626 514 C 623 514 622 511 624 509 Z" />
<path fill="#ffffff"  d="M 706 510 C 709 508 714 511 713 514 C 713 518 709 521 706 518 C 702 517 702 511 706 510 Z" />
<path fill="#c5e1a6"  d="M 297 541 C 303 531 310 522 316 512 C 318 512 321 512 323 512 C 317 522 310 531 304 541 L 304 541 C 302 541 299 541 297 541 Z" />
<path fill="#000072"  d="M 425 515 C 428 513 432 516 432 520 C 432 523 428 525 425 523 C 422 521 422 517 425 515 Z" />
<path fill="#fee67c"  d="M 496 519 C 500 519 504 519 508 519 C 504 525 500 531 496 536 C 496 531 496 525 496 519 Z" />
<path fill="#fed837"  d="M 508 519 C 511 519 515 519 518 519 C 515 525 510 530 507 536 C 512 536 518 536 523 536 C 514 536 505 536 495 536 L 496 536 C 500 531 504 525 508 519 Z" />
<path fill="#ffe67c"  d="M 518 519 C 520 519 521 519 523 519 C 523 525 523 531 523 536 C 518 536 512 536 507 536 C 510 530 515 525 518 519 Z" />
<path fill="#ffe782"  d="M 528 519 C 533 519 537 519 542 519 C 539 524 536 528 533 533 C 532 534 530 536 528 537 C 528 531 528 525 528 519 Z" />
<path fill="#fed837"  d="M 542 519 C 547 519 551 519 555 519 C 555 525 555 531 555 536 C 546 536 537 536 528 537 C 530 536 532 534 533 533 C 536 528 539 524 542 519 Z" />
<path fill="#ffffff"  d="M 453 530 C 451 528 453 526 455 526 C 456 527 457 528 458 528 C 458 529 458 529 458 529 C 457 531 454 532 453 530 Z" />
<path fill="#9eb59b"  d="M 594 536 C 597 537 600 538 603 539 C 603 540 603 542 602 544 C 600 543 597 542 594 541 C 594 539 594 538 594 536 Z" />
<path fill="#c5e1a6"  d="M 602 544 C 603 542 603 540 603 539 C 611 543 618 549 623 557 C 631 555 639 556 647 559 C 653 562 659 568 663 574 C 661 574 659 574 656 573 L 656 573 C 648 562 633 558 620 561 C 616 554 610 548 603 544 L 602 544 Z" />
<path fill="#709b53"  d="M 594 541 C 597 542 600 543 602 544 L 603 544 C 603 552 603 559 603 567 C 600 567 597 567 594 567 C 594 558 594 550 594 541 Z" />
<path fill="#9eb59b"  d="M 368 553 C 370 549 373 545 377 542 C 377 544 377 547 377 549 C 374 552 371 556 369 560 L 369 559 C 368 557 368 555 368 553 Z" />
<path fill="#fbaea6"  d="M 487 544 C 503 543 519 544 535 543 C 543 543 551 544 559 544 C 561 544 563 543 565 544 C 558 545 552 544 546 545 C 528 545 510 545 491 545 C 489 544 488 547 488 549 L 487 549 C 487 548 487 546 487 544 Z" />
<path fill="#f85c4d"  d="M 488 549 C 488 547 489 544 491 545 C 510 545 528 545 546 545 C 540 547 534 548 528 549 C 515 549 501 549 488 549 L 488 549 Z" />
<path fill="#8cc34b"  d="M 603 544 C 610 548 616 554 620 561 C 633 558 648 562 656 573 C 638 570 621 568 603 567 C 603 559 603 552 603 544 Z" />
<path fill="#c64a55"  d="M 528 549 C 534 548 540 547 546 545 C 552 544 558 545 565 544 C 565 546 565 548 564 549 C 552 549 540 549 528 549 Z" />
<path fill="#4067b3"  d="M 626 546 C 627 545 629 547 627 548 C 626 549 625 547 626 546 Z" />
<path fill="#e4724b"  d="M 636 546 C 641 546 646 546 651 546 C 651 548 651 550 651 552 C 646 550 641 549 636 548 C 636 547 636 546 636 546 Z" />
<path fill="#5e4969"  d="M 335 551 C 334 550 336 549 337 550 C 338 551 335 552 335 551 Z" />
<path fill="#709b53"  d="M 369 560 C 371 556 374 552 377 549 C 377 556 377 563 377 570 C 372 571 368 574 366 579 C 364 578 361 578 359 578 C 361 575 362 573 365 571 C 366 569 369 568 368 566 C 369 564 369 562 369 560 Z" />
<path fill="#ffffff"  d="M 292 551 C 295 548 299 553 296 556 C 293 559 289 553 292 551 Z" />
<path fill="#c5e1a6"  d="M 368 553 C 368 555 368 557 369 559 C 361 557 352 558 345 561 C 338 564 332 569 328 576 C 326 576 324 576 322 576 C 327 566 337 558 348 555 C 354 553 360 554 367 555 C 367 554 368 554 368 553 Z" />
<path fill="#ffffff"  d="M 669 555 C 671 554 674 556 674 559 C 673 561 670 562 669 561 C 667 559 667 556 669 555 Z" />
<path fill="#cccce4"  d="M 552 556 C 557 556 562 556 567 556 C 568 559 569 563 571 567 C 548 567 526 568 504 570 C 495 571 486 570 477 570 L 477 570 C 483 570 490 570 496 570 C 494 565 491 561 489 556 C 510 556 531 556 552 556 Z" />
<path fill="#8cc34b"  d="M 345 561 C 352 558 361 557 369 559 L 369 560 C 369 562 369 564 368 566 C 369 568 366 569 365 571 C 362 573 361 575 359 578 C 349 577 338 576 328 576 C 332 569 338 564 345 561 Z" />
<path fill="#f9f9f9"  d="M 405 575 C 406 571 410 568 413 568 C 425 568 438 568 450 568 C 448 571 446 575 443 577 C 439 579 435 581 431 583 C 422 584 414 584 405 584 C 405 581 405 578 405 575 Z" />
<path fill="#c7c7df"  d="M 450 568 C 454 568 459 568 463 568 C 467 569 469 572 470 575 C 457 578 444 582 431 583 C 435 581 439 579 443 577 C 446 575 448 571 450 568 Z" />
<path fill="#f9f9f9"  d="M 545 576 C 569 575 592 575 615 576 C 605 586 591 591 578 596 C 542 607 505 611 468 614 C 466 614 465 613 463 613 C 445 609 427 603 412 593 C 425 592 439 591 452 588 C 483 580 514 577 545 576 Z" />
<path fill="#c7c7df"  d="M 615 576 C 634 578 652 581 671 585 C 689 588 707 595 726 598 C 722 605 718 611 713 618 C 615 618 517 618 419 618 C 415 615 410 616 406 615 C 377 616 348 615 319 616 C 309 615 299 616 289 615 C 308 615 327 613 345 608 C 352 606 359 603 364 597 C 366 594 365 590 365 587 C 377 588 388 591 400 592 C 404 592 408 592 412 593 C 427 603 445 609 463 613 C 454 615 446 614 437 615 C 442 616 447 616 452 616 C 460 615 468 616 476 615 C 473 615 471 614 468 614 C 505 611 542 607 578 596 C 591 591 605 586 615 576 Z" />
<path fill="#fcfcfc"  d="M 375 580 C 376 579 378 579 379 579 C 385 579 391 579 397 579 C 397 580 397 582 397 583 C 389 582 382 581 375 580 Z" />
<path fill="#67aadf"  d="M 685 579 C 689 579 693 578 697 579 C 702 581 708 584 713 587 C 703 585 694 582 685 579 Z" />
<path fill="#f9f9f9"  d="M 268 588 C 300 584 333 583 365 587 C 365 590 366 594 364 597 C 359 603 352 606 345 608 C 327 613 308 615 289 615 C 299 616 309 615 319 616 C 348 615 377 616 406 615 C 410 616 415 615 419 618 C 374 618 330 618 286 618 C 279 608 273 598 268 588 Z" />
<path fill="#a4a5cb"  d="M 437 615 C 446 614 454 615 463 613 C 465 613 466 614 468 614 C 471 614 473 615 476 615 C 468 616 460 615 452 616 C 447 616 442 616 437 615 Z" />
<path fill="#a4a4cb"  d="M 482 616 C 488 615 494 615 499 615 C 506 615 512 615 518 616 C 506 617 494 617 482 616 Z" />
<path fill="#6d7a8a"  d="M 277 630 C 280 627 285 628 289 628 C 282 629 277 635 275 641 C 274 637 274 633 277 630 Z" />
<path fill="#b6bdc5"  d="M 289 628 C 310 627 331 628 351 627 C 441 628 530 627 619 628 C 616 629 613 630 609 631 C 609 631 607 632 607 632 C 504 632 402 632 299 632 C 294 632 289 633 285 637 C 279 643 278 654 284 661 C 283 661 283 661 282 662 C 279 659 276 655 275 651 C 274 648 274 644 275 641 C 277 635 282 629 289 628 Z" />
<path fill="#8083ac"  d="M 619 628 C 643 627 667 628 692 627 C 698 628 704 627 710 628 C 714 629 716 631 719 632 C 715 632 711 632 707 632 C 678 632 649 632 619 632 C 616 632 613 631 609 631 C 613 630 616 629 619 628 Z" />
<path fill="#4c5482"  d="M 710 628 C 715 627 721 627 724 632 C 725 637 724 642 725 647 C 724 652 726 657 723 661 C 721 665 717 663 714 663 C 569 663 424 663 280 663 C 279 663 278 663 277 663 C 284 662 291 661 298 662 C 351 662 405 661 458 657 C 498 654 537 649 575 640 C 586 638 597 635 607 632 C 607 632 609 631 609 631 C 613 631 616 632 619 632 C 649 632 678 632 707 632 C 711 632 715 632 719 632 C 716 631 714 629 710 628 Z" />
<path fill="#6d7a8a"  d="M 285 637 C 289 633 294 632 299 632 C 402 632 504 632 607 632 C 597 635 586 638 575 640 C 537 649 498 654 458 657 C 405 661 351 662 298 662 C 291 661 284 662 277 663 C 274 659 274 655 275 651 C 276 655 279 659 282 662 C 283 661 283 661 284 661 C 278 654 279 643 285 637 Z" />
<path fill="#6d7a8a"  d="M 243 685 C 245 678 252 673 259 673 C 265 673 271 673 277 673 C 267 674 259 679 252 686 C 248 691 245 698 243 705 C 242 698 242 692 243 685 Z" />
<path fill="#b6bdc5"  d="M 277 673 C 326 673 375 673 424 673 C 489 673 554 673 619 673 C 618 675 616 677 614 678 C 614 678 613 678 613 679 C 506 678 398 678 290 678 C 280 678 269 682 262 690 C 252 698 248 711 250 724 C 251 732 255 739 260 745 C 251 739 245 730 243 720 C 242 715 242 710 243 705 C 245 698 248 691 252 686 C 259 679 267 674 277 673 Z" />
<path fill="#8083ac"  d="M 619 673 C 654 673 688 673 722 673 C 730 674 737 677 743 683 C 737 681 731 678 724 678 C 688 678 651 679 614 678 C 616 677 618 675 619 673 Z" />
<path fill="#4c5482"  d="M 722 673 C 729 673 736 672 743 673 C 740 673 738 673 735 674 C 742 678 749 682 756 686 L 756 686 C 757 701 757 715 756 730 C 754 736 751 741 748 747 C 719 737 689 729 659 722 C 637 717 614 714 591 712 C 580 711 570 711 559 710 C 578 702 597 693 613 679 C 613 678 614 678 614 678 C 651 679 688 678 724 678 C 731 678 737 681 743 683 C 737 677 730 674 722 673 Z" />
<path fill="#6d7a8a"  d="M 735 674 C 738 673 740 673 743 673 C 749 675 754 680 756 686 C 749 682 742 678 735 674 Z" />
<path fill="#6d7a8a"  d="M 262 690 C 269 682 280 678 290 678 C 398 678 506 678 613 679 C 597 693 578 702 559 710 C 554 711 549 711 544 711 C 513 713 481 720 456 738 C 391 748 326 749 261 747 C 263 748 264 750 266 752 C 259 752 252 752 247 747 C 240 740 243 729 243 720 C 245 730 251 739 260 745 C 255 739 251 732 250 724 C 248 711 252 698 262 690 Z" />
<path fill="#7c8896"  d="M 309 697 C 311 696 313 696 316 696 C 338 697 361 696 383 696 C 387 696 389 699 389 703 C 389 708 390 713 389 718 C 389 721 385 723 383 723 C 359 723 335 723 312 723 C 308 723 306 720 306 717 C 306 712 306 707 306 702 C 306 700 307 698 309 697 Z" />
<path fill="#f9f9f9"  d="M 504 725 C 538 717 575 718 611 722 C 611 727 612 731 609 735 C 605 743 596 747 587 750 C 543 751 499 750 454 750 C 468 737 486 730 504 725 Z" />
<path fill="#aeaed0"  d="M 611 722 C 647 727 683 735 718 746 C 723 747 729 749 733 751 C 691 751 648 750 606 751 C 599 750 593 751 587 750 C 596 747 605 743 609 735 C 612 731 611 727 611 722 Z" />
<path fill="#f9f9f9"  d="M 173 750 C 187 733 211 727 233 729 C 233 729 232 731 232 731 C 228 739 220 746 212 750 C 199 750 186 750 173 750 Z" />
<path fill="#f9f9f9"  d="M 766 729 C 778 727 791 728 802 732 C 802 734 801 737 800 740 C 797 744 794 746 790 749 L 790 750 C 780 750 771 750 762 750 C 766 744 767 736 766 729 Z" />
<path fill="#6d7a8a"  d="M 748 747 C 751 741 754 736 756 730 C 757 735 756 741 753 746 C 752 747 750 747 748 747 Z" />
<path fill="#aeaed0"  d="M 212 750 C 220 746 228 739 232 731 C 233 738 234 745 237 750 C 229 750 221 750 212 750 Z" />
<path fill="#aeaed0"  d="M 802 732 C 813 735 824 741 832 750 C 818 750 804 750 790 749 C 794 746 797 744 800 740 C 801 737 802 734 802 732 Z" />
<path fill="#4c5482"  d="M 261 747 C 326 749 391 748 456 738 C 451 742 445 747 442 752 C 383 752 324 752 266 752 C 264 750 263 748 261 747 Z" />
<path fill="#76acc4"  d="M 115 761 C 119 763 124 762 129 762 C 376 762 623 762 871 762 C 875 762 880 763 884 761 C 896 764 909 763 920 768 C 918 771 913 771 909 772 C 889 775 869 776 848 777 C 775 781 701 782 627 783 C 590 787 552 789 514 790 C 457 791 400 791 343 789 C 313 788 284 787 255 783 C 250 783 244 781 239 781 C 194 779 148 778 104 774 C 96 772 87 772 80 769 C 80 769 79 768 79 768 C 90 763 103 764 115 761 Z" />
</svg>
