<?xml version="1.0" encoding="UTF-8" ?>
<!DOCTYPE svg PUBLIC "-//W3C//DTD SVG 1.1//EN" "http://www.w3.org/Graphics/SVG/1.1/DTD/svg11.dtd">
<svg width="1001pt" height="1000pt" viewBox="0 0 1001 1000" version="1.1" xmlns="http://www.w3.org/2000/svg">
<path fill="#b0a7a7" opacity="0.69" d="M 0 0 L 0 0 C 1 333 0 666 1 1000 L 0 1000 L 0 0 Z" />
<path fill="#fff3f3"  d="M 0 0 L 1000 0 C 999 333 1000 666 999 1000 L 1 1000 C 0 666 1 333 0 0 " />
<path fill="#9f9898" opacity="0.62" d="M 1000 0 L 1001 0 L 1001 1000 L 999 1000 C 1000 666 999 333 1000 0 Z" />
<path fill="#4a0000"  d="M 475 122 C 491 113 512 112 529 121 C 542 127 552 140 556 154 C 562 171 563 189 561 207 C 559 233 553 258 547 284 C 551 285 555 285 560 286 C 565 256 569 225 578 195 C 584 178 595 162 611 152 C 619 146 629 143 639 143 C 659 143 678 154 689 170 C 698 183 702 198 702 214 C 703 236 696 258 683 277 C 671 294 656 309 640 322 C 670 345 694 378 705 414 C 716 448 716 484 708 518 C 703 539 695 559 681 575 C 670 588 655 598 639 605 C 640 613 640 621 640 629 C 646 627 652 627 657 630 C 664 633 668 639 670 646 C 678 644 687 647 692 653 C 701 663 701 678 698 690 C 710 697 719 707 725 719 C 733 736 736 756 736 775 C 735 792 731 810 722 826 C 708 848 683 863 657 863 C 652 864 647 863 642 863 C 639 872 629 876 621 878 C 603 884 584 885 565 884 C 553 883 540 882 529 876 C 522 873 518 866 515 860 C 509 846 505 832 501 817 C 495 830 488 842 480 853 C 476 858 472 863 466 867 C 462 870 456 871 451 872 C 438 874 425 874 412 872 C 400 871 388 869 377 864 C 372 861 367 858 365 853 C 363 845 365 836 369 829 C 371 824 374 820 376 815 C 378 783 380 751 382 719 C 379 713 376 706 374 699 C 359 702 343 700 330 694 C 313 686 299 672 293 654 C 290 642 290 630 296 619 C 301 611 308 605 316 601 C 321 598 327 596 332 596 C 336 579 342 562 352 548 C 341 534 333 518 329 501 C 323 476 325 451 329 426 C 334 403 344 380 358 361 C 380 329 413 305 449 292 C 441 268 435 244 433 219 C 431 199 432 178 440 159 C 447 144 459 129 475 122 " />
<path fill="#ffffff"  d="M 486 132 C 498 127 514 127 526 135 C 535 141 541 152 544 162 C 550 182 549 202 546 221 C 543 242 538 262 533 282 C 530 282 527 282 524 282 C 527 265 531 247 528 229 C 527 221 523 212 516 206 C 507 200 494 200 484 205 C 474 210 467 221 464 232 C 460 250 464 269 468 287 C 466 287 465 288 463 288 C 454 262 446 234 446 207 C 445 189 449 171 458 156 C 464 145 474 136 486 132 Z" />
<path fill="#ffffff"  d="M 626 159 C 637 155 649 157 659 162 C 670 168 679 177 683 189 C 691 206 690 226 684 243 C 679 260 669 274 658 287 C 649 297 638 305 628 314 C 628 314 627 313 626 313 C 636 304 645 293 649 280 C 652 269 652 258 647 248 C 643 239 634 232 624 230 C 618 229 612 231 607 234 C 599 239 593 248 591 257 C 588 269 586 281 583 293 C 580 292 577 290 573 290 C 578 264 581 238 588 213 C 590 204 592 195 596 187 C 603 175 613 164 626 159 Z" />
<path fill="#fc9db7"  d="M 484 205 C 494 200 507 200 516 206 C 523 212 527 221 528 229 C 531 247 527 265 524 282 C 505 281 486 283 468 287 C 464 269 460 250 464 232 C 467 221 474 210 484 205 Z" />
<path fill="#fc9db7"  d="M 607 234 C 612 231 618 229 624 230 C 634 232 643 239 647 248 C 652 258 652 269 649 280 C 645 293 636 304 626 313 C 613 304 598 298 583 293 C 586 281 588 269 591 257 C 593 248 599 239 607 234 Z" />
<path fill="#ffffff"  d="M 417 322 C 452 300 495 291 537 296 C 554 298 572 301 588 308 C 590 310 592 312 595 313 C 621 331 643 356 654 386 C 663 408 666 431 664 455 C 662 470 659 485 653 499 C 644 495 632 494 623 499 C 617 501 612 506 610 512 C 608 517 609 524 612 529 C 616 534 621 537 626 540 C 622 543 617 546 613 550 C 601 540 585 536 570 538 C 549 540 529 552 513 566 C 506 565 500 564 493 563 C 485 562 477 560 470 559 C 461 548 451 537 439 529 C 428 522 415 518 401 518 C 393 518 385 520 378 524 C 365 514 353 503 346 489 C 343 483 341 476 338 470 C 337 453 340 436 344 420 C 354 379 381 344 417 322 " />
<path fill="#ffd6e0"  d="M 588 308 C 621 320 649 342 669 371 C 690 400 701 435 700 471 C 700 490 698 510 692 529 C 686 546 677 563 663 575 C 655 582 646 588 637 592 C 633 576 625 561 613 550 C 617 546 622 543 626 540 C 635 543 645 544 654 541 C 660 539 666 535 669 530 C 671 524 671 518 669 512 C 665 506 660 502 653 499 C 659 485 662 470 664 455 C 666 431 663 408 654 386 C 643 356 621 331 595 313 C 592 312 590 310 588 308 Z" />
<path fill="#4a0000"  d="M 464 432 C 471 431 478 432 484 436 C 492 441 496 452 494 461 C 492 465 486 467 483 463 C 480 460 483 455 480 451 C 477 444 467 442 461 448 C 458 450 459 455 456 458 C 452 462 445 459 445 454 C 446 443 454 434 464 432 Z" />
<path fill="#4a0000"  d="M 607 452 C 614 451 622 453 628 457 C 634 463 638 472 636 480 C 636 484 631 486 627 485 C 625 483 623 480 624 477 C 624 472 621 467 616 465 C 611 463 604 466 601 472 C 600 474 600 477 598 478 C 596 481 591 480 589 477 C 587 475 588 471 589 469 C 591 460 599 454 607 452 Z" />
<path fill="#4a0000"  d="M 534 458 C 541 456 549 457 554 462 C 557 464 558 467 556 470 C 552 474 546 474 541 473 C 537 472 531 470 529 466 C 527 462 531 459 534 458 Z" />
<path fill="#fc9db7"  d="M 426 467 C 436 465 448 468 456 475 C 461 480 465 487 464 495 C 463 502 457 508 451 511 C 437 517 419 514 409 503 C 404 498 401 489 404 482 C 407 473 417 468 426 467 Z" />
<path fill="#ffd6e0"  d="M 338 470 C 341 476 343 483 346 489 C 353 503 365 514 378 524 C 371 527 365 532 360 537 C 345 518 338 494 338 470 Z" />
<path fill="#4a0000"  d="M 520 485 C 527 484 534 485 541 486 C 548 487 555 488 560 492 C 564 495 566 500 566 505 C 565 516 561 527 552 534 C 547 539 539 542 532 541 C 524 540 517 535 513 529 C 507 519 505 507 508 496 C 510 491 514 486 520 485 " />
<path fill="#fc9db7"  d="M 623 499 C 632 494 644 495 653 499 C 660 502 665 506 669 512 C 671 518 671 524 669 530 C 666 535 660 539 654 541 C 645 544 635 543 626 540 C 621 537 616 534 612 529 C 609 524 608 517 610 512 C 612 506 617 501 623 499 Z" />
<path fill="#fc9db7"  d="M 283 503 C 285 497 293 495 299 497 C 302 499 304 504 305 508 C 307 516 305 524 304 532 C 296 536 287 538 279 538 C 273 537 268 535 265 531 C 263 527 263 521 267 518 C 271 514 276 514 281 513 C 281 509 281 506 283 503 Z" />
<path fill="#fc9db7"  d="M 527 503 C 535 501 544 503 551 508 C 554 510 556 514 555 517 C 554 520 552 522 550 524 C 545 528 539 530 532 529 C 525 528 519 523 516 517 C 515 513 516 508 519 506 C 521 504 524 504 527 503 Z" />
<path fill="#f8cb70"  d="M 385 534 C 396 529 408 529 419 534 C 432 539 443 547 452 557 C 418 554 385 559 354 570 C 360 555 370 541 385 534 " />
<path fill="#ffe4ac"  d="M 394 533 C 398 531 403 532 405 536 C 411 544 403 558 393 557 C 386 556 384 548 386 543 C 387 538 390 535 394 533 Z" />
<path fill="#76f5ff"  d="M 566 551 C 576 549 587 550 597 554 C 606 559 613 568 618 578 C 606 587 589 590 574 587 C 557 585 542 576 525 572 C 537 562 551 554 566 551 Z" />
<path fill="#ffffff"  d="M 354 570 C 385 559 418 554 452 557 C 457 562 461 569 465 575 C 446 571 427 570 409 573 C 388 575 367 581 347 588 C 349 582 351 576 354 570 Z" />
<path fill="#ffd6e0"  d="M 470 559 C 477 560 485 562 493 563 C 500 564 506 565 513 566 C 504 575 495 585 488 596 C 484 583 478 571 470 559 Z" />
<path fill="#f8cb70"  d="M 409 573 C 427 570 446 571 465 575 C 468 580 471 586 474 593 C 433 584 391 592 353 606 C 351 603 348 600 345 599 C 345 595 346 592 347 588 C 367 581 388 575 409 573 " />
<path fill="#ffffff"  d="M 514 583 C 518 579 522 575 525 572 C 542 576 557 585 574 587 C 589 590 606 587 618 578 C 620 581 622 585 623 590 C 610 598 595 602 580 601 C 571 600 563 598 555 596 L 555 596 C 552 591 547 586 541 585 C 538 584 534 585 531 587 C 525 585 520 583 514 583 Z" />
<path fill="#ffe4ac"  d="M 384 579 C 389 578 391 584 390 588 C 388 593 383 597 378 594 C 373 589 377 580 384 579 Z" />
<path fill="#76f5ff"  d="M 492 622 C 495 607 504 594 514 583 C 520 583 525 585 531 587 C 522 592 520 601 519 610 C 512 611 506 614 502 619 C 498 624 497 631 496 637 C 494 638 492 639 491 640 C 491 634 492 628 492 622 Z" />
<path fill="#ffffff"  d="M 353 606 C 391 592 433 584 474 593 C 476 598 478 604 479 609 C 460 604 441 603 423 605 C 399 607 377 613 355 621 C 356 616 356 611 353 606 Z" />
<path fill="#76f5ff"  d="M 580 601 C 595 602 610 598 623 590 C 628 605 629 621 627 637 C 606 625 583 621 561 614 C 560 608 558 602 555 596 C 563 598 571 600 580 601 Z" />
<path fill="#fc9db7"  d="M 688 607 C 688 600 693 593 701 593 C 708 594 711 602 713 608 C 716 608 720 608 724 609 C 729 611 733 618 731 624 C 729 628 725 631 721 632 C 713 635 705 634 697 634 C 692 626 688 617 688 607 Z" />
<path fill="#ffffff"  d="M 534 601 C 535 599 536 598 537 598 C 540 597 542 599 544 601 C 547 607 549 613 550 620 C 550 622 552 624 555 625 C 573 631 593 635 611 643 C 617 646 623 648 628 653 C 629 660 630 668 626 674 C 623 681 616 685 609 687 C 594 692 577 692 561 691 C 543 690 525 685 508 680 L 508 680 C 502 670 503 658 507 647 C 510 641 508 634 511 629 C 513 624 519 622 524 623 C 527 624 531 621 531 618 C 531 612 531 606 534 601 Z" />
<path fill="#f8cb70"  d="M 355 621 C 377 613 399 607 423 605 C 441 603 460 604 479 609 C 481 622 479 635 475 646 C 468 663 454 677 437 684 C 423 690 406 691 392 686 C 383 684 375 680 369 674 C 369 671 369 667 369 663 C 372 665 376 668 380 667 C 385 667 389 664 390 660 C 393 649 381 635 370 639 C 365 640 363 645 362 649 C 361 647 361 645 361 643 C 360 637 357 631 353 627 C 353 625 354 623 355 621 L 355 621 " />
<path fill="#ffffff"  d="M 314 617 C 318 613 324 610 330 609 C 334 608 339 609 341 611 C 344 614 343 618 341 621 C 340 624 337 627 338 631 C 339 635 344 635 346 637 C 348 641 349 646 349 651 C 348 655 354 657 355 661 C 358 665 356 671 355 676 C 356 681 360 684 364 688 C 347 688 330 683 318 672 C 310 663 304 652 304 640 C 303 631 307 623 314 617 Z" />
<path fill="#ffffff"  d="M 410 625 C 413 623 418 624 421 626 C 432 633 434 652 423 660 C 417 665 408 663 404 657 C 396 648 397 630 410 625 Z" />
<path fill="#ffffff"  d="M 451 628 C 455 626 462 627 464 632 C 470 641 464 655 453 657 C 449 658 444 656 442 651 C 438 643 442 632 451 628 Z" />
<path fill="#ffffff"  d="M 491 640 C 492 639 494 638 496 637 C 496 642 493 647 492 652 C 492 648 491 644 491 640 Z" />
<path fill="#ffffff"  d="M 370 639 C 381 635 393 649 390 660 C 389 664 385 667 380 667 C 376 668 372 665 369 663 C 368 658 366 653 362 649 C 363 645 365 640 370 639 Z" />
<path fill="#ffffff"  d="M 640 646 C 642 643 645 640 648 640 C 653 640 656 643 657 647 C 658 650 658 654 659 658 C 659 660 661 661 664 662 C 664 667 664 672 663 676 C 662 681 658 683 657 688 C 657 672 650 657 640 646 Z" />
<path fill="#ffd4df"  d="M 628 653 C 636 658 640 667 643 676 C 645 682 645 691 640 696 C 635 700 629 702 623 704 C 607 708 589 707 572 705 C 557 703 542 699 527 694 C 520 691 513 687 508 680 C 525 685 543 690 561 691 C 577 692 594 692 609 687 C 616 685 623 681 626 674 C 630 668 629 660 628 653 Z" />
<path fill="#ffc6d4"  d="M 664 662 C 668 662 671 658 675 658 C 680 658 683 661 685 665 C 691 678 686 697 672 703 C 668 704 665 706 665 710 C 665 714 672 716 672 720 C 672 725 669 729 666 732 C 656 740 644 745 632 748 C 632 737 632 726 632 715 C 639 712 647 709 651 702 C 654 698 656 693 657 688 C 658 683 662 681 663 676 C 664 672 664 667 664 662 Z" />
<path fill="#ffdbe4"  d="M 480 664 C 480 663 481 661 482 660 C 488 678 500 694 515 704 C 529 712 545 716 561 716 C 580 719 600 721 619 718 C 620 746 618 774 617 801 C 616 812 615 822 619 832 C 622 838 627 843 630 849 C 631 854 631 860 626 862 C 618 867 608 869 599 870 C 592 871 586 872 580 872 C 586 868 593 865 596 858 C 600 848 596 838 592 829 C 587 822 587 813 585 804 C 583 785 582 765 580 745 C 580 743 581 739 579 737 C 575 736 570 736 565 735 C 546 733 528 727 513 717 C 500 709 490 697 485 683 C 482 677 481 670 480 664 Z" />
<path fill="#ffffff"  d="M 480 664 C 481 670 482 677 485 683 C 490 697 500 709 513 717 C 528 727 546 733 565 735 C 570 736 575 736 579 737 C 581 739 580 743 580 745 C 582 765 583 785 585 804 C 587 813 587 822 592 829 C 596 838 600 848 596 858 C 593 865 586 868 580 872 C 572 872 564 872 556 871 C 549 870 541 869 535 866 C 531 864 528 859 526 855 C 522 845 519 834 516 824 C 513 811 510 798 508 784 C 522 784 536 782 550 778 C 553 777 553 772 549 772 C 531 771 513 771 495 770 C 473 768 451 763 431 752 C 410 740 394 721 386 698 C 406 704 428 703 447 694 C 460 687 472 677 480 664 Z" />
<path fill="#ffcfdb"  d="M 682 711 C 686 709 689 705 692 702 C 695 703 697 704 699 706 C 696 709 693 713 691 717 C 689 717 686 718 684 718 C 683 716 683 714 682 711 Z" />
<path fill="#ffffff"  d="M 699 706 C 709 714 716 727 719 739 C 724 758 725 777 721 795 C 718 793 716 790 712 790 C 706 790 701 796 703 802 C 704 806 708 808 711 809 C 703 816 692 819 682 818 C 674 817 667 813 662 808 C 657 802 653 793 655 784 C 656 781 658 777 660 774 C 661 777 662 780 666 780 C 671 782 676 776 673 771 C 672 768 669 767 666 766 C 676 756 689 746 690 731 C 693 730 695 728 695 724 C 696 721 693 719 691 717 C 693 713 696 709 699 706 " />
<path fill="#d2e771"  d="M 684 718 C 686 718 689 717 691 717 C 693 719 696 721 695 724 C 695 728 693 730 690 731 C 687 731 685 730 683 729 C 684 725 684 722 684 718 Z" />
<path fill="#ffcfdb"  d="M 683 729 C 685 730 687 731 690 731 C 689 746 676 756 666 766 C 663 768 660 770 660 774 C 658 777 656 781 655 784 C 653 793 657 802 662 808 C 667 813 674 817 682 818 C 692 819 703 816 711 809 C 713 809 715 809 717 808 C 712 820 704 831 693 839 C 678 849 660 853 643 850 C 641 840 632 833 630 823 C 633 823 638 823 640 820 C 644 816 643 809 638 806 C 635 804 632 805 629 805 C 629 797 630 789 630 781 C 633 782 636 783 639 782 C 643 780 644 772 639 770 C 637 768 633 769 631 770 C 631 767 631 763 631 760 C 645 758 659 753 670 744 C 675 740 680 735 683 729 " />
<path fill="#ffd7e2"  d="M 393 736 C 403 747 413 756 426 763 C 447 775 471 781 495 783 C 496 788 496 793 497 797 C 489 814 481 831 470 846 C 465 851 461 857 454 859 C 444 861 434 861 424 861 C 412 860 401 859 390 855 C 409 854 427 847 441 835 C 447 829 454 822 457 814 C 459 808 460 801 456 796 C 453 790 447 787 441 785 C 426 780 414 771 403 760 C 400 755 397 751 394 746 C 393 747 393 748 393 749 C 393 745 393 740 393 736 Z" />
<path fill="#ffffff"  d="M 394 746 C 397 751 400 755 403 760 C 414 771 426 780 441 785 C 447 787 453 790 456 796 C 460 801 459 808 457 814 C 454 822 447 829 441 835 C 427 847 409 854 390 855 C 386 854 382 853 379 850 C 376 849 377 846 377 844 C 378 835 384 827 388 819 C 390 796 391 772 393 749 C 393 748 393 747 394 746 Z" />
<path fill="#f7aeb7"  d="M 698 752 C 704 749 712 752 715 759 C 718 765 715 773 709 776 C 702 779 694 776 691 769 C 688 763 692 755 698 752 Z" />
<path fill="#f8cb70"  d="M 660 774 C 660 770 663 768 666 766 C 669 767 672 768 673 771 C 676 776 671 782 666 780 C 662 780 661 777 660 774 Z" />
<path fill="#afa8ee"  d="M 631 770 C 633 769 637 768 639 770 C 644 772 643 780 639 782 C 636 783 633 782 630 781 C 630 777 631 773 631 770 Z" />
<path fill="#afa8ee"  d="M 703 802 C 701 796 706 790 712 790 C 716 790 718 793 721 795 C 720 800 718 804 717 808 C 715 809 713 809 711 809 C 708 808 704 806 703 802 Z" />
<path fill="#c4f0f9"  d="M 676 798 C 681 795 687 800 686 806 C 685 811 678 813 674 810 C 670 807 671 800 676 798 Z" />
<path fill="#f7aeb7"  d="M 629 805 C 632 805 635 804 638 806 C 643 809 644 816 640 820 C 638 823 633 823 630 823 L 630 823 C 629 817 629 811 629 805 Z" />
<path fill="#d2e771"  d="M 663 824 C 670 821 678 826 679 833 C 680 841 673 847 666 846 C 659 845 654 838 656 832 C 657 828 659 825 663 824 Z" />
</svg>
